<svg width="64" height="64" viewBox="0 0 64 64" fill="none" xmlns="http://www.w3.org/2000/svg">
<path d="M22.5 26C22.5 20.75 26.75 16.5 32 16.5C37.25 16.5 41.5 20.75 41.5 26C41.5 31.25 37.25 35.5 32 35.5"  stroke-width="3" stroke-miterlimit="10" stroke-linejoin="round"/>
<path d="M13.37 47.9L11.5 55.5L19.97 53.34C23.52 55.35 27.62 56.5 32 56.5C45.53 56.5 56.5 45.53 56.5 32C56.5 18.47 45.53 7.5 32 7.5C18.47 7.5 7.5 18.47 7.5 32C7.5 34.43 7.86 36.78 8.52 39"  stroke-width="3" stroke-miterlimit="10" stroke-linejoin="round"/>
<path d="M33 35.5H31.5V43"  stroke-width="3" stroke-miterlimit="10" stroke-linejoin="round"/>
<path d="M31.5 46V49"  stroke-width="3" stroke-miterlimit="10" stroke-linejoin="round"/>
</svg>
