<svg width="72" height="72" viewBox="0 0 72 72" fill="none" xmlns="http://www.w3.org/2000/svg">
<path d="M35.5 52V55"  stroke-width="3" stroke-miterlimit="10" stroke-linejoin="round"/>
<path d="M24.5 28.4998C24.5 22.0098 30.12 16.8398 36.75 17.5698C41.78 18.1298 45.87 22.2198 46.43 27.2498C47.1 33.3098 42.83 38.5298 37.14 39.3798C36.18 39.5198 35.5 40.3798 35.5 41.3498V47.9998"  stroke-width="3" stroke-miterlimit="10" stroke-linejoin="round"/>
<path d="M14.27 52.84L11 62L19.56 58.05C24.15 61.47 29.83 63.5 36 63.5C51.19 63.5 63.5 51.19 63.5 36C63.5 20.81 51.19 8.5 36 8.5C20.81 8.5 8.5 20.81 8.5 36C8.5 38.42 8.80999 40.77 9.39999 43"  stroke-width="3" stroke-miterlimit="10" stroke-linejoin="round"/>
</svg>
