<svg width="64" height="64" viewBox="0 0 64 64" fill="none" xmlns="http://www.w3.org/2000/svg">
<path d="M14.5 58.5H49.5C52.26 58.5 54.5 56.26 54.5 53.5V48.5C54.5 37.45 45.55 28.5 34.5 28.5H29.5C18.45 28.5 9.5 37.45 9.5 48.5V53.5C9.5 56.26 11.74 58.5 14.5 58.5Z"  stroke-width="3" stroke-miterlimit="10" stroke-linejoin="round"/>
<path d="M38.5 29V22.5H25.5V29"  stroke-width="3" stroke-miterlimit="10" stroke-linejoin="round"/>
<path d="M26.8201 22C26.8201 22 31.1601 13.39 31.1601 6.5H46.5001C48.5001 6.5 48.4801 8.36 48.5001 9.5C48.5601 12.48 45.5001 18.5 37.5001 22.5"  stroke-width="3" stroke-miterlimit="10" stroke-linejoin="round"/>
<path d="M15.5 12.5C15.5 12.5 15.5 20.5 25.5 22.5"  stroke-width="3" stroke-miterlimit="10" stroke-linejoin="round"/>
<path d="M31 8.5H20"  stroke-width="3" stroke-miterlimit="10" stroke-linejoin="round"/>
<path d="M36.5 39.5C36.5 37.29 34.71 35.5 32.5 35.5C30.29 35.5 28.5 37.29 28.5 39.5C28.5 41.71 30.29 43.5 32.5 43.5"  stroke-width="3" stroke-miterlimit="10" stroke-linejoin="round"/>
<path d="M28.5 47.5C28.5 49.71 30.29 51.5 32.5 51.5C34.71 51.5 36.5 49.71 36.5 47.5C36.5 45.29 34.71 43.5 32.5 43.5"  stroke-width="3" stroke-miterlimit="10" stroke-linejoin="round"/>
<path d="M32.5 32V36.5"  stroke-width="3" stroke-miterlimit="10" stroke-linejoin="round"/>
<path d="M32.5 50V55"  stroke-width="3" stroke-miterlimit="10" stroke-linejoin="round"/>
</svg>
