<svg width="24" height="24" viewBox="0 0 24 24" fill="none" xmlns="http://www.w3.org/2000/svg">
<path d="M5 22H18C19.1 22 20 21.1 20 20V19C20 14.58 16.42 11 12 11H11C6.58 11 3 14.58 3 19V20C3 21.1 3.9 22 5 22Z"  stroke-width="2" stroke-miterlimit="10" stroke-linejoin="round"/>
<path d="M14 11V8H9V11"  stroke-width="2" stroke-miterlimit="10" stroke-linejoin="round"/>
<path d="M18.0001 4C18.0201 5.15 17.1501 7.02 14.7201 8H10.3101C10.3101 8 11.9601 5.67 11.9601 3H17.0001C18.0001 3 17.9901 3.56 18.0001 4Z"  stroke-width="2" stroke-miterlimit="10" stroke-linejoin="round"/>
<path d="M12 4H6C6 4 6 8 9.75 8"  stroke-width="2" stroke-miterlimit="10" stroke-linejoin="round"/>
</svg>
