<svg width="72" height="72" viewBox="0 0 72 72" fill="none" xmlns="http://www.w3.org/2000/svg">
<path d="M16.5 66.5H55.5C58.81 66.5 61.5 63.81 61.5 60.5V52.5C61.5 40.35 51.65 30.5 39.5 30.5H32.5C20.35 30.5 10.5 40.35 10.5 52.5V60.5C10.5 63.81 13.19 66.5 16.5 66.5Z"  stroke-width="3" stroke-miterlimit="10" stroke-linejoin="round"/>
<path d="M43.5 32V24.5H28.5V32"  stroke-width="3" stroke-miterlimit="10" stroke-linejoin="round"/>
<path d="M30.1699 23.94C30.1699 23.94 35.0599 14.25 35.0599 6.5H52.3099C54.5599 6.5 54.5399 8.59 54.5599 9.88C54.6199 13.23 51.1799 20 42.1799 24.5"  stroke-width="3" stroke-miterlimit="10" stroke-linejoin="round"/>
<path d="M17.4399 11.8101C17.4399 11.8101 17.4999 22.5001 29.4999 24.5001"  stroke-width="3" stroke-miterlimit="10" stroke-linejoin="round"/>
<path d="M35 8.5H23"  stroke-width="3" stroke-miterlimit="10" stroke-linejoin="round"/>
<path d="M41.5 43.5C41.5 40.74 39.26 38.5 36.5 38.5C33.74 38.5 31.5 40.74 31.5 43.5C31.5 46.26 33.74 48.5 36.5 48.5"  stroke-width="3" stroke-miterlimit="10" stroke-linejoin="round"/>
<path d="M31.5 53.5C31.5 56.26 33.74 58.5 36.5 58.5C39.26 58.5 41.5 56.26 41.5 53.5C41.5 50.74 39.26 48.5 36.5 48.5"  stroke-width="3" stroke-miterlimit="10" stroke-linejoin="round"/>
<path d="M36.5 58.5V63"  stroke-width="3" stroke-miterlimit="10" stroke-linejoin="round"/>
<path d="M36.5 34V38"  stroke-width="3" stroke-miterlimit="10" stroke-linejoin="round"/>
</svg>
