<svg width="24" height="24" viewBox="0 0 24 24" fill="none" xmlns="http://www.w3.org/2000/svg">
<path d="M7.12002 9.36992C7.12002 10.8199 6.37002 11.9999 5.44002 11.9999C4.51002 11.9999 3.64001 10.6299 3.64001 9.16992"  stroke-width="2" stroke-miterlimit="10"/>
<path d="M11.6 9.37012C11.6 10.8201 10.85 12.0001 9.91999 12.0001C8.98999 12.0001 8.23999 10.8201 8.23999 9.37012"  stroke-width="2" stroke-miterlimit="10"/>
<path d="M16.09 9.37012C16.09 10.8201 15.34 12.0001 14.41 12.0001C13.48 12.0001 12.73 10.8201 12.73 9.37012"  stroke-width="2" stroke-miterlimit="10"/>
<path d="M20.69 9.08984C20.69 10.5398 19.82 11.9998 18.89 11.9998C17.96 11.9998 17.21 10.8198 17.21 9.36984"  stroke-width="2" stroke-miterlimit="10"/>
<path d="M4.5 11.5V19.17C4.5 19.64 4.9 20.02 5.4 20.02H18.6C19.1 20.02 19.5 19.64 19.5 19.17V11.5"  stroke-width="2" stroke-miterlimit="10"/>
<path d="M3.98 8.96979H20.08C20.97 8.96979 21.55 8.14979 21.15 7.44979L19.82 5.10979C19.62 4.74979 19.2 4.52979 18.75 4.52979H5.3C4.85 4.52979 4.43 4.75979 4.23 5.10979L2.91 7.44979C2.51 8.13979 3.09 8.96979 3.98 8.96979Z"  stroke-width="2" stroke-miterlimit="10"/>
</svg>
