<svg width="16" height="16" viewBox="0 0 16 16" fill="none" xmlns="http://www.w3.org/2000/svg">
<path d="M4.74999 6.23986C4.74999 7.20986 4.24999 7.99986 3.62999 7.99986C3.00999 7.99986 2.42999 7.07986 2.42999 6.10986"  stroke-width="2" stroke-miterlimit="10"/>
<path d="M7.74 6.24023C7.74 7.21023 7.24 8.00023 6.62 8.00023C6 8.00023 5.5 7.21023 5.5 6.24023"  stroke-width="2" stroke-miterlimit="10"/>
<path d="M10.73 6.24023C10.73 7.21023 10.23 8.00023 9.61001 8.00023C8.99001 8.00023 8.49001 7.21023 8.49001 6.24023"  stroke-width="2" stroke-miterlimit="10"/>
<path d="M13.79 6.06006C13.79 7.03006 13.21 8.00006 12.59 8.00006C11.97 8.00006 11.47 7.21006 11.47 6.24006"  stroke-width="2" stroke-miterlimit="10"/>
<path d="M3 7V12.43C3 12.75 3.27 13 3.6 13H12.4C12.73 13 13 12.75 13 12.43V7"  stroke-width="2" stroke-miterlimit="10"/>
<path d="M2.58 6H13.46C14.06 6 14.45 5.44 14.18 4.97L13.28 3.39C13.14 3.15 12.87 3 12.56 3H3.47C3.16 3 2.88 3.15 2.75 3.39L1.86 4.97C1.59 5.44 1.98 6 2.58 6Z"  stroke-width="2" stroke-miterlimit="10"/>
</svg>
