<svg width="40" height="40" viewBox="0 0 40 40" fill="none" xmlns="http://www.w3.org/2000/svg">
<path d="M8.99999 7H32.9C33.51 7 34.06 7.35 34.33 7.91L35.85 12.71C36.35 13.77 35.59 15 34.42 15H5.58999C4.43999 15 3.67 13.8 4.15 12.74L5.02999 9.79"  stroke-width="2" stroke-miterlimit="10"/>
<path d="M11.87 15.4602C11.87 17.1102 10.62 18.4502 9.07001 18.4502C7.52002 18.4502 6.08002 16.8902 6.08002 15.2402"  stroke-width="2" stroke-miterlimit="10"/>
<path d="M19.34 15.46C19.34 17.11 18.09 18.45 16.54 18.45C14.99 18.45 13.74 17.11 13.74 15.46"  stroke-width="2" stroke-miterlimit="10"/>
<path d="M26.81 15.46C26.81 17.11 25.56 18.45 24.01 18.45C22.46 18.45 21.21 17.11 21.21 15.46"  stroke-width="2" stroke-miterlimit="10"/>
<path d="M34.48 15.1499C34.48 16.7999 33.03 18.4599 31.49 18.4599C29.94 18.4599 28.69 17.1199 28.69 15.4699"  stroke-width="2" stroke-miterlimit="10"/>
<path d="M8 18V31.51C8 32.34 8.67 33 9.49 33H31.5C32.33 33 32.99 32.33 32.99 31.51V18"  stroke-width="2" stroke-miterlimit="10"/>
<path d="M27 28H24C23.45 28 23 27.55 23 27V24C23 23.45 23.45 23 24 23H27C27.55 23 28 23.45 28 24V27C28 27.55 27.55 28 27 28Z"  stroke-width="2" stroke-miterlimit="10"/>
<path d="M19 33H12V24C12 23.45 12.45 23 13 23H18C18.55 23 19 23.45 19 24V33Z"  stroke-width="2" stroke-miterlimit="10"/>
</svg>
