<svg width="72" height="72" viewBox="0 0 72 72" fill="none" xmlns="http://www.w3.org/2000/svg">
<path d="M17 13.5H58.07C59.1 13.5 60.03 14.07 60.48 14.98L63.04 22.78C63.89 24.51 62.6 26.5 60.63 26.5H12.02C10.08 26.5 8.78997 24.55 9.58997 22.83L11.07 18.04"  stroke-width="3" stroke-miterlimit="10"/>
<path d="M21.26 26.6702C21.26 30.2002 19.01 33.0602 16.24 33.0602C13.47 33.0602 10.88 29.7302 10.88 26.2002"  stroke-width="3" stroke-miterlimit="10"/>
<path d="M34.65 26.6699C34.65 30.1999 32.4 33.0599 29.63 33.0599C26.86 33.0599 24.61 30.1999 24.61 26.6699"  stroke-width="3" stroke-miterlimit="10"/>
<path d="M48.04 26.6699C48.04 30.1999 45.79 33.0599 43.02 33.0599C40.25 33.0599 38 30.1999 38 26.6699"  stroke-width="3" stroke-miterlimit="10"/>
<path d="M61.77 26C61.77 29.53 59.18 33.06 56.41 33.06C53.64 33.06 51.39 30.2 51.39 26.67"  stroke-width="3" stroke-miterlimit="10"/>
<path d="M13.5 32V55.82C13.5 57.3 14.7 58.5 16.18 58.5H55.83C57.31 58.5 58.51 57.3 58.51 55.82V32"  stroke-width="3" stroke-miterlimit="10"/>
<path d="M48.5 49.5H43.5C42.4 49.5 41.5 48.6 41.5 47.5V42.5C41.5 41.4 42.4 40.5 43.5 40.5H48.5C49.6 40.5 50.5 41.4 50.5 42.5V47.5C50.5 48.6 49.6 49.5 48.5 49.5Z"  stroke-width="3" stroke-miterlimit="10"/>
<path d="M33.5 58.5H21.5V42.5C21.5 41.4 22.4 40.5 23.5 40.5H31.5C32.6 40.5 33.5 41.4 33.5 42.5V58.5Z"  stroke-width="3" stroke-miterlimit="10"/>
</svg>
