<svg width="64" height="64" viewBox="0 0 64 64" fill="none" xmlns="http://www.w3.org/2000/svg">
<path d="M15 11.5H52.51C53.46 11.5 54.32 12.03 54.73 12.86L57.09 20.06C57.87 21.65 56.68 23.5 54.87 23.5H9.99999C8.20999 23.5 7.01999 21.7 7.75999 20.11L9.13 15.69"  stroke-width="3" stroke-miterlimit="10"/>
<path d="M18.99 24.7401C18.99 27.3801 16.98 29.5301 14.51 29.5301C12.04 29.5301 9.71997 27.0301 9.71997 24.3901"  stroke-width="3" stroke-miterlimit="10"/>
<path d="M30.95 24.7402C30.95 27.3802 28.94 29.5302 26.47 29.5302C24 29.5302 21.99 27.3902 21.99 24.7402"  stroke-width="3" stroke-miterlimit="10"/>
<path d="M42.9 24.7402C42.9 27.3802 40.89 29.5302 38.42 29.5302C35.95 29.5302 33.94 27.3902 33.94 24.7402"  stroke-width="3" stroke-miterlimit="10"/>
<path d="M55.16 24.23C55.16 26.87 52.85 29.52 50.37 29.52C47.89 29.52 45.89 27.38 45.89 24.73"  stroke-width="3" stroke-miterlimit="10"/>
<path d="M12.5 29V50.11C12.5 51.43 13.57 52.5 14.89 52.5H50.11C51.43 52.5 52.5 51.43 52.5 50.11V29"  stroke-width="3" stroke-miterlimit="10"/>
<path d="M43.5 44.5H39.5C38.4 44.5 37.5 43.6 37.5 42.5V38.5C37.5 37.4 38.4 36.5 39.5 36.5H43.5C44.6 36.5 45.5 37.4 45.5 38.5V42.5C45.5 43.6 44.6 44.5 43.5 44.5Z"  stroke-width="3" stroke-miterlimit="10"/>
<path d="M30.5 52.5H19.5V38.5C19.5 37.4 20.4 36.5 21.5 36.5H28.5C29.6 36.5 30.5 37.4 30.5 38.5V52.5Z"  stroke-width="3" stroke-miterlimit="10"/>
</svg>
