<svg width="32" height="32" viewBox="0 0 32 32" fill="none" xmlns="http://www.w3.org/2000/svg">
<path d="M7.99998 6H25.67C26.13 6 26.54 6.26 26.74 6.68L27.88 10.28C28.26 11.08 27.68 12 26.81 12H5.18998C4.32998 12 3.74998 11.1 4.10998 10.31L4.76998 8.1"  stroke-width="2" stroke-miterlimit="10"/>
<path d="M9.5 12.3699C9.5 13.6899 8.49999 14.7599 7.25999 14.7599C6.01999 14.7599 4.87 13.5099 4.87 12.1899"  stroke-width="2" stroke-miterlimit="10"/>
<path d="M15.47 12.3701C15.47 13.6901 14.47 14.7601 13.23 14.7601C11.99 14.7601 10.99 13.6901 10.99 12.3701"  stroke-width="2" stroke-miterlimit="10"/>
<path d="M21.45 12.3701C21.45 13.6901 20.45 14.7601 19.21 14.7601C17.97 14.7601 16.97 13.6901 16.97 12.3701"  stroke-width="2" stroke-miterlimit="10"/>
<path d="M27.58 12.1201C27.58 13.4401 26.42 14.7701 25.19 14.7701C23.95 14.7701 22.95 13.7001 22.95 12.3801"  stroke-width="2" stroke-miterlimit="10"/>
<path d="M6 14V24.8C6 25.46 6.54 26 7.2 26H24.8C25.46 26 26 25.46 26 24.8V14"  stroke-width="2" stroke-miterlimit="10"/>
<path d="M21 22H19C18.45 22 18 21.55 18 21V19C18 18.45 18.45 18 19 18H21C21.55 18 22 18.45 22 19V21C22 21.55 21.55 22 21 22Z"  stroke-width="2" stroke-miterlimit="10"/>
<path d="M15 26H9V19C9 18.45 9.45 18 10 18H14C14.55 18 15 18.45 15 19V26Z"  stroke-width="2" stroke-miterlimit="10"/>
</svg>
