<svg width="24" height="24" viewBox="0 0 24 24" fill="none" xmlns="http://www.w3.org/2000/svg">
<path d="M2 4.75C2 4.34 2.34 4 2.75 4H21.19C21.63 4 22 4.35 22 4.79V20.22C22 20.65 21.64 21.01 21.19 21.01H2.81C2.36 21 2 20.65 2 20.21V4.75Z"  stroke-width="2" stroke-miterlimit="10"/>
<path d="M7 2V6"  stroke-width="2" stroke-miterlimit="10"/>
<path d="M17 2V6"  stroke-width="2" stroke-miterlimit="10"/>
<path d="M3 8H21"  stroke-width="2" stroke-miterlimit="10"/>
<rect x="5" y="11" width="4" height="3"/>
<rect x="5" y="15" width="4" height="3"/>
<rect x="10" y="11" width="4" height="3"/>
<rect x="10" y="15" width="4" height="3"/>
<rect x="15" y="11" width="4" height="3"/>
<rect x="15" y="15" width="4" height="3"/>
</svg>
