<svg width="16" height="16" viewBox="0 0 16 16" fill="none" xmlns="http://www.w3.org/2000/svg">
<path fill-rule="evenodd" clip-rule="evenodd" d="M13.76 8.1334C13.76 7.70674 13.72 7.30007 13.6533 6.90674H8V9.22674H11.2267C11.0933 9.98007 10.6667 10.6134 10.0333 11.0401V12.5467H11.9733C13.1067 11.5001 13.76 9.96674 13.76 8.1334Z" fill="#4285F4"/>
<path fill-rule="evenodd" clip-rule="evenodd" d="M7.99997 14.0001C9.61997 14.0001 10.98 13.4601 11.9733 12.5468L10.0333 11.0401C9.4933 11.4001 8.80663 11.6135 7.99997 11.6135C6.43997 11.6135 5.1133 10.5601 4.63997 9.14014H2.6333V10.6935C3.62663 12.6535 5.6533 14.0001 7.99997 14.0001Z" fill="#34A853"/>
<path fill-rule="evenodd" clip-rule="evenodd" d="M4.64 9.13997C4.52 8.77997 4.45333 8.39331 4.45333 7.99997C4.45333 7.60664 4.52 7.21997 4.64 6.85997V5.30664H2.63333C2.23333 6.11331 2 7.03331 2 7.99997C2 8.96664 2.23333 9.88664 2.64 10.6933L4.64 9.13997Z" fill="#FBBC05"/>
<path fill-rule="evenodd" clip-rule="evenodd" d="M7.99989 4.38667C8.87989 4.38667 9.67323 4.68667 10.2932 5.28667L12.0132 3.56667C10.9732 2.59333 9.61989 2 7.99989 2C5.65323 2 3.62656 3.34667 2.63989 5.30667L4.64656 6.86C5.11323 5.44 6.43989 4.38667 7.99989 4.38667Z" fill="#EA4335"/>
</svg>
