<svg width="32" height="32" viewBox="0 0 32 32" fill="none" xmlns="http://www.w3.org/2000/svg">
<path fill-rule="evenodd" clip-rule="evenodd" d="M27.52 16.2663C27.52 15.413 27.44 14.5997 27.3067 13.813H16V18.453H22.4533C22.1867 19.9597 21.3333 21.2263 20.0667 22.0797V25.093H23.9467C26.2133 22.9997 27.52 19.933 27.52 16.2663Z" fill="#4285F4"/>
<path fill-rule="evenodd" clip-rule="evenodd" d="M15.9997 28.0003C19.2397 28.0003 21.9597 26.9203 23.9464 25.0936L20.0664 22.0803C18.9864 22.8003 17.613 23.2269 15.9997 23.2269C12.8797 23.2269 10.2264 21.1203 9.27969 18.2803H5.26636V21.3869C7.25302 25.3069 11.3064 28.0003 15.9997 28.0003Z" fill="#34A853"/>
<path fill-rule="evenodd" clip-rule="evenodd" d="M9.28 18.2804C9.04 17.5604 8.90667 16.7871 8.90667 16.0004C8.90667 15.2138 9.04 14.4404 9.28 13.7204V10.6138H5.26667C4.46667 12.2271 4 14.0671 4 16.0004C4 17.9338 4.46667 19.7738 5.28 21.3871L9.28 18.2804Z" fill="#FBBC05"/>
<path fill-rule="evenodd" clip-rule="evenodd" d="M15.9998 8.77333C17.7598 8.77333 19.3465 9.37333 20.5865 10.5733L24.0265 7.13333C21.9465 5.18667 19.2398 4 15.9998 4C11.3065 4 7.25312 6.69333 5.27979 10.6133L9.29312 13.72C10.2265 10.88 12.8798 8.77333 15.9998 8.77333Z" fill="#EA4335"/>
</svg>
