<svg width="24" height="24" viewBox="0 0 24 24" fill="none" xmlns="http://www.w3.org/2000/svg">
<path fill-rule="evenodd" clip-rule="evenodd" d="M21.6 12.2222C21.6 11.5111 21.5333 10.8333 21.4222 10.1777H12V14.0444H17.3778C17.1556 15.3 16.4444 16.3555 15.3889 17.0666V19.5777H18.6222C20.5111 17.8333 21.6 15.2777 21.6 12.2222Z" fill="#4285F4"/>
<path fill-rule="evenodd" clip-rule="evenodd" d="M11.9999 21.9999C14.6999 21.9999 16.9665 21.0999 18.6221 19.5777L15.3888 17.0666C14.4888 17.6666 13.3443 18.0221 11.9999 18.0221C9.39986 18.0221 7.18875 16.2666 6.39986 13.8999H3.05542V16.4888C4.71098 19.7555 8.08875 21.9999 11.9999 21.9999Z" fill="#34A853"/>
<path fill-rule="evenodd" clip-rule="evenodd" d="M6.4 13.9001C6.2 13.3001 6.08889 12.6557 6.08889 12.0001C6.08889 11.3446 6.2 10.7001 6.4 10.1001V7.51123H3.05556C2.38889 8.85567 2 10.389 2 12.0001C2 13.6112 2.38889 15.1446 3.06667 16.489L6.4 13.9001Z" fill="#FBBC05"/>
<path fill-rule="evenodd" clip-rule="evenodd" d="M12 5.97778C13.4667 5.97778 14.7889 6.47778 15.8222 7.47778L18.6889 4.61111C16.9555 2.98889 14.7 2 12 2C8.08887 2 4.71109 4.24444 3.06665 7.51111L6.4111 10.1C7.18887 7.73333 9.39998 5.97778 12 5.97778Z" fill="#EA4335"/>
</svg>
