<svg width="40" height="40" viewBox="0 0 40 40" fill="none" xmlns="http://www.w3.org/2000/svg">
<path fill-rule="evenodd" clip-rule="evenodd" d="M35.3599 20.3556C35.3599 19.2178 35.2533 18.1334 35.0755 17.0845H20V23.2711H28.6044C28.2489 25.28 27.1111 26.9689 25.4222 28.1066V32.1244H30.5955C33.6177 29.3333 35.3599 25.2444 35.3599 20.3556Z" fill="#4285F4"/>
<path fill-rule="evenodd" clip-rule="evenodd" d="M19.9998 36C24.3198 36 27.9464 34.56 30.5953 32.1244L25.422 28.1067C23.982 29.0667 22.1509 29.6356 19.9998 29.6356C15.8398 29.6356 12.302 26.8267 11.0398 23.04H5.68872V27.1822C8.3376 32.4089 13.742 36 19.9998 36Z" fill="#34A853"/>
<path fill-rule="evenodd" clip-rule="evenodd" d="M11.04 23.0401C10.72 22.0801 10.5422 21.0489 10.5422 20.0001C10.5422 18.9512 10.72 17.9201 11.04 16.9601V12.8179H5.68888C4.62222 14.969 4 17.4223 4 20.0001C4 22.5778 4.62222 25.0312 5.70666 27.1823L11.04 23.0401Z" fill="#FBBC05"/>
<path fill-rule="evenodd" clip-rule="evenodd" d="M19.9998 10.3644C22.3465 10.3644 24.462 11.1644 26.1153 12.7644L30.702 8.17776C27.9287 5.58222 24.3198 4 19.9998 4C13.7421 4 8.33764 7.5911 5.70654 12.8177L11.0576 16.9599C12.3021 13.1733 15.8398 10.3644 19.9998 10.3644Z" fill="#EA4335"/>
</svg>
