<svg width="64" height="64" viewBox="0 0 64 64" fill="none" xmlns="http://www.w3.org/2000/svg">
<path fill-rule="evenodd" clip-rule="evenodd" d="M56.0199 32.044C56.0199 30.3018 55.8566 28.6413 55.5843 27.0352H32.5V36.5084H45.6755C45.1311 39.5845 43.3888 42.1706 40.8027 43.9129V50.065H48.7244C53.3521 45.7912 56.0199 39.5301 56.0199 32.044Z" fill="#4285F4"/>
<path fill-rule="evenodd" clip-rule="evenodd" d="M32.4995 56.0002C39.1144 56.0002 44.6678 53.7952 48.7238 50.0658L40.8022 43.9136C38.5972 45.3836 35.7933 46.2547 32.4995 46.2547C26.1295 46.2547 20.7123 41.9536 18.7795 36.1553H10.5857V42.498C14.6418 50.5013 22.9173 56.0002 32.4995 56.0002Z" fill="#34A853"/>
<path fill-rule="evenodd" clip-rule="evenodd" d="M18.7799 36.1551C18.29 34.6852 18.0177 33.1063 18.0177 31.5002C18.0177 29.8941 18.29 28.3152 18.7799 26.8452V20.5024H10.5861C8.95277 23.7963 8 27.553 8 31.5002C8 35.4474 8.95277 39.204 10.6133 42.4979L18.7799 36.1551Z" fill="#FBBC05"/>
<path fill-rule="evenodd" clip-rule="evenodd" d="M32.4996 16.7455C36.0929 16.7455 39.3323 17.9705 41.864 20.4205L48.8873 13.3972C44.6407 9.42277 39.1146 7 32.4996 7C22.9174 7 14.6419 12.4989 10.613 20.5022L18.8069 26.8449C20.7124 21.0466 26.1296 16.7455 32.4996 16.7455Z" fill="#EA4335"/>
</svg>
