<svg width="72" height="72" viewBox="0 0 72 72" fill="none" xmlns="http://www.w3.org/2000/svg">
<path fill-rule="evenodd" clip-rule="evenodd" d="M61.9 36.111C61.9 34.1554 61.7167 32.2915 61.4111 30.4888H35.5V41.1221H50.2889C49.6778 44.5749 47.7222 47.4777 44.8194 49.4332V56.3388H53.7111C58.9056 51.5415 61.9 44.5138 61.9 36.111Z" fill="#4285F4"/>
<path fill-rule="evenodd" clip-rule="evenodd" d="M35.4996 63.0001C42.9246 63.0001 49.1579 60.5251 53.7107 56.339L44.819 49.4334C42.344 51.0834 39.1968 52.0612 35.4996 52.0612C28.3496 52.0612 22.269 47.2334 20.0996 40.7251H10.9023V47.8445C15.4551 56.8279 24.744 63.0001 35.4996 63.0001Z" fill="#34A853"/>
<path fill-rule="evenodd" clip-rule="evenodd" d="M20.1 40.7255C19.55 39.0755 19.2444 37.3032 19.2444 35.5005C19.2444 33.6977 19.55 31.9255 20.1 30.2755V23.156H10.9028C9.06944 26.8532 8 31.0699 8 35.5005C8 39.931 9.06944 44.1477 10.9333 47.8449L20.1 40.7255Z" fill="#FBBC05"/>
<path fill-rule="evenodd" clip-rule="evenodd" d="M35.4998 18.9389C39.5331 18.9389 43.1692 20.3139 46.0109 23.0639L53.8942 15.1806C49.1275 10.7194 42.9248 8 35.4998 8C24.7442 8 15.4553 14.1722 10.9331 23.1556L20.1303 30.275C22.2692 23.7667 28.3498 18.9389 35.4998 18.9389Z" fill="#EA4335"/>
</svg>
