<svg width="64" height="64" viewBox="0 0 64 64" fill="none" xmlns="http://www.w3.org/2000/svg">
<path d="M25.21 48.5H5.5V42.5H20"  stroke-width="3" stroke-miterlimit="10" stroke-linejoin="round"/>
<path d="M14.5 10.51V21.5H49.5V10.1C49.5 9.22 48.78 8.5 47.9 8.5L16.5 8.51C15.39 8.51 14.5 9.41 14.5 10.51Z"  stroke-width="3" stroke-miterlimit="10" stroke-linejoin="round"/>
<path d="M50 24.5H56.5V13"  stroke-width="3" stroke-miterlimit="10" stroke-linejoin="round"/>
<path d="M13 24.5H8.5V15"  stroke-width="3" stroke-miterlimit="10" stroke-linejoin="round"/>
<path d="M14.5 54.5H6.5C5.95 54.5 5.5 54.05 5.5 53.5V48.5H15.5V53.5C15.5 54.05 15.05 54.5 14.5 54.5Z"  stroke-width="3" stroke-miterlimit="10" stroke-linejoin="round"/>
<path d="M31 29.5H21.5C20.95 29.5 20.5 29.95 20.5 30.5V43.5"  stroke-width="3" stroke-miterlimit="10" stroke-linejoin="round"/>
<path d="M32.5 9V23"  stroke-width="3" stroke-miterlimit="10" stroke-linejoin="round"/>
<path d="M25 42.5H14.5V21.5H49.5V29"  stroke-width="3" stroke-miterlimit="10" stroke-linejoin="round"/>
<path d="M5.5 42.5H14.5V33.5H6.5C5.95 33.5 5.5 33.95 5.5 34.5V42.5Z"  stroke-width="3" stroke-miterlimit="10" stroke-linejoin="round"/>
<path d="M60.5 51.5H24.5V41.5L26.62 38.5H58.38L60.5 41.5V51.5Z"  stroke-width="3" stroke-miterlimit="10" stroke-linejoin="round"/>
<path d="M56 45.5H50"  stroke-width="3" stroke-miterlimit="10" stroke-linejoin="round"/>
<path d="M35 45.5H29"  stroke-width="3" stroke-miterlimit="10" stroke-linejoin="round"/>
<path d="M56.2101 39.1402L54.39 30.1002C54.2 29.1702 53.38 28.4902 52.43 28.4902H32.2C31.25 28.4902 30.4301 29.1602 30.2401 30.1002L28.42 39.1402"  stroke-width="3" stroke-miterlimit="10" stroke-linejoin="round"/>
<path d="M33.5 51.5H27.5V53.5C27.5 55.16 28.84 56.5 30.5 56.5C32.16 56.5 33.5 55.16 33.5 53.5V51.5Z"  stroke-width="3" stroke-miterlimit="10" stroke-linejoin="round"/>
<path d="M56.5 51.5H50.5V53.5C50.5 55.16 51.84 56.5 53.5 56.5C55.16 56.5 56.5 55.16 56.5 53.5V51.5Z"  stroke-width="3" stroke-miterlimit="10" stroke-linejoin="round"/>
</svg>
