<svg width="40" height="40" viewBox="0 0 40 40" fill="none" xmlns="http://www.w3.org/2000/svg">
<path d="M13.08 30H3V26H13.01"  stroke-width="2" stroke-miterlimit="10" stroke-linejoin="round"/>
<path d="M9 6V13H31V6C31 5.45 30.55 5 30 5H10C9.45 5 9 5.45 9 6Z"  stroke-width="2" stroke-miterlimit="10" stroke-linejoin="round"/>
<path d="M31 15H35V8"  stroke-width="2" stroke-miterlimit="10" stroke-linejoin="round"/>
<path d="M8 15H5V9"  stroke-width="2" stroke-miterlimit="10" stroke-linejoin="round"/>
<path d="M8 34H4C3.45 34 3 33.55 3 33V30H9V33C9 33.55 8.55 34 8 34Z"  stroke-width="2" stroke-miterlimit="10" stroke-linejoin="round"/>
<path d="M18 19H14C13.45 19 13 19.4 13 19.89V27"  stroke-width="2" stroke-miterlimit="10" stroke-linejoin="round"/>
<path d="M20 5V14"  stroke-width="2" stroke-miterlimit="10" stroke-linejoin="round"/>
<path d="M13.08 26H9V13H31V18"  stroke-width="2" stroke-miterlimit="10" stroke-linejoin="round"/>
<path d="M3 26H9V20H4C3.45 20 3 20.45 3 21V26Z"  stroke-width="2" stroke-miterlimit="10" stroke-linejoin="round"/>
<path d="M15.4301 24.43L17.7701 17.67C17.9101 17.27 18.2901 17 18.7101 17H32.2701C32.7001 17 33.0901 17.28 33.2201 17.69L35.5001 24.65"  stroke-width="2" stroke-miterlimit="10" stroke-linejoin="round"/>
<path d="M38 32H13V26.2L14 24H37L38 26.13V32Z"  stroke-width="2" stroke-miterlimit="10" stroke-linejoin="round"/>
<path d="M15 32V34C15 35.1 15.9 36 17 36C18.1 36 19 35.1 19 34V32"  stroke-width="2" stroke-miterlimit="10" stroke-linejoin="round"/>
<path d="M32 32V34C32 35.1 32.9 36 34 36C35.1 36 36 35.1 36 34V32"  stroke-width="2" stroke-miterlimit="10" stroke-linejoin="round"/>
<path d="M34 28H30"  stroke-width="2" stroke-miterlimit="10" stroke-linejoin="round"/>
<path d="M21 28H17"  stroke-width="2" stroke-miterlimit="10" stroke-linejoin="round"/>
</svg>
