<svg width="72" height="72" viewBox="0 0 72 72" fill="none" xmlns="http://www.w3.org/2000/svg">
<path d="M32 54.5H6.5V47.5H32"  stroke-width="3" stroke-miterlimit="10" stroke-linejoin="round"/>
<path d="M16.5 24.5H55.5V11.3C55.5 10.31 54.69 9.5 53.7 9.5H18.5C17.4 9.5 16.5 10.4 16.5 11.5V24.5Z"  stroke-width="3" stroke-miterlimit="10" stroke-linejoin="round"/>
<path d="M56 28.5H62.5V16"  stroke-width="3" stroke-miterlimit="10" stroke-linejoin="round"/>
<path d="M15 28.5H9.5V18"  stroke-width="3" stroke-miterlimit="10" stroke-linejoin="round"/>
<path d="M16.5 61.5H7.5C6.95 61.5 6.5 61.05 6.5 60.5V54.5H17.5V60.5C17.5 61.05 17.05 61.5 16.5 61.5Z"  stroke-width="3" stroke-miterlimit="10" stroke-linejoin="round"/>
<path d="M38 34.5H24.5C23.95 34.5 23.5 34.95 23.5 35.5V49"  stroke-width="3" stroke-miterlimit="10" stroke-linejoin="round"/>
<path d="M36.5 10V26"  stroke-width="3" stroke-miterlimit="10" stroke-linejoin="round"/>
<path d="M28.17 47.5H16.5V24.5H55.5V31.61"  stroke-width="3" stroke-miterlimit="10" stroke-linejoin="round"/>
<path d="M6.5 47.5H16.5V38.5H7.5C6.95 38.5 6.5 38.95 6.5 39.5V47.5Z"  stroke-width="3" stroke-miterlimit="10" stroke-linejoin="round"/>
<path d="M68.5 58.5H30.5V48.78L33.5 44.5H66.5L68.5 48.05V58.5Z"  stroke-width="3" stroke-miterlimit="10" stroke-linejoin="round"/>
<path d="M60.81 32.5H39.2C38.22 32.5 37.39 33.21 37.23 34.17L35.5 44.5H64.5L62.78 34.17C62.62 33.21 61.78 32.5 60.81 32.5Z"  stroke-width="3" stroke-miterlimit="10" stroke-linejoin="round"/>
<path d="M36 51.5H42"  stroke-width="3" stroke-miterlimit="10" stroke-linejoin="round"/>
<path d="M57 51.5H63"  stroke-width="3" stroke-miterlimit="10" stroke-linejoin="round"/>
<path d="M36.5 63.5C34.84 63.5 33.5 62.16 33.5 60.5V58.5H39.5V60.5C39.5 62.16 38.16 63.5 36.5 63.5Z"  stroke-width="3" stroke-miterlimit="10" stroke-linejoin="round"/>
<path d="M62.5 63.5C60.84 63.5 59.5 62.16 59.5 60.5V58.5H65.5V60.5C65.5 62.16 64.16 63.5 62.5 63.5Z"  stroke-width="3" stroke-miterlimit="10" stroke-linejoin="round"/>
</svg>
