<svg width="64" height="64" viewBox="0 0 64 64" fill="none" xmlns="http://www.w3.org/2000/svg">
<path d="M55.67 26.95L52.25 26.35C50.09 25.97 49.06 23.47 50.31 21.68L52.3 18.83C52.58 18.43 52.53 17.89 52.19 17.55L46.45 11.81C46.11 11.47 45.57 11.42 45.17 11.7L42.32 13.69C40.52 14.95 38.03 13.91 37.65 11.75L37.05 8.33C36.97 7.85 36.55 7.5 36.07 7.5H27.95C27.46 7.5 27.05 7.85 26.97 8.33L26.37 11.75C25.99 13.91 23.49 14.94 21.7 13.69L18.85 11.7C18.45 11.42 17.91 11.47 17.57 11.81L11.83 17.55C11.49 17.89 11.44 18.43 11.72 18.83L13.71 21.68C14.97 23.48 13.93 25.97 11.77 26.35L8.35001 26.95C7.87001 27.03 7.52 27.45 7.52 27.93V36.05C7.52 36.54 7.87001 36.95 8.35001 37.03L11.77 37.63C13.93 38.01 14.96 40.51 13.71 42.3L11.72 45.15C11.44 45.55 11.49 46.09 11.83 46.43L17.57 52.17C17.91 52.51 18.45 52.56 18.85 52.28L21.7 50.29C23.5 49.03 25.99 50.07 26.37 52.23L26.97 55.65C27.05 56.13 27.47 56.48 27.95 56.48H36.07C36.56 56.48 36.97 56.13 37.05 55.65L37.65 52.23C38.03 50.07 40.53 49.04 42.32 50.29L45.17 52.28C45.57 52.56 46.11 52.51 46.45 52.17L52.19 46.43C52.53 46.09 52.58 45.55 52.3 45.15L50.31 42.3C49.05 40.5 50.09 38.01 52.25 37.63L55.67 37.03C56.15 36.95 56.5 36.53 56.5 36.05V27.93C56.5 27.45 56.15 27.04 55.67 26.95Z"  stroke-width="3" stroke-miterlimit="10" stroke-linejoin="round"/>
<path d="M32 41.5C37.25 41.5 41.5 37.25 41.5 32C41.5 26.75 37.25 22.5 32 22.5C26.75 22.5 22.5 26.75 22.5 32C22.5 34.28 23.3 36.36 24.63 38"  stroke-width="3" stroke-miterlimit="10" stroke-linejoin="round"/>
</svg>
