<svg width="32" height="32" viewBox="0 0 32 32" fill="none" xmlns="http://www.w3.org/2000/svg">
<path d="M12 24.31C12.84 24.42 13.58 25.06 13.72 26.01L14 28H18L18.28 26.01C18.49 24.51 20.24 23.78 21.46 24.69L23.07 25.9L25.9 23.07L24.69 21.46C23.78 20.24 24.5 18.5 26.01 18.28L28 18V14L26.01 13.72C24.51 13.51 23.78 11.76 24.69 10.54L25.9 8.93L23.07 6.1L21.46 7.31C20.24 8.22 18.5 7.5 18.28 5.99L18 4H14L13.72 5.99C13.51 7.49 11.76 8.22 10.54 7.31L8.93 6.1L6.1 8.93L7.31 10.54C8.22 11.76 7.5 13.5 5.99 13.72L4 14V18L5.99 18.28C7.49 18.49 8.22 20.24 7.31 21.46L6.1 23.07L8.93 25.9L10.54 24.69C10.99 24.36 11.51 24.24 12 24.31Z"  stroke-width="2" stroke-miterlimit="10" stroke-linejoin="round"/>
<path d="M16 20C18.21 20 20 18.21 20 16C20 13.79 18.21 12 16 12C13.79 12 12 13.79 12 16C12 17.19 12.52 18.27 13.35 19"  stroke-width="2" stroke-miterlimit="10" stroke-linejoin="round"/>
</svg>
