<svg width="16" height="16" viewBox="0 0 16 16" fill="none" xmlns="http://www.w3.org/2000/svg">
<path d="M12.93 9.75L15 9.4V6.6L12.93 6.25C12.69 6.22 12.58 5.94 12.72 5.75L13.94 4.04L11.96 2.06L10.25 3.28C10.06 3.42 9.78 3.31 9.75 3.07L9.4 1H6.6L6.25 3.07C6.22 3.31 5.94 3.42 5.75 3.28L4.04 2.06L2.06 4.04L3.28 5.75C3.42 5.94 3.31 6.22 3.07 6.25L1 6.6V9.4L3.07 9.75C3.31 9.78 3.42 10.06 3.28 10.25L2.06 11.96L4.04 13.94L5.75 12.72C5.94 12.58 6.22 12.69 6.25 12.93L6.6 15H9.4L9.75 12.93C9.78 12.69 10.06 12.58 10.25 12.72L11.74 13.78C11.87 13.87 12.04 13.86 12.15 13.75L13.94 11.96L12.72 10.25C12.58 10.06 12.69 9.78 12.93 9.75ZM8 10C6.9 10 6 9.1 6 8C6 6.9 6.9 6 8 6C9.1 6 10 6.9 10 8C10 9.1 9.1 10 8 10Z"/>
</svg>
