<svg width="40" height="40" viewBox="0 0 40 40" fill="none" xmlns="http://www.w3.org/2000/svg">
<path d="M36 17L33.02 16.4C31.62 16.12 30.96 14.51 31.75 13.33L33.43 10.8L29.19 6.56L26.66 8.24C25.48 9.03 23.87 8.36 23.59 6.97L23 4H17L16.4 6.98C16.12 8.38 14.51 9.04 13.33 8.25L10.8 6.57L6.56 10.81L8.24 13.34C9.03 14.52 8.36 16.13 6.97 16.41L4 17V23L6.98 23.6C8.38 23.88 9.04 25.49 8.25 26.67L6.57 29.2L10.81 33.44L13.34 31.76C14.52 30.97 16.13 31.64 16.41 33.03L17 36H23L23.6 33.02C23.88 31.62 25.49 30.96 26.67 31.75L29.2 33.43L33.44 29.19L31.76 26.66C30.97 25.48 31.64 23.87 33.03 23.59L36 23V17Z"  stroke-width="2" stroke-miterlimit="10" stroke-linejoin="round"/>
<path d="M20 26C23.31 26 26 23.31 26 20C26 16.69 23.31 14 20 14C16.69 14 14 16.69 14 20C14 21.54 14.58 22.94 15.53 24"  stroke-width="2" stroke-miterlimit="10" stroke-linejoin="round"/>
</svg>
