<svg width="24" height="24" viewBox="0 0 24 24" fill="none" xmlns="http://www.w3.org/2000/svg">
<path d="M22 10L19.89 9.65C19.16 9.53 18.81 8.68 19.24 8.08L20.48 6.34L17.65 3.51L15.91 4.75C15.31 5.18 14.46 4.83 14.34 4.1L14 2H10L9.65 4.11C9.53 4.84 8.68 5.19 8.08 4.76L6.34 3.52L3.51 6.35L4.75 8.09C5.18 8.69 4.83 9.54 4.1 9.66L2 10V14L4.11 14.35C4.84 14.47 5.19 15.32 4.76 15.92L3.52 17.66L6.35 20.49L8.09 19.25C8.69 18.82 9.54 19.17 9.66 19.9L10 22H14L14.35 19.89C14.47 19.16 15.32 18.81 15.92 19.24L17.66 20.48L20.49 17.65L19.25 15.91C18.82 15.31 19.17 14.46 19.9 14.34L22 14V10Z"  stroke-width="2" stroke-miterlimit="10" stroke-linejoin="round"/>
<path d="M12 15C13.6569 15 15 13.6569 15 12C15 10.3431 13.6569 9 12 9C10.3431 9 9 10.3431 9 12C9 13.6569 10.3431 15 12 15Z"  stroke-width="2" stroke-miterlimit="10" stroke-linejoin="round"/>
</svg>
