<svg width="72" height="72" viewBox="0 0 72 72" fill="none" xmlns="http://www.w3.org/2000/svg">
<path d="M62.67 30.35L58.16 29.55C56 29.17 54.97 26.67 56.22 24.88L58.85 21.13C59.13 20.73 59.08 20.19 58.74 19.85L52.15 13.26C51.81 12.92 51.27 12.87 50.87 13.15L47.12 15.78C45.32 17.04 42.83 16 42.45 13.84L41.65 9.33C41.57 8.85 41.15 8.5 40.67 8.5H31.35C30.86 8.5 30.45 8.85 30.37 9.33L29.57 13.84C29.19 16 26.69 17.03 24.9 15.78L21.15 13.15C20.75 12.87 20.21 12.92 19.87 13.26L13.28 19.85C12.94 20.19 12.89 20.73 13.17 21.13L15.8 24.88C17.06 26.68 16.02 29.17 13.86 29.55L9.35001 30.35C8.87001 30.43 8.52 30.85 8.52 31.33V40.65C8.52 41.14 8.87001 41.55 9.35001 41.63L13.86 42.43C16.02 42.81 17.05 45.31 15.8 47.1L13.17 50.85C12.89 51.25 12.94 51.79 13.28 52.13L19.87 58.72C20.21 59.06 20.75 59.11 21.15 58.83L24.9 56.2C26.7 54.94 29.19 55.98 29.57 58.14L30.37 62.65C30.45 63.13 30.87 63.48 31.35 63.48H40.67C41.16 63.48 41.57 63.13 41.65 62.65L42.45 58.14C42.83 55.98 45.33 54.95 47.12 56.2L50.87 58.83C51.27 59.11 51.81 59.06 52.15 58.72L58.74 52.13C59.08 51.79 59.13 51.25 58.85 50.85L56.22 47.1C54.96 45.3 56 42.81 58.16 42.43L62.67 41.63C63.15 41.55 63.5 41.13 63.5 40.65V31.33C63.5 30.85 63.15 30.44 62.67 30.35Z"  stroke-width="3" stroke-miterlimit="10" stroke-linejoin="round"/>
<path d="M35.5 47.5C41.58 47.5 46.5 42.58 46.5 36.5C46.5 30.42 41.58 25.5 35.5 25.5C29.42 25.5 24.5 30.42 24.5 36.5C24.5 39.4 25.62 42.04 27.45 44"  stroke-width="3" stroke-miterlimit="10" stroke-linejoin="round"/>
</svg>
