<svg width="64" height="64" viewBox="0 0 64 64" fill="none" xmlns="http://www.w3.org/2000/svg">
<path d="M58.83 18.43C58.19 16 56.29 14.1 53.88 13.45C49.51 12.27 32 12.27 32 12.27C32 12.27 14.49 12.27 10.12 13.45C7.71 14.1 5.81 16.01 5.17 18.43C4 22.83 4 32 4 32C4 32 4 41.17 5.17 45.57C5.81 48 7.71 49.9 10.12 50.55C14.49 51.73 32 51.73 32 51.73C32 51.73 49.51 51.73 53.88 50.55C56.29 49.9 58.19 47.99 58.83 45.57C60 41.17 60 32 60 32C60 32 60 22.83 58.83 18.43ZM26.27 40.33V23.67L40.91 32L26.27 40.33Z"/>
</svg>
