<svg width="16" height="16" viewBox="0 0 16 16" fill="none" xmlns="http://www.w3.org/2000/svg">
<path d="M14.71 4.61007C14.55 4.00007 14.07 3.53007 13.47 3.36007C12.38 3.07007 8 3.07007 8 3.07007C8 3.07007 3.62 3.07007 2.53 3.36007C1.93 3.52007 1.45 4.00007 1.29 4.61007C1 5.71007 1 8.00007 1 8.00007C1 8.00007 1 10.2901 1.29 11.3901C1.45 12.0001 1.93 12.4701 2.53 12.6401C3.62 12.9301 8 12.9301 8 12.9301C8 12.9301 12.38 12.9301 13.47 12.6401C14.07 12.4801 14.55 12.0001 14.71 11.3901C15 10.2901 15 8.00007 15 8.00007C15 8.00007 15 5.71007 14.71 4.61007ZM6.57 10.0801V5.92007L10.23 8.00007L6.57 10.0801Z"/>
</svg>
