<svg width="24" height="24" viewBox="0 0 24 24" fill="none" xmlns="http://www.w3.org/2000/svg">
<path d="M22.54 6.67C22.29 5.72 21.54 4.97 20.59 4.71C18.87 4.25 11.99 4.25 11.99 4.25C11.99 4.25 5.11 4.25 3.39 4.71C2.44 4.96 1.7 5.71 1.44 6.67C1 8.4 1 12 1 12C1 12 0.999999 15.6 1.46 17.33C1.71 18.28 2.46 19.03 3.41 19.29C5.13 19.75 12.01 19.75 12.01 19.75C12.01 19.75 18.89 19.75 20.61 19.29C21.56 19.04 22.3 18.29 22.56 17.33C23 15.6 23 12 23 12C23 12 23 8.4 22.54 6.67ZM9.75 15.27V8.73L15.5 12L9.75 15.27Z"/>
</svg>
