<svg width="32" height="32" viewBox="0 0 32 32" fill="none" xmlns="http://www.w3.org/2000/svg">
<path d="M29.4201 9.2299C29.1001 8.0199 28.1501 7.0699 26.9501 6.7399C24.7701 6.1499 16.0401 6.1499 16.0401 6.1499C16.0401 6.1499 7.30006 6.1499 5.13006 6.7399C3.93006 7.0599 2.98006 8.0199 2.66006 9.2299C2.06006 11.4299 2.06006 15.9999 2.06006 15.9999C2.06006 15.9999 2.06006 20.5699 2.64006 22.7699C2.96006 23.9799 3.91006 24.9299 5.11006 25.2599C7.29006 25.8499 16.0201 25.8499 16.0201 25.8499C16.0201 25.8499 24.7601 25.8499 26.9301 25.2599C28.1301 24.9399 29.0801 23.9799 29.4001 22.7699C30.0001 20.5699 30.0001 15.9999 30.0001 15.9999C30.0001 15.9999 30.0001 11.4299 29.4201 9.2299ZM13.1801 20.1499V11.8399L20.4801 15.9899L13.1801 20.1499Z"/>
</svg>
