<svg width="40" height="40" viewBox="0 0 40 40" fill="none" xmlns="http://www.w3.org/2000/svg">
<path d="M37.25 11.2801C36.84 9.72007 35.62 8.49007 34.07 8.08007C31.26 7.32007 20.01 7.32007 20.01 7.32007C20.01 7.32007 8.75 7.32007 5.95 8.08007C4.4 8.50007 3.18 9.72007 2.77 11.2801C2 14.1001 2 20.0001 2 20.0001C2 20.0001 2 25.9001 2.75 28.7201C3.16 30.2801 4.38 31.5101 5.93 31.9201C8.74 32.6801 19.99 32.6801 19.99 32.6801C19.99 32.6801 31.25 32.6801 34.05 31.9201C35.6 31.5001 36.82 30.2801 37.23 28.7201C38 25.9001 38 20.0001 38 20.0001C38 20.0001 38 14.1001 37.25 11.2801ZM16.32 25.3501V14.6501L25.73 20.0001L16.32 25.3501Z"/>
</svg>
