<svg width="72" height="72" viewBox="0 0 72 72" fill="none" xmlns="http://www.w3.org/2000/svg">
<path d="M65.8101 20.9201C65.0901 18.2301 62.9901 16.1001 60.3101 15.3801C55.4601 14.0701 36.0001 14.0701 36.0001 14.0701C36.0001 14.0701 16.5401 14.0701 11.6901 15.3801C9.01014 16.1001 6.90014 18.2201 6.19014 20.9201C4.89014 25.8001 4.89014 36.0001 4.89014 36.0001C4.89014 36.0001 4.89014 46.1901 6.19014 51.0801C6.91014 53.7701 9.01014 55.9001 11.6901 56.6201C16.5401 57.9301 36.0001 57.9301 36.0001 57.9301C36.0001 57.9301 55.4601 57.9301 60.3101 56.6201C62.9901 55.9001 65.1001 53.7801 65.8101 51.0801C67.1101 46.2001 67.1101 36.0001 67.1101 36.0001C67.1101 36.0001 67.1101 25.8101 65.8101 20.9201ZM29.6402 45.2501V26.7501L45.9001 36.0001L29.6402 45.2501Z"/>
</svg>
