<svg width="72" height="72" viewBox="0 0 72 72" fill="none" xmlns="http://www.w3.org/2000/svg">
<path d="M38 13.5H51.86C53.51 13.5 54.96 14.63 55.35 16.23L60.76 29.51"  stroke-width="3" stroke-miterlimit="10" stroke-linejoin="round"/>
<path d="M30 30.5H61.9L65.18 36.48C65.39 37.31 65.5 38.16 65.5 39.01V49.72C65.5 50.7 64.7 51.5 63.71 51.5H8.3C7.31 51.5 6.5 50.69 6.5 49.7V39.01C6.5 38.16 6.61001 37.31 6.82001 36.48L7.5 34.5"  stroke-width="3" stroke-miterlimit="10" stroke-linejoin="round"/>
<path d="M60 28.5H68"  stroke-width="3" stroke-miterlimit="10" stroke-linejoin="round"/>
<path d="M53.5 52V54.7C53.5 57.19 55.51 59.2 58 59.2C60.49 59.2 62.5 57.19 62.5 54.7V52"  stroke-width="3" stroke-miterlimit="10" stroke-linejoin="round"/>
<path d="M18.5 52V54.7C18.5 57.19 16.49 59.2 14 59.2C11.51 59.2 9.5 57.19 9.5 54.7V52"  stroke-width="3" stroke-miterlimit="10" stroke-linejoin="round"/>
<path d="M47.5 43.5H58.5V37.5H50.5C48.84 37.5 47.5 38.84 47.5 40.5V43.5Z"  stroke-width="3" stroke-miterlimit="10" stroke-linejoin="round"/>
<path d="M13.5 43.5H24.5V40.5C24.5 38.84 23.16 37.5 21.5 37.5H13.5V43.5Z"  stroke-width="3" stroke-miterlimit="10" stroke-linejoin="round"/>
<path d="M27.5601 51.4401H44.4401L42.1901 45.8101H29.8101L27.5601 51.4401Z"  stroke-width="3" stroke-miterlimit="10" stroke-linejoin="round"/>
<path d="M28.09 14.66C26.87 10.52 23.04 7.5 18.5 7.5C12.98 7.5 8.5 11.98 8.5 17.5C8.5 23.02 12.98 27.5 18.5 27.5C23.08 27.5 26.94 24.42 28.13 20.21"  stroke-width="3" stroke-miterlimit="10" stroke-linejoin="round"/>
<path d="M22 14.5H29.5V7"  stroke-width="3" stroke-miterlimit="10" stroke-linejoin="round"/>
</svg>
