<svg width="64" height="64" viewBox="0 0 64 64" fill="none" xmlns="http://www.w3.org/2000/svg">
<path d="M32 34.5C36.6944 34.5 40.5 30.6944 40.5 26C40.5 21.3056 36.6944 17.5 32 17.5C27.3056 17.5 23.5 21.3056 23.5 26C23.5 30.6944 27.3056 34.5 32 34.5Z"  stroke-width="3" stroke-miterlimit="10" stroke-linejoin="round"/>
<path d="M14.36 38.12C19.89 49.79 31.5 58.5 31.5 58.5C31.5 58.5 52.5 43.5 52.5 26.5H52.47C52.47 26.33 52.5 26.17 52.5 26C52.5 14.68 43.32 5.5 32 5.5C20.68 5.5 11.5 14.68 11.5 26"  stroke-width="3" stroke-miterlimit="10" stroke-linejoin="round"/>
</svg>
