<svg width="72" height="72" viewBox="0 0 72 72" fill="none" xmlns="http://www.w3.org/2000/svg">
<path d="M36 38.5C41.2467 38.5 45.5 34.2467 45.5 29C45.5 23.7533 41.2467 19.5 36 19.5C30.7533 19.5 26.5 23.7533 26.5 29C26.5 34.2467 30.7533 38.5 36 38.5Z"  stroke-width="3" stroke-miterlimit="10" stroke-linejoin="round"/>
<path d="M16.32 44C21.44 54.14 30.36 62.29 34.4 65.45C34.95 65.88 35.41 66.23 35.76 66.48C36.1 66.24 36.55 65.91 37.08 65.5C43 60.99 59.5 45.92 59.5 29.5L59.49 29.49C59.49 29.33 59.5 29.17 59.5 29C59.5 16.02 48.98 5.5 36 5.5C23.02 5.5 12.5 16.02 12.5 29"  stroke-width="3" stroke-miterlimit="10" stroke-linejoin="round"/>
</svg>
