<svg width="40" height="40" viewBox="0 0 40 40" fill="none" xmlns="http://www.w3.org/2000/svg">
<path d="M9.11 24.0002C12.79 31.3602 20 37.0002 20 37.0002C20 37.0002 31.87 27.7102 32.92 17.4202C32.93 17.3602 32.93 17.3102 32.94 17.2502C32.98 16.8302 33 16.4102 33 15.9902C33 8.81023 27.18 2.99023 20 2.99023C12.82 2.99023 7 8.81023 7 15.9902"  stroke-width="2" stroke-miterlimit="10" stroke-linejoin="round"/>
<path d="M15 16C15 18.76 17.24 21 20 21C22.76 21 25 18.76 25 16C25 13.24 22.76 11 20 11C17.24 11 15 13.24 15 16Z"  stroke-width="2" stroke-miterlimit="10" stroke-linejoin="round"/>
</svg>
