<svg width="32" height="32" viewBox="0 0 32 32" fill="none" xmlns="http://www.w3.org/2000/svg">
<path d="M12 12.7998C12 15.0098 13.79 16.7998 16 16.7998C18.21 16.7998 20 15.0098 20 12.7998C20 10.5898 18.21 8.7998 16 8.7998C13.79 8.7998 12 10.5898 12 12.7998Z"  stroke-width="2" stroke-miterlimit="10" stroke-linejoin="round"/>
<path d="M8.43 21C8.62 21.34 8.81 21.67 9 22C12 27 16 30 16 30C16 30 20 27 23 22C24.63 19.29 26 16 26 14C26.03 13.67 26 13.34 26 13C26 7.48 21.52 3 16 3C10.48 3 6 7.48 6 13C6 13.34 6 14 6 14"  stroke-width="2" stroke-miterlimit="10" stroke-linejoin="round"/>
</svg>
