<svg width="24" height="24" viewBox="0 0 24 24" fill="none" xmlns="http://www.w3.org/2000/svg">
<path d="M19.5 19C21.433 19 23 17.433 23 15.5C23 13.567 21.433 12 19.5 12C17.567 12 16 13.567 16 15.5C16 17.433 17.567 19 19.5 19Z"  stroke-width="2" stroke-miterlimit="10" stroke-linejoin="round"/>
<path d="M4.5 12C2.57 12 1 13.57 1 15.5C1 17.43 2.57 19 4.5 19C6.43 19 8 17.43 8 15.5"  stroke-width="2" stroke-miterlimit="10" stroke-linejoin="round"/>
<path d="M19.5 15.75L16.5 4H13"  stroke-width="2" stroke-miterlimit="10" stroke-linejoin="round"/>
<path d="M18 8.75L21 9.5V5.75L17.25 6.5"  stroke-width="2" stroke-miterlimit="10" stroke-linejoin="round"/>
<path d="M18 8H12.91C12.71 8 12.52 8.08 12.38 8.22L11 9.6V12H18"  stroke-width="2" stroke-miterlimit="10" stroke-linejoin="round"/>
<path d="M13 12V15H5V10"  stroke-width="2" stroke-miterlimit="10" stroke-linejoin="round"/>
<path d="M12 9H2.25L1.5 6.75"  stroke-width="2" stroke-miterlimit="10" stroke-linejoin="round"/>
</svg>
