<svg width="40" height="40" viewBox="0 0 40 40" fill="none" xmlns="http://www.w3.org/2000/svg">
<path d="M32 32C35.3137 32 38 29.3137 38 26C38 22.6863 35.3137 20 32 20C28.6863 20 26 22.6863 26 26C26 29.3137 28.6863 32 32 32Z"  stroke-width="2" stroke-miterlimit="10" stroke-linejoin="round"/>
<path d="M32.5 26.5L27.5 9H23"  stroke-width="2" stroke-miterlimit="10" stroke-linejoin="round"/>
<path d="M30 16.25L33.76 17.19C34.39 17.35 35 16.87 35 16.22V12.47C35 11.84 34.42 11.37 33.8 11.49L28.75 12.5"  stroke-width="2" stroke-miterlimit="10" stroke-linejoin="round"/>
<path d="M29 14H20.92C20.59 14 20.27 14.13 20.04 14.37L18 16.4V20C18 20.55 18.45 21 19 21H29"  stroke-width="2" stroke-miterlimit="10" stroke-linejoin="round"/>
<path d="M19 16H3.75L2.5 12.25"  stroke-width="2" stroke-miterlimit="10" stroke-linejoin="round"/>
<path d="M21 21V24C21 24.55 20.55 25 20 25H10C9.45 25 9 24.55 9 24V20H8C4.69 20 2 22.69 2 26C2 29.31 4.69 32 8 32C11.31 32 14 29.31 14 26"  stroke-width="2" stroke-miterlimit="10" stroke-linejoin="round"/>
</svg>
