<svg width="64" height="64" viewBox="0 0 64 64" fill="none" xmlns="http://www.w3.org/2000/svg">
<path d="M51 51.5C56.2467 51.5 60.5 47.2467 60.5 42C60.5 36.7533 56.2467 32.5 51 32.5C45.7533 32.5 41.5 36.7533 41.5 42C41.5 47.2467 45.7533 51.5 51 51.5Z"  stroke-width="3" stroke-miterlimit="10" stroke-linejoin="round"/>
<path d="M13 32.5C7.75 32.5 3.5 36.75 3.5 42C3.5 47.25 7.75 51.5 13 51.5C18.25 51.5 22.5 47.25 22.5 42"  stroke-width="3" stroke-miterlimit="10" stroke-linejoin="round"/>
<path d="M51.5 42.5L44 14.5H36"  stroke-width="3" stroke-miterlimit="10" stroke-linejoin="round"/>
<path d="M47.5 26.5001L54.51 27.5001C55.52 27.7501 56.5 26.9901 56.5 25.9501V20.4401C56.5 19.1801 55.35 18.2301 54.11 18.4801L46.5 20.0001"  stroke-width="3" stroke-miterlimit="10" stroke-linejoin="round"/>
<path d="M46 22.5H33.1C32.57 22.5 32.06 22.71 31.69 23.09L28.5 26.28V31.51C28.5 32.61 29.4 33.51 30.5 33.51H47"  stroke-width="3" stroke-miterlimit="10" stroke-linejoin="round"/>
<path d="M30 25.5H6L4 19.5"  stroke-width="3" stroke-miterlimit="10" stroke-linejoin="round"/>
<path d="M33.5 34V38.5C33.5 39.6 32.6 40.5 31.5 40.5H16.5C15.4 40.5 14.5 39.6 14.5 38.5V32.5H13"  stroke-width="3" stroke-miterlimit="10" stroke-linejoin="round"/>
<path d="M29 28.5H36"  stroke-width="3" stroke-miterlimit="10" stroke-linejoin="round"/>
<path d="M14 32.5H21"  stroke-width="3" stroke-miterlimit="10" stroke-linejoin="round"/>
</svg>
