<svg width="72" height="72" viewBox="0 0 72 72" fill="none" xmlns="http://www.w3.org/2000/svg">
<path d="M58 57.5C63.799 57.5 68.5 52.799 68.5 47C68.5 41.201 63.799 36.5 58 36.5C52.201 36.5 47.5 41.201 47.5 47C47.5 52.799 52.201 57.5 58 57.5Z"  stroke-width="3" stroke-miterlimit="10" stroke-linejoin="round"/>
<path d="M24.5 47C24.5 52.8 19.8 57.5 14 57.5C8.2 57.5 3.5 52.8 3.5 47C3.5 41.2 8.2 36.5 14 36.5H15.84"  stroke-width="3" stroke-miterlimit="10" stroke-linejoin="round"/>
<path d="M57.94 48L49.5 16.5H41"  stroke-width="3" stroke-miterlimit="10" stroke-linejoin="round"/>
<path d="M53.38 29.81L61.27 30.94C62.41 31.22 63.51 30.36 63.51 29.19V22.99C63.51 21.57 62.21 20.51 60.82 20.78L52.26 22.49"  stroke-width="3" stroke-miterlimit="10" stroke-linejoin="round"/>
<path d="M52 25.5H37.55C36.95 25.5 36.38 25.74 35.96 26.16L32.5 29.62V35.26C32.5 36.5 33.51 37.51 34.75 37.51H53"  stroke-width="3" stroke-miterlimit="10" stroke-linejoin="round"/>
<path d="M34 28.5H6.75L4.5 21.75"  stroke-width="3" stroke-miterlimit="10" stroke-linejoin="round"/>
<path d="M37.5 38V43.25C37.5 44.49 36.49 45.5 35.25 45.5H18.75C17.51 45.5 16.5 44.49 16.5 43.25V36.5H15"  stroke-width="3" stroke-miterlimit="10" stroke-linejoin="round"/>
<path d="M33 32.5H41"  stroke-width="3" stroke-miterlimit="10" stroke-linejoin="round"/>
<path d="M23.5 36.5H16.5"  stroke-width="3" stroke-miterlimit="10" stroke-linejoin="round"/>
</svg>
