<svg width="16" height="16" viewBox="0 0 16 16" fill="none" xmlns="http://www.w3.org/2000/svg">
<path d="M13 13C14.1046 13 15 12.1046 15 11C15 9.89543 14.1046 9 13 9C11.8954 9 11 9.89543 11 11C11 12.1046 11.8954 13 13 13Z"  stroke-width="2" stroke-miterlimit="10" stroke-linejoin="round"/>
<path d="M3 13C4.10457 13 5 12.1046 5 11C5 9.89543 4.10457 9 3 9C1.89543 9 1 9.89543 1 11C1 12.1046 1.89543 13 3 13Z"  stroke-width="2" stroke-miterlimit="10" stroke-linejoin="round"/>
<path d="M13 9L12 2H9.67004"  stroke-width="2" stroke-miterlimit="10" stroke-linejoin="round"/>
<path d="M8 6H1V4"  stroke-width="2" stroke-miterlimit="10" stroke-linejoin="round"/>
<path d="M8.66 7.88989V9.99989H5"  stroke-width="2" stroke-miterlimit="10" stroke-linejoin="round"/>
<path d="M13 5H15"  stroke-width="2" stroke-miterlimit="10" stroke-linejoin="round"/>
<path d="M13 5H7V8H12"  stroke-width="2" stroke-miterlimit="10" stroke-linejoin="round"/>
</svg>
