<svg width="29" height="30" viewBox="0 0 29 30" fill="none" xmlns="http://www.w3.org/2000/svg">
<ellipse cx="14.5121" cy="15" rx="13.6585" ry="14" fill="#FFD735" stroke="#231D19"/>
<path fill-rule="evenodd" clip-rule="evenodd" d="M11.7331 15.3375C11.9285 16.0841 11.4958 16.8516 10.7677 17.0518C10.0393 17.2517 9.29055 16.8086 9.09524 16.0619C8.89992 15.3156 9.33257 14.5478 10.0607 14.3479C10.7891 14.1477 11.5378 14.5908 11.7331 15.3375Z" fill="#231D19"/>
<path d="M8.48354 14.028C8.40537 14.2426 8.16833 14.3531 7.9541 14.2748C7.73987 14.1965 7.62958 13.959 7.70775 13.7444C7.8703 13.2982 8.159 12.9107 8.5471 12.6309C8.98533 12.3153 9.50671 12.169 10.03 12.2054C10.2575 12.2212 10.4291 12.4188 10.4133 12.6467C10.3975 12.8746 10.2003 13.0465 9.97277 13.0306C9.64053 13.0075 9.31009 13.1003 9.02934 13.3024C8.77756 13.484 8.59003 13.7357 8.48354 14.028Z" fill="#231D19"/>
<path d="M20.7752 9.96065C20.5869 10.0858 20.3326 10.0302 20.2073 9.83654C20.082 9.64284 20.1331 9.38436 20.3214 9.2592C20.713 8.99895 21.171 8.86293 21.6452 8.87425C22.1805 8.88733 22.683 9.08742 23.0799 9.43586C23.2524 9.58735 23.2737 9.85111 23.1275 10.025C22.9812 10.1989 22.7228 10.217 22.5502 10.0656C22.2983 9.84434 21.9798 9.71753 21.6369 9.70915C21.3292 9.70181 21.0317 9.79016 20.7752 9.96065Z" fill="#231D19"/>
<path fill-rule="evenodd" clip-rule="evenodd" d="M20.6585 12.6564C20.901 13.3856 21.6775 13.7702 22.3919 13.516C23.1065 13.2612 23.4892 12.4637 23.2466 11.7344C23.0042 11.0054 22.2276 10.6206 21.5133 10.8751C20.7986 11.1296 20.4159 11.9271 20.6585 12.6564Z" fill="#231D19"/>
<mask id="mask0_432_16744" style="mask-type:alpha" maskUnits="userSpaceOnUse" x="13" y="16" width="11" height="7">
<path fill-rule="evenodd" clip-rule="evenodd" d="M13.0936 19.624C14.0541 21.9974 16.6295 23.3145 19.1556 22.6083C21.6799 21.9025 23.2787 19.4212 22.9761 16.8666L13.0936 19.624Z" fill="#C4C4C4"/>
</mask>
<g mask="url(#mask0_432_16744)">
<path fill-rule="evenodd" clip-rule="evenodd" d="M13.0936 19.624C14.0541 21.9974 16.6295 23.3145 19.1556 22.6083C21.6799 21.9025 23.2787 19.4212 22.9761 16.8666L13.0936 19.624Z" fill="#EC7000"/>
<rect width="11.6357" height="1.46213" transform="matrix(0.963898 -0.266344 0.251487 0.96788 13.1465 19.6572)" fill="white"/>
</g>
</svg>
