<svg width="28" height="28" viewBox="0 0 28 28" fill="none" xmlns="http://www.w3.org/2000/svg">
<circle cx="14" cy="14" r="14" fill="#FFD735"/>
<path fill-rule="evenodd" clip-rule="evenodd" d="M11.152 14.3376C11.3522 15.0843 10.9087 15.8518 10.1624 16.052C9.41578 16.2518 8.64829 15.8087 8.44809 15.062C8.24789 14.3157 8.69136 13.5479 9.43765 13.348C10.1843 13.1478 10.9518 13.591 11.152 14.3376Z" fill="#231D19"/>
<path d="M7.82094 13.0281C7.74082 13.2427 7.49786 13.3532 7.27827 13.2749C7.05869 13.1966 6.94563 12.9592 7.02576 12.7446C7.19237 12.2983 7.4883 11.9108 7.8861 11.631C8.33528 11.3155 8.8697 11.1691 9.40608 11.2055C9.63927 11.2214 9.81517 11.4189 9.79896 11.6468C9.78276 11.8747 9.58059 12.0466 9.34741 12.0308C9.00686 12.0076 8.66816 12.1004 8.3804 12.3026C8.12232 12.4841 7.9301 12.7358 7.82094 13.0281Z" fill="#231D19"/>
<path d="M20.4207 8.95631C20.2282 9.08048 19.9674 9.02386 19.8381 8.82985C19.7089 8.63584 19.7601 8.3779 19.9526 8.25373C20.3529 7.99553 20.8217 7.8617 21.3079 7.87509C21.8566 7.89051 22.3726 8.09256 22.7809 8.44232C22.9584 8.59437 22.9813 8.8579 22.8321 9.03093C22.683 9.20395 22.4181 9.22095 22.2406 9.0689C21.9814 8.84684 21.6544 8.71879 21.3029 8.70891C20.9875 8.70022 20.6829 8.78715 20.4207 8.95631Z" fill="#231D19"/>
<path fill-rule="evenodd" clip-rule="evenodd" d="M20.303 11.6512C20.5545 12.3822 21.3513 12.7705 22.082 12.5191C22.8127 12.2673 23.2012 11.4708 22.9497 10.7398C22.6983 10.0091 21.9013 9.62056 21.1708 9.87218C20.4399 10.1237 20.0514 10.9203 20.303 11.6512Z" fill="#231D19"/>
<mask id="mask0_391_14426" style="mask-type:alpha" maskUnits="userSpaceOnUse" x="12" y="15" width="11" height="7">
<path fill-rule="evenodd" clip-rule="evenodd" d="M12.6 18.6365C13.6113 21.0028 16.2342 22.3272 18.7922 21.6418C21.3501 20.9564 22.9594 18.4979 22.6521 15.943L12.6 18.6365Z" fill="#C4C4C4"/>
</mask>
<g mask="url(#mask0_391_14426)">
<path fill-rule="evenodd" clip-rule="evenodd" d="M12.6 18.6365C13.6113 21.0028 16.2342 22.3272 18.7922 21.6418C21.3501 20.9564 22.9594 18.4979 22.6521 15.943L12.6 18.6365Z" fill="#EC7000"/>
<rect x="12.6" y="18.6365" width="11.8934" height="1.48668" transform="rotate(-15 12.6 18.6365)" fill="white"/>
</g>
</svg>
