<svg width="30" height="28" viewBox="0 0 30 28" fill="none" xmlns="http://www.w3.org/2000/svg">
<ellipse cx="15.1885" cy="14" rx="14.6885" ry="14" fill="#FFD735"/>
<path d="M5.81225 13.1783C5.67278 13.3649 5.39655 13.4087 5.19528 13.2762C4.99401 13.1438 4.94391 12.8852 5.08338 12.6986C5.37341 12.3107 5.77853 12.013 6.25766 11.8457C6.79856 11.6571 7.3799 11.6541 7.9136 11.8281C8.14562 11.9037 8.27023 12.1401 8.19193 12.356C8.11363 12.5719 7.86206 12.6857 7.63005 12.61C7.29121 12.4995 6.92277 12.5015 6.57624 12.6223C6.2654 12.7308 6.00225 12.9242 5.81225 13.1783Z" fill="#231D19"/>
<path fill-rule="evenodd" clip-rule="evenodd" d="M9.26252 15.7378C9.47256 16.4844 9.00728 17.2519 8.22429 17.4521C7.44095 17.652 6.63572 17.2088 6.42568 16.4622C6.21563 15.7159 6.68091 14.948 7.4639 14.7482C8.24724 14.548 9.05247 14.9911 9.26252 15.7378Z" fill="#231D19"/>
<path fill-rule="evenodd" clip-rule="evenodd" d="M21.1144 16.4624C21.3245 17.2094 22.1293 17.6522 22.913 17.452C23.696 17.2521 24.1613 16.4846 23.9512 15.7379C23.7412 14.9913 22.936 14.5482 22.1526 14.748C21.3693 14.9482 20.9044 15.7157 21.1144 16.4624Z" fill="#231D19"/>
<path d="M24.3004 13.1783C24.4399 13.3649 24.7161 13.4087 24.9174 13.2762C25.1187 13.1438 25.1688 12.8852 25.0293 12.6986C24.7393 12.3107 24.3341 12.013 23.855 11.8457C23.3141 11.6571 22.7328 11.6541 22.1991 11.8281C21.9671 11.9037 21.8424 12.1401 21.9207 12.356C21.999 12.5719 22.2506 12.6857 22.4826 12.61C22.8215 12.4995 23.1899 12.5015 23.5364 12.6223C23.8473 12.7308 24.1104 12.9242 24.3004 13.1783Z" fill="#231D19"/>
<path fill-rule="evenodd" clip-rule="evenodd" d="M12.4832 19.9026C14.0959 20.7592 16.2812 20.7592 17.8939 19.9026L18.3586 20.6975C16.457 21.7076 13.9201 21.7076 12.0185 20.6975C11.7882 20.5752 11.7055 20.2981 11.8339 20.0786C11.9622 19.8591 12.2529 19.7803 12.4832 19.9026Z" fill="#231D19"/>
</svg>
