<svg width="30" height="30" viewBox="0 0 30 30" fill="none" xmlns="http://www.w3.org/2000/svg">
<ellipse cx="15.0001" cy="15" rx="13.65" ry="14" fill="#FFD735" stroke="#231D19"/>
<path d="M6.28694 14.1782C6.15733 14.3647 5.90063 14.4086 5.71359 14.2761C5.52655 14.1436 5.47999 13.885 5.6096 13.6985C5.87912 13.3106 6.2556 13.0129 6.70085 12.8456C7.20352 12.657 7.74375 12.654 8.23972 12.828C8.45533 12.9036 8.57113 13.14 8.49836 13.3559C8.4256 13.5718 8.19182 13.6855 7.97621 13.6099C7.66133 13.4994 7.31894 13.5013 6.99691 13.6221C6.70805 13.7307 6.4635 13.9241 6.28694 14.1782Z" fill="#231D19"/>
<path fill-rule="evenodd" clip-rule="evenodd" d="M9.49319 16.7376C9.68839 17.4843 9.25601 18.2518 8.52838 18.452C7.80042 18.6519 7.05212 18.2087 6.85693 17.4621C6.66173 16.7158 7.09411 15.9479 7.82174 15.748C8.5497 15.5478 9.298 15.991 9.49319 16.7376Z" fill="#231D19"/>
<path fill-rule="evenodd" clip-rule="evenodd" d="M20.5068 17.4623C20.702 18.2092 21.45 18.652 22.1783 18.4518C22.9059 18.252 23.3383 17.4845 23.1431 16.7378C22.9479 15.9912 22.1996 15.548 21.4717 15.7479C20.7437 15.9481 20.3117 16.7156 20.5068 17.4623Z" fill="#231D19"/>
<path d="M23.4675 14.1782C23.5971 14.3647 23.8538 14.4086 24.0408 14.2761C24.2278 14.1436 24.2744 13.885 24.1448 13.6985C23.8753 13.3106 23.4988 13.0129 23.0535 12.8456C22.5509 12.657 22.0106 12.654 21.5147 12.828C21.2991 12.9036 21.1833 13.14 21.256 13.3559C21.3288 13.5718 21.5626 13.6855 21.7782 13.6099C22.0931 13.4994 22.4355 13.5013 22.7575 13.6221C23.0463 13.7307 23.2909 13.9241 23.4675 14.1782Z" fill="#231D19"/>
<path fill-rule="evenodd" clip-rule="evenodd" d="M12.4863 20.9026C13.985 21.7592 16.0157 21.7592 17.5144 20.9026L17.9463 21.6975C16.1791 22.7076 13.8216 22.7076 12.0544 21.6975C11.8404 21.5752 11.7636 21.2981 11.8828 21.0786C12.0021 20.8591 12.2723 20.7803 12.4863 20.9026Z" fill="#231D19"/>
</svg>
