<svg width="29" height="28" viewBox="0 0 29 28" fill="none" xmlns="http://www.w3.org/2000/svg">
<circle cx="14.8499" cy="14" r="14" fill="#FFD735"/>
<path fill-rule="evenodd" clip-rule="evenodd" d="M17.4284 21.3974C16.0233 20.6144 14.1623 20.5471 12.6789 21.1956C12.4487 21.2963 12.1722 21.2195 12.0499 21C11.9275 20.7805 12.0057 20.5016 12.2344 20.3975C13.9906 19.5978 16.1911 19.6662 17.8714 20.6025C18.0909 20.7248 18.1696 21.002 18.0473 21.2215C17.925 21.441 17.6479 21.5197 17.4284 21.3974Z" fill="#231D19"/>
<path fill-rule="evenodd" clip-rule="evenodd" d="M4.92966 17.4055L3.04983 15.4418C2.99649 15.3861 2.90193 15.3861 2.84824 15.4418L0.968756 17.4055C-0.123049 18.5461 -0.123049 20.4019 0.968756 21.5432C1.49803 22.0954 2.20119 22.4 2.94904 22.4C4.52509 22.4 5.7499 21.0645 5.7499 19.4742C5.7499 18.6926 5.45825 17.9577 4.92966 17.4055Z" fill="#106EB0"/>
<path fill-rule="evenodd" clip-rule="evenodd" d="M20.45 16.0999C20.45 16.8734 21.0767 17.5001 21.8498 17.5001C22.6232 17.5001 23.25 16.8734 23.25 16.0999C23.25 15.3268 22.6232 14.7001 21.8498 14.7001C21.0767 14.7001 20.45 15.3268 20.45 16.0999Z" fill="#231D19"/>
<path fill-rule="evenodd" clip-rule="evenodd" d="M20.1419 12.2651C20.3269 12.095 20.6148 12.1071 20.7848 12.2921C21.1193 12.6559 21.5148 12.845 21.9191 12.845C22.2791 12.845 22.6306 12.6954 22.9394 12.4071C23.123 12.2356 23.411 12.2454 23.5824 12.4291C23.7539 12.6128 23.7441 12.9007 23.5604 13.0722C23.1124 13.4905 22.5468 13.755 21.9191 13.755C21.2113 13.755 20.5855 13.4199 20.1149 12.908C19.9448 12.723 19.9569 12.4351 20.1419 12.2651Z" fill="#231D19"/>
<path fill-rule="evenodd" clip-rule="evenodd" d="M9.24995 16.0999C9.24995 16.8734 8.62332 17.5001 7.84995 17.5001C7.07692 17.5001 6.44995 16.8734 6.44995 16.0999C6.44995 15.3268 7.07692 14.7001 7.84995 14.7001C8.62332 14.7001 9.24995 15.3268 9.24995 16.0999Z" fill="#231D19"/>
<path fill-rule="evenodd" clip-rule="evenodd" d="M9.55794 12.2652C9.74287 12.4353 9.75486 12.7232 9.58472 12.9081C9.11393 13.4198 8.48834 13.755 7.78081 13.755C7.15285 13.755 6.58735 13.4906 6.13934 13.0722C5.95567 12.9007 5.94582 12.6128 6.11732 12.4291C6.28883 12.2454 6.57675 12.2356 6.76041 12.4071C7.06914 12.6954 7.42053 12.845 7.78081 12.845C8.1846 12.845 8.58013 12.656 8.91503 12.292C9.08518 12.107 9.37302 12.095 9.55794 12.2652Z" fill="#231D19"/>
</svg>
