<svg width="31" height="30" viewBox="0 0 31 30" fill="none" xmlns="http://www.w3.org/2000/svg">
<ellipse cx="15.4332" cy="15" rx="14.2222" ry="14" fill="#FFD735" stroke="#231D19"/>
<path fill-rule="evenodd" clip-rule="evenodd" d="M18.0527 22.3974C16.6223 21.6128 14.7269 21.5469 13.2185 22.1997C12.9892 22.2989 12.7149 22.2227 12.5918 22.0053C12.4664 21.7837 12.5458 21.5007 12.7781 21.3967C14.5619 20.5979 16.7964 20.6665 18.5027 21.6025C18.7257 21.7248 18.8057 22.002 18.6814 22.2215C18.5572 22.441 18.2756 22.5197 18.0527 22.3974Z" fill="#231D19"/>
<path fill-rule="evenodd" clip-rule="evenodd" d="M5.35563 18.4054L3.44596 16.4417C3.39177 16.386 3.29571 16.386 3.24117 16.4417L1.33185 18.4054C0.222716 19.5459 0.222716 21.4018 1.33185 22.5431C1.86953 23.0952 2.58385 23.3999 3.34356 23.3999C4.94463 23.3999 6.18889 22.0643 6.18889 20.4741C6.18889 19.6925 5.8926 18.9576 5.35563 18.4054Z" fill="#106EB0"/>
<path fill-rule="evenodd" clip-rule="evenodd" d="M21.1226 17.0998C21.1226 17.8732 21.7592 18.5 22.5446 18.5C23.3303 18.5 23.967 17.8732 23.967 17.0998C23.967 16.3267 23.3303 15.7 22.5446 15.7C21.7592 15.7 21.1226 16.3267 21.1226 17.0998Z" fill="#231D19"/>
<path fill-rule="evenodd" clip-rule="evenodd" d="M20.8095 13.2651C20.9975 13.095 21.2899 13.1071 21.4627 13.2921C21.8024 13.6559 22.2042 13.845 22.615 13.845C22.9806 13.845 23.3377 13.6954 23.6514 13.4071C23.838 13.2356 24.1305 13.2454 24.3047 13.4291C24.4789 13.6128 24.4689 13.9007 24.2823 14.0722C23.8271 14.4905 23.2526 14.755 22.615 14.755C21.8958 14.755 21.2602 14.4199 20.7821 13.908C20.6093 13.723 20.6216 13.4351 20.8095 13.2651Z" fill="#231D19"/>
<path fill-rule="evenodd" clip-rule="evenodd" d="M9.74483 17.0998C9.74483 17.8732 9.10825 18.5 8.32261 18.5C7.53731 18.5 6.90039 17.8732 6.90039 17.0998C6.90039 16.3267 7.53731 15.7 8.32261 15.7C9.10825 15.7 9.74483 16.3267 9.74483 17.0998Z" fill="#231D19"/>
<path fill-rule="evenodd" clip-rule="evenodd" d="M10.0576 13.2652C10.2455 13.4353 10.2577 13.7232 10.0848 13.9081C9.60655 14.4198 8.97104 14.755 8.25227 14.755C7.61435 14.755 7.03987 14.4906 6.58474 14.0722C6.39817 13.9007 6.38815 13.6128 6.56238 13.4291C6.73661 13.2454 7.0291 13.2356 7.21568 13.4071C7.5293 13.6954 7.88628 13.845 8.25227 13.845C8.66248 13.845 9.06428 13.656 9.4045 13.292C9.57734 13.107 9.86975 13.095 10.0576 13.2652Z" fill="#231D19"/>
</svg>
