<svg width="29" height="30" viewBox="0 0 29 30" fill="none" xmlns="http://www.w3.org/2000/svg">
<ellipse cx="14.5002" cy="15" rx="13.6818" ry="14" fill="#FFD735" stroke="#231D19"/>
<path fill-rule="evenodd" clip-rule="evenodd" d="M9.02738 17.0998C9.02738 17.8732 8.41491 18.5 7.65903 18.5C6.90348 18.5 6.29102 17.8732 6.29102 17.0998C6.29102 16.3267 6.90348 15.7 7.65903 15.7C8.41491 15.7 9.02738 16.3267 9.02738 17.0998Z" fill="#231D19"/>
<path fill-rule="evenodd" clip-rule="evenodd" d="M22.7095 17.0998C22.7095 17.8732 22.097 18.5 21.3415 18.5C20.5856 18.5 19.9731 17.8732 19.9731 17.0998C19.9731 16.3267 20.5856 15.7 21.3415 15.7C22.097 15.7 22.7095 16.3267 22.7095 17.0998Z" fill="#231D19"/>
<path fill-rule="evenodd" clip-rule="evenodd" d="M11.3193 21.9999C11.3193 21.7486 11.5184 21.5449 11.764 21.5449H17.2367C17.4823 21.5449 17.6814 21.7486 17.6814 21.9999C17.6814 22.2512 17.4823 22.4549 17.2367 22.4549H11.764C11.5184 22.4549 11.3193 22.2512 11.3193 21.9999Z" fill="#231D19"/>
</svg>
