<svg width="28" height="28" viewBox="0 0 28 28" fill="none" xmlns="http://www.w3.org/2000/svg">
<circle cx="14" cy="14" r="14" fill="#FFD735"/>
<path fill-rule="evenodd" clip-rule="evenodd" d="M8.39998 16.0999C8.39998 16.8734 7.77327 17.5001 6.99981 17.5001C6.22669 17.5001 5.59998 16.8734 5.59998 16.0999C5.59998 15.3268 6.22669 14.7001 6.99981 14.7001C7.77327 14.7001 8.39998 15.3268 8.39998 16.0999Z" fill="#231D19"/>
<path fill-rule="evenodd" clip-rule="evenodd" d="M22.4 16.0999C22.4 16.8734 21.7733 17.5001 21.0001 17.5001C20.2267 17.5001 19.6 16.8734 19.6 16.0999C19.6 15.3268 20.2267 14.7001 21.0001 14.7001C21.7733 14.7001 22.4 15.3268 22.4 16.0999Z" fill="#231D19"/>
<path fill-rule="evenodd" clip-rule="evenodd" d="M10.745 20.9999C10.745 20.7486 10.9487 20.5449 11.2 20.5449H16.8C17.0513 20.5449 17.255 20.7486 17.255 20.9999C17.255 21.2512 17.0513 21.4549 16.8 21.4549H11.2C10.9487 21.4549 10.745 21.2512 10.745 20.9999Z" fill="#231D19"/>
</svg>
