<svg width="30" height="30" viewBox="0 0 30 30" fill="none" xmlns="http://www.w3.org/2000/svg">
<path fill-rule="evenodd" clip-rule="evenodd" d="M15 1C7.26818 1 1 7.2681 1 15.0002C1 22.7319 7.26818 29 15 29C22.7326 29 29 22.7319 29 15.0002C29 7.2681 22.7326 1 15 1Z" fill="url(#paint0_linear_432_16697)" stroke="#231D19"/>
<path fill-rule="evenodd" clip-rule="evenodd" d="M17.5787 21.6975C16.0416 20.8409 13.9588 20.8409 12.4217 21.6975C12.2022 21.8198 11.9251 21.741 11.8027 21.5215C11.6804 21.302 11.7592 21.0249 11.9787 20.9026C13.7912 19.8925 16.2092 19.8925 18.0217 20.9026C18.2412 21.0249 18.32 21.302 18.1976 21.5215C18.0753 21.741 17.7982 21.8198 17.5787 21.6975Z" fill="#231D19"/>
<path fill-rule="evenodd" clip-rule="evenodd" d="M20.6001 17.0998C20.6001 17.8732 21.2268 18.5 22.0003 18.5C22.7734 18.5 23.4001 17.8732 23.4001 17.0998C23.4001 16.3267 22.7734 15.7 22.0003 15.7C21.2268 15.7 20.6001 16.3267 20.6001 17.0998Z" fill="#231D19"/>
<path fill-rule="evenodd" clip-rule="evenodd" d="M20.254 14.7045C20.7121 14.168 21.4562 13.845 22.2642 13.845C22.759 13.845 23.2254 13.9657 23.6174 14.1788C23.8382 14.2989 23.9198 14.5752 23.7997 14.7959C23.6797 15.0167 23.4034 15.0983 23.1827 14.9783C22.9287 14.8402 22.6124 14.755 22.2642 14.755C21.6865 14.755 21.2092 14.9872 20.9461 15.2954C20.7829 15.4865 20.4957 15.5092 20.3046 15.346C20.1135 15.1828 20.0908 14.8956 20.254 14.7045Z" fill="#231D19"/>
<path fill-rule="evenodd" clip-rule="evenodd" d="M9.4001 17.0998C9.4001 17.8732 8.77339 18.5 7.99993 18.5C7.22681 18.5 6.6001 17.8732 6.6001 17.0998C6.6001 16.3267 7.22681 15.7 7.99993 15.7C8.77339 15.7 9.4001 16.3267 9.4001 17.0998Z" fill="#231D19"/>
<path fill-rule="evenodd" clip-rule="evenodd" d="M7.73581 14.755C7.38763 14.755 7.07143 14.8402 6.8175 14.9783C6.59675 15.0983 6.32046 15.0167 6.2004 14.7959C6.08034 14.5752 6.16196 14.2989 6.38271 14.1788C6.77469 13.9657 7.24109 13.845 7.73581 13.845C8.54379 13.845 9.28777 14.168 9.74604 14.7044C9.90927 14.8955 9.88672 15.1827 9.69567 15.3459C9.50461 15.5091 9.21741 15.4866 9.05417 15.2955C8.79073 14.9872 8.31335 14.755 7.73581 14.755Z" fill="#231D19"/>
<defs>
<linearGradient id="paint0_linear_432_16697" x1="1.57882" y1="-4.8228" x2="1.57882" y2="22.0196" gradientUnits="userSpaceOnUse">
<stop stop-color="#EC7000"/>
<stop offset="1" stop-color="#FFD735"/>
</linearGradient>
</defs>
</svg>
