<svg width="28" height="28" viewBox="0 0 28 28" fill="none" xmlns="http://www.w3.org/2000/svg">
<path fill-rule="evenodd" clip-rule="evenodd" d="M14 0C6.26818 0 0 6.2681 0 14.0002C0 21.7319 6.26818 28 14 28C21.7326 28 28 21.7319 28 14.0002C28 6.2681 21.7326 0 14 0Z" fill="url(#paint0_linear_391_14379)"/>
<path fill-rule="evenodd" clip-rule="evenodd" d="M16.5785 20.6975C15.0414 19.8409 12.9586 19.8409 11.4214 20.6975C11.2019 20.8198 10.9248 20.741 10.8025 20.5215C10.6802 20.302 10.759 20.0249 10.9785 19.9026C12.791 18.8925 15.209 18.8925 17.0214 19.9026C17.241 20.0249 17.3197 20.302 17.1974 20.5215C17.0751 20.741 16.798 20.8198 16.5785 20.6975Z" fill="#231D19"/>
<path fill-rule="evenodd" clip-rule="evenodd" d="M19.6 16.0999C19.6 16.8734 20.2267 17.5001 21.0001 17.5001C21.7733 17.5001 22.4 16.8734 22.4 16.0999C22.4 15.3268 21.7733 14.7001 21.0001 14.7001C20.2267 14.7001 19.6 15.3268 19.6 16.0999Z" fill="#231D19"/>
<path fill-rule="evenodd" clip-rule="evenodd" d="M19.254 13.7045C19.7121 13.168 20.4562 12.845 21.2642 12.845C21.759 12.845 22.2254 12.9657 22.6174 13.1788C22.8382 13.2989 22.9198 13.5752 22.7997 13.7959C22.6797 14.0167 22.4034 14.0983 22.1827 13.9783C21.9287 13.8402 21.6124 13.755 21.2642 13.755C20.6865 13.755 20.2092 13.9872 19.9461 14.2954C19.7829 14.4865 19.4957 14.5092 19.3046 14.346C19.1135 14.1828 19.0908 13.8956 19.254 13.7045Z" fill="#231D19"/>
<path fill-rule="evenodd" clip-rule="evenodd" d="M8.39998 16.0999C8.39998 16.8734 7.77327 17.5001 6.99981 17.5001C6.22669 17.5001 5.59998 16.8734 5.59998 16.0999C5.59998 15.3268 6.22669 14.7001 6.99981 14.7001C7.77327 14.7001 8.39998 15.3268 8.39998 16.0999Z" fill="#231D19"/>
<path fill-rule="evenodd" clip-rule="evenodd" d="M6.73568 13.755C6.38751 13.755 6.07131 13.8402 5.81738 13.9783C5.59663 14.0983 5.32034 14.0167 5.20028 13.7959C5.08021 13.5752 5.16184 13.2989 5.38259 13.1788C5.77456 12.9657 6.24096 12.845 6.73568 12.845C7.54366 12.845 8.28765 13.168 8.74592 13.7044C8.90915 13.8955 8.8866 14.1827 8.69554 14.3459C8.50449 14.5091 8.21728 14.4866 8.05405 14.2955C7.79061 13.9872 7.31323 13.755 6.73568 13.755Z" fill="#231D19"/>
<defs>
<linearGradient id="paint0_linear_391_14379" x1="0.578816" y1="-5.8228" x2="0.578816" y2="21.0196" gradientUnits="userSpaceOnUse">
<stop stop-color="#EC7000"/>
<stop offset="1" stop-color="#FFD735"/>
</linearGradient>
</defs>
</svg>
