<svg width="72" height="72" viewBox="0 0 72 72" fill="none" xmlns="http://www.w3.org/2000/svg">
<path d="M34.31 19.1201V36.1101C34.31 36.7801 34.44 37.4401 34.7 38.0501C35.06 38.8901 35.74 39.5601 36.59 39.9101L47.25 44.2401"  stroke-width="3" stroke-miterlimit="10"/>
<path d="M9.46997 9V24.19H11.25H24.66"  stroke-width="3" stroke-miterlimit="10" stroke-linejoin="round"/>
<path d="M11.68 23.5001C12.56 21.7901 17.07 13.4101 27.39 9.91005C28.72 9.46005 38.96 6.16005 48.75 11.4501C60.75 17.9401 69.09 35.6901 59.47 50.8401C53.11 60.8501 40.91 65.8001 29.46 62.7501C24.49 61.4301 20.28 58.9501 16.99 55.7401C9.43001 48.3601 8.77999 38.6001 8.67999 35.5901"  stroke-width="3" stroke-miterlimit="10" stroke-linejoin="round"/>
</svg>
