<svg width="24" height="24" viewBox="0 0 24 24" fill="none" xmlns="http://www.w3.org/2000/svg">
<path d="M11 6V12C11 12.22 11.04 12.44 11.13 12.65C11.25 12.93 11.47 13.15 11.76 13.27L15.3 14.71"  stroke-width="2" stroke-miterlimit="10"/>
<path d="M3 3V8H3.59H8"  stroke-width="2" stroke-miterlimit="10" stroke-linejoin="round"/>
<path d="M3.95 7.80988C4.24 7.23988 5.74 4.45988 9.17 3.28988C9.61 3.13988 13.02 2.03988 16.27 3.79988C20.26 5.95988 23.03 11.8599 19.83 16.8999C17.72 20.2299 13.66 21.8699 9.85 20.8599C8.2 20.4199 6.8 19.5999 5.7 18.5299C3.19 16.0799 2.97 12.8299 2.94 11.8299"  stroke-width="2" stroke-miterlimit="10" stroke-linejoin="round"/>
</svg>
