<svg width="15" height="16" viewBox="0 0 15 16" fill="none" xmlns="http://www.w3.org/2000/svg">
<path d="M7.04999 4V8.01C7.04999 8.16 7.07999 8.3 7.13999 8.44C7.21999 8.63 7.36999 8.78 7.55999 8.85L9.91999 9.81"  stroke-width="2" stroke-miterlimit="10"/>
<path d="M1.04999 1V5H1.49999H5.04999"  stroke-width="2" stroke-miterlimit="10" stroke-linejoin="round"/>
<path d="M1.67 5.21008C1.86 4.83008 2.86 2.97008 5.15 2.20008C5.45 2.10008 7.72 1.37008 9.89 2.54008C12.55 3.98008 14.4 7.92008 12.27 11.2801C10.86 13.5001 8.16 14.6001 5.61 13.9201C4.51 13.6301 3.58 13.0801 2.84 12.3701C1.16 10.7301 1.02 8.57008 1 7.90008"  stroke-width="2" stroke-miterlimit="10" stroke-linejoin="round"/>
</svg>
