<svg width="40" height="40" viewBox="0 0 40 40" fill="none" xmlns="http://www.w3.org/2000/svg">
<path d="M19 11V20.06C19 20.43 19.07 20.8 19.22 21.14C19.42 21.61 19.8 21.98 20.27 22.17L26.19 24.58"  stroke-width="2" stroke-miterlimit="10"/>
<path d="M5 5V13H5.99H13"  stroke-width="2" stroke-miterlimit="10" stroke-linejoin="round"/>
<path d="M6.49001 13.0601C6.98001 12.1101 9.48002 7.46011 15.22 5.51011C15.96 5.26011 21.65 3.43011 27.09 6.37011C33.76 9.97011 38.39 19.8401 33.05 28.2601C29.52 33.8201 22.74 36.5701 16.38 34.8801C13.62 34.1401 11.28 32.7701 9.45001 30.9901C5.25001 26.8901 4.89002 21.4701 4.83002 19.8001"  stroke-width="2" stroke-miterlimit="10" stroke-linejoin="round"/>
</svg>
