<svg width="32" height="32" viewBox="0 0 32 32" fill="none" xmlns="http://www.w3.org/2000/svg">
<path d="M15 9V16.08C15 16.38 15.06 16.67 15.17 16.94C15.33 17.31 15.63 17.61 16.01 17.76L20.74 19.68"  stroke-width="2" stroke-miterlimit="10"/>
<path d="M4 4V11H4.79H11"  stroke-width="2" stroke-miterlimit="10" stroke-linejoin="round"/>
<path d="M5.18001 10.49C5.57001 9.72998 7.57001 6.01998 12.15 4.45998C12.74 4.25998 17.28 2.79998 21.63 5.13998C26.95 8.01998 30.65 15.89 26.38 22.61C23.56 27.05 18.15 29.24 13.07 27.89C10.86 27.3 9.00001 26.21 7.54001 24.78C4.18001 21.51 3.90001 17.18 3.85001 15.84"  stroke-width="2" stroke-miterlimit="10" stroke-linejoin="round"/>
</svg>
