<svg width="64" height="64" viewBox="0 0 64 64" fill="none" xmlns="http://www.w3.org/2000/svg">
<path d="M30.5 17V32.1C30.5 32.69 30.62 33.28 30.85 33.83C31.17 34.58 31.77 35.17 32.53 35.48L42 39.33"  stroke-width="3" stroke-miterlimit="10"/>
<path d="M8.5 8V21.5H10.08H22"  stroke-width="3" stroke-miterlimit="10" stroke-linejoin="round"/>
<path d="M10.38 20.89C11.16 19.37 15.17 11.92 24.34 8.81C25.53 8.41 34.62 5.48 43.33 10.18C54 15.95 61.41 31.73 52.86 45.2C47.21 54.1 36.37 58.5 26.18 55.79C21.76 54.61 18.02 52.41 15.1 49.56C8.38002 43 7.80002 34.33 7.71002 31.65"  stroke-width="3" stroke-miterlimit="10" stroke-linejoin="round"/>
</svg>
