<svg width="72" height="72" viewBox="0 0 72 72" fill="none" xmlns="http://www.w3.org/2000/svg">
<path d="M12.5 61.5H59.5C60.6 61.5 61.5 60.6 61.5 59.5V12.5C61.5 11.4 60.6 10.5 59.5 10.5H12.5C11.4 10.5 10.5 11.4 10.5 12.5V59.5C10.5 60.6 11.4 61.5 12.5 61.5Z"  stroke-width="3" stroke-miterlimit="10" stroke-linejoin="round"/>
<path d="M21.5 24V50"  stroke-width="3" stroke-miterlimit="10" stroke-linejoin="round"/>
<path d="M51.5 24V36.5H22"  stroke-width="3" stroke-miterlimit="10" stroke-linejoin="round"/>
<path d="M36.5 24V50"  stroke-width="3" stroke-miterlimit="10" stroke-linejoin="round"/>
<path d="M21.5 54.5C23.1569 54.5 24.5 53.1569 24.5 51.5C24.5 49.8431 23.1569 48.5 21.5 48.5C19.8431 48.5 18.5 49.8431 18.5 51.5C18.5 53.1569 19.8431 54.5 21.5 54.5Z"  stroke-width="3" stroke-miterlimit="10" stroke-linejoin="round"/>
<path d="M21.5 23.5C23.1569 23.5 24.5 22.1569 24.5 20.5C24.5 18.8431 23.1569 17.5 21.5 17.5C19.8431 17.5 18.5 18.8431 18.5 20.5C18.5 22.1569 19.8431 23.5 21.5 23.5Z"  stroke-width="3" stroke-miterlimit="10" stroke-linejoin="round"/>
<path d="M36.5 54.5C38.1569 54.5 39.5 53.1569 39.5 51.5C39.5 49.8431 38.1569 48.5 36.5 48.5C34.8431 48.5 33.5 49.8431 33.5 51.5C33.5 53.1569 34.8431 54.5 36.5 54.5Z"  stroke-width="3" stroke-miterlimit="10" stroke-linejoin="round"/>
<path d="M36.5 23.5C38.1569 23.5 39.5 22.1569 39.5 20.5C39.5 18.8431 38.1569 17.5 36.5 17.5C34.8431 17.5 33.5 18.8431 33.5 20.5C33.5 22.1569 34.8431 23.5 36.5 23.5Z"  stroke-width="3" stroke-miterlimit="10" stroke-linejoin="round"/>
<path d="M51.5 23.5C53.1569 23.5 54.5 22.1569 54.5 20.5C54.5 18.8431 53.1569 17.5 51.5 17.5C49.8431 17.5 48.5 18.8431 48.5 20.5C48.5 22.1569 49.8431 23.5 51.5 23.5Z"  stroke-width="3" stroke-miterlimit="10" stroke-linejoin="round"/>
</svg>
