<svg width="40" height="40" viewBox="0 0 40 40" fill="none" xmlns="http://www.w3.org/2000/svg">
<path d="M6 35H34C34.55 35 35 34.55 35 34V6C35 5.45 34.55 5 34 5H6C5.45 5 5 5.45 5 6V34C5 34.55 5.45 35 6 35Z"  stroke-width="2" stroke-miterlimit="10" stroke-linejoin="round"/>
<path d="M11 13V28"  stroke-width="2" stroke-miterlimit="10" stroke-linejoin="round"/>
<path d="M20 13V27"  stroke-width="2" stroke-miterlimit="10" stroke-linejoin="round"/>
<path d="M29 13V21H11"  stroke-width="2" stroke-miterlimit="10" stroke-linejoin="round"/>
<path d="M11 31C12.1046 31 13 30.1046 13 29C13 27.8954 12.1046 27 11 27C9.89543 27 9 27.8954 9 29C9 30.1046 9.89543 31 11 31Z"  stroke-width="2" stroke-miterlimit="10" stroke-linejoin="round"/>
<path d="M20 31C21.1046 31 22 30.1046 22 29C22 27.8954 21.1046 27 20 27C18.8954 27 18 27.8954 18 29C18 30.1046 18.8954 31 20 31Z"  stroke-width="2" stroke-miterlimit="10" stroke-linejoin="round"/>
<path d="M11 13C12.1046 13 13 12.1046 13 11C13 9.89543 12.1046 9 11 9C9.89543 9 9 9.89543 9 11C9 12.1046 9.89543 13 11 13Z"  stroke-width="2" stroke-miterlimit="10" stroke-linejoin="round"/>
<path d="M20 13C21.1046 13 22 12.1046 22 11C22 9.89543 21.1046 9 20 9C18.8954 9 18 9.89543 18 11C18 12.1046 18.8954 13 20 13Z"  stroke-width="2" stroke-miterlimit="10" stroke-linejoin="round"/>
<path d="M29 13C30.1046 13 31 12.1046 31 11C31 9.89543 30.1046 9 29 9C27.8954 9 27 9.89543 27 11C27 12.1046 27.8954 13 29 13Z"  stroke-width="2" stroke-miterlimit="10" stroke-linejoin="round"/>
</svg>
