<svg width="16" height="16" viewBox="0 0 16 16" fill="none" xmlns="http://www.w3.org/2000/svg">
<path d="M2 5C3.10457 5 4 4.10457 4 3C4 1.89543 3.10457 1 2 1C0.89543 1 0 1.89543 0 3C0 4.10457 0.89543 5 2 5Z"/>
<path d="M8 5C9.10457 5 10 4.10457 10 3C10 1.89543 9.10457 1 8 1C6.89543 1 6 1.89543 6 3C6 4.10457 6.89543 5 8 5Z"/>
<path d="M2 15C3.10457 15 4 14.1046 4 13C4 11.8954 3.10457 11 2 11C0.89543 11 0 11.8954 0 13C0 14.1046 0.89543 15 2 15Z"/>
<path d="M8 15C9.10457 15 10 14.1046 10 13C10 11.8954 9.10457 11 8 11C6.89543 11 6 11.8954 6 13C6 14.1046 6.89543 15 8 15Z"/>
<path d="M14 5C15.1046 5 16 4.10457 16 3C16 1.89543 15.1046 1 14 1C12.8954 1 12 1.89543 12 3C12 4.10457 12.8954 5 14 5Z"/>
<path d="M2 3V13"  stroke-width="2" stroke-miterlimit="10" stroke-linejoin="round"/>
<path d="M8 3V13"  stroke-width="2" stroke-miterlimit="10" stroke-linejoin="round"/>
<path d="M14 3V8H2"  stroke-width="2" stroke-miterlimit="10" stroke-linejoin="round"/>
</svg>
