<svg width="32" height="32" viewBox="0 0 32 32" fill="none" xmlns="http://www.w3.org/2000/svg">
<path d="M6 27H26C26.55 27 27 26.55 27 26V6C27 5.45 26.55 5 26 5H6C5.45 5 5 5.45 5 6V26C5 26.55 5.45 27 6 27Z"  stroke-width="2" stroke-miterlimit="10" stroke-linejoin="round"/>
<path d="M10 12C11.1046 12 12 11.1046 12 10C12 8.89543 11.1046 8 10 8C8.89543 8 8 8.89543 8 10C8 11.1046 8.89543 12 10 12Z"/>
<path d="M10 24C11.1046 24 12 23.1046 12 22C12 20.8954 11.1046 20 10 20C8.89543 20 8 20.8954 8 22C8 23.1046 8.89543 24 10 24Z"/>
<path d="M16 12C17.1046 12 18 11.1046 18 10C18 8.89543 17.1046 8 16 8C14.8954 8 14 8.89543 14 10C14 11.1046 14.8954 12 16 12Z"/>
<path d="M22 12C23.1046 12 24 11.1046 24 10C24 8.89543 23.1046 8 22 8C20.8954 8 20 8.89543 20 10C20 11.1046 20.8954 12 22 12Z"/>
<path d="M16 24C17.1046 24 18 23.1046 18 22C18 20.8954 17.1046 20 16 20C14.8954 20 14 20.8954 14 22C14 23.1046 14.8954 24 16 24Z"/>
<path d="M10 11V22"  stroke-width="2" stroke-miterlimit="10" stroke-linejoin="round"/>
<path d="M16 11V22"  stroke-width="2" stroke-miterlimit="10" stroke-linejoin="round"/>
<path d="M22 11V16H10"  stroke-width="2" stroke-miterlimit="10" stroke-linejoin="round"/>
</svg>
