
<svg xmlns="http://www.w3.org/2000/svg" width="24" height="24" viewBox="0 0 24 24" fill="none" stroke="transparent" stroke-width="0">
<path d="M12.6007 23H4.9647C3.90804 23 3.40111 22.4782 3.4184 21.4241C3.48999 17.7011 6.4073 14.36 10.0965 13.9049C11.9893 13.672 13.9117 13.6094 15.7945 14.0258C19.0633 14.7492 21.5551 17.7044 21.7839 21.0521C21.7946 21.206 21.8094 21.3599 21.8152 21.5129C21.8448 22.4182 21.2934 22.9942 20.3915 22.9942C19.0567 23 17.7227 22.9942 16.3887 22.9942L12.6007 23Z" />
<path d="M12.6049 11.5189C11.9108 11.5169 11.2239 11.3775 10.5838 11.1089C9.94379 10.8402 9.36322 10.4476 8.87558 9.9536C8.38793 9.4596 8.00285 8.87401 7.74251 8.23054C7.48216 7.58707 7.35171 6.89845 7.35866 6.20435C7.36854 3.33724 9.7674 0.982813 12.6584 1.00009C15.5263 1.0182 17.8964 3.40554 17.8766 6.25702C17.876 6.94867 17.7391 7.63341 17.4738 8.27216C17.2085 8.91091 16.82 9.49115 16.3305 9.97976C15.841 10.4684 15.26 10.8558 14.6208 11.1199C13.9815 11.3839 13.2965 11.5195 12.6049 11.5189Z" />
</svg>