<svg width="32" height="32" viewBox="0 0 32 32" fill="none" xmlns="http://www.w3.org/2000/svg">
<path d="M4 9V22.2C4 22.64 4.36 23 4.8 23H16.04C16.23 23 16.41 23.07 16.56 23.19L21.69 27.54C22.2 27.98 23 27.61 23 26.93V23.8C23 23.36 23.36 23 23.8 23H27.2C27.64 23 28 22.64 28 22.2V5.8C28 5.36 27.64 5 27.2 5H8"  stroke-width="2" stroke-miterlimit="10" stroke-linejoin="round"/>
<path d="M10 15C10.5523 15 11 14.5523 11 14C11 13.4477 10.5523 13 10 13C9.44772 13 9 13.4477 9 14C9 14.5523 9.44772 15 10 15Z"  stroke-width="2" stroke-miterlimit="10" stroke-linejoin="round"/>
<path d="M16 15C16.5523 15 17 14.5523 17 14C17 13.4477 16.5523 13 16 13C15.4477 13 15 13.4477 15 14C15 14.5523 15.4477 15 16 15Z"  stroke-width="2" stroke-miterlimit="10" stroke-linejoin="round"/>
<path d="M22 15C22.5523 15 23 14.5523 23 14C23 13.4477 22.5523 13 22 13C21.4477 13 21 13.4477 21 14C21 14.5523 21.4477 15 22 15Z"  stroke-width="2" stroke-miterlimit="10" stroke-linejoin="round"/>
</svg>
