<svg width="64" height="64" viewBox="0 0 64 64" fill="none" xmlns="http://www.w3.org/2000/svg">
<path d="M8.5 17V42.5C8.5 43.6 9.4 44.5 10.5 44.5H34.5L44.82 53.96C45.46 54.55 46.5 54.09 46.5 53.22V44.5H53.5C54.6 44.5 55.5 43.6 55.5 42.5V11.5C55.5 10.4 54.6 9.5 53.5 9.5H16"  stroke-width="3" stroke-miterlimit="10" stroke-linejoin="round"/>
<path d="M21 27.5C21.8284 27.5 22.5 26.8284 22.5 26C22.5 25.1716 21.8284 24.5 21 24.5C20.1716 24.5 19.5 25.1716 19.5 26C19.5 26.8284 20.1716 27.5 21 27.5Z"  stroke-width="3" stroke-miterlimit="10" stroke-linejoin="round"/>
<path d="M32 27.5C32.8284 27.5 33.5 26.8284 33.5 26C33.5 25.1716 32.8284 24.5 32 24.5C31.1716 24.5 30.5 25.1716 30.5 26C30.5 26.8284 31.1716 27.5 32 27.5Z"  stroke-width="3" stroke-miterlimit="10" stroke-linejoin="round"/>
<path d="M43 27.5C43.8284 27.5 44.5 26.8284 44.5 26C44.5 25.1716 43.8284 24.5 43 24.5C42.1716 24.5 41.5 25.1716 41.5 26C41.5 26.8284 42.1716 27.5 43 27.5Z"  stroke-width="3" stroke-miterlimit="10" stroke-linejoin="round"/>
</svg>
