<svg width="24" height="24" viewBox="0 0 24 24" fill="none" xmlns="http://www.w3.org/2000/svg">
<path d="M3 4V16.4C3 16.73 3.27 17 3.6 17H11.45C11.59 17 11.72 17.05 11.83 17.14L16.02 20.59C16.41 20.91 17 20.63 17 20.13V17.6C17 17.27 17.27 17 17.6 17H20.4C20.73 17 21 16.73 21 16.4V3.6C21 3.27 20.73 3 20.4 3H4C3.45 3 3 3.45 3 4Z"  stroke-width="2" stroke-miterlimit="10" stroke-linejoin="round"/>
<path d="M7 11C7.55228 11 8 10.5523 8 10C8 9.44772 7.55228 9 7 9C6.44772 9 6 9.44772 6 10C6 10.5523 6.44772 11 7 11Z"/>
<path d="M12 11C12.5523 11 13 10.5523 13 10C13 9.44772 12.5523 9 12 9C11.4477 9 11 9.44772 11 10C11 10.5523 11.4477 11 12 11Z"/>
<path d="M17 11C17.5523 11 18 10.5523 18 10C18 9.44772 17.5523 9 17 9C16.4477 9 16 9.44772 16 10C16 10.5523 16.4477 11 17 11Z"/>
</svg>
