<svg width="72" height="72" viewBox="0 0 72 72" fill="none" xmlns="http://www.w3.org/2000/svg">
<path d="M9.5 18V47.25C9.5 48.49 10.51 49.5 11.75 49.5H39.17L50.62 60.02C51.34 60.68 52.51 60.17 52.51 59.19V49.5H60.26C61.5 49.5 62.51 48.49 62.51 47.25V12.75C62.51 11.51 61.5 10.5 60.26 10.5H18"  stroke-width="3" stroke-miterlimit="10" stroke-linejoin="round"/>
<path d="M24 30.5C24.8284 30.5 25.5 29.8284 25.5 29C25.5 28.1716 24.8284 27.5 24 27.5C23.1716 27.5 22.5 28.1716 22.5 29C22.5 29.8284 23.1716 30.5 24 30.5Z"  stroke-width="3" stroke-miterlimit="10" stroke-linejoin="round"/>
<path d="M36 30.5C36.8284 30.5 37.5 29.8284 37.5 29C37.5 28.1716 36.8284 27.5 36 27.5C35.1716 27.5 34.5 28.1716 34.5 29C34.5 29.8284 35.1716 30.5 36 30.5Z"  stroke-width="3" stroke-miterlimit="10" stroke-linejoin="round"/>
<path d="M48 30.5C48.8284 30.5 49.5 29.8284 49.5 29C49.5 28.1716 48.8284 27.5 48 27.5C47.1716 27.5 46.5 28.1716 46.5 29C46.5 29.8284 47.1716 30.5 48 30.5Z"  stroke-width="3" stroke-miterlimit="10" stroke-linejoin="round"/>
</svg>
