<svg width="40" height="40" viewBox="0 0 40 40" fill="none" xmlns="http://www.w3.org/2000/svg">
<path d="M5 11V27C5 27.55 5.45 28 6 28H20.63C20.87 28 21.1 28.09 21.28 28.24L27.34 33.48C27.99 34.04 28.99 33.58 28.99 32.72V29C28.99 28.45 29.44 28 29.99 28H33.99C34.54 28 34.99 27.55 34.99 27V7C34.99 6.45 34.54 6 33.99 6H9.99"  stroke-width="2" stroke-miterlimit="10" stroke-linejoin="round"/>
<path d="M13 18C13.5523 18 14 17.5523 14 17C14 16.4477 13.5523 16 13 16C12.4477 16 12 16.4477 12 17C12 17.5523 12.4477 18 13 18Z"  stroke-width="2" stroke-miterlimit="10" stroke-linejoin="round"/>
<path d="M20 18C20.5523 18 21 17.5523 21 17C21 16.4477 20.5523 16 20 16C19.4477 16 19 16.4477 19 17C19 17.5523 19.4477 18 20 18Z"  stroke-width="2" stroke-miterlimit="10" stroke-linejoin="round"/>
<path d="M27 18C27.5523 18 28 17.5523 28 17C28 16.4477 27.5523 16 27 16C26.4477 16 26 16.4477 26 17C26 17.5523 26.4477 18 27 18Z"  stroke-width="2" stroke-miterlimit="10" stroke-linejoin="round"/>
</svg>
