<svg width="24" height="24" viewBox="0 0 24 24" fill="none" xmlns="http://www.w3.org/2000/svg">
<path d="M15.1641 12L8.17969 5.01562C8.05469 4.90625 7.99219 4.77344 7.99219 4.61719C7.99219 4.44531 8.05469 4.29688 8.17969 4.17188C8.28906 4.0625 8.42188 4.00781 8.57812 4.00781C8.75 4.00781 8.89062 4.0625 9 4.17188L16.125 11.2969C16.3281 11.4844 16.4297 11.7188 16.4297 12C16.4297 12.2812 16.3281 12.5156 16.125 12.7031L9.02344 19.8047C8.91406 19.9297 8.77344 19.9922 8.60156 19.9922C8.44531 19.9922 8.30469 19.9453 8.17969 19.8516C8.05469 19.7266 7.99219 19.5859 7.99219 19.4297C7.99219 19.2578 8.05469 19.1094 8.17969 18.9844L15.1641 12Z" fill="#DD6100"/>
</svg>
