<svg width="105" height="104" viewBox="0 0 105 104" fill="none" xmlns="http://www.w3.org/2000/svg">
<path fill-rule="evenodd" clip-rule="evenodd" d="M0.5 52C0.5 80.7188 23.7812 104 52.5 104C81.2188 104 104.5 80.7188 104.5 52C104.5 23.2812 81.2188 0 52.5 0C23.7812 0 0.5 23.2812 0.5 52ZM99.5 52C99.5 77.9574 78.4574 99 52.5 99C26.5426 99 5.5 77.9574 5.5 52C5.5 26.0426 26.5426 5 52.5 5C78.4574 5 99.5 26.0426 99.5 52Z" fill="#177339"/>
<path d="M72.6167 33.536C73.8871 32.2292 76.0326 32.1477 77.4089 33.3539C78.7852 34.5602 78.871 36.5974 77.6007 37.9042L45.9485 70.464C44.572 71.88 42.2025 71.8387 40.8817 70.3755L27.3165 55.3484C26.0976 53.9981 26.2623 51.9653 27.6843 50.8079C29.1064 49.6505 31.2473 49.8069 32.4662 51.1572L43.5504 63.4359L72.6167 33.536Z" fill="#177339"/>
</svg>
