<svg width="24" height="24" viewBox="0 0 24 24" fill="none" xmlns="http://www.w3.org/2000/svg">
<path d="M19.9922 19.5C19.9922 19.6406 19.9453 19.7578 19.8516 19.8516C19.7578 19.9453 19.6406 19.9922 19.5 19.9922H18V21.4922C18 21.6328 17.9453 21.75 17.8359 21.8438C17.7422 21.9531 17.6328 22.0078 17.5078 22.0078C17.3672 22.0078 17.2422 21.9531 17.1328 21.8438C17.0391 21.75 16.9922 21.6328 16.9922 21.4922V19.9922H15.4922C15.3516 19.9922 15.2344 19.9453 15.1406 19.8516C15.0469 19.7578 15 19.6406 15 19.5C15 19.3594 15.0469 19.2422 15.1406 19.1484C15.2344 19.0547 15.3516 19.0078 15.4922 19.0078H16.9922V17.5078C16.9922 17.3672 17.0391 17.25 17.1328 17.1562C17.2422 17.0469 17.3672 16.9922 17.5078 16.9922C17.6328 16.9922 17.7422 17.0469 17.8359 17.1562C17.9453 17.25 18 17.3672 18 17.5078V19.0078H19.5C19.6406 19.0078 19.7578 19.0547 19.8516 19.1484C19.9453 19.2422 19.9922 19.3594 19.9922 19.5ZM23.7656 22.9453C23.6719 23.1016 23.5625 23.2422 23.4375 23.3672C23.3281 23.4922 23.1953 23.6016 23.0391 23.6953C22.8828 23.8047 22.7109 23.8828 22.5234 23.9297C22.3516 23.9766 22.1719 24 21.9844 24H12.9844C12.7969 24 12.6172 23.9766 12.4453 23.9297C12.2734 23.8828 12.1016 23.8047 11.9297 23.6953C11.7891 23.6016 11.6562 23.4922 11.5312 23.3672C11.4219 23.2422 11.3203 23.1016 11.2266 22.9453C11.1484 22.8047 11.0859 22.6484 11.0391 22.4766C11.0078 22.3047 10.9922 22.1328 10.9922 21.9609C10.9922 21.7734 11.0156 21.5859 11.0625 21.3984C11.125 21.2266 11.2109 21.0625 11.3203 20.9062L15.8203 13.9219C15.8203 13.9219 15.8203 13.9141 15.8203 13.8984C16.0078 13.6172 16.25 13.3984 16.5469 13.2422C16.8438 13.0859 17.1562 13.0078 17.4844 13.0078C17.8281 13.0078 18.1484 13.0859 18.4453 13.2422C18.7422 13.3984 18.9844 13.6172 19.1719 13.8984C19.1719 13.9141 19.1719 13.9219 19.1719 13.9219L23.6719 20.9062C23.7812 21.0625 23.8594 21.2266 23.9062 21.3984C23.9688 21.5859 24 21.7734 24 21.9609C24 22.1328 23.9766 22.3047 23.9297 22.4766C23.8984 22.6484 23.8438 22.8047 23.7656 22.9453ZM22.8281 21.4453L18.3281 14.4609C18.2344 14.3047 18.1094 14.1875 17.9531 14.1094C17.8125 14.0312 17.6641 13.9922 17.5078 13.9922C17.3359 13.9922 17.1719 14.0312 17.0156 14.1094C16.875 14.1875 16.7578 14.3047 16.6641 14.4609L12.1641 21.4453C11.9453 21.7891 11.9297 22.1328 12.1172 22.4766C12.3047 22.8203 12.6016 22.9922 13.0078 22.9922H22.0078C22.3984 22.9922 22.6875 22.8203 22.875 22.4766C23.0625 22.1328 23.0469 21.7891 22.8281 21.4453ZM7.00781 13.9922C6.44531 13.9922 5.96875 14.1875 5.57812 14.5781C5.1875 14.9688 4.99219 15.4453 4.99219 16.0078C4.99219 16.5547 5.1875 17.0234 5.57812 17.4141C5.96875 17.8047 6.44531 18 7.00781 18C7.55469 18 8.02344 17.8047 8.41406 17.4141C8.80469 17.0234 9 16.5547 9 16.0078C9 15.4453 8.80469 14.9688 8.41406 14.5781C8.02344 14.1875 7.55469 13.9922 7.00781 13.9922ZM7.00781 13.0078C7.83594 13.0078 8.53906 13.3047 9.11719 13.8984C9.71094 14.4766 10.0078 15.1797 10.0078 16.0078C10.0078 16.8359 9.71094 17.5469 9.11719 18.1406C8.53906 18.7188 7.83594 19.0078 7.00781 19.0078C6.17969 19.0078 5.46875 18.7188 4.875 18.1406C4.29688 17.5469 4.00781 16.8359 4.00781 16.0078C4.00781 15.1797 4.29688 14.4766 4.875 13.8984C5.46875 13.3047 6.17969 13.0078 7.00781 13.0078ZM14.4375 6.44531L16.9922 9L20.9062 10.4531C21.2344 10.625 21.5 10.875 21.7031 11.2031C21.9062 11.5156 22.0078 11.8594 22.0078 12.2344V13.0078C22.0078 13.4141 21.9297 13.7969 21.7734 14.1562C21.6172 14.5156 21.4062 14.8359 21.1406 15.1172L21.6797 15.9609C21.7109 15.9453 21.7344 15.9297 21.75 15.9141C21.7812 15.8828 21.8047 15.8516 21.8203 15.8203C22.0078 15.6484 22.1719 15.4531 22.3125 15.2344C22.4531 15.0156 22.5781 14.7891 22.6875 14.5547C22.7969 14.3047 22.875 14.0547 22.9219 13.8047C22.9688 13.5391 22.9922 13.2734 22.9922 13.0078V12.2344C22.9922 11.9531 22.9531 11.6797 22.875 11.4141C22.8125 11.1484 22.7031 10.8984 22.5469 10.6641C22.4062 10.4297 22.2344 10.2188 22.0312 10.0312C21.8281 9.84375 21.6016 9.6875 21.3516 9.5625L21.3047 9.53906L21.2344 9.51562L17.5547 8.13281L15.1641 5.74219C15.0391 5.61719 14.9062 5.51563 14.7656 5.4375C14.6406 5.34375 14.5 5.26562 14.3438 5.20312C14.1875 5.125 14.0234 5.07031 13.8516 5.03906C13.6953 5.00781 13.5312 4.99219 13.3594 4.99219H7.99219C7.75781 4.99219 7.51562 5.03906 7.26562 5.13281C7.01562 5.21094 6.75781 5.32813 6.49219 5.48438C6.28906 5.60938 6.08594 5.75781 5.88281 5.92969C5.67969 6.10156 5.48438 6.28125 5.29688 6.46875C5.10938 6.67187 4.9375 6.88281 4.78125 7.10156C4.64062 7.32031 4.51562 7.53906 4.40625 7.75781C4.29688 7.97656 4.20312 8.19531 4.125 8.41406C4.0625 8.61719 4.02344 8.8125 4.00781 9C3.77344 9.01562 3.54688 9.0625 3.32812 9.14062C3.125 9.21875 2.9375 9.32031 2.76562 9.44531C2.51562 9.63281 2.32031 9.85938 2.17969 10.125C2.05469 10.3906 1.99219 10.6797 1.99219 10.9922V14.8359C1.99219 15.1016 2.07031 15.3438 2.22656 15.5625C2.38281 15.7656 2.58594 15.9141 2.83594 16.0078L3 16.0547C3 16.0391 3 16.0312 3 16.0312C3 16.0156 3 16.0078 3 16.0078C3 15.8359 3.00781 15.6719 3.02344 15.5156C3.05469 15.3438 3.08594 15.1797 3.11719 15.0234C3.08594 15.0078 3.05469 14.9844 3.02344 14.9531C3.00781 14.9062 3 14.8672 3 14.8359V10.9922C3 10.6484 3.11719 10.3984 3.35156 10.2422C3.60156 10.0859 3.89844 10.0078 4.24219 10.0078H4.99219V9.23438C4.99219 8.60938 5.33594 7.91406 6.02344 7.14844C6.72656 6.38281 7.38281 6 7.99219 6H13.3594C13.5625 6 13.7578 6.03906 13.9453 6.11719C14.1328 6.19531 14.2969 6.30469 14.4375 6.44531ZM13.0312 16.4062C13.0156 16.3438 13.0078 16.2812 13.0078 16.2188C13.0078 16.1406 13.0078 16.0703 13.0078 16.0078H10.9922C10.9922 16.1797 10.9844 16.3516 10.9688 16.5234C10.9531 16.6797 10.9219 16.8359 10.875 16.9922H12.6562L13.0312 16.4062Z" fill="#EC7000"/>
</svg>
