<svg width="24" height="24" viewBox="0 0 24 24" fill="none" xmlns="http://www.w3.org/2000/svg">
<path d="M4.99219 21.4922C4.99219 21.6484 4.9375 21.7734 4.82812 21.8672C4.71875 21.9766 4.58594 22.0156 4.42969 21.9844C3.46094 21.8594 2.64844 21.4219 1.99219 20.6719C1.33594 19.9219 1.00781 19.0391 1.00781 18.0234V5.97656C1.00781 4.96094 1.33594 4.07812 1.99219 3.32812C2.64844 2.57812 3.46094 2.14063 4.42969 2.01562C4.58594 1.98437 4.71875 2.02344 4.82812 2.13281C4.9375 2.22656 4.99219 2.35156 4.99219 2.50781C4.99219 2.63281 4.95312 2.74219 4.875 2.83594C4.79688 2.92969 4.69531 2.98438 4.57031 3C4.25781 3.04688 3.95312 3.14062 3.65625 3.28125C3.375 3.42188 3.11719 3.60938 2.88281 3.84375C2.60156 4.125 2.38281 4.45312 2.22656 4.82812C2.07031 5.1875 1.99219 5.57031 1.99219 5.97656V18.0234C1.99219 18.4297 2.07031 18.8203 2.22656 19.1953C2.38281 19.5547 2.60156 19.875 2.88281 20.1562C3.11719 20.3906 3.375 20.5781 3.65625 20.7188C3.95312 20.8594 4.25781 20.9531 4.57031 21C4.69531 21.0156 4.79688 21.0703 4.875 21.1641C4.95312 21.2578 4.99219 21.3672 4.99219 21.4922ZM18.5625 2.01562C18.4219 1.98437 18.2891 2.02344 18.1641 2.13281C18.0547 2.22656 18 2.35156 18 2.50781C18 2.63281 18.0391 2.74219 18.1172 2.83594C18.2109 2.92969 18.3125 2.98438 18.4219 3C18.75 3.04688 19.0547 3.14062 19.3359 3.28125C19.6172 3.42188 19.875 3.60938 20.1094 3.84375C20.4062 4.125 20.625 4.45312 20.7656 4.82812C20.9219 5.1875 21 5.5625 21 5.95312V18.0234C21 18.4297 20.9219 18.8203 20.7656 19.1953C20.625 19.5547 20.4062 19.875 20.1094 20.1562C19.875 20.3906 19.6172 20.5781 19.3359 20.7188C19.0547 20.8594 18.75 20.9531 18.4219 21C18.3125 21.0156 18.2109 21.0703 18.1172 21.1641C18.0391 21.2578 18 21.3672 18 21.4922C18 21.6484 18.0547 21.7734 18.1641 21.8672C18.2891 21.9766 18.4219 22.0156 18.5625 21.9844C19.5312 21.8594 20.3438 21.4219 21 20.6719C21.6719 19.9219 22.0078 19.0391 22.0078 18.0234V5.97656C22.0078 4.96094 21.6719 4.07812 21 3.32812C20.3438 2.57812 19.5312 2.14063 18.5625 2.01562ZM10.0078 15C10.0078 15.5469 9.8125 16.0156 9.42188 16.4062C9.03125 16.7969 8.55469 16.9922 7.99219 16.9922C7.44531 16.9922 6.97656 16.7969 6.58594 16.4062C6.19531 16.0156 6 15.5469 6 15C6 14.4531 6.19531 13.9844 6.58594 13.5938C6.97656 13.2031 7.44531 13.0078 7.99219 13.0078C8.55469 13.0078 9.03125 13.2031 9.42188 13.5938C9.8125 13.9844 10.0078 14.4531 10.0078 15ZM9 15C9 14.7188 8.89844 14.4844 8.69531 14.2969C8.50781 14.0938 8.27344 13.9922 7.99219 13.9922C7.72656 13.9922 7.49219 14.0938 7.28906 14.2969C7.10156 14.4844 7.00781 14.7188 7.00781 15C7.00781 15.2812 7.10156 15.5234 7.28906 15.7266C7.49219 15.9141 7.72656 16.0078 7.99219 16.0078C8.27344 16.0078 8.50781 15.9141 8.69531 15.7266C8.89844 15.5234 9 15.2812 9 15ZM16.9922 15C16.9922 15.5469 16.7969 16.0156 16.4062 16.4062C16.0156 16.7969 15.5469 16.9922 15 16.9922C14.4531 16.9922 13.9844 16.7969 13.5938 16.4062C13.2031 16.0156 13.0078 15.5469 13.0078 15C13.0078 14.4531 13.2031 13.9844 13.5938 13.5938C13.9844 13.2031 14.4531 13.0078 15 13.0078C15.5469 13.0078 16.0156 13.2031 16.4062 13.5938C16.7969 13.9844 16.9922 14.4531 16.9922 15ZM16.0078 15C16.0078 14.7188 15.9062 14.4844 15.7031 14.2969C15.5156 14.0938 15.2812 13.9922 15 13.9922C14.7188 13.9922 14.4766 14.0938 14.2734 14.2969C14.0859 14.4844 13.9922 14.7188 13.9922 15C13.9922 15.2812 14.0859 15.5234 14.2734 15.7266C14.4766 15.9141 14.7188 16.0078 15 16.0078C15.2812 16.0078 15.5156 15.9141 15.7031 15.7266C15.9062 15.5234 16.0078 15.2812 16.0078 15ZM19.0078 13.0078C19.0078 12.4141 18.8203 11.8906 18.4453 11.4375C18.0859 10.9688 17.625 10.6641 17.0625 10.5234L15.2812 10.0781C15.1875 10.0469 15.1016 10.0078 15.0234 9.96094C14.9453 9.91406 14.875 9.85938 14.8125 9.79688L13.2891 8.29688C13.1953 8.20312 13.0859 8.13281 12.9609 8.08594C12.8516 8.02344 12.7266 7.99219 12.5859 7.99219H7.99219C7.16406 7.99219 6.45312 8.28906 5.85938 8.88281C5.28125 9.46094 4.99219 10.1641 4.99219 10.9922C4.72656 10.9922 4.49219 11.0938 4.28906 11.2969C4.10156 11.4844 4.00781 11.7188 4.00781 12V14.1797C4.00781 14.4141 4.07812 14.625 4.21875 14.8125C4.375 15 4.57031 15.1172 4.80469 15.1641L5.01562 15.2109C5 15.1641 4.99219 15.125 4.99219 15.0938C4.99219 15.0625 4.99219 15.0312 4.99219 15C4.99219 14.8594 5 14.7266 5.01562 14.6016C5.04688 14.4609 5.07812 14.3281 5.10938 14.2031L4.99219 14.1797V12H6V10.9922C6 10.4453 6.19531 9.97656 6.58594 9.58594C6.97656 9.19531 7.44531 9 7.99219 9H12.5859L14.0859 10.5234C14.2266 10.6484 14.375 10.7578 14.5312 10.8516C14.6875 10.9297 14.8516 10.9922 15.0234 11.0391L16.8281 11.4844C17.1719 11.5781 17.4531 11.7656 17.6719 12.0469C17.8906 12.3281 18 12.6484 18 13.0078C18 13.1641 17.9766 13.3125 17.9297 13.4531C17.8984 13.5938 17.8516 13.7266 17.7891 13.8516C17.8516 14.0391 17.8984 14.2266 17.9297 14.4141C17.9766 14.6016 18 14.7969 18 15C18 15.0156 18 15.0391 18 15.0703C18 15.0859 18 15.1094 18 15.1406C18.3125 14.875 18.5547 14.5625 18.7266 14.2031C18.9141 13.8281 19.0078 13.4297 19.0078 13.0078ZM10.9922 15C10.9922 15.1719 10.9766 15.3438 10.9453 15.5156C10.9297 15.6875 10.8906 15.8516 10.8281 16.0078H12.1641C12.1172 15.8516 12.0781 15.6875 12.0469 15.5156C12.0156 15.3438 12 15.1719 12 15H10.9922Z" fill="#EC7000"/>
</svg>
