<svg width="24" height="24" viewBox="0 0 24 24" fill="none" xmlns="http://www.w3.org/2000/svg">
<path d="M18.4922 1.00781C17.4922 1.00781 16.6016 1.29688 15.8203 1.875C15.0547 2.45312 14.5234 3.19531 14.2266 4.10156C14.3047 4.13281 14.3828 4.16406 14.4609 4.19531C14.5547 4.21094 14.6406 4.23437 14.7188 4.26562C14.7969 4.29688 14.8672 4.33594 14.9297 4.38281C15.0078 4.41406 15.0781 4.44531 15.1406 4.47656C15.2344 4.21094 15.3516 3.95312 15.4922 3.70312C15.6484 3.45313 15.8281 3.22656 16.0312 3.02344C16.3594 2.69531 16.7344 2.44531 17.1562 2.27344C17.5781 2.08594 18.0234 1.99219 18.4922 1.99219C18.9609 1.99219 19.4062 2.08594 19.8281 2.27344C20.2656 2.44531 20.6484 2.69531 20.9766 3.02344C21.3047 3.35156 21.5547 3.73438 21.7266 4.17188C21.9141 4.59375 22.0078 5.03906 22.0078 5.50781C22.0078 5.97656 21.9141 6.42188 21.7266 6.84375C21.5547 7.26562 21.3047 7.64062 20.9766 7.96875C20.9297 8.01562 20.8828 8.0625 20.8359 8.10938C20.7891 8.15625 20.7422 8.19531 20.6953 8.22656L21.5859 8.57812L21.6328 8.60156C21.6484 8.60156 21.6641 8.60938 21.6797 8.625C21.6953 8.625 21.7109 8.625 21.7266 8.625C22.1172 8.21875 22.4219 7.75 22.6406 7.21875C22.875 6.6875 22.9922 6.11719 22.9922 5.50781C22.9922 4.25781 22.5547 3.19531 21.6797 2.32031C20.8047 1.44531 19.7422 1.00781 18.4922 1.00781ZM18.4922 3C18.3672 3 18.25 3.05469 18.1406 3.16406C18.0469 3.25781 18 3.36719 18 3.49219V3.98438C17.7188 4.0625 17.5 4.20313 17.3438 4.40625C17.1875 4.60937 17.1094 4.84375 17.1094 5.10938C17.1094 5.26562 17.1328 5.41406 17.1797 5.55469C17.2422 5.67969 17.3359 5.79688 17.4609 5.90625C17.5547 6 17.6719 6.08594 17.8125 6.16406C17.9531 6.22656 18.1172 6.29687 18.3047 6.375C18.5547 6.46875 18.7266 6.5625 18.8203 6.65625C18.9297 6.73438 18.9844 6.84375 18.9844 6.98438C18.9844 7.07812 18.9453 7.16406 18.8672 7.24219C18.8047 7.30469 18.7109 7.35156 18.5859 7.38281L18.3516 7.45312L18.5859 7.52344L19.4766 7.85156L19.5 7.82812C19.6406 7.71875 19.75 7.58594 19.8281 7.42969C19.9062 7.25781 19.9453 7.07812 19.9453 6.89062C19.9453 6.57812 19.8516 6.32031 19.6641 6.11719C19.4922 5.91406 19.2188 5.74219 18.8438 5.60156C18.5469 5.49219 18.3438 5.39844 18.2344 5.32031C18.125 5.22656 18.0703 5.125 18.0703 5.01562C18.0703 4.875 18.125 4.78125 18.2344 4.73438C18.3594 4.67188 18.4922 4.64062 18.6328 4.64062C18.8359 4.64062 19 4.66406 19.125 4.71094C19.2656 4.75781 19.3828 4.80469 19.4766 4.85156H19.5L19.5703 4.89844L19.5938 4.80469L19.7812 4.19531L19.8047 4.14844L19.7344 4.10156C19.625 4.05469 19.5078 4.01563 19.3828 3.98438C19.2578 3.9375 19.1328 3.90625 19.0078 3.89062V3.49219C19.0078 3.36719 18.9531 3.25781 18.8438 3.16406C18.75 3.05469 18.6328 3 18.4922 3ZM13.3594 4.99219H7.99219C7.75781 4.99219 7.51562 5.03906 7.26562 5.13281C7.01562 5.21094 6.75781 5.32813 6.49219 5.48438C6.28906 5.60938 6.08594 5.75781 5.88281 5.92969C5.67969 6.10156 5.48438 6.28125 5.29688 6.46875C5.10938 6.67187 4.9375 6.88281 4.78125 7.10156C4.64062 7.32031 4.51562 7.53906 4.40625 7.75781C4.29688 7.97656 4.20312 8.19531 4.125 8.41406C4.0625 8.61719 4.02344 8.8125 4.00781 9C3.77344 9.01562 3.54688 9.0625 3.32812 9.14062C3.125 9.21875 2.9375 9.32031 2.76562 9.44531C2.51562 9.63281 2.32031 9.85938 2.17969 10.125C2.05469 10.3906 1.99219 10.6797 1.99219 10.9922V14.8359C1.99219 15.1016 2.07031 15.3438 2.22656 15.5625C2.38281 15.7656 2.58594 15.9141 2.83594 16.0078L3 16.0547C3 16.0391 3 16.0312 3 16.0312C3 16.0156 3 16.0078 3 16.0078C3 15.8359 3.00781 15.6719 3.02344 15.5156C3.05469 15.3438 3.08594 15.1797 3.11719 15.0234C3.08594 15.0078 3.05469 14.9844 3.02344 14.9531C3.00781 14.9062 3 14.8672 3 14.8359V10.9922C3 10.6484 3.11719 10.3984 3.35156 10.2422C3.60156 10.0859 3.89844 10.0078 4.24219 10.0078H4.99219V9.23438C4.99219 8.60938 5.33594 7.91406 6.02344 7.14844C6.72656 6.38281 7.38281 6 7.99219 6H13.3594C13.5625 6 13.7578 6.03906 13.9453 6.11719C14.1328 6.19531 14.2969 6.30469 14.4375 6.44531L16.9922 9L20.9062 10.4531C21.2344 10.625 21.5 10.875 21.7031 11.2031C21.9062 11.5156 22.0078 11.8594 22.0078 12.2344V13.0078C22.0078 13.4609 21.9062 13.8906 21.7031 14.2969C21.5156 14.6875 21.2578 15.0156 20.9297 15.2812C20.9609 15.4062 20.9766 15.5312 20.9766 15.6562C20.9922 15.7656 21 15.8828 21 16.0078C21 16.0859 20.9922 16.1641 20.9766 16.2422C20.9766 16.3203 20.9766 16.3984 20.9766 16.4766C21.1328 16.3984 21.2812 16.3047 21.4219 16.1953C21.5625 16.0859 21.6953 15.9609 21.8203 15.8203C22.0078 15.6484 22.1719 15.4531 22.3125 15.2344C22.4531 15.0156 22.5781 14.7891 22.6875 14.5547C22.7969 14.3047 22.875 14.0547 22.9219 13.8047C22.9688 13.5391 22.9922 13.2734 22.9922 13.0078V12.2344C22.9922 11.9531 22.9531 11.6797 22.875 11.4141C22.8125 11.1484 22.7031 10.8984 22.5469 10.6641C22.4062 10.4297 22.2344 10.2188 22.0312 10.0312C21.8281 9.84375 21.6016 9.6875 21.3516 9.5625L21.3047 9.53906L21.2344 9.51562L17.5547 8.13281L15.1641 5.74219C15.0391 5.61719 14.9062 5.51563 14.7656 5.4375C14.6406 5.34375 14.5 5.26562 14.3438 5.20312C14.1875 5.125 14.0234 5.07031 13.8516 5.03906C13.6953 5.00781 13.5312 4.99219 13.3594 4.99219ZM16.9922 13.0078C16.1641 13.0078 15.4531 13.3047 14.8594 13.8984C14.2812 14.4766 13.9922 15.1797 13.9922 16.0078C13.9922 16.8359 14.2812 17.5469 14.8594 18.1406C15.4531 18.7188 16.1641 19.0078 16.9922 19.0078C17.8203 19.0078 18.5234 18.7188 19.1016 18.1406C19.6953 17.5469 19.9922 16.8359 19.9922 16.0078C19.9922 15.1797 19.6953 14.4766 19.1016 13.8984C18.5234 13.3047 17.8203 13.0078 16.9922 13.0078ZM16.9922 18C16.4453 18 15.9766 17.8047 15.5859 17.4141C15.1953 17.0234 15 16.5547 15 16.0078C15 15.4453 15.1953 14.9688 15.5859 14.5781C15.9766 14.1875 16.4453 13.9922 16.9922 13.9922C17.5547 13.9922 18.0312 14.1875 18.4219 14.5781C18.8125 14.9688 19.0078 15.4453 19.0078 16.0078C19.0078 16.5547 18.8125 17.0234 18.4219 17.4141C18.0312 17.8047 17.5547 18 16.9922 18ZM7.00781 13.0078C6.17969 13.0078 5.46875 13.3047 4.875 13.8984C4.29688 14.4766 4.00781 15.1797 4.00781 16.0078C4.00781 16.8359 4.29688 17.5469 4.875 18.1406C5.46875 18.7188 6.17969 19.0078 7.00781 19.0078C7.83594 19.0078 8.53906 18.7188 9.11719 18.1406C9.71094 17.5469 10.0078 16.8359 10.0078 16.0078C10.0078 15.1797 9.71094 14.4766 9.11719 13.8984C8.53906 13.3047 7.83594 13.0078 7.00781 13.0078ZM7.00781 18C6.44531 18 5.96875 17.8047 5.57812 17.4141C5.1875 17.0234 4.99219 16.5547 4.99219 16.0078C4.99219 15.4453 5.1875 14.9688 5.57812 14.5781C5.96875 14.1875 6.44531 13.9922 7.00781 13.9922C7.55469 13.9922 8.02344 14.1875 8.41406 14.5781C8.80469 14.9688 9 15.4453 9 16.0078C9 16.5547 8.80469 17.0234 8.41406 17.4141C8.02344 17.8047 7.55469 18 7.00781 18ZM13.0078 16.0078H10.9922C10.9922 16.1797 10.9844 16.3516 10.9688 16.5234C10.9531 16.6797 10.9219 16.8359 10.875 16.9922H13.125C13.0781 16.8359 13.0469 16.6797 13.0312 16.5234C13.0156 16.3516 13.0078 16.1797 13.0078 16.0078Z" fill="#EC7000"/>
</svg>
