<svg width="64" height="64" viewBox="0 0 64 64" fill="none" xmlns="http://www.w3.org/2000/svg">
<path d="M53 46.5H60.5V30.5C60.5 29.4 59.6 28.5 58.5 28.5H52.5V21.5C52.5 20.4 51.6 19.5 50.5 19.5H36.5V46.5H44"  stroke-width="3" stroke-miterlimit="10" stroke-linejoin="round"/>
<path d="M61 41.5H48"  stroke-width="3" stroke-miterlimit="10" stroke-linejoin="round"/>
<path d="M60 35.5H52.5V42"  stroke-width="3" stroke-miterlimit="10" stroke-linejoin="round"/>
<path d="M53 28.5H44.5V19"  stroke-width="3" stroke-miterlimit="10" stroke-linejoin="round"/>
<path d="M3.5 21V44.5C3.5 45.6 4.4 46.5 5.5 46.5H8"  stroke-width="3" stroke-miterlimit="10" stroke-linejoin="round"/>
<path d="M30 46.5H36.5V16.5C36.5 15.4 35.6 14.5 34.5 14.5H9"  stroke-width="3" stroke-miterlimit="10" stroke-linejoin="round"/>
<path d="M48.5 51.5C51.2614 51.5 53.5 49.2614 53.5 46.5C53.5 43.7386 51.2614 41.5 48.5 41.5C45.7386 41.5 43.5 43.7386 43.5 46.5C43.5 49.2614 45.7386 51.5 48.5 51.5Z"  stroke-width="3" stroke-miterlimit="10" stroke-linejoin="round"/>
<path d="M24.5 51.5C27.2614 51.5 29.5 49.2614 29.5 46.5C29.5 43.7386 27.2614 41.5 24.5 41.5C21.7386 41.5 19.5 43.7386 19.5 46.5C19.5 49.2614 21.7386 51.5 24.5 51.5Z"  stroke-width="3" stroke-miterlimit="10" stroke-linejoin="round"/>
<path d="M12.5 51.5C15.2614 51.5 17.5 49.2614 17.5 46.5C17.5 43.7386 15.2614 41.5 12.5 41.5C9.73858 41.5 7.5 43.7386 7.5 46.5C7.5 49.2614 9.73858 51.5 12.5 51.5Z"  stroke-width="3" stroke-miterlimit="10" stroke-linejoin="round"/>
<path d="M23.5 22.5L13.5 32.5"  stroke-width="3" stroke-miterlimit="10" stroke-linejoin="round"/>
<path d="M25.5 28.5L20.5 33.5"  stroke-width="3" stroke-miterlimit="10" stroke-linejoin="round"/>
</svg>
