<svg width="16" height="16" viewBox="0 0 16 16" fill="none" xmlns="http://www.w3.org/2000/svg">
<path d="M13 11H15V6H13V4H9V11H11"  stroke-width="2" stroke-miterlimit="10" stroke-linejoin="round"/>
<path d="M6 11H9V3H1V11H3"  stroke-width="2" stroke-miterlimit="10" stroke-linejoin="round"/>
<path d="M12.5 13C13.3284 13 14 12.3284 14 11.5C14 10.6716 13.3284 10 12.5 10C11.6716 10 11 10.6716 11 11.5C11 12.3284 11.6716 13 12.5 13Z"  stroke-width="2" stroke-miterlimit="10" stroke-linejoin="round"/>
<path d="M4.5 13C5.32843 13 6 12.3284 6 11.5C6 10.6716 5.32843 10 4.5 10C3.67157 10 3 10.6716 3 11.5C3 12.3284 3.67157 13 4.5 13Z"  stroke-width="2" stroke-miterlimit="10" stroke-linejoin="round"/>
</svg>
