<svg width="32" height="32" viewBox="0 0 32 32" fill="none" xmlns="http://www.w3.org/2000/svg">
<path d="M26 23H30V15C30 14.45 29.55 14 29 14H26V10C26 9.45 25.55 9 25 9H18V23H22"  stroke-width="2" stroke-miterlimit="10" stroke-linejoin="round"/>
<path d="M30 18H26V21"  stroke-width="2" stroke-miterlimit="10" stroke-linejoin="round"/>
<path d="M26 14H22V9"  stroke-width="2" stroke-miterlimit="10" stroke-linejoin="round"/>
<path d="M2 10V22C2 22.55 2.45 23 3 23H4"  stroke-width="2" stroke-miterlimit="10" stroke-linejoin="round"/>
<path d="M15 23H18V8C18 7.45 17.55 7 17 7H5"  stroke-width="2" stroke-miterlimit="10" stroke-linejoin="round"/>
<path d="M24.5 26C25.8807 26 27 24.8807 27 23.5C27 22.1193 25.8807 21 24.5 21C23.1193 21 22 22.1193 22 23.5C22 24.8807 23.1193 26 24.5 26Z"  stroke-width="2" stroke-miterlimit="10" stroke-linejoin="round"/>
<path d="M12.5 26C13.8807 26 15 24.8807 15 23.5C15 22.1193 13.8807 21 12.5 21C11.1193 21 10 22.1193 10 23.5C10 24.8807 11.1193 26 12.5 26Z"  stroke-width="2" stroke-miterlimit="10" stroke-linejoin="round"/>
<path d="M6.5 26C7.88071 26 9 24.8807 9 23.5C9 22.1193 7.88071 21 6.5 21C5.11929 21 4 22.1193 4 23.5C4 24.8807 5.11929 26 6.5 26Z"  stroke-width="2" stroke-miterlimit="10" stroke-linejoin="round"/>
</svg>
