<svg width="40" height="40" viewBox="0 0 40 40" fill="none" xmlns="http://www.w3.org/2000/svg">
<path d="M32.9 29H38V19C38 18.45 37.55 18 37 18H33V13C33 12.45 32.55 12 32 12H23V29H27.24"  stroke-width="2" stroke-miterlimit="10" stroke-linejoin="round"/>
<path d="M38 26H30"  stroke-width="2" stroke-miterlimit="10" stroke-linejoin="round"/>
<path d="M37.94 22.04H33V26"  stroke-width="2" stroke-miterlimit="10" stroke-linejoin="round"/>
<path d="M33 18H28V12.24"  stroke-width="2" stroke-miterlimit="10" stroke-linejoin="round"/>
<path d="M2 13V28C2 28.55 2.45 29 3 29H4.88"  stroke-width="2" stroke-miterlimit="10" stroke-linejoin="round"/>
<path d="M17.14 29H22C22.55 29 23 28.55 23 28V10C23 9.45 22.55 9 22 9H6"  stroke-width="2" stroke-miterlimit="10" stroke-linejoin="round"/>
<path d="M30 32C31.6569 32 33 30.6569 33 29C33 27.3431 31.6569 26 30 26C28.3431 26 27 27.3431 27 29C27 30.6569 28.3431 32 30 32Z"  stroke-width="2" stroke-miterlimit="10" stroke-linejoin="round"/>
<path d="M15 32C16.6569 32 18 30.6569 18 29C18 27.3431 16.6569 26 15 26C13.3431 26 12 27.3431 12 29C12 30.6569 13.3431 32 15 32Z"  stroke-width="2" stroke-miterlimit="10" stroke-linejoin="round"/>
<path d="M8 32C9.65685 32 11 30.6569 11 29C11 27.3431 9.65685 26 8 26C6.34315 26 5 27.3431 5 29C5 30.6569 6.34315 32 8 32Z"  stroke-width="2" stroke-miterlimit="10" stroke-linejoin="round"/>
</svg>
