<svg width="72" height="72" viewBox="0 0 72 72" fill="none" xmlns="http://www.w3.org/2000/svg">
<path d="M60 52.5H68.5V34.5C68.5 33.4 67.6 32.5 66.5 32.5H59.5V24.5C59.5 23.4 58.6 22.5 57.5 22.5H41.5V52.5H50"  stroke-width="3" stroke-miterlimit="10" stroke-linejoin="round"/>
<path d="M69 46.5H54"  stroke-width="3" stroke-miterlimit="10" stroke-linejoin="round"/>
<path d="M68 39.5H59.5V47"  stroke-width="3" stroke-miterlimit="10" stroke-linejoin="round"/>
<path d="M60 32.5H50.5V22"  stroke-width="3" stroke-miterlimit="10" stroke-linejoin="round"/>
<path d="M3.5 24V50.5C3.5 51.6 4.4 52.5 5.5 52.5H9"  stroke-width="3" stroke-miterlimit="10" stroke-linejoin="round"/>
<path d="M34 52.5H41.5V18.5C41.5 17.4 40.6 16.5 39.5 16.5H11"  stroke-width="3" stroke-miterlimit="10" stroke-linejoin="round"/>
<path d="M55 57.5C58.0376 57.5 60.5 55.0376 60.5 52C60.5 48.9624 58.0376 46.5 55 46.5C51.9624 46.5 49.5 48.9624 49.5 52C49.5 55.0376 51.9624 57.5 55 57.5Z"  stroke-width="3" stroke-miterlimit="10" stroke-linejoin="round"/>
<path d="M28 57.5C31.0376 57.5 33.5 55.0376 33.5 52C33.5 48.9624 31.0376 46.5 28 46.5C24.9624 46.5 22.5 48.9624 22.5 52C22.5 55.0376 24.9624 57.5 28 57.5Z"  stroke-width="3" stroke-miterlimit="10" stroke-linejoin="round"/>
<path d="M14 57.5C17.0376 57.5 19.5 55.0376 19.5 52C19.5 48.9624 17.0376 46.5 14 46.5C10.9624 46.5 8.5 48.9624 8.5 52C8.5 55.0376 10.9624 57.5 14 57.5Z"  stroke-width="3" stroke-miterlimit="10" stroke-linejoin="round"/>
<path d="M25.5 25.5L14 37"  stroke-width="3" stroke-miterlimit="10" stroke-linejoin="round"/>
<path d="M27.5 32.5L21 39"  stroke-width="3" stroke-miterlimit="10" stroke-linejoin="round"/>
</svg>
