<svg width="40" height="40" viewBox="0 0 40 40" fill="none" xmlns="http://www.w3.org/2000/svg">
<path d="M3 15C3 21.63 8.37 27 15 27C21.63 27 27 21.63 27 15C27 8.37 21.63 3 15 3C10.99 3 7.43 4.97 5.25 8"  stroke-width="2" stroke-miterlimit="10" stroke-linejoin="round"/>
<path d="M34.17 36.7301L36.73 34.1701C37.12 33.7801 37.12 33.1501 36.73 32.7601L29.27 25.3001C28.88 24.9101 28.25 24.9101 27.86 25.3001L25.3 27.8601C24.91 28.2501 24.91 28.8801 25.3 29.2701L32.76 36.7301C33.15 37.1201 33.78 37.1201 34.17 36.7301Z"  stroke-width="2" stroke-miterlimit="10" stroke-linejoin="round"/>
<path d="M26.6 26.5501L22.9 22.8401"  stroke-width="2" stroke-miterlimit="10" stroke-linejoin="round"/>
</svg>
