<svg width="72" height="72" viewBox="0 0 72 72" fill="none" xmlns="http://www.w3.org/2000/svg">
<path d="M61.46 65.67L65.67 61.46C66.06 61.07 66.06 60.43 65.67 60.04L51.32 45.76C50.93 45.37 50.3 45.37 49.91 45.76L45.71 49.92C45.32 50.31 45.31 50.95 45.71 51.34L60.04 65.67C60.43 66.06 61.07 66.06 61.46 65.67Z"  stroke-width="3" stroke-miterlimit="10" stroke-linejoin="round"/>
<path d="M47.89 47.79L42.8 42.7"  stroke-width="3" stroke-miterlimit="10" stroke-linejoin="round"/>
<path d="M12.94 27C12.94 32.32 15.89 36.95 20.25 39.34"  stroke-width="3" stroke-miterlimit="10" stroke-linejoin="round"/>
<path d="M16.19 18C15.09 19.32 14.23 20.84 13.67 22.5"  stroke-width="3" stroke-miterlimit="10" stroke-linejoin="round"/>
<path d="M6.51 27C6.51 27.17 6.5 27.33 6.5 27.5C6.5 39.1 15.9 48.5 27.5 48.5C39.1 48.5 48.5 39.1 48.5 27.5C48.5 15.9 39.1 6.5 27.5 6.5C21.04 6.5 15.27 9.41 11.41 14"  stroke-width="3" stroke-miterlimit="10" stroke-linejoin="round"/>
</svg>
