<svg width="64" height="64" viewBox="0 0 64 64" fill="none" xmlns="http://www.w3.org/2000/svg">
<path d="M5.5 24C5.5 34.22 13.78 42.5 24 42.5C34.22 42.5 42.5 34.22 42.5 24C42.5 13.78 34.22 5.5 24 5.5C18.41 5.5 13.39 7.98 10 11.91"  stroke-width="3" stroke-miterlimit="10" stroke-linejoin="round"/>
<path d="M54.71 58.29L58.29 54.71C58.68 54.32 58.68 53.68 58.29 53.29L45.7 40.75C45.31 40.36 44.68 40.36 44.29 40.75L40.71 44.29C40.32 44.68 40.31 45.32 40.71 45.71L53.29 58.29C53.68 58.68 54.32 58.68 54.71 58.29Z"  stroke-width="3" stroke-miterlimit="10" stroke-linejoin="round"/>
<path d="M42.57 42.48L38.04 37.96"  stroke-width="3" stroke-miterlimit="10" stroke-linejoin="round"/>
<path d="M11.5 24C11.5 28.73 14.13 32.84 18 34.97"  stroke-width="3" stroke-miterlimit="10" stroke-linejoin="round"/>
<path d="M14.4 16C13.42 17.17 12.66 18.52 12.16 20"  stroke-width="3" stroke-miterlimit="10" stroke-linejoin="round"/>
</svg>
