<svg width="16" height="16" viewBox="0 0 16 16" fill="none" xmlns="http://www.w3.org/2000/svg">
<path d="M11.5102 8.44269C11.4909 6.67516 12.9564 5.81389 13.0271 5.77532C12.1979 4.56697 10.9124 4.39986 10.4625 4.38701C9.38273 4.27131 8.33506 5.02975 7.78873 5.02975C7.22955 5.02975 6.38113 4.39343 5.46844 4.41272C4.2858 4.43843 3.19315 5.1133 2.58897 6.17382C1.34848 8.327 2.27403 11.4893 3.4631 13.2311C4.06084 14.0859 4.755 15.0372 5.66769 14.9986C6.5611 14.9601 6.89532 14.433 7.9687 14.433C9.03565 14.433 9.34416 14.9986 10.2761 14.9794C11.2338 14.9665 11.838 14.1245 12.41 13.2632C13.0978 12.2863 13.3741 11.3222 13.387 11.2772C13.3613 11.2643 11.5295 10.5637 11.5102 8.44269Z" />
<path d="M9.75553 3.24316C10.2376 2.64541 10.5654 1.82913 10.469 1C9.77481 1.03214 8.90712 1.48205 8.40578 2.06695C7.96229 2.58114 7.57022 3.42955 7.67306 4.22655C8.45077 4.2844 9.2542 3.83448 9.75553 3.24316Z"/>
</svg>
