<svg width="72" height="72" viewBox="0 0 72 72" fill="none" xmlns="http://www.w3.org/2000/svg">
<path d="M51.7959 37.9921C51.7091 30.0382 58.3036 26.1625 58.6218 25.989C54.8907 20.5514 49.106 19.7994 47.0814 19.7415C42.2223 19.2209 37.5078 22.6339 35.0493 22.6339C32.533 22.6339 28.7151 19.7705 24.608 19.8572C19.2861 19.9729 14.3692 23.0099 11.6504 27.7822C6.06817 37.4715 10.2331 51.7018 15.5839 59.54C18.2738 63.3868 21.3975 67.6674 25.5046 67.4939C29.5249 67.3203 31.029 64.9486 35.8591 64.9486C40.6604 64.9486 42.0487 67.4939 46.2426 67.4071C50.5522 67.3492 53.271 63.5603 55.8451 59.6846C58.9399 55.2882 60.1836 50.9497 60.2415 50.7473C60.1258 50.6894 51.8826 47.5368 51.7959 37.9921Z"/>
<path d="M43.8998 14.5942C46.069 11.9044 47.5441 8.2311 47.1103 4.5C43.9865 4.64462 40.0819 6.66925 37.8259 9.30126C35.8302 11.6151 34.0659 15.433 34.5286 19.0195C38.0283 19.2798 41.6438 17.2552 43.8998 14.5942Z"/>
</svg>
