<svg width="32" height="32" viewBox="0 0 32 32" fill="none" xmlns="http://www.w3.org/2000/svg">
<path d="M23.0204 16.8854C22.9818 13.3503 25.9127 11.6278 26.0541 11.5506C24.3958 9.13395 21.8249 8.79972 20.9251 8.77402C18.7655 8.54263 16.6701 10.0595 15.5775 10.0595C14.4591 10.0595 12.7623 8.78687 10.9369 8.82543C8.5716 8.87685 6.38629 10.2266 5.17794 12.3476C2.69697 16.654 4.54806 22.9786 6.92619 26.4622C8.12169 28.1719 9.51 30.0744 11.3354 29.9973C13.1222 29.9201 13.7906 28.866 15.9374 28.866C18.0713 28.866 18.6883 29.9973 20.5523 29.9587C22.4676 29.933 23.676 28.249 24.8201 26.5265C26.1955 24.5725 26.7483 22.6443 26.774 22.5543C26.7226 22.5286 23.0589 21.1275 23.0204 16.8854Z"/>
<path d="M19.5111 6.48632C20.4752 5.29083 21.1308 3.65827 20.9379 2C19.5496 2.06427 17.8142 2.96411 16.8116 4.13389C15.9246 5.16228 15.1404 6.85911 15.3461 8.4531C16.9015 8.5688 18.5084 7.66896 19.5111 6.48632Z"/>
</svg>
