<svg width="24" height="24" viewBox="0 0 24 24" fill="none" xmlns="http://www.w3.org/2000/svg">
<path d="M17.2653 12.664C17.2364 10.0127 19.4345 8.72083 19.5406 8.66299C18.2969 6.85046 16.3687 6.59979 15.6938 6.58051C14.0741 6.40697 12.5026 7.54462 11.6831 7.54462C10.8443 7.54462 9.5717 6.59015 8.20266 6.61908C6.4287 6.65764 4.78972 7.66995 3.88345 9.26073C2.02272 12.4905 3.41104 17.2339 5.19464 19.8467C6.09126 21.1289 7.1325 22.5558 8.50154 22.498C9.84165 22.4401 10.343 21.6495 11.953 21.6495C13.5535 21.6495 14.0162 22.498 15.4142 22.469C16.8507 22.4497 17.757 21.1868 18.615 19.8949C19.6466 18.4294 20.0612 16.9832 20.0805 16.9158C20.0419 16.8965 17.2942 15.8456 17.2653 12.664Z"/>
<path d="M14.6334 4.86474C15.3565 3.96812 15.8482 2.7437 15.7036 1.5C14.6623 1.54821 13.3608 2.22308 12.6088 3.10042C11.9436 3.87171 11.3554 5.14433 11.5097 6.33983C12.6763 6.4266 13.8814 5.75172 14.6334 4.86474Z"/>
</svg>
