<svg width="40" height="40" viewBox="0 0 40 40" fill="none" xmlns="http://www.w3.org/2000/svg">
<path d="M28.7755 21.1067C28.7273 16.6879 32.3909 14.5347 32.5676 14.4383C30.4948 11.4174 27.2811 10.9997 26.1563 10.9675C23.4568 10.6783 20.8377 12.5744 19.4718 12.5744C18.0739 12.5744 15.9528 10.9836 13.6711 11.0318C10.7145 11.0961 7.98286 12.7833 6.47242 15.4346C3.37121 20.8175 5.68507 28.7232 8.65774 33.0778C10.1521 35.2149 11.8875 37.593 14.1692 37.4966C16.4027 37.4002 17.2383 36.0826 19.9217 36.0826C22.5891 36.0826 23.3604 37.4966 25.6903 37.4484C28.0845 37.4162 29.595 35.3113 31.0251 33.1581C32.7444 30.7157 33.4353 28.3054 33.4675 28.1929C33.4032 28.1608 28.8237 26.4093 28.7755 21.1067Z"/>
<path d="M24.389 8.1079C25.5941 6.61353 26.4136 4.57283 26.1726 2.5C24.4372 2.58034 22.2679 3.70514 21.0146 5.16737C19.9058 6.45285 18.9257 8.57389 19.1828 10.5664C21.1271 10.711 23.1356 9.5862 24.389 8.1079Z"/>
</svg>
