<svg width="64" height="64" viewBox="0 0 64 64" fill="none" xmlns="http://www.w3.org/2000/svg">
<path d="M46.0408 33.7708C45.9636 26.7006 51.8254 23.2556 52.1082 23.1013C48.7917 18.2679 43.6498 17.5994 41.8501 17.548C37.5309 17.0853 33.3402 20.119 31.1549 20.119C28.9182 20.119 25.5245 17.5737 21.8738 17.6509C17.1432 17.7537 12.7726 20.4532 10.3559 24.6953C5.39393 33.308 9.09611 45.9571 13.8524 52.9244C16.2434 56.3438 19.02 60.1488 22.6708 59.9945C26.2444 59.8403 27.5813 57.7321 31.8748 57.7321C36.1426 57.7321 37.3766 59.9945 41.1045 59.9174C44.9353 59.866 47.352 56.498 49.6401 53.053C52.391 49.1451 53.4965 45.2887 53.548 45.1087C53.4451 45.0573 46.1179 42.2549 46.0408 33.7708Z"/>
<path d="M39.0221 12.9726C40.9503 10.5817 42.2615 7.31653 41.8759 4C39.0993 4.12855 35.6285 5.92822 33.6231 8.26779C31.8492 10.3246 30.2809 13.7182 30.6922 16.9062C33.8031 17.1376 37.0168 15.3379 39.0221 12.9726Z"/>
</svg>
