<svg width="64" height="64" viewBox="0 0 64 64" fill="none" xmlns="http://www.w3.org/2000/svg">
<path d="M11.5 12V55.5C11.5 56.6 12.4 57.5 13.5 57.5H50.5C51.6 57.5 52.5 56.6 52.5 55.5V8.5C52.5 7.4 51.6 6.5 50.5 6.5H17"  stroke-width="3" stroke-miterlimit="10" stroke-linejoin="round"/>
<path d="M46.5 12.5H17.5V25.5H46.5V12.5Z"  stroke-width="3" stroke-miterlimit="10" stroke-linejoin="round"/>
<path d="M24.5 31.5H17.5V38.5H24.5V31.5Z"  stroke-width="3" stroke-miterlimit="10" stroke-linejoin="round"/>
<path d="M35.5 31.5H28.5V38.5H35.5V31.5Z"  stroke-width="3" stroke-miterlimit="10" stroke-linejoin="round"/>
<path d="M24.5 43.5H17.5V50.5H24.5V43.5Z"  stroke-width="3" stroke-miterlimit="10" stroke-linejoin="round"/>
<path d="M46.5 31.5H39.5V50.5H46.5V31.5Z"  stroke-width="3" stroke-miterlimit="10" stroke-linejoin="round"/>
<path d="M35.5 43.5H28.5V50.5H35.5V43.5Z"  stroke-width="3" stroke-miterlimit="10" stroke-linejoin="round"/>
</svg>
