<svg width="72" height="72" viewBox="0 0 72 72" fill="none" xmlns="http://www.w3.org/2000/svg">
<path d="M13.5 14V62.5C13.5 63.6 14.4 64.5 15.5 64.5H56.5C57.6 64.5 58.5 63.6 58.5 62.5V9.5C58.5 8.4 57.6 7.5 56.5 7.5H19"  stroke-width="3" stroke-miterlimit="10" stroke-linejoin="round"/>
<path d="M52.5 13.5H19.5V30.5H52.5V13.5Z"  stroke-width="3" stroke-miterlimit="10" stroke-linejoin="round"/>
<path d="M27.5 36.5H19.5V44.5H27.5V36.5Z"  stroke-width="3" stroke-miterlimit="10" stroke-linejoin="round"/>
<path d="M40.5 36.5H32.5V44.5H40.5V36.5Z"  stroke-width="3" stroke-miterlimit="10" stroke-linejoin="round"/>
<path d="M27.5 49.5H19.5V57.5H27.5V49.5Z"  stroke-width="3" stroke-miterlimit="10" stroke-linejoin="round"/>
<path d="M40.5 49.5H32.5V57.5H40.5V49.5Z"  stroke-width="3" stroke-miterlimit="10" stroke-linejoin="round"/>
<path d="M52.5 36.5H45.5V57.5H52.5V36.5Z"  stroke-width="3" stroke-miterlimit="10" stroke-linejoin="round"/>
</svg>
