<?xml version="1.0" encoding="utf-8"?>
<!-- Generator: Adobe Illustrator 26.1.0, SVG Export Plug-In . SVG Version: 6.00 Build 0)  -->
<svg version="1.1" id="LOGO" xmlns="http://www.w3.org/2000/svg" xmlns:xlink="http://www.w3.org/1999/xlink" x="0px" y="0px"
	 viewBox="0 0 3601 1699" style="enable-background:new 0 0 3601 1699;" xml:space="preserve">
<style type="text/css">
	.st0{fill-rule:evenodd;clip-rule:evenodd;fill:#0B2A84;}
	.st1{fill-rule:evenodd;clip-rule:evenodd;fill:#F76707;fill-opacity:0;stroke:#FFD738;stroke-width:15;stroke-linejoin:round;}
	.st2{fill-rule:evenodd;clip-rule:evenodd;fill:#F76707;}
	.st3{fill-rule:evenodd;clip-rule:evenodd;fill:#EC7F14;}
	.st4{clip-path:url(#SVGID_00000034795584129894907540000011481176344139838128_);}
	.st5{clip-path:url(#SVGID_00000069395819352900771260000011914981875100336274_);fill:#003398;}
	.st6{clip-path:url(#SVGID_00000069395819352900771260000011914981875100336274_);fill:#FFFF00;}
	
		.st7{clip-path:url(#SVGID_00000069395819352900771260000011914981875100336274_);fill-rule:evenodd;clip-rule:evenodd;fill:#FFFF00;}
	.st8{opacity:0.2;enable-background:new    ;}
	.st9{fill:#160200;}
	.st10{fill:#FFFFFF;}
	.st11{fill:#FEFEFF;}
	.st12{fill:#F0F0F1;}
	.st13{clip-path:url(#SVGID_00000069367237495708045000000006687769886366897286_);}
	.st14{clip-path:url(#SVGID_00000132062372368440487970000005276841526967024031_);fill:#FAFAFA;}
</style>
<path id="Shape_1_copy" class="st0" d="M1750,1001.8l73,640.2l1719.5-85.6l-37.6-491.3L1750,1001.8z"/>
<g id="LOGO-FEIRAO">
	<path id="Shape_1_copy_2" class="st1" d="M71.9,224.2l240.5,1031.5l3220-240L3328,170.1L71.9,224.2z"/>
	<path class="st2" d="M163.6,58L128,1123.2l3363.6-15.3l-5.1-825.7L163.6,58z"/>
	<g id="LOGO-IATU">
		<g id="Agrupar_1">
			<path id="Retângulo_1" class="st3" d="M3166.3,1175.7h308.4c26.5,0,48,21.5,48,48v303.4c0,26.5-21.5,48-48,48h-308.4
				c-26.5,0-48-21.5-48-48v-303.4C3118.3,1197.2,3139.8,1175.7,3166.3,1175.7z"/>
			<g>
				<defs>
					<rect id="SVGID_1_" x="3209" y="1264" width="225" height="225"/>
				</defs>
				<clipPath id="SVGID_00000145769226622957131130000004450837484064468644_">
					<use xlink:href="#SVGID_1_"  style="overflow:visible;"/>
				</clipPath>
				<g style="clip-path:url(#SVGID_00000145769226622957131130000004450837484064468644_);">
					<defs>
						<rect id="SVGID_00000160901234067094997100000004565330464251336585_" x="3209" y="1264" width="225" height="225"/>
					</defs>
					<clipPath id="SVGID_00000013896847278591453700000014685525111634004649_">
						<use xlink:href="#SVGID_00000160901234067094997100000004565330464251336585_"  style="overflow:visible;"/>
					</clipPath>
					<path style="clip-path:url(#SVGID_00000013896847278591453700000014685525111634004649_);fill:#003398;" d="M3246.5,1264h150
						c20.7,0,37.5,16.8,37.5,37.5v150c0,20.7-16.8,37.5-37.5,37.5h-150c-20.7,0-37.5-16.8-37.5-37.5v-150
						C3209,1280.8,3225.8,1264,3246.5,1264"/>
					
						<rect x="3227.8" y="1376.5" style="clip-path:url(#SVGID_00000013896847278591453700000014685525111634004649_);fill:#FFFF00;" width="17.5" height="75"/>
					<path style="clip-path:url(#SVGID_00000013896847278591453700000014685525111634004649_);fill:#FFFF00;" d="M3323.6,1393.6
						c-10.7,0-18.7,2.8-23.1,5.3l3.3,11.1c3.9-2.4,10.7-4.5,16.9-4.5c10.2,0,12.4,5.2,12.4,7.8v0.6c-22.7-0.1-36.7,7.3-36.7,21.8
						c0,8.6,6.8,17.2,19.3,17.2c7.5,0,13.7-2.7,17.6-7.2h0.2l1.9,5.8h14.2v-33.3C3349.6,1404.7,3343,1393.6,3323.6,1393.6
						 M3333.6,1430.7c0,0.9-0.1,1.9-0.3,2.8c0,0.1-0.1,0.5-0.2,0.6c0,0.1-0.1,0.2-0.1,0.3c-1.6,3.7-5.7,7.1-11.2,7.1
						c-4.8,0-8.1-2.5-8.1-7.2c0-5.3,4.5-8,11.3-9.1c1.6-0.2,3.3-0.4,5.2-0.5c1.1,0,2.3-0.1,3.5,0V1430.7z"/>
					<path style="clip-path:url(#SVGID_00000013896847278591453700000014685525111634004649_);fill:#FFFF00;" d="M3397.9,1395.3v33
						c0,1.3-0.2,2.5-0.6,3.6c-1.4,3.4-4.9,7.2-10.5,7.2c-7.1,0-10.3-5.2-10.3-14v-29.7h-17.1v32.9c0,4.4,0.5,8.1,1.6,11.2
						c1.1,3.1,2.5,5.6,4.3,7.6c1.8,2,4,3.5,6.6,4.4c2.6,0.9,5.4,1.4,8.5,1.4c2.7,0,5.1-0.3,7.2-1c2.1-0.7,3.9-1.4,5.4-2.4
						c1.5-0.9,2.8-1.9,3.8-3c1-1.1,1.8-2,2.4-2.9l2.2,8h13.9v-56.2H3397.9z"/>
					<path style="clip-path:url(#SVGID_00000013896847278591453700000014685525111634004649_);fill:#FFFF00;" d="M3261.7,1376.5
						v18.8h-8v12.8h8v22.9c0,7.6,1.5,13.2,4.8,16.7c2.8,3,7.8,5.3,13.7,5.3c5.1,0,7.2-0.8,9.5-1.7v-13.1c-0.5,0.2-1.8,0.5-3.6,0.5
						c-6.1,0-7.5-3.8-7.5-10.7v-19.9h10.8v-12.8h-10.8v-18.8H3261.7z"/>
					
						<polygon style="clip-path:url(#SVGID_00000013896847278591453700000014685525111634004649_);fill-rule:evenodd;clip-rule:evenodd;fill:#FFFF00;" points="
						3391.5,1376.5 3380.9,1391.6 3393.1,1391.6 3408,1376.5 					"/>
				</g>
			</g>
		</g>
	</g>
	<g id="Feirão">
		<g>
			<g class="st8">
				<path class="st9" d="M3345.5,596c-5.3-27.6-15.3-53.5-27.8-78.6c-1.5-3-2.9-6-4.3-9c6.4,0.6,9.7,5.6,13.2,9.8
					c20.3,24.6,35.5,52.2,47.1,81.9c10.8,27.4,17.2,55.8,20.6,85.1c2.6,22.2,4.6,44.3,3.7,66.6c-2.3,57.4-12.2,113.1-40,164.3
					c-11.1,20.5-24.2,39.6-39.8,57.2c-32.5,36.5-72.2,61.5-118.4,76.4c-27,8.7-54.7,14.3-83.2,14.4c-7,0-13.7,2.3-20.8,2
					c-46.5-2.2-92.1-8.7-134.6-28.9c-21.1-10-40.6-22.5-58.7-37.5c-18.6-15.5-34.4-33.2-47.9-53.1c-2-3-4.4-5.9-4.4-9.9
					c4.6,3.8,9.2,7.7,13.8,11.5c41,33.5,88.1,52.9,140.4,60.2c46.7,6.5,93.1,5.2,138.7-7.3c90.5-24.7,152.2-82,187.1-168.4
					c21.7-53.8,27.6-110.1,24.7-167.6C3353.8,641.8,3351.5,618.7,3345.5,596z"/>
				<path class="st9" d="M1814.8,997.1c4-0.2,8-0.5,11.9-0.5c39.6,0,79.2,0,118.8,0c7.4,0,7.6-0.1,7.6-6.8c0-77.2,0-154.4-0.1-231.6
					c0-0.7-0.2-1.3-0.4-2c0.2-23.9,0.2-47.9,0.5-71.8c0.3-22.4,2.3-44.5,9.8-65.8c14-39.8,39.1-68.6,81.2-79.3
					c24.2-6.2,48.8-5.4,73.1,0.6c3.2,0.8,6.4,1.5,9.6,2.3c0.3,0.1,0.6-0.1,1.1-0.2c1.4-3.5,0.7-7.2,0.7-10.8
					c0.1-32.6,0-65.2,0.1-97.8c0-3.6,0.3-7.3,0.4-10.9c10.4-0.5,20.6,0.9,30.6,3.5c9.5,2.5,10.9,4.4,10.9,13.8
					c0.1,47.6,0.1,95.3,0,142.9c0,11.4-2.2,12.9-13.2,10.3c-25.7-6.1-51.5-6.8-76.9,1.1c-20.7,6.4-38.3,17.7-52.4,34.8
					c-21.2,25.9-29.4,56-31.5,88.6c-3.9,60.9-1,121.8-1.7,182.7c-0.5,44-0.1,87.9-0.1,131.9c0,3,0.2,6-0.2,9c-0.6,5.8-3,8.1-8.9,8.8
					c-2.3,0.3-4.7,0.2-7,0.2c-49.3,0-98.6,0-147.9,0c-1.7,0-3.3,0.1-5,0c-8.1-0.5-10.8-2.9-10.9-11
					C1814.7,1025.1,1814.8,1011.1,1814.8,997.1z"/>
				<path class="st9" d="M377.5,997.1c11-0.2,21.9-0.5,32.9-0.5c33.2-0.1,66.5,0,99.7,0c8.1,0,8.3-0.1,8.3-8.2
					c0-90.4,0-180.8,0-271.2c0-1.6-0.4-3.3-0.7-4.9c1.2-3.2,0.7-6.6,0.7-9.8c0-11.1,0.2-9.9,9.6-9.9c21.5,0,43.1,0.1,64.6,0
					c14.9-0.1,29.8-0.3,44.7-0.5c1.3,0.2,2.6,0.5,3.9,0.5c45.8,0,91.6,0,137.4,0c1,0,2-0.1,3,0c3.9,0.3,5.3-1.7,5.2-5.4
					c-0.3-6.9-0.4-13.9-0.5-20.9c0.2-18.3,0.3-36.6,0.5-54.9c0.1-7,0.3-14,0.5-20.9c10,0,20-0.1,30,0.1c9.3,0.2,11.9,2.7,11.9,12
					c0.1,43.9,0.1,87.9,0,131.8c0,9.3-2.7,11.9-11.9,12c-18.6,0.2-37.3,0.1-55.9,0.1c-60.6,0-121.2,0-181.8,0c-2.7,0-5.3-0.1-8,0
					c-8.4,0.3-9.8,1.7-10.2,9.9c-0.1,3,0,6,0,9c0,88.5,0,177.1,0,265.6c0,18.3-1,19.3-19.1,19.3c-48.6,0-97.2,0-145.8,0
					c-2.7,0-5.3,0.1-8-0.1c-8.1-0.5-10.7-2.9-10.9-11C377.4,1025.1,377.5,1011.1,377.5,997.1z"/>
				<path class="st9" d="M1533,997.1c11.6-0.2,23.3-0.4,34.9-0.5c32.3-0.1,64.6,0,96.9-0.1c7.6,0,7.8-0.2,7.8-7.7
					c0-87.2,0-174.4,0-261.6c0-1-0.3-2-0.4-3c0.1-4,0.4-7.9,0.4-11.9c0-88.3,0-176.6,0-264.9c0-4.3,0.3-8.6,0.4-12.9
					c10,0,20-0.1,30,0.1c9.2,0.2,11.5,2.7,11.9,12.1c0.1,2.3,0,4.7,0,7c0,192.5,0,384.9,0,577.4c0,18.6-0.4,19-19,19
					c-48,0-95.9,0-143.9,0c-2.7,0-5.3,0.1-8-0.1c-8.1-0.5-10.8-2.9-10.9-11C1532.9,1025.1,1533,1011.1,1533,997.1z"/>
				<path class="st9" d="M1418.8,692.3c2.2-56.7-3.4-112.2-23.8-165.7c-4.7-12.4-11.7-23.7-16.6-36.1c2.8,0.2,5,1.5,6.9,3.6
					c29.6,32.7,49.4,70.7,61.4,112.9c6.4,22.8,9.7,46.1,12.6,69.5c2.3,19,1.3,37.9,1.6,56.8c0.3,18.6,0.2,37.3,0,55.9
					c-0.1,10.6-2.4,12.7-13.1,12.9c-2.7,0.1-5.3,0-8,0c-113.2,0-226.5,0-339.7,0c-2.7,0-5.3,0-8,0c-10.4,0.3-12.8,3.5-10.1,13.9
					c2,7.7,5.7,14.9,6.8,22.9c-7.1-3.5-11.9-9.6-17-15.2c-17.7-19.4-28.1-42.6-34.5-67.8c-1.6-6.3-0.9-7,5.3-7.2c2.7-0.1,5.3,0,8,0
					c118.9,0,237.7,0,356.6,0c13.5,0,11.8,1.3,11.8-11.6C1419.2,722.3,1418.9,707.3,1418.8,692.3z"/>
				<path class="st9" d="M561.4,539.3c-12.6,1.3-25.2,0.2-37.9,0.6c-4,0.1-5.2-2-5.1-5.5c0.1-2,0-4,0-6c0-53.6,0-107.1,0-160.7
					c0-13.1-0.2-11,11.5-11c101.1,0,202.3,0,303.4-0.1c13.9,0,11.9,1.6,12-12.3c0.2-29.9,0.3-59.8,0.5-89.8c10,0,20-0.2,30,0.1
					c8.8,0.2,11.3,2.7,11.4,11.5c0.1,44.3,0.1,88.6,0,132.9c0,8.6-2.7,10.9-11.6,11.3c-3,0.1-6,0-9,0c-96.3,0-192.6,0-288.9,0
					c-16.3,0-16.3,0-16.3,15.9C561.4,464,561.4,501.7,561.4,539.3z"/>
				<path class="st9" d="M2270.4,308.2c18.3-1.6,36.6-0.4,54.9-0.7c14.6-0.2,12.2,0.4,12.5-12.3c0.2-8.7,0.8-17.3,3.4-25.7
					c5.7-18.1,19.1-26.1,37.8-22.3c7.9,1.6,15.3,4.7,22.1,9c12.1,7.7,24.1,15.5,36.1,23.2c19.4,12.5,39.5,23.5,62.5,27.8
					c24.7,4.6,49.1,3.2,72.9-5c23.9-8.3,42.1-23.9,55.3-45.3c12.3-19.8,18.7-41.8,22.4-64.6c0.5-3.3,0.6-6.6,2-9.7
					c10.7,0,21.3-0.1,32,0.1c9.3,0.2,11.9,2.7,12,12c0.1,34.9-4,69.3-19,101.1c-16.9,35.9-44.5,58.9-84.9,65
					c-34.6,5.3-66.7-0.3-97.1-17.6c-17.7-10.1-34.3-21.7-51.5-32.4c-9.7-6-19.7-10.7-31.7-10.3c-14.5,0.5-26,9.2-29.3,23.4
					c-1.7,7.5-2.4,15-2.4,22.8c0,11.5-2.8,13.9-14.3,13.9c-28.3,0.1-56.6,0.1-84.9,0c-11.5,0-12.5-1.1-12.6-12.6
					C2268.6,334.7,2268,321.4,2270.4,308.2z"/>
				<path class="st9" d="M2572.5,997.1c10-0.2,19.9-0.4,29.9-0.5c25.3-0.1,50.6,0,75.9-0.1c7.6,0,7.7-0.2,7.8-7.7
					c0.1-8.7,0-17.3,0-26c0-65.9,0-131.8,0-197.7c0-3.6-0.3-7.3-0.4-10.9c0.1-7,0.4-13.9,0.4-20.9c0-34.5,0.3-69.1-0.1-103.6
					c-0.4-36.7-5.1-72.8-17.7-107.5c-4.2-11.5-9.5-22.5-14.3-33.7c7.3,1.3,11,7.3,15.2,12.2c26.7,31.7,43.8,68,51.9,108.6
					c4.1,20.8,7.4,41.8,7.4,63.2c0,120.1,0,240.2,0,360.3c0,16.1-1.1,17.2-16.8,17.2c-38.9,0-77.9,0-116.8,0
					c-13.9,0-16.4-1.8-17.9-15.5C2575.6,1022.1,2572.3,1009.8,2572.5,997.1z"/>
				<path class="st9" d="M953.1,932.6c38.7,35.3,83.7,58.2,134.7,69.5c43.9,9.8,88.3,11.7,133.1,8.5c50.3-3.6,98.5-14.7,145.1-34
					c11.2-4.6,15.8-9.9,14.9-22.4c-1.2-18.6,0-37.3,0.1-55.9c9.3-1.4,17.4-6.4,26.2-9.3c2.2-0.7,4.3-1.9,6.6-2.3
					c5.5-1,8.2,1,8.9,6.5c0.3,2.3,0.2,4.7,0.2,7c0,35.9-0.4,71.9,0.2,107.8c0.2,11.3-4.5,17.1-14.2,21.1
					c-35.8,14.9-72.7,25.5-111.1,31c-17.1,2.4-34.2,4.6-51.6,4.2c-8.3-0.2-16.4,2.4-24.8,1.9c-42.8-2.4-85.5-5.7-126.4-20.2
					c-33.2-11.8-63.6-28.1-90.7-51c-18.3-15.4-33.3-33.3-47.4-52.2C954.7,939.7,953.4,936.3,953.1,932.6z"/>
				<path class="st9" d="M2212.7,966.7c21.5,16.7,45,29.8,71.5,36.4c57.9,14.4,114.8,12.6,170.2-11.1c29.6-12.7,54.7-31.4,75.1-58.1
					c2.1,3.9,2.4,7.3,2.9,10.7c2.1,15.2,4.5,30.3,6.4,45.5c0.6,5,2.7,6.8,7.8,6.6c5.3-0.3,10.6,0.2,15.9,0.4
					c-3.1,6.9-9.1,11.5-14.5,16.2c-31.1,26.7-67.2,42.3-107.5,48.8c-18.1,2.9-36.2,4.9-54.5,3.9c-36.8-1.9-72.6-8.4-105.2-26.9
					c-27.4-15.5-49.6-36.5-65.4-63.9C2213.9,972.5,2212.8,969.8,2212.7,966.7z"/>
				<path class="st9" d="M1527.1,298c18.8,10,38.8,14.9,60.2,14.3c46.8-1.4,85.6-32,96.4-76.4c4-16.4,3.8-32.9,0.1-49.3
					c-0.6-2.6-1.1-5.2-1.6-7.8c8.9,2.9,15.3,9.2,21.1,15.9c18.4,21.3,27,46.3,25.4,74.5c-1.8,31.4-15.7,56.6-40.5,75.7
					c-18.6,14.3-39.9,19.9-63.4,20c-24.2,0.1-46-5.3-65.4-20c-12.7-9.6-22.6-21.4-30.1-35.4C1527.5,305.9,1526.8,302,1527.1,298z"/>
				<path class="st9" d="M2246.2,540.1c20.1-10,41.5-16,63.2-20.9c34.6-7.8,69.6-11.1,105-6.7c15.3,1.9,30.1,5.3,44.1,11.7
					c24.9,11.5,41.9,29.9,49.9,56.4c-1.9-0.4-4.1-0.4-5.8-1.3c-32.8-16.6-68.2-16.8-103.3-14.3c-44.7,3.1-87.4,15.5-127.9,35
					c-3,1.4-6.1,2.5-9.2,3.8c-11,4.4-13.4,2.8-13.4-9.5c-0.1-14.3,0-28.6,0-42.9C2248.7,547.5,2249.3,543.4,2246.2,540.1z"/>
				<path class="st9" d="M1964.4,434.5c-6.9,10.9-14.3,21.5-20.5,34.3c-2.7-4.2-2.7-7.9-3.1-11.6c-0.4-3.6-1.2-7.2-1.5-10.8
					c-0.4-4-0.5-7.9-0.8-11.9C1947.1,434.5,1955.8,434.5,1964.4,434.5z"/>
				<path class="st9" d="M3312.2,505.7c-1.4-0.6-2-1.8-2.1-3.2C3310.8,503.5,3311.5,504.6,3312.2,505.7z"/>
				<path class="st9" d="M2364.7,880.3c-26.9-11.8-39.4-33.3-42-61.6c-1.9-21.2,4.1-40,17.7-56.4c22.8-21.9,51.3-31.1,81.6-35.6
					c29-4.3,58.2-4.4,87.4-2.8c7.9,0.4,7.8,0.6,8.1,8.7c0.3,11.3-0.8,22.5,0.6,33.8c-0.5,3.4-0.9,6.7-1.4,10.1
					c-13.3-0.3-26.5,0.5-39.7,1.6c-26.5,2.3-51.9,8.2-74.9,21.6c-18.2,10.6-31,25.6-35.8,46.9C2363.9,857.8,2365.1,869,2364.7,880.3
					z"/>
				<path class="st9" d="M3153.9,580.5c-3.4-0.1-6.5-1.4-9.4-3c-25.2-13.5-51.7-14.4-78.4-6.8c-21.2,6-37.7,19.3-50.6,37.1
					c-19,26.4-27.1,56.5-31.5,88.2c-2,14.6-2.1,29.2-2.6,43.7c-0.5,13.3,0.4,27.1,1.9,40.7c2.3,21.3,6.8,41.9,14,62.1
					c0.8,2.1,0.7,4.6,1,6.9c-13-8.1-22.2-19.8-30.2-32.6c-14.8-23.9-22-50.3-25.6-77.9c-1.6-12.1-2.4-24.4-3.6-36.6
					c0.5-14.9,0.6-29.9,1.7-44.8c1.9-26.4,7-52,17.9-76.3c4.6-10.4,10.5-20,17.3-29.1c38.4-52.1,123.9-52.6,162.5,1
					C3144.3,561.6,3150.4,570.4,3153.9,580.5z"/>
				<path class="st9" d="M1089,629.8c-18.2,0-36.4,0-55.4,0c4.2-31.8,11.4-61.9,29.9-88.1c19.1-27.1,46-39.4,78.5-40.3
					c40.9-1.1,73.2,14,93.6,50.8c2.9,5.2,5.1,10.7,7,16.3c-5.1-2.5-9.9-5.7-15.2-7.4c-33.1-10.4-65.4-10.5-96.1,8.2
					c-9.3,5.7-16.7,13.5-23.2,21.7C1099.2,602.4,1090.8,614.6,1089,629.8z"/>
			</g>
			<g>
				<g>
					<path class="st10" d="M561.4,539.3c3.6,0.2,7.3,0.6,10.9,0.6c67.9,0,135.7,0,203.6,0c12,0,10.8-0.4,10.9,10.7
						c0.1,13.3,0.3,26.6,0.5,39.9c-0.2,7-0.4,14-0.5,20.9c-0.2,18.3-0.4,36.6-0.5,54.9c-8.4,0-16.5,1.9-24.7,3.1
						c-20.4,2.9-40.7,5.9-61,9.1c-19,3-37.9,6.5-56.9,9.7c-2.7,0.5-5.3,0.8-6.4,3.8c-14.9,0.2-29.8,0.4-44.7,0.5
						c-21.5,0.1-43.1,0-64.6,0c-9.4,0-9.6-1.2-9.6,9.9c0,3.3,0.5,6.6-0.7,9.8c-3.3,0.2-6.7,0-10,0.6c-43,8.6-86.1,17.5-129.1,26.1
						c-13.3,2.7-26.5,6.4-40.2,7.3c-0.2-3.6-0.4-7.3-0.4-10.9c0-172.8,0-345.7,0-518.5c0-14-1.8-12.7,12.9-12.7
						c160.5,0,321.1,0,481.6,0c14.9,0,12.6-1.6,12.8,12.6c0.2,12.6,0.3,25.3,0.4,37.9c-0.1,29.9-0.3,59.8-0.5,89.8
						c-0.1,13.9,1.9,12.3-12,12.3c-101.1,0-202.3,0-303.4,0.1c-11.7,0-11.5-2.1-11.5,11c0,53.6,0,107.1,0,160.7c0,2,0.1,4,0,6
						c-0.1,3.6,1.1,5.7,5.1,5.5C536.2,539.5,548.8,540.6,561.4,539.3z"/>
					<path class="st11" d="M2168.5,753.9c5.8-18,15.8-33.6,27.7-48.1c26-31.7,59.6-52.6,97.4-67.3c35-13.6,71.4-20.6,108.6-24.2
						c35.5-3.4,71.1-3.5,106.7-1.3c7.5,0.5,7.5,0.3,6.3-7.6c-1.4-8.5-2.6-17.1-6.6-24.9c-8-26.4-25-44.9-49.9-56.4
						c-14-6.5-28.9-9.9-44.1-11.7c-35.4-4.4-70.4-1.1-105,6.7c-21.7,4.9-43.1,10.9-63.2,20.9c-12.6,3.3-23.4,10.7-35.3,15.1
						c-2.6-2.1-1.7-4.6-1.7-6.8c-0.1-41.3,0.1-82.6-0.2-123.9c0-5.7,1.5-9,6.9-11.5c43.3-20.7,88.5-34.6,136.2-40.7
						c44.9-5.7,89.7-5.8,134.3,2.4c51.3,9.4,97,30.2,133.8,68.3c13.3,13.7,23.6,29.6,33.8,45.6c4.8,11.2,10.1,22.3,14.3,33.7
						c12.6,34.7,17.3,70.8,17.7,107.5c0.4,34.5,0.1,69.1,0.1,103.6c0,7-0.3,13.9-0.4,20.9c-6-0.4-11.9,1.2-17.8,1.8
						c-29,2.9-58,6.5-87.1,7.8c-20.9,1-41.7,3.7-62.6,2.4c-1.4-11.2-0.3-22.5-0.6-33.8c-0.2-8.1-0.2-8.3-8.1-8.7
						c-29.2-1.5-58.5-1.4-87.4,2.8c-30.3,4.4-58.8,13.7-81.6,35.6c-16.8-1.6-33.7-3.3-50.4-3.5c-26.2-0.3-52.2-3.3-78.4-2.5
						c-10.9,0.3-21.9,0.1-32.8,0C2175.2,756.3,2171.4,756.7,2168.5,753.9z"/>
					<path class="st12" d="M2850.3,936.7c-4.5-4.9-9.1-9.6-13.6-14.6c-36.9-40.8-58.7-89.1-70.1-142.5c-2.6-12.3-5.1-24.7-5.6-37.4
						c35.3-6.2,70.2-14.7,105.1-22.9c24.3-5.7,48.5-11.5,72.7-17.2c1.2,12.2,2,24.4,3.6,36.6c3.6,27.5,10.8,54,25.6,77.9
						c7.9,12.8,17.2,24.4,30.2,32.6c3,3.3,7,5.1,10.8,7.1c18.3,9.6,37.8,12,58.1,10.5c28.1-2.1,50.8-14.3,68.7-35.9
						c11.1-13.5,18.9-28.8,24.7-45.3c9-25.7,12.3-52.3,13.6-79.3c1-21.3-0.7-42.5-2.2-63.7c3.7,0,7.2-0.8,10.8-1.8
						c37.1-10.2,74.1-20.4,111.2-30.5c17.3-4.7,34.2-10.5,51.7-14.2c6.1,22.6,8.3,45.8,9.5,69.1c2.9,57.5-3,113.8-24.7,167.6
						c-34.9,86.4-96.5,143.8-187.1,168.4c-45.6,12.4-92,13.7-138.7,7.3c-52.3-7.3-99.4-26.7-140.4-60.2
						C2859.4,944.4,2854.9,940.5,2850.3,936.7z"/>
					<path class="st12" d="M1089,839.1c16.2,14,35.6,21.7,56,27c32.3,8.4,65.2,8.5,98.1,5.3c45.1-4.4,87.8-17.5,129.2-35.5
						c2.4-1,4.5-2.8,8.8-1.7c0,21.2,0,42.7,0,64.2c-0.2,18.6-1.3,37.3-0.1,55.9c0.8,12.5-3.8,17.8-14.9,22.4
						c-46.6,19.2-94.9,30.4-145.1,34c-44.8,3.2-89.2,1.2-133.1-8.5c-51-11.3-96.1-34.2-134.7-69.5c-0.8-1-1.5-2.2-2.5-3.1
						c-44.8-43.9-69.7-98-81.1-159c-6.8-36.2-7.5-72.7-6.1-109.3c0.1-1.6,0.5-3.3,0.7-4.9c12.5-1.3,25.1-3.1,37.6-3.8
						c12.3-0.7,24.7-1.3,36.7-2.8c17.9-2.2,35.8-0.8,53.7-3c22.5-2.7,45.1,1.5,67.7,1.8c1.3,0,2.6,0.4,4,0.5
						c14.2,1.8,28.3,3.6,42.5,5.3c18.5,2.3,36.9,4.4,55.4,6.7c19.8,2.4,39.5,4.9,59.3,7.3c18.8,2.3,37.6,4.7,56.3,7.1
						c18.1,2.3,36.2,4.6,54.4,6.9c14.8,1.8,29.6,3.9,44.5,5.3c14.2,1.3,28.2,4.5,42.6,4.7c0.1,15,0.4,29.9,0.4,44.9
						c0,12.9,1.7,11.6-11.8,11.6c-118.9,0-237.7,0-356.6,0c-2.7,0-5.3-0.1-8,0c-6.2,0.3-6.9,1-5.3,7.2c6.4,25.2,16.8,48.4,34.5,67.8
						C1077.1,829.5,1082,835.6,1089,839.1z"/>
					<path class="st11" d="M3345.5,596c-17.5,3.7-34.5,9.5-51.7,14.2c-37.1,10.1-74.1,20.3-111.2,30.5c-3.5,1-7.1,1.8-10.8,1.8
						c-1.4-2-1.2-4.4-1.6-6.6c-3.3-19.1-7.3-38-16.3-55.4c-3.5-10.2-9.6-18.9-15.8-27.6c-38.5-53.7-124-53.2-162.5-1
						c-6.7,9.1-12.6,18.7-17.3,29.1c-10.9,24.3-16,50-17.9,76.3c-1.1,14.9-1.2,29.9-1.7,44.8c-24.2,5.7-48.5,11.5-72.7,17.2
						c-34.9,8.2-69.8,16.6-105.1,22.9c-8.3-80.1-0.8-157.7,38.7-229.5c44.3-80.5,113.3-126.1,203.4-140.3
						c54.1-8.5,107.6-5.3,159.8,12.1c60.3,20.1,107.7,57.1,142.1,110.7c1.6,2.5,2.6,5.4,5.1,7.3c0.2,1.4,0.7,2.6,2.1,3.2
						c-0.4,1.3,0,2.2,1.2,2.8c1.4,3,2.8,6,4.3,9C3330.2,542.5,3340.2,568.4,3345.5,596z"/>
					<path class="st11" d="M1418.8,692.3c-14.3-0.3-28.3-3.4-42.6-4.7c-14.9-1.4-29.7-3.4-44.5-5.3c-18.1-2.2-36.2-4.6-54.4-6.9
						c-18.8-2.4-37.5-4.7-56.3-7.1c-19.8-2.5-39.5-4.9-59.3-7.3c-18.5-2.3-36.9-4.4-55.4-6.7c-14.2-1.7-28.3-3.5-42.5-5.3
						c-1.3-0.2-2.6-0.5-4-0.5c-22.6-0.2-45.3-4.5-67.7-1.8c-17.9,2.2-35.8,0.8-53.7,3c-12.1,1.5-24.5,2.1-36.7,2.8
						c-12.6,0.7-25.1,2.5-37.6,3.8c6.4-92.7,39-172.8,113.9-231.6c41.1-32.3,88.7-49.1,140.5-54.4c38.1-3.9,75.8-2.3,113,7.2
						c61,15.6,107.5,51,141,104c1.9,3.1,4,6.1,6,9.1c4.8,12.3,11.8,23.7,16.6,36.1C1415.3,580.1,1420.9,635.6,1418.8,692.3z
						 M1089,629.8c1.3,0.1,2.6,0.4,3.9,0.4c51.1,0,102.3,0,153.4,0c1,0,2-0.1,3,0c3.3,0.2,5-1,4.7-4.6c-1.3-19.6-3.5-39-11.4-57.2
						c-1.9-5.6-4.1-11.1-7-16.3c-20.4-36.8-52.7-51.9-93.6-50.8c-32.5,0.9-59.5,13.2-78.5,40.3c-18.5,26.2-25.7,56.4-29.9,88.1
						C1052.6,629.8,1070.8,629.8,1089,629.8z"/>
					<path class="st12" d="M2168.5,753.9c3,2.8,6.7,2.4,10.4,2.4c10.9,0,21.9,0.3,32.8,0c26.2-0.7,52.2,2.2,78.4,2.5
						c16.7,0.2,33.6,1.8,50.4,3.5c-13.6,16.4-19.6,35.2-17.7,56.4c2.6,28.2,15.1,49.8,42,61.6c2.5,2.4,5.8,3.1,8.9,4.1
						c16.4,5.2,33.1,6.4,50.3,4.2c53.4-6.6,96.4-58.3,92.9-112.2c0.5-3.4,0.9-6.7,1.4-10.1c21,1.3,41.8-1.4,62.6-2.4
						c29.1-1.4,58.1-4.9,87.1-7.8c5.9-0.6,11.8-2.1,17.8-1.8c0.1,3.6,0.4,7.3,0.4,10.9c0,65.9,0,131.8,0,197.7c0,8.7,0.1,17.3,0,26
						c-0.1,7.5-0.2,7.7-7.8,7.7c-25.3,0.1-50.6,0-75.9,0.1c-10,0-19.9,0.3-29.9,0.5c-3.3-0.7-6.6-0.7-10,0
						c-5.3-0.2-10.7-0.7-15.9-0.4c-5,0.3-7.1-1.5-7.8-6.6c-1.9-15.2-4.3-30.3-6.4-45.5c-0.5-3.4-0.8-6.8-2.9-10.7
						c-20.4,26.7-45.5,45.4-75.1,58.1c-55.4,23.7-112.3,25.5-170.2,11.1c-26.6-6.6-50-19.7-71.5-36.4c-1.6-1.6-3.2-3.4-4.9-4.9
						c-31.9-29.2-49-65.7-52.7-108.4c-2.8-32.4-0.3-64.3,11.2-95.2C2166.8,756.7,2167,755,2168.5,753.9z"/>
					<path class="st11" d="M1964.4,434.5c8.3-9,16.1-18.4,25.5-26.5c37.1-31.7,79.8-41.6,127.3-33.4c2,0.3,3.8,1.2,5.8,1.4
						c4.7,0.5,5.7,3.3,5.7,7.6c-0.1,12.9,0.2,25.9,0.4,38.8c-0.1,3.6-0.4,7.3-0.4,10.9c0,32.6,0,65.2-0.1,97.8
						c0,3.6,0.7,7.3-0.7,10.8c-0.4,0.1-0.8,0.3-1.1,0.2c-3.2-0.7-6.4-1.5-9.6-2.3c-24.3-6-48.8-6.8-73.1-0.6
						c-42.1,10.7-67.3,39.5-81.2,79.3c-7.5,21.3-9.5,43.4-9.8,65.8c-0.3,23.9-0.3,47.9-0.5,71.8c-7.3-0.3-14.4-2.1-21.8-2.2
						c-10.6-0.1-21.2-1.1-31.7-2.3c-19.4-2.2-38.8-5-58.2-7.4c-22-2.8-44-5.4-66.1-8.1c-0.1-3.3-0.4-6.6-0.4-9.9
						c0-110.5,0-221,0-331.5c0-2,0.1-4,0-6c-0.2-3.7,1.3-5.6,5.2-5.4c1.7,0.1,3.3,0,5,0c45.6,0,91.2,0,136.8,0
						c9.6,0,9.5,0.1,10.9,9.6c2,13.8,2.8,27.7,6.1,41.3c0.2,4,0.4,7.9,0.8,11.9c0.4,3.6,1.1,7.2,1.5,10.8c0.5,3.6,0.4,7.4,3.1,11.6
						C1950.1,456,1957.5,445.4,1964.4,434.5z"/>
					<path class="st11" d="M1493.8,702.3c-0.1-3.3-0.4-6.6-0.4-9.9c0-99.1,0-198.2,0-297.4c0-2,0.1-4,0-6c-0.2-3.7,1.2-5.6,5.1-5.4
						c2,0.1,4,0,6,0c52.2,0,104.5,0,156.7,0c0.7,0,1.3,0,2,0c9.4,0.1,9.4,0.1,9.5,9.1c0.1,14,0.3,27.9,0.4,41.9
						c-0.1,4.3-0.4,8.6-0.4,12.9c0,88.3,0,176.6,0,264.9c0,4-0.3,7.9-0.4,11.9c-12.8-1.7-25.6-3.6-38.4-5.2
						c-17.7-2.3-35.4-4.8-53.2-6.5c-14.8-1.4-29.6-3.7-44.4-5.4C1522.1,705.5,1507.9,703.9,1493.8,702.3z"/>
					<path class="st11" d="M2270.4,308.2c-11.3-1.5-22.6-0.3-33.9-0.7c-8.2-0.2-8.3-0.2-8.3-8.2c-0.2-29.8,2.5-59.1,12.3-87.5
						c4.8-13.9,11.3-27,20.3-38.7c20.5-26.8,48.3-39.5,81.4-42.6c33.5-3.1,63.9,5.6,92.2,23.2c14.4,9,28.5,18.3,42.8,27.5
						c6.7,4.3,13.8,8,21.6,10.2c22.5,6.3,38.1-2.8,43.3-25.5c2-8.8,2.9-17.8,2.3-26.8c-0.4-5.4,1.8-6.7,6.9-6.7
						c32,0.2,63.9,0,95.9,0.1c6.9,0,6.8,0.2,7.1,7.4c0.6,14.3-1.8,28.5-1.8,42.8c-1.4,3.1-1.5,6.4-2,9.7
						c-3.7,22.8-10.1,44.8-22.4,64.6c-13.3,21.4-31.4,37-55.3,45.3c-23.8,8.2-48.2,9.6-72.9,5c-23-4.3-43.1-15.4-62.5-27.8
						c-12-7.7-24-15.5-36.1-23.2c-6.8-4.3-14.2-7.4-22.1-9c-18.7-3.8-32.1,4.2-37.8,22.3c-2.6,8.3-3.2,17-3.4,25.7
						c-0.4,12.7,2,12.1-12.5,12.3C2307,307.8,2288.7,306.6,2270.4,308.2z"/>
					<path class="st12" d="M1493.8,702.3c14.1,1.6,28.3,3.2,42.4,4.8c14.8,1.7,29.5,4,44.4,5.4c17.8,1.7,35.5,4.3,53.2,6.5
						c12.8,1.7,25.6,3.5,38.4,5.2c0.1,1,0.4,2,0.4,3c0,87.2,0.1,174.4,0,261.6c0,7.5-0.2,7.7-7.8,7.7c-32.3,0.1-64.6,0-96.9,0.1
						c-11.6,0-23.3,0.3-34.9,0.5c-10-0.2-19.9-0.4-29.9-0.5c-9.7-0.1-9.7-0.1-9.7-9.8c0-71.9,0-143.8,0-215.7
						C1493.4,748.2,1493.6,725.2,1493.8,702.3z"/>
					<path class="st12" d="M338.5,746.3c13.7-0.9,26.8-4.6,40.2-7.3c43-8.6,86.1-17.5,129.1-26.1c3.2-0.6,6.6-0.4,10-0.6
						c0.2,1.6,0.7,3.3,0.7,4.9c0,90.4,0,180.8,0,271.2c0,8.1-0.2,8.2-8.3,8.2c-33.2,0.1-66.5,0-99.7,0c-11,0-21.9,0.3-32.9,0.5
						c-10.6-0.2-21.3-0.3-31.9-0.5c-7.3-0.2-7.6-0.2-7.6-7c0-80.5,0-160.9,0-241.4C338.1,747.6,338.4,746.9,338.5,746.3z"/>
					<path class="st12" d="M1775,736.3c22,2.7,44.1,5.3,66.1,8.1c19.4,2.4,38.7,5.1,58.2,7.4c10.5,1.2,21.1,2.2,31.7,2.3
						c7.4,0.1,14.5,1.9,21.8,2.2c0.1,0.7,0.4,1.3,0.4,2c0,77.2,0.1,154.4,0.1,231.6c0,6.6-0.2,6.8-7.6,6.8c-39.6,0-79.2,0-118.8,0
						c-4,0-8,0.3-11.9,0.5c-11.3-0.2-22.6-0.5-33.9-0.4c-4.6,0-7-1.2-6.4-6.1c0.2-1.3,0-2.7,0-4c0-80.8,0-161.5,0-242.3
						C1774.6,741.6,1774.8,739,1775,736.3z"/>
					<path class="st11" d="M1527.1,298c-3.4-2.6-6.9-5.1-10.2-7.9c-31.2-26.1-43-59.6-35.5-99.1c7-36.9,29.3-62.7,64.8-74.8
						c47.9-16.3,103-2.3,130,49.1c2.3,4.4,4.1,9,6.2,13.5c0.5,2.6,1,5.2,1.6,7.8c3.7,16.4,3.9,32.9-0.1,49.3
						c-10.8,44.3-49.6,74.9-96.4,76.4C1565.9,312.9,1545.9,308,1527.1,298z"/>
				</g>
				<path class="st12" d="M786.3,666.3c0.2,7,0.3,13.9,0.5,20.9c0.1,3.7-1.3,5.7-5.2,5.4c-1-0.1-2,0-3,0c-45.8,0-91.6,0-137.4,0
					c-1.3,0-2.6-0.3-3.9-0.5c1-3.1,3.7-3.4,6.4-3.8c19-3.2,37.9-6.6,56.9-9.7c20.3-3.2,40.6-6.3,61-9.1
					C769.8,668.2,777.9,666.2,786.3,666.3z"/>
			</g>
		</g>
	</g>
</g>
<g id="iCarros_00000039095906561716374560000005046669460421463455_">
	<g>
		<defs>
			<rect id="SVGID_00000117652027778762041010000011938347380851924871_" x="1973" y="1209.5" width="1056" height="323.6"/>
		</defs>
		<clipPath id="SVGID_00000090973808001790194780000014671936616607722661_">
			<use xlink:href="#SVGID_00000117652027778762041010000011938347380851924871_"  style="overflow:visible;"/>
		</clipPath>
		<g style="clip-path:url(#SVGID_00000090973808001790194780000014671936616607722661_);">
			<defs>
				<rect id="SVGID_00000062890329927446743000000000602014516856809106_" x="1973" y="1209.5" width="1056" height="323.6"/>
			</defs>
			<clipPath id="SVGID_00000139977248303256472300000004333675021004655022_">
				<use xlink:href="#SVGID_00000062890329927446743000000000602014516856809106_"  style="overflow:visible;"/>
			</clipPath>
			<path style="clip-path:url(#SVGID_00000139977248303256472300000004333675021004655022_);fill:#FAFAFA;" d="M2345.3,1323.4
				c-11.2,6.2-20,15-26.5,26.5c-6.4,11.5-9.7,24.9-9.7,40.1c0,15.1,2.9,28.3,8.7,39.6c5.8,11.3,14.2,20.1,25.1,26.3
				c10.9,6.2,24,9.4,39,9.4c14.3,0,26.8-2.8,37.2-8.3v-33.7c-8.6,5.3-18.8,8-30.3,8c-11.4,0-20.5-3.8-27.2-11.3
				c-6.7-7.5-10.1-17.7-10.1-30.6c0-13.1,3.3-23.2,9.9-30.5c6.6-7.3,15.6-10.9,27-10.9c10.5,0,20.1,2.5,29,7.4v-33.9
				c-9.6-5-21-7.4-34.2-7.4C2369.2,1314.1,2356.5,1317.2,2345.3,1323.4"/>
			<path style="clip-path:url(#SVGID_00000139977248303256472300000004333675021004655022_);fill:#FAFAFA;" d="M2109.1,1281.1l0,0.7
				c0.3,12.2,10.3,22,22.5,22h0.1c12.4,0,22.4-10.2,22.4-22.7c0-12.5-10.1-22.6-22.6-22.6
				C2119.1,1258.5,2109.1,1268.6,2109.1,1281.1"/>
			<path style="clip-path:url(#SVGID_00000139977248303256472300000004333675021004655022_);fill:#FAFAFA;" d="M2039.4,1243
				c-34.6,24.9-57.4,62.4-64.3,105.5c-1.4,8.6-2.1,17.3-2.1,25.9v0.9c0.1,35.2,11.2,69.9,31.8,98.2c27.2,37.3,77,59.6,133.1,59.6
				c1.7,0,3.4,0,5.1-0.1c44.7-1.1,88.3-16.1,116.6-40.1l1.1-1l-6.6-8.2l-1.2,1c-23.9,19.2-68.1,32.1-110,32.1
				c-18.7,0-36-2.6-50.2-7.4c-44.7-15.4-76.9-53.6-88.1-105c-9.7-44.3-1.1-88.2,24.5-123.6c25.5-35.4,64-55.7,105.7-55.7
				c21,0,41.5,5.1,61.1,15c32.9,16.7,57.4,49.1,65.6,86.5c7.7,35,0.3,68.9-20.8,95.5c-11.9,15-33.6,30.1-55.2,30.1
				c-8.7,0-16.6-2.5-23.5-7.5c-13.7-10-13.6-27.8-13.5-43.5l0-4.1l2-79.4h-65.3v16.5h25.9c-0.3,18.6-1,48.6-1.5,65.9
				c-0.2,7.7-0.3,12.9-0.3,13.4c0,36.7,18.9,55.3,56.2,55.3h0c3.4,0,7-0.2,10.8-0.5c56.6-4.8,106.9-49.8,114.7-102.3
				c8.6-58.6-23-114.1-80.6-141.5c-20.7-9.9-43.4-14.9-67.4-14.9C2106.2,1209.5,2069.4,1221.4,2039.4,1243"/>
			<path style="clip-path:url(#SVGID_00000139977248303256472300000004333675021004655022_);fill:#FAFAFA;" d="M2478.3,1431.6
				c-3.7-3.3-5.5-7.8-5.5-13.5c0-6.6,3.1-11.7,9.2-15.3c6.2-3.6,14.8-5.4,26.1-5.4h5.4c1.7,0,3.4,0.1,5.1,0.3v12.1
				c0,7.5-2.5,13.9-7.4,19c-5,5.2-11,7.7-18.2,7.7C2486.9,1436.6,2482,1435,2478.3,1431.6 M2446.3,1325.4v32.8
				c13.8-7.2,27.4-10.8,40.8-10.8c9.7,0,17.1,2,22.2,5.9c5.1,4,8,10.1,9,18.3c-2-0.2-4.1-0.3-6.1-0.4c-2-0.1-4-0.1-6.1-0.1
				c-23.2,0-41.1,4.6-53.8,13.7s-19,21.8-19,38.2c0,12.7,4.3,22.9,12.8,30.6c8.6,7.7,20,11.6,34.3,11.6c8.6,0,16.6-1.7,23.9-5
				c7.3-3.3,13-7.9,17.2-13.8l2.2,15.2h34.2V1377c0-20.2-5.6-35.8-16.7-46.6c-11.1-10.8-26.9-16.3-47.3-16.3
				C2477,1314.1,2461,1317.9,2446.3,1325.4"/>
			<path style="clip-path:url(#SVGID_00000139977248303256472300000004333675021004655022_);fill:#FAFAFA;" d="M2629.4,1321.2
				c-5.9,4.1-10.6,9.9-14.1,17.2l-2.8-20.7h-36.7v144h41.9v-73.7c0-10.7,2.6-19.1,7.9-25.4c5.2-6.2,12.4-9.4,21.4-9.4
				c4.6,0,8.6,0.6,11.9,1.9v-38.9c-2.8-0.9-6.1-1.4-9.9-1.4C2641.8,1315,2635.3,1317,2629.4,1321.2"/>
			<path style="clip-path:url(#SVGID_00000139977248303256472300000004333675021004655022_);fill:#FAFAFA;" d="M2731,1321.2
				c-5.9,4.1-10.6,9.9-14.1,17.2l-2.8-20.7h-36.7v144h41.9v-73.7c0-10.7,2.6-19.1,7.9-25.4c5.2-6.2,12.4-9.4,21.4-9.4
				c4.6,0,8.6,0.6,11.9,1.9v-38.9c-2.8-0.9-6.1-1.4-9.9-1.4C2743.4,1315,2736.8,1317,2731,1321.2"/>
			<path style="clip-path:url(#SVGID_00000139977248303256472300000004333675021004655022_);fill:#FAFAFA;" d="M2818.9,1420.3
				c-4.9-7.4-7.3-17.7-7.3-30.9c0-13.1,2.4-23.2,7.3-30.5c4.9-7.3,11.6-10.9,20.3-10.9c8.6,0,15.4,3.7,20.3,11
				c4.9,7.4,7.3,17.7,7.3,30.9c0,13.1-2.4,23.2-7.3,30.5c-4.9,7.3-11.6,10.9-20.3,10.9C2830.5,1431.4,2823.8,1427.7,2818.9,1420.3
				 M2802.9,1323.2c-10.6,6.1-18.9,14.9-24.8,26.3c-6,11.5-9,25-9,40.4c0,14.9,2.8,28,8.4,39.3c5.6,11.3,13.7,20.1,24.3,26.5
				c10.6,6.3,23,9.5,37.4,9.5c13.6,0,25.7-3,36.3-9.1c10.6-6.1,18.9-14.8,24.8-26.3c6-11.5,9-25,9-40.4c0-14.9-2.8-28-8.4-39.3
				c-5.6-11.3-13.7-20.1-24.3-26.5c-10.6-6.3-23-9.5-37.4-9.5C2825.6,1314.1,2813.5,1317.2,2802.9,1323.2"/>
			<path style="clip-path:url(#SVGID_00000139977248303256472300000004333675021004655022_);fill:#FAFAFA;" d="M2937.8,1326.6
				c-11.1,8.3-16.7,19.2-16.7,32.8c0,11.2,3.2,20.4,9.5,27.6c6.3,7.2,15.9,12.5,28.6,16c11,3.1,18.4,5.8,22.1,8.1
				c3.7,2.3,5.5,5.3,5.5,9c0,4.4-1.9,7.8-5.7,10.1c-3.8,2.3-9.2,3.4-16.4,3.4c-16.2,0-30.5-3.5-43-10.5v32.8
				c13.8,6.3,29.6,9.4,47.5,9.4c18.4,0,33-4.1,43.7-12.3c10.6-8,15.9-18.9,16.1-32.8v-1.6c-0.1-11.4-3.4-20.6-9.8-27.6
				c-6.5-7.2-16.8-12.7-30.8-16.6c-10.5-2.9-17.5-5.5-21-7.6c-3.5-2.1-5.2-5-5.2-8.7c0-4,1.8-7.1,5.5-9.2c3.7-2.1,8.9-3.2,15.7-3.2
				c12.3,0,24.4,2.5,36.1,7.4v-32.3c-11.8-4.6-24.2-6.9-37.2-6.9C2963.8,1314.2,2949,1318.3,2937.8,1326.6"/>
		</g>
	</g>
</g>
</svg>
