<svg width="40" height="40" viewBox="0 0 40 40" fill="none" xmlns="http://www.w3.org/2000/svg">
<path d="M10 7.52998L19.73 4.72998L32.13 8.17998C32.65 8.33998 33 8.80998 33 9.34998V19.06C33 19.06 33 30.92 20 35.85C7 30.92 7 19.06 7 19.06V11"  stroke-width="2" stroke-miterlimit="10" stroke-linejoin="round"/>
<path d="M24 19.0001V14.9501C24 12.8301 22.21 11.1001 20 11.1001C17.79 11.1001 16 12.8201 16 14.9501V19.0001"  stroke-width="2" stroke-miterlimit="10" stroke-linejoin="round"/>
<path d="M25 20V24H15V20H25ZM26 18H14C13.45 18 13 18.45 13 19V25C13 25.55 13.45 26 14 26H26C26.55 26 27 25.55 27 25V19C27 18.45 26.55 18 26 18Z"/>
</svg>
