<svg width="32" height="32" viewBox="0 0 32 32" fill="none" xmlns="http://www.w3.org/2000/svg">
<path d="M8.00001 6.01979L15.78 3.77979L25.7 6.53979C26.12 6.66979 26.4 7.04979 26.4 7.46979V15.2398C26.4 15.2398 26.4 24.7298 16 28.6698C5.60001 24.7198 5.60001 15.2398 5.60001 15.2398V8.79979"  stroke-width="2" stroke-miterlimit="10" stroke-linejoin="round"/>
<path d="M19.2 15.1999V11.9599C19.2 10.2599 17.77 8.87988 16 8.87988C14.23 8.87988 12.8 10.2599 12.8 11.9599V15.1999"  stroke-width="2" stroke-miterlimit="10" stroke-linejoin="round"/>
<path d="M19.6 16.3999V18.7999H12.4V16.3999H19.6ZM20.6 14.3999H11.4C10.85 14.3999 10.4 14.8499 10.4 15.3999V19.7999C10.4 20.3499 10.85 20.7999 11.4 20.7999H20.6C21.15 20.7999 21.6 20.3499 21.6 19.7999V15.3999C21.6 14.8499 21.15 14.3999 20.6 14.3999Z"/>
</svg>
