<svg width="64" height="64" viewBox="0 0 64 64" fill="none" xmlns="http://www.w3.org/2000/svg">
<path d="M16.34 11.8498L32.05 7.31982L52.08 12.8898C52.92 13.1498 53.49 13.9098 53.49 14.7798V30.4698C53.49 30.4698 53.49 49.6298 32.49 57.5798C11.49 49.6098 11.49 30.4698 11.49 30.4698V16.9998"  stroke-width="3" stroke-miterlimit="10" stroke-linejoin="round"/>
<path d="M38.5 30.0002V23.9302C38.5 20.7402 35.81 18.1602 32.5 18.1602C29.19 18.1602 26.5 20.7402 26.5 23.9302V30.0002"  stroke-width="3" stroke-miterlimit="10" stroke-linejoin="round"/>
<path d="M40.87 32C40.94 32 41 32.06 41 32.13V38.88C41 38.95 40.94 39.01 40.87 39.01H24.12C24.05 39.01 23.99 38.95 23.99 38.88V32.13C23.99 32.06 24.05 32 24.12 32H40.87ZM40.87 29H24.12C22.39 29 20.99 30.4 20.99 32.13V38.88C20.99 40.61 22.39 42.01 24.12 42.01H40.87C42.6 42.01 44 40.61 44 38.88V32.13C44 30.4 42.6 29 40.87 29Z"/>
</svg>
