<svg width="72" height="72" viewBox="0 0 72 72" fill="none" xmlns="http://www.w3.org/2000/svg">
<path d="M18.92 13.4499L36.5 8.37988L58.92 14.6099C59.86 14.8999 60.5 15.7499 60.5 16.7199V34.2699C60.5 34.2699 60.5 55.7099 37 64.6099C13.5 55.6999 13.5 34.2699 13.5 34.2699V19.7199"  stroke-width="3" stroke-miterlimit="10" stroke-linejoin="round"/>
<path d="M43.5 32.9999V26.9199C43.5 23.4699 40.59 20.6699 37 20.6699C33.41 20.6699 30.5 23.4699 30.5 26.9199V32.9999"  stroke-width="3" stroke-miterlimit="10" stroke-linejoin="round"/>
<path d="M46.87 35C46.94 35 47 35.06 47 35.13V43.88C47 43.95 46.94 44.01 46.87 44.01H27.12C27.05 44.01 26.99 43.95 26.99 43.88V35.13C26.99 35.06 27.05 35 27.12 35H46.87ZM46.87 32H27.12C25.39 32 23.99 33.4 23.99 35.13V43.88C23.99 45.61 25.39 47.01 27.12 47.01H46.87C48.6 47.01 50 45.61 50 43.88V35.13C50 33.4 48.6 32 46.87 32Z"/>
</svg>
