<svg width="16" height="16" viewBox="0 0 16 16" fill="none" xmlns="http://www.w3.org/2000/svg">
<path d="M8 15C8 15 2.75 13.6 2 8V3.1L8 1L14 3.1V8C13.25 13.6 8 15 8 15Z"  stroke-width="2" stroke-miterlimit="10" stroke-linejoin="round"/>
<path d="M9.32 7.16977V5.41977C9.32 4.63977 8.72 4.00977 7.98 4.00977C7.24 4.00977 6.64 4.63977 6.64 5.41977V7.16977"  stroke-width="2" stroke-miterlimit="10" stroke-linejoin="round"/>
<path d="M9.47 8.20996V8.99996H6.54V8.20996H9.47ZM10.32 6.20996H5.69C5.05 6.20996 4.53 6.65996 4.53 7.20996V9.99996C4.53 10.55 5.05 11 5.69 11H10.31C10.95 11 11.47 10.55 11.47 9.99996V7.20996C11.47 6.65996 10.95 6.20996 10.32 6.20996Z"/>
</svg>
