<svg width="24" height="24" viewBox="0 0 24 24" fill="none" xmlns="http://www.w3.org/2000/svg">
<path d="M12 22C12 22 5 20 4 12V5L12 2L20 5V12C19 20 12 22 12 22Z"  stroke-width="2" stroke-miterlimit="10" stroke-linejoin="round"/>
<path d="M14.78 10.9999V8.00986C14.78 6.67986 13.54 5.60986 12 5.60986C10.47 5.60986 9.22 6.68986 9.22 8.00986V10.9999"  stroke-width="2" stroke-miterlimit="10" stroke-linejoin="round"/>
<path d="M15 12V14.02H9V12H15ZM16 10H8C7.45 10 7 10.45 7 11V15.02C7 15.57 7.45 16.02 8 16.02H16C16.55 16.02 17 15.57 17 15.02V11C17 10.45 16.55 10 16 10Z"/>
</svg>
