<svg width="16" height="16" viewBox="0 0 16 16" fill="none" xmlns="http://www.w3.org/2000/svg">
<g clip-path="url(#clip0)">
<path d="M9.17493 6.96338C8.70234 6.96338 8.31592 7.34719 8.31592 7.82239C8.31592 8.29497 8.69973 8.6814 9.17493 8.6814C9.64751 8.6814 10.0339 8.29758 10.0339 7.82239C10.0339 7.3498 9.64751 6.96338 9.17493 6.96338Z" fill="url(#paint0_linear)"/>
<path d="M9.74414 4.36304V5.91134C10.1854 6.04189 10.5614 6.32126 10.8172 6.69202L12.2898 6.21421C11.7885 5.24815 10.8538 4.5458 9.74414 4.36304Z" fill="url(#paint1_linear)"/>
<path d="M12.6424 7.29517L11.1699 7.77297C11.1699 7.78864 11.1699 7.80691 11.1699 7.82258C11.1699 8.2795 11.0158 8.69725 10.7573 9.03407L11.6659 10.2847C12.2926 9.65026 12.679 8.78081 12.679 7.81997C12.6816 7.64242 12.6685 7.46749 12.6424 7.29517Z" fill="url(#paint2_linear)"/>
<path d="M6.06006 6.21421L7.53264 6.69202C7.78852 6.32126 8.1645 6.04189 8.60575 5.91134V4.36304C7.49609 4.5458 6.56136 5.24815 6.06006 6.21421Z" fill="url(#paint3_linear)"/>
<path d="M9.83802 9.70508C9.62914 9.77819 9.40721 9.81996 9.17483 9.81996C8.94245 9.81996 8.71791 9.77819 8.51164 9.70508L7.60303 10.9557C8.07561 11.1933 8.61086 11.3291 9.17744 11.3291C9.74402 11.3291 10.2767 11.1933 10.7519 10.9557L9.83802 9.70508Z" fill="url(#paint4_linear)"/>
<path d="M7.18021 7.82258C7.18021 7.80692 7.18021 7.78864 7.18021 7.77297L5.70762 7.29517C5.68151 7.46749 5.66846 7.64504 5.66846 7.82258C5.66846 8.78081 6.05488 9.65287 6.68151 10.2873L7.59013 9.03668C7.33425 8.69987 7.18021 8.2795 7.18021 7.82258Z" fill="url(#paint5_linear)"/>
<path d="M9.17493 1H2.86945C2.58225 1 2.34987 1.23238 2.34987 1.51958C2.34987 1.80679 2.58225 2.03916 2.86684 2.03916H5.56136C4.99217 2.39426 4.48042 2.8329 4.03916 3.3342H0.519582C0.232376 3.33159 0 3.56397 0 3.85118C0 4.13838 0.232376 4.36815 0.519582 4.36815H3.29243C2.69452 5.38381 2.34987 6.56397 2.34987 7.82507C2.34987 9.29243 2.81462 10.6501 3.60574 11.765H2.13316C1.84595 11.765 1.61358 11.9974 1.61358 12.282C1.61358 12.5692 1.84595 12.8016 2.13316 12.8016H4.50914C4.8329 13.1044 5.18538 13.376 5.56136 13.6136H0.571802C0.284595 13.6136 0.0548303 13.846 0.0548303 14.1332C0.0548303 14.4204 0.287206 14.6527 0.571802 14.6527H9.17493C12.9373 14.6527 16 11.5901 16 7.82768C16 4.06266 12.9373 1 9.17493 1ZM11.9269 11.5431C11.9164 11.5509 11.906 11.5614 11.8956 11.5692C11.8825 11.5796 11.8695 11.5875 11.8564 11.5953C11.0992 12.1358 10.1749 12.4543 9.17493 12.4543C8.17755 12.4543 7.25065 12.1358 6.49347 11.5953C6.48042 11.5875 6.46736 11.5796 6.45431 11.5692C6.44386 11.5614 6.43342 11.5509 6.42298 11.5431C5.28721 10.6997 4.5483 9.34726 4.5483 7.82507C4.5483 5.27415 6.62402 3.19843 9.17493 3.19843C11.7258 3.19843 13.8016 5.27415 13.8016 7.82507C13.8016 9.34726 13.0627 10.6997 11.9269 11.5431ZM14.4047 5.84334C14.3551 5.86162 14.3055 5.87206 14.2559 5.87206C14.094 5.87206 13.9426 5.77546 13.8799 5.61619C13.517 4.69713 12.846 3.91906 11.9869 3.42559C11.7937 3.31332 11.7285 3.06789 11.8381 2.87467C11.9504 2.68146 12.1958 2.61619 12.389 2.72585C13.4047 3.31071 14.201 4.23238 14.6292 5.31854C14.7128 5.52742 14.611 5.75979 14.4047 5.84334Z" fill="url(#paint6_linear)"/>
</g>
<defs>
<linearGradient id="paint0_linear" x1="8.31652" y1="7.82265" x2="10.033" y2="7.82265" gradientUnits="userSpaceOnUse">
<stop stop-color="#003399"/>
<stop offset="1" stop-color="#0071CE"/>
</linearGradient>
<linearGradient id="paint1_linear" x1="9.74317" y1="5.52732" x2="12.2891" y2="5.52732" gradientUnits="userSpaceOnUse">
<stop stop-color="#003399"/>
<stop offset="1" stop-color="#0071CE"/>
</linearGradient>
<linearGradient id="paint2_linear" x1="10.7582" y1="8.79031" x2="12.6812" y2="8.79031" gradientUnits="userSpaceOnUse">
<stop stop-color="#003399"/>
<stop offset="1" stop-color="#0071CE"/>
</linearGradient>
<linearGradient id="paint3_linear" x1="6.06048" y1="5.52732" x2="8.60622" y2="5.52732" gradientUnits="userSpaceOnUse">
<stop stop-color="#003399"/>
<stop offset="1" stop-color="#0071CE"/>
</linearGradient>
<linearGradient id="paint4_linear" x1="7.60125" y1="10.5166" x2="10.7481" y2="10.5166" gradientUnits="userSpaceOnUse">
<stop stop-color="#003399"/>
<stop offset="1" stop-color="#0071CE"/>
</linearGradient>
<linearGradient id="paint5_linear" x1="5.66838" y1="8.79031" x2="7.59138" y2="8.79031" gradientUnits="userSpaceOnUse">
<stop stop-color="#003399"/>
<stop offset="1" stop-color="#0071CE"/>
</linearGradient>
<linearGradient id="paint6_linear" x1="0" y1="7.82475" x2="15.9995" y2="7.82475" gradientUnits="userSpaceOnUse">
<stop stop-color="#003399"/>
<stop offset="1" stop-color="#0071CE"/>
</linearGradient>
<clipPath id="clip0">
<rect width="16" height="13.6501" fill="white" transform="translate(0 1)"/>
</clipPath>
</defs>
</svg>
