<svg width="32" height="32" viewBox="0 0 32 32" fill="none" xmlns="http://www.w3.org/2000/svg">
<g clip-path="url(#clip0)">
<path d="M18.3499 13.927C17.4047 13.927 16.6318 14.6946 16.6318 15.645C16.6318 16.5902 17.3995 17.363 18.3499 17.363C19.295 17.363 20.0679 16.5954 20.0679 15.645C20.0679 14.6998 19.295 13.927 18.3499 13.927Z" fill="url(#paint0_linear)"/>
<path d="M19.4883 8.72583V11.8224C20.3708 12.0835 21.1227 12.6423 21.6345 13.3838L24.5797 12.4282C23.5771 10.4961 21.7076 9.09137 19.4883 8.72583Z" fill="url(#paint1_linear)"/>
<path d="M25.2844 14.5901L22.3392 15.5457C22.3392 15.577 22.3392 15.6136 22.3392 15.6449C22.3392 16.5588 22.0311 17.3943 21.5142 18.0679L23.3314 20.5692C24.5847 19.3003 25.3575 17.5614 25.3575 15.6397C25.3627 15.2846 25.3366 14.9347 25.2844 14.5901Z" fill="url(#paint2_linear)"/>
<path d="M12.1201 12.4282L15.0653 13.3838C15.577 12.6423 16.329 12.0835 17.2115 11.8224V8.72583C14.9922 9.09137 13.1227 10.4961 12.1201 12.4282Z" fill="url(#paint3_linear)"/>
<path d="M19.676 19.4099C19.2583 19.5561 18.8144 19.6397 18.3497 19.6397C17.8849 19.6397 17.4358 19.5561 17.0233 19.4099L15.2061 21.9112C16.1512 22.3864 17.2217 22.658 18.3549 22.658C19.488 22.658 20.5533 22.3864 21.5037 21.9112L19.676 19.4099Z" fill="url(#paint4_linear)"/>
<path d="M14.3604 15.6449C14.3604 15.6136 14.3604 15.577 14.3604 15.5457L11.4152 14.5901C11.363 14.9347 11.3369 15.2898 11.3369 15.6449C11.3369 17.5614 12.1098 19.3055 13.363 20.5744L15.1803 18.0731C14.6685 17.3995 14.3604 16.5588 14.3604 15.6449Z" fill="url(#paint5_linear)"/>
<path d="M18.3499 2H5.7389C5.16449 2 4.69974 2.46475 4.69974 3.03916C4.69974 3.61358 5.16449 4.07833 5.73368 4.07833H11.1227C9.98433 4.78851 8.96084 5.6658 8.07833 6.66841H1.03916C0.464752 6.66319 0 7.12794 0 7.70235C0 8.27676 0.464752 8.73629 1.03916 8.73629H6.58486C5.38903 10.7676 4.69974 13.1279 4.69974 15.6501C4.69974 18.5849 5.62924 21.3003 7.21149 23.53H4.26632C3.69191 23.53 3.22715 23.9948 3.22715 24.564C3.22715 25.1384 3.69191 25.6031 4.26632 25.6031H9.01828C9.6658 26.2089 10.3708 26.752 11.1227 27.2272H1.1436C0.569191 27.2272 0.109661 27.6919 0.109661 28.2663C0.109661 28.8407 0.574413 29.3055 1.1436 29.3055H18.3499C25.8747 29.3055 32 23.1802 32 15.6554C32 8.12533 25.8747 2 18.3499 2ZM23.8538 23.0862C23.8329 23.1018 23.812 23.1227 23.7911 23.1384C23.765 23.1593 23.7389 23.1749 23.7128 23.1906C22.1984 24.2715 20.3499 24.9086 18.3499 24.9086C16.3551 24.9086 14.5013 24.2715 12.9869 23.1906C12.9608 23.1749 12.9347 23.1593 12.9086 23.1384C12.8877 23.1227 12.8668 23.1018 12.846 23.0862C10.5744 21.3995 9.09661 18.6945 9.09661 15.6501C9.09661 10.5483 13.248 6.39687 18.3499 6.39687C23.4517 6.39687 27.6031 10.5483 27.6031 15.6501C27.6031 18.6945 26.1253 21.3995 23.8538 23.0862ZM28.8094 11.6867C28.7102 11.7232 28.611 11.7441 28.5117 11.7441C28.188 11.7441 27.8851 11.5509 27.7598 11.2324C27.0339 9.39426 25.6919 7.83812 23.9739 6.85118C23.5875 6.62663 23.4569 6.13577 23.6762 5.74935C23.9008 5.36292 24.3916 5.23238 24.7781 5.4517C26.8094 6.62141 28.4021 8.46475 29.2585 10.6371C29.4256 11.0548 29.2219 11.5196 28.8094 11.6867Z" fill="url(#paint6_linear)"/>
</g>
<defs>
<linearGradient id="paint0_linear" x1="16.633" y1="15.6455" x2="20.066" y2="15.6455" gradientUnits="userSpaceOnUse">
<stop stop-color="#003399"/>
<stop offset="1" stop-color="#0071CE"/>
</linearGradient>
<linearGradient id="paint1_linear" x1="19.4863" y1="11.0544" x2="24.5782" y2="11.0544" gradientUnits="userSpaceOnUse">
<stop stop-color="#003399"/>
<stop offset="1" stop-color="#0071CE"/>
</linearGradient>
<linearGradient id="paint2_linear" x1="21.5159" y1="17.5804" x2="25.3619" y2="17.5804" gradientUnits="userSpaceOnUse">
<stop stop-color="#003399"/>
<stop offset="1" stop-color="#0071CE"/>
</linearGradient>
<linearGradient id="paint3_linear" x1="12.121" y1="11.0544" x2="17.2124" y2="11.0544" gradientUnits="userSpaceOnUse">
<stop stop-color="#003399"/>
<stop offset="1" stop-color="#0071CE"/>
</linearGradient>
<linearGradient id="paint4_linear" x1="15.2025" y1="21.033" x2="21.4962" y2="21.033" gradientUnits="userSpaceOnUse">
<stop stop-color="#003399"/>
<stop offset="1" stop-color="#0071CE"/>
</linearGradient>
<linearGradient id="paint5_linear" x1="11.3368" y1="17.5804" x2="15.1828" y2="17.5804" gradientUnits="userSpaceOnUse">
<stop stop-color="#003399"/>
<stop offset="1" stop-color="#0071CE"/>
</linearGradient>
<linearGradient id="paint6_linear" x1="0" y1="15.6495" x2="31.999" y2="15.6495" gradientUnits="userSpaceOnUse">
<stop stop-color="#003399"/>
<stop offset="1" stop-color="#0071CE"/>
</linearGradient>
<clipPath id="clip0">
<rect width="32" height="27.3003" fill="white" transform="translate(0 2)"/>
</clipPath>
</defs>
</svg>
