<svg width="64" height="64" viewBox="0 0 64 64" fill="none" xmlns="http://www.w3.org/2000/svg">
<g clip-path="url(#clip0)">
<path d="M36.6997 28.8538C34.8094 28.8538 33.2637 30.389 33.2637 32.2898C33.2637 34.1801 34.7989 35.7258 36.6997 35.7258C38.59 35.7258 40.1357 34.1906 40.1357 32.2898C40.1357 30.3995 38.59 28.8538 36.6997 28.8538Z" fill="url(#paint0_linear)"/>
<path d="M38.9766 18.4517V24.6449C40.7416 25.1671 42.2455 26.2846 43.269 27.7676L49.1593 25.8564C47.1541 21.9921 43.4152 19.1827 38.9766 18.4517Z" fill="url(#paint1_linear)"/>
<path d="M50.5693 30.1802L44.6789 32.0914C44.6789 32.1541 44.6789 32.2272 44.6789 32.2898C44.6789 34.1175 44.0628 35.7885 43.0288 37.1358L46.6633 42.1384C49.1698 39.6005 50.7155 36.1227 50.7155 32.2794C50.7259 31.5692 50.6737 30.8695 50.5693 30.1802Z" fill="url(#paint2_linear)"/>
<path d="M24.2402 25.8564L30.1306 27.7676C31.1541 26.2846 32.658 25.1671 34.423 24.6449V18.4517C29.9844 19.1827 26.2455 21.9921 24.2402 25.8564Z" fill="url(#paint3_linear)"/>
<path d="M39.3525 39.8198C38.517 40.1123 37.6293 40.2794 36.6998 40.2794C35.7703 40.2794 34.8721 40.1123 34.0471 39.8198L30.4126 44.8224C32.3029 45.7728 34.4439 46.3159 36.7102 46.3159C38.9766 46.3159 41.1071 45.7728 43.0079 44.8224L39.3525 39.8198Z" fill="url(#paint4_linear)"/>
<path d="M28.7208 32.2898C28.7208 32.2272 28.7208 32.1541 28.7208 32.0914L22.8305 30.1802C22.726 30.8695 22.6738 31.5797 22.6738 32.2898C22.6738 36.1227 24.2195 39.611 26.726 42.1488L30.3605 37.1462C29.337 35.799 28.7208 34.1175 28.7208 32.2898Z" fill="url(#paint5_linear)"/>
<path d="M36.6997 5H11.4778C10.329 5 9.39948 5.9295 9.39948 7.07833C9.39948 8.22715 10.329 9.15666 11.4674 9.15666H22.2454C19.9687 10.577 17.9217 12.3316 16.1567 14.3368H2.07833C0.929504 14.3264 0 15.2559 0 16.4047C0 17.5535 0.929504 18.4726 2.07833 18.4726H13.1697C10.7781 22.5352 9.39948 27.2559 9.39948 32.3003C9.39948 38.1697 11.2585 43.6005 14.423 48.0601H8.53264C7.38381 48.0601 6.45431 48.9896 6.45431 50.1279C6.45431 51.2768 7.38381 52.2063 8.53264 52.2063H18.0366C19.3316 53.4178 20.7415 54.5039 22.2454 55.4543H2.28721C1.13838 55.4543 0.219321 56.3838 0.219321 57.5326C0.219321 58.6815 1.14883 59.611 2.28721 59.611H36.6997C51.7493 59.611 64 47.3603 64 32.3107C64 17.2507 51.7493 5 36.6997 5ZM47.7076 47.1723C47.6658 47.2037 47.624 47.2454 47.5822 47.2768C47.53 47.3185 47.4778 47.3499 47.4256 47.3812C44.3969 49.5431 40.6997 50.8172 36.6997 50.8172C32.7102 50.8172 29.0026 49.5431 25.9739 47.3812C25.9217 47.3499 25.8694 47.3185 25.8172 47.2768C25.7755 47.2454 25.7337 47.2037 25.6919 47.1723C21.1488 43.799 18.1932 38.389 18.1932 32.3003C18.1932 22.0966 26.4961 13.7937 36.6997 13.7937C46.9034 13.7937 55.2063 22.0966 55.2063 32.3003C55.2063 38.389 52.2507 43.799 47.7076 47.1723ZM57.6188 24.3734C57.4204 24.4465 57.2219 24.4883 57.0235 24.4883C56.376 24.4883 55.7702 24.1018 55.5196 23.4648C54.0679 19.7885 51.3838 16.6762 47.9478 14.7024C47.1749 14.2533 46.9138 13.2715 47.3525 12.4987C47.8016 11.7258 48.7833 11.4648 49.5561 11.9034C53.6188 14.2428 56.8042 17.9295 58.517 22.2742C58.8512 23.1097 58.4439 24.0392 57.6188 24.3734Z" fill="url(#paint6_linear)"/>
</g>
<defs>
<linearGradient id="paint0_linear" x1="33.2661" y1="32.2908" x2="40.132" y2="32.2908" gradientUnits="userSpaceOnUse">
<stop stop-color="#003399"/>
<stop offset="1" stop-color="#0071CE"/>
</linearGradient>
<linearGradient id="paint1_linear" x1="38.9727" y1="23.1088" x2="49.1563" y2="23.1088" gradientUnits="userSpaceOnUse">
<stop stop-color="#003399"/>
<stop offset="1" stop-color="#0071CE"/>
</linearGradient>
<linearGradient id="paint2_linear" x1="43.0323" y1="36.1607" x2="50.7243" y2="36.1607" gradientUnits="userSpaceOnUse">
<stop stop-color="#003399"/>
<stop offset="1" stop-color="#0071CE"/>
</linearGradient>
<linearGradient id="paint3_linear" x1="24.2419" y1="23.1088" x2="34.4249" y2="23.1088" gradientUnits="userSpaceOnUse">
<stop stop-color="#003399"/>
<stop offset="1" stop-color="#0071CE"/>
</linearGradient>
<linearGradient id="paint4_linear" x1="30.4055" y1="43.066" x2="42.993" y2="43.066" gradientUnits="userSpaceOnUse">
<stop stop-color="#003399"/>
<stop offset="1" stop-color="#0071CE"/>
</linearGradient>
<linearGradient id="paint5_linear" x1="22.6735" y1="36.1608" x2="30.3655" y2="36.1608" gradientUnits="userSpaceOnUse">
<stop stop-color="#003399"/>
<stop offset="1" stop-color="#0071CE"/>
</linearGradient>
<linearGradient id="paint6_linear" x1="0" y1="32.299" x2="63.998" y2="32.299" gradientUnits="userSpaceOnUse">
<stop stop-color="#003399"/>
<stop offset="1" stop-color="#0071CE"/>
</linearGradient>
<clipPath id="clip0">
<rect width="64" height="54.6005" fill="white" transform="translate(0 5)"/>
</clipPath>
</defs>
</svg>
