<svg width="72" height="72" viewBox="0 0 72 72" fill="none" xmlns="http://www.w3.org/2000/svg">
<g clip-path="url(#clip0)">
<path d="M41.2874 31.8354C39.1608 31.8354 37.4219 33.5626 37.4219 35.701C37.4219 37.8276 39.149 39.5665 41.2874 39.5665C43.414 39.5665 45.153 37.8394 45.153 35.701C45.153 33.5744 43.414 31.8354 41.2874 31.8354Z" fill="url(#paint0_linear)"/>
<path d="M43.8486 20.1331V27.1004C45.8343 27.6879 47.5262 28.9451 48.6776 30.6135L55.3042 28.4633C53.0484 24.1161 48.8421 20.9555 43.8486 20.1331Z" fill="url(#paint1_linear)"/>
<path d="M56.8902 33.3276L50.2636 35.4778C50.2636 35.5483 50.2636 35.6305 50.2636 35.701C50.2636 37.7571 49.5704 39.637 48.4072 41.1527L52.496 46.7806C55.3158 43.9255 57.0547 40.013 57.0547 35.6893C57.0665 34.8903 57.0077 34.1031 56.8902 33.3276Z" fill="url(#paint2_linear)"/>
<path d="M27.27 28.4633L33.8967 30.6135C35.0481 28.9451 36.74 27.6879 38.7256 27.1004V20.1331C33.7322 20.9555 29.5259 24.1161 27.27 28.4633Z" fill="url(#paint3_linear)"/>
<path d="M44.2713 44.1724C43.3314 44.5013 42.3327 44.6893 41.287 44.6893C40.2413 44.6893 39.2308 44.5013 38.3026 44.1724L34.2139 49.8003C36.3405 50.8695 38.7491 51.4805 41.2987 51.4805C43.8483 51.4805 46.2452 50.8695 48.3836 49.8003L44.2713 44.1724Z" fill="url(#paint4_linear)"/>
<path d="M32.3107 35.701C32.3107 35.6305 32.3107 35.5483 32.3107 35.4778L25.6841 33.3276C25.5666 34.1031 25.5078 34.902 25.5078 35.701C25.5078 40.013 27.2467 43.9373 30.0666 46.7924L34.1553 41.1645C33.0039 39.6488 32.3107 37.7571 32.3107 35.701Z" fill="url(#paint5_linear)"/>
<path d="M41.2872 5H12.9125C11.6201 5 10.5744 6.04569 10.5744 7.33812C10.5744 8.63055 11.6201 9.67624 12.9008 9.67624H25.0261C22.4648 11.2742 20.1619 13.248 18.1762 15.5039H2.33812C1.04569 15.4922 0 16.5379 0 17.8303C0 19.1227 1.04569 20.1567 2.33812 20.1567H14.8159C12.1253 24.7272 10.5744 30.0379 10.5744 35.7128C10.5744 42.3159 12.6658 48.4256 16.2258 53.4426H9.59922C8.30679 53.4426 7.2611 54.4883 7.2611 55.7689C7.2611 57.0614 8.30679 58.1071 9.59922 58.1071H20.2911C21.748 59.47 23.3342 60.6919 25.0261 61.7611H2.57311C1.28068 61.7611 0.246736 62.8068 0.246736 64.0992C0.246736 65.3917 1.29243 66.4373 2.57311 66.4373H41.2872C58.218 66.4373 72 52.6554 72 35.7245C72 18.782 58.218 5 41.2872 5ZM53.671 52.4439C53.624 52.4791 53.577 52.5261 53.53 52.5614C53.4713 52.6084 53.4125 52.6436 53.3538 52.6789C49.9465 55.111 45.7872 56.5444 41.2872 56.5444C36.799 56.5444 32.6279 55.111 29.2206 52.6789C29.1619 52.6436 29.1031 52.6084 29.0444 52.5614C28.9974 52.5261 28.9504 52.4791 28.9034 52.4439C23.7924 48.6488 20.4674 42.5627 20.4674 35.7128C20.4674 24.2337 29.8081 14.893 41.2872 14.893C52.7663 14.893 62.1071 24.2337 62.1071 35.7128C62.1071 42.5627 58.782 48.6488 53.671 52.4439ZM64.8211 26.795C64.5979 26.8773 64.3747 26.9243 64.1514 26.9243C63.423 26.9243 62.7415 26.4896 62.4595 25.7728C60.8264 21.6371 57.8068 18.1358 53.9413 15.9151C53.0718 15.4099 52.7781 14.3055 53.2715 13.436C53.7768 12.5666 54.8812 12.2728 55.7507 12.7663C60.3212 15.3982 63.9047 19.5457 65.8316 24.4334C66.2076 25.3734 65.7493 26.4191 64.8211 26.795Z" fill="url(#paint6_linear)"/>
</g>
<defs>
<linearGradient id="paint0_linear" x1="37.4246" y1="35.7022" x2="45.1487" y2="35.7022" gradientUnits="userSpaceOnUse">
<stop stop-color="#003399"/>
<stop offset="1" stop-color="#0071CE"/>
</linearGradient>
<linearGradient id="paint1_linear" x1="43.8443" y1="25.3723" x2="55.3008" y2="25.3723" gradientUnits="userSpaceOnUse">
<stop stop-color="#003399"/>
<stop offset="1" stop-color="#0071CE"/>
</linearGradient>
<linearGradient id="paint2_linear" x1="48.4111" y1="40.0558" x2="57.0646" y2="40.0558" gradientUnits="userSpaceOnUse">
<stop stop-color="#003399"/>
<stop offset="1" stop-color="#0071CE"/>
</linearGradient>
<linearGradient id="paint3_linear" x1="27.2719" y1="25.3723" x2="38.7278" y2="25.3723" gradientUnits="userSpaceOnUse">
<stop stop-color="#003399"/>
<stop offset="1" stop-color="#0071CE"/>
</linearGradient>
<linearGradient id="paint4_linear" x1="34.2059" y1="47.8243" x2="48.3668" y2="47.8243" gradientUnits="userSpaceOnUse">
<stop stop-color="#003399"/>
<stop offset="1" stop-color="#0071CE"/>
</linearGradient>
<linearGradient id="paint5_linear" x1="25.5075" y1="40.0558" x2="34.161" y2="40.0558" gradientUnits="userSpaceOnUse">
<stop stop-color="#003399"/>
<stop offset="1" stop-color="#0071CE"/>
</linearGradient>
<linearGradient id="paint6_linear" x1="0" y1="35.7114" x2="71.9978" y2="35.7114" gradientUnits="userSpaceOnUse">
<stop stop-color="#003399"/>
<stop offset="1" stop-color="#0071CE"/>
</linearGradient>
<clipPath id="clip0">
<rect width="72" height="61.4256" fill="white" transform="translate(0 5)"/>
</clipPath>
</defs>
</svg>
