<svg width="40" height="40" viewBox="0 0 40 40" fill="none" xmlns="http://www.w3.org/2000/svg">
<g clip-path="url(#clip0)">
<path d="M22.9376 17.9087C21.7561 17.9087 20.79 18.8682 20.79 20.0562C20.79 21.2377 21.7496 22.2037 22.9376 22.2037C24.119 22.2037 25.0851 21.2442 25.0851 20.0562C25.0851 18.8747 24.119 17.9087 22.9376 17.9087Z" fill="url(#paint0_linear)"/>
<path d="M24.3604 11.4072V15.278C25.4635 15.6044 26.4034 16.3028 27.0431 17.2297L30.7246 16.0352C29.4713 13.62 27.1345 11.8641 24.3604 11.4072Z" fill="url(#paint1_linear)"/>
<path d="M31.6059 18.7375L27.9244 19.9321C27.9244 19.9712 27.9244 20.0169 27.9244 20.0561C27.9244 21.1984 27.5393 22.2428 26.8931 23.0848L29.1646 26.2114C30.7312 24.6253 31.6972 22.4516 31.6972 20.0496C31.7038 19.6057 31.6711 19.1684 31.6059 18.7375Z" fill="url(#paint2_linear)"/>
<path d="M15.1499 16.0352L18.8314 17.2297C19.4711 16.3028 20.411 15.6044 21.5141 15.278V11.4072C18.74 11.8641 16.4032 13.62 15.1499 16.0352Z" fill="url(#paint3_linear)"/>
<path d="M24.5953 24.7625C24.0731 24.9452 23.5183 25.0497 22.9373 25.0497C22.3564 25.0497 21.795 24.9452 21.2794 24.7625L19.0078 27.8891C20.1893 28.4831 21.5274 28.8225 22.9438 28.8225C24.3603 28.8225 25.6919 28.4831 26.8799 27.8891L24.5953 24.7625Z" fill="url(#paint4_linear)"/>
<path d="M17.9503 20.0561C17.9503 20.0169 17.9503 19.9712 17.9503 19.9321L14.2688 18.7375C14.2035 19.1684 14.1709 19.6122 14.1709 20.0561C14.1709 22.4516 15.137 24.6318 16.7035 26.218L18.9751 23.0913C18.3354 22.2493 17.9503 21.1984 17.9503 20.0561Z" fill="url(#paint5_linear)"/>
<path d="M22.9373 3H7.17363C6.45561 3 5.87467 3.58094 5.87467 4.29896C5.87467 5.01697 6.45561 5.59791 7.1671 5.59791H13.9034C12.4804 6.48564 11.201 7.58225 10.0979 8.83551H1.29896C0.58094 8.82898 0 9.40992 0 10.1279C0 10.846 0.58094 11.4204 1.29896 11.4204H8.23107C6.73629 13.9595 5.87467 16.9099 5.87467 20.0627C5.87467 23.7311 7.03655 27.1253 9.01436 29.9125H5.3329C4.61488 29.9125 4.03394 30.4935 4.03394 31.205C4.03394 31.923 4.61488 32.5039 5.3329 32.5039H11.2728C12.0822 33.2611 12.9634 33.94 13.9034 34.5339H1.4295C0.711488 34.5339 0.137076 35.1149 0.137076 35.8329C0.137076 36.5509 0.718016 37.1319 1.4295 37.1319H22.9373C32.3433 37.1319 40 29.4752 40 20.0692C40 10.6567 32.3433 3 22.9373 3ZM29.8172 29.3577C29.7911 29.3773 29.765 29.4034 29.7389 29.423C29.7063 29.4491 29.6736 29.4687 29.641 29.4883C27.748 30.8394 25.4373 31.6358 22.9373 31.6358C20.4439 31.6358 18.1266 30.8394 16.2337 29.4883C16.201 29.4687 16.1684 29.4491 16.1358 29.423C16.1097 29.4034 16.0836 29.3773 16.0574 29.3577C13.218 27.2494 11.3708 23.8681 11.3708 20.0627C11.3708 13.6854 16.5601 8.49608 22.9373 8.49608C29.3146 8.49608 34.5039 13.6854 34.5039 20.0627C34.5039 23.8681 32.6567 27.2494 29.8172 29.3577ZM36.0117 15.1084C35.8877 15.154 35.7637 15.1802 35.6397 15.1802C35.235 15.1802 34.8564 14.9386 34.6997 14.5405C33.7924 12.2428 32.1149 10.2977 29.9674 9.06397C29.4843 8.78329 29.3211 8.16971 29.5953 7.68668C29.876 7.20366 30.4896 7.04047 30.9726 7.31462C33.5118 8.77676 35.5026 11.0809 36.5731 13.7963C36.782 14.3185 36.5274 14.8995 36.0117 15.1084Z" fill="url(#paint6_linear)"/>
</g>
<defs>
<linearGradient id="paint0_linear" x1="20.7915" y1="20.0569" x2="25.0827" y2="20.0569" gradientUnits="userSpaceOnUse">
<stop stop-color="#003399"/>
<stop offset="1" stop-color="#0071CE"/>
</linearGradient>
<linearGradient id="paint1_linear" x1="24.3579" y1="14.3179" x2="30.7227" y2="14.3179" gradientUnits="userSpaceOnUse">
<stop stop-color="#003399"/>
<stop offset="1" stop-color="#0071CE"/>
</linearGradient>
<linearGradient id="paint2_linear" x1="26.8952" y1="22.4754" x2="31.7027" y2="22.4754" gradientUnits="userSpaceOnUse">
<stop stop-color="#003399"/>
<stop offset="1" stop-color="#0071CE"/>
</linearGradient>
<linearGradient id="paint3_linear" x1="15.1509" y1="14.3179" x2="21.5153" y2="14.3179" gradientUnits="userSpaceOnUse">
<stop stop-color="#003399"/>
<stop offset="1" stop-color="#0071CE"/>
</linearGradient>
<linearGradient id="paint4_linear" x1="19.0034" y1="26.7913" x2="26.8705" y2="26.7913" gradientUnits="userSpaceOnUse">
<stop stop-color="#003399"/>
<stop offset="1" stop-color="#0071CE"/>
</linearGradient>
<linearGradient id="paint5_linear" x1="14.1707" y1="22.4754" x2="18.9782" y2="22.4754" gradientUnits="userSpaceOnUse">
<stop stop-color="#003399"/>
<stop offset="1" stop-color="#0071CE"/>
</linearGradient>
<linearGradient id="paint6_linear" x1="0" y1="20.0619" x2="39.9988" y2="20.0619" gradientUnits="userSpaceOnUse">
<stop stop-color="#003399"/>
<stop offset="1" stop-color="#0071CE"/>
</linearGradient>
<clipPath id="clip0">
<rect width="40" height="34.1253" fill="white" transform="translate(0 3)"/>
</clipPath>
</defs>
</svg>
