<svg width="24" height="24" viewBox="0 0 24 24" fill="none" xmlns="http://www.w3.org/2000/svg">
<g clip-path="url(#clip0)">
<path d="M13.7626 10.9451C13.0538 10.9451 12.4741 11.5208 12.4741 12.2336C12.4741 12.9425 13.0498 13.5221 13.7626 13.5221C14.4715 13.5221 15.0511 12.9464 15.0511 12.2336C15.0511 11.5247 14.4715 10.9451 13.7626 10.9451Z" fill="url(#paint0_linear)"/>
<path d="M14.6162 7.04443V9.36689C15.2781 9.56271 15.8421 9.98177 16.2259 10.5379L18.4348 9.8212C17.6828 8.37211 16.2807 7.31859 14.6162 7.04443Z" fill="url(#paint1_linear)"/>
<path d="M18.9634 11.4426L16.7545 12.1593C16.7545 12.1828 16.7545 12.2103 16.7545 12.2337C16.7545 12.9191 16.5235 13.5458 16.1357 14.051L17.4987 15.927C18.4386 14.9753 19.0182 13.6711 19.0182 12.2298C19.0222 11.9635 19.0026 11.7011 18.9634 11.4426Z" fill="url(#paint2_linear)"/>
<path d="M9.08984 9.8212L11.2987 10.5379C11.6825 9.98177 12.2465 9.56271 12.9084 9.36689V7.04443C11.2439 7.31859 9.8418 8.37211 9.08984 9.8212Z" fill="url(#paint3_linear)"/>
<path d="M14.7573 15.0574C14.444 15.167 14.1111 15.2297 13.7625 15.2297C13.4139 15.2297 13.0771 15.167 12.7677 15.0574L11.4048 16.9334C12.1137 17.2897 12.9165 17.4934 13.7664 17.4934C14.6163 17.4934 15.4152 17.2897 16.128 16.9334L14.7573 15.0574Z" fill="url(#paint4_linear)"/>
<path d="M10.7701 12.2337C10.7701 12.2103 10.7701 12.1828 10.7701 12.1593L8.56119 11.4426C8.52202 11.7011 8.50244 11.9674 8.50244 12.2337C8.50244 13.6711 9.08208 14.9792 10.022 15.9309L11.3849 14.0549C11.0011 13.5497 10.7701 12.9191 10.7701 12.2337Z" fill="url(#paint5_linear)"/>
<path d="M13.7624 2H4.30418C3.87337 2 3.5248 2.34856 3.5248 2.77937C3.5248 3.21018 3.87337 3.55875 4.30026 3.55875H8.34204C7.48825 4.09138 6.72063 4.74935 6.05875 5.50131H0.779373C0.348564 5.49739 0 5.84595 0 6.27676C0 6.70757 0.348564 7.05222 0.779373 7.05222H4.93864C4.04178 8.57572 3.5248 10.346 3.5248 12.2376C3.5248 14.4386 4.22193 16.4752 5.40862 18.1475H3.19974C2.76893 18.1475 2.42037 18.4961 2.42037 18.923C2.42037 19.3538 2.76893 19.7024 3.19974 19.7024H6.76371C7.24935 20.1567 7.77807 20.564 8.34204 20.9204H0.857702C0.426893 20.9204 0.0822454 21.2689 0.0822454 21.6997C0.0822454 22.1306 0.430809 22.4791 0.857702 22.4791H13.7624C19.406 22.4791 24 17.8851 24 12.2415C24 6.594 19.406 2 13.7624 2ZM17.8903 17.8146C17.8747 17.8264 17.859 17.842 17.8433 17.8538C17.8238 17.8695 17.8042 17.8812 17.7846 17.893C16.6488 18.7037 15.2624 19.1815 13.7624 19.1815C12.2663 19.1815 10.876 18.7037 9.74021 17.893C9.72063 17.8812 9.70104 17.8695 9.68146 17.8538C9.6658 17.842 9.65013 17.8264 9.63447 17.8146C7.93081 16.5496 6.82245 14.5209 6.82245 12.2376C6.82245 8.41123 9.93603 5.29765 13.7624 5.29765C17.5888 5.29765 20.7024 8.41123 20.7024 12.2376C20.7024 14.5209 19.594 16.5496 17.8903 17.8146ZM21.607 9.26501C21.5326 9.29243 21.4582 9.30809 21.3838 9.30809C21.141 9.30809 20.9138 9.16319 20.8198 8.92428C20.2755 7.54569 19.2689 6.37859 17.9804 5.63838C17.6906 5.46997 17.5927 5.10183 17.7572 4.81201C17.9256 4.52219 18.2937 4.42428 18.5836 4.58877C20.107 5.46606 21.3016 6.84857 21.9439 8.47781C22.0692 8.79112 21.9164 9.13969 21.607 9.26501Z" fill="url(#paint6_linear)"/>
</g>
<defs>
<linearGradient id="paint0_linear" x1="12.475" y1="12.234" x2="15.0497" y2="12.234" gradientUnits="userSpaceOnUse">
<stop stop-color="#003399"/>
<stop offset="1" stop-color="#0071CE"/>
</linearGradient>
<linearGradient id="paint1_linear" x1="14.6148" y1="8.79086" x2="18.4336" y2="8.79086" gradientUnits="userSpaceOnUse">
<stop stop-color="#003399"/>
<stop offset="1" stop-color="#0071CE"/>
</linearGradient>
<linearGradient id="paint2_linear" x1="16.137" y1="13.6853" x2="19.0215" y2="13.6853" gradientUnits="userSpaceOnUse">
<stop stop-color="#003399"/>
<stop offset="1" stop-color="#0071CE"/>
</linearGradient>
<linearGradient id="paint3_linear" x1="9.09047" y1="8.79086" x2="12.9091" y2="8.79086" gradientUnits="userSpaceOnUse">
<stop stop-color="#003399"/>
<stop offset="1" stop-color="#0071CE"/>
</linearGradient>
<linearGradient id="paint4_linear" x1="11.4021" y1="16.2747" x2="16.1224" y2="16.2747" gradientUnits="userSpaceOnUse">
<stop stop-color="#003399"/>
<stop offset="1" stop-color="#0071CE"/>
</linearGradient>
<linearGradient id="paint5_linear" x1="8.50232" y1="13.6853" x2="11.3868" y2="13.6853" gradientUnits="userSpaceOnUse">
<stop stop-color="#003399"/>
<stop offset="1" stop-color="#0071CE"/>
</linearGradient>
<linearGradient id="paint6_linear" x1="0" y1="12.2371" x2="23.9993" y2="12.2371" gradientUnits="userSpaceOnUse">
<stop stop-color="#003399"/>
<stop offset="1" stop-color="#0071CE"/>
</linearGradient>
<clipPath id="clip0">
<rect width="24" height="20.4752" fill="white" transform="translate(0 2)"/>
</clipPath>
</defs>
</svg>
