<svg width="64" height="64" viewBox="0 0 64 64" fill="none" xmlns="http://www.w3.org/2000/svg">
<path d="M19 11.5H46.1C47.57 11.5 48.85 12.5 49.21 13.93L54.02 27.4"  stroke-width="3" stroke-miterlimit="10" stroke-linejoin="round"/>
<path d="M9.84998 27.4701L13.21 16.8601"  stroke-width="3" stroke-miterlimit="10" stroke-linejoin="round"/>
<path d="M8.68001 27.5H55.33L58.23 32.91C58.42 33.66 58.51 34.43 58.51 35.2V44.9C58.51 45.78 57.79 46.5 56.91 46.5H7.11002C6.23002 46.5 5.51001 45.78 5.51001 44.9V35.2C5.51001 34.43 5.60001 33.66 5.79001 32.91L8.68001 27.5Z"  stroke-width="3" stroke-miterlimit="10" stroke-linejoin="round"/>
<path d="M53 26.5H60"  stroke-width="3" stroke-miterlimit="10" stroke-linejoin="round"/>
<path d="M4 26.5H10"  stroke-width="3" stroke-miterlimit="10" stroke-linejoin="round"/>
<path d="M47.5 47V49.4C47.5 51.61 49.29 53.4 51.5 53.4C53.71 53.4 55.5 51.61 55.5 49.4V47"  stroke-width="3" stroke-miterlimit="10" stroke-linejoin="round"/>
<path d="M16.5 47V49.4C16.5 51.61 14.71 53.4 12.5 53.4C10.29 53.4 8.5 51.61 8.5 49.4V47"  stroke-width="3" stroke-miterlimit="10" stroke-linejoin="round"/>
<path d="M42.5 39.5H52.5V34.5H45.5C43.84 34.5 42.5 35.84 42.5 37.5V39.5Z"  stroke-width="3" stroke-miterlimit="10" stroke-linejoin="round"/>
<path d="M11.5 39.5H21.5V37.5C21.5 35.84 20.16 34.5 18.5 34.5H11.5V39.5Z"  stroke-width="3" stroke-miterlimit="10" stroke-linejoin="round"/>
<path d="M24.5 46.5H39.5L37.5 41.5H26.5L24.5 46.5Z"  stroke-width="3" stroke-miterlimit="10" stroke-linejoin="round"/>
</svg>
