<svg width="72" height="72" viewBox="0 0 72 72" fill="none" xmlns="http://www.w3.org/2000/svg">
<path d="M5.5 31V50.7C5.5 51.69 6.36 52.5 7.41 52.5H18"  stroke-width="3" stroke-miterlimit="10" stroke-linejoin="round"/>
<path d="M53 52.5H64.57C65.63 52.5 66.5 51.69 66.5 50.69V25.31C66.5 24.31 65.64 23.5 64.57 23.5H13"  stroke-width="3" stroke-miterlimit="10" stroke-linejoin="round"/>
<path d="M19.5 23.5H52.5V11.5C52.5 10.95 52.05 10.5 51.5 10.5H20.5C19.95 10.5 19.5 10.95 19.5 11.5V23.5Z"  stroke-width="3" stroke-miterlimit="10" stroke-linejoin="round"/>
<path d="M19.5 41.5V60.88C19.5 61.77 20.32 62.5 21.33 62.5H50.66C51.67 62.5 52.49 61.78 52.49 60.88V41.5H19.5Z"  stroke-width="3" stroke-miterlimit="10" stroke-linejoin="round"/>
<path d="M60 32.5H52"  stroke-width="3" stroke-miterlimit="10" stroke-linejoin="round"/>
<path d="M48 32.5H43"  stroke-width="3" stroke-miterlimit="10" stroke-linejoin="round"/>
<path d="M15 41.5H57"  stroke-width="3" stroke-miterlimit="10" stroke-linejoin="round"/>
<path d="M26 48.5H46"  stroke-width="3" stroke-miterlimit="10" stroke-linejoin="round"/>
<path d="M26 55.5H46"  stroke-width="3" stroke-miterlimit="10" stroke-linejoin="round"/>
</svg>
