<svg width="40" height="40" viewBox="0 0 40 40" fill="none" xmlns="http://www.w3.org/2000/svg">
<path d="M3 17V28C3 28.55 3.48 29 4.06 29H10.44"  stroke-width="2" stroke-miterlimit="10" stroke-linejoin="round"/>
<path d="M29.56 29H35.94C36.53 29 37 28.55 37 28V14C37 13.45 36.52 13 35.94 13H7"  stroke-width="2" stroke-miterlimit="10" stroke-linejoin="round"/>
<path d="M11 13H29V6C29 5.45 28.55 5 28 5H12C11.45 5 11 5.45 11 6V13Z"  stroke-width="2" stroke-miterlimit="10" stroke-linejoin="round"/>
<path d="M11 23V34.08C11 34.59 11.45 35 12 35H28C28.55 35 29 34.59 29 34.08V23H11Z"  stroke-width="2" stroke-miterlimit="10" stroke-linejoin="round"/>
<path d="M33 18H28"  stroke-width="2" stroke-miterlimit="10" stroke-linejoin="round"/>
<path d="M8 23H32"  stroke-width="2" stroke-miterlimit="10" stroke-linejoin="round"/>
</svg>
