<svg width="32" height="32" viewBox="0 0 32 32" fill="none" xmlns="http://www.w3.org/2000/svg">
<path d="M3 13V22.2C3 22.64 3.38 23 3.85 23H8"  stroke-width="2" stroke-miterlimit="10" stroke-linejoin="round"/>
<path d="M24 23H28.14C28.62 23 29 22.64 29 22.19V10.81C29 10.36 28.61 10 28.14 10H6"  stroke-width="2" stroke-miterlimit="10" stroke-linejoin="round"/>
<path d="M9 10H23V5C23 4.45 22.55 4 22 4H10C9.45 4 9 4.45 9 5V10Z"  stroke-width="2" stroke-miterlimit="10" stroke-linejoin="round"/>
<path d="M9 18V27.23C9 27.65 9.35 28 9.78 28H22.22C22.65 28 23 27.66 23 27.23V18H9Z"  stroke-width="2" stroke-miterlimit="10" stroke-linejoin="round"/>
<path d="M26 14H22"  stroke-width="2" stroke-miterlimit="10" stroke-linejoin="round"/>
<path d="M6 18H26"  stroke-width="2" stroke-miterlimit="10" stroke-linejoin="round"/>
</svg>
