<svg width="64" height="64" viewBox="0 0 64 64" fill="none" xmlns="http://www.w3.org/2000/svg">
<path d="M5.5 27V44.9C5.5 45.78 6.26 46.5 7.2 46.5H16"  stroke-width="3" stroke-miterlimit="10" stroke-linejoin="round"/>
<path d="M47 46.5H56.77C57.72 46.5 58.5 45.77 58.5 44.88V22.12C58.5 21.22 57.73 20.5 56.77 20.5H11"  stroke-width="3" stroke-miterlimit="10" stroke-linejoin="round"/>
<path d="M17.5 20.5H46.5V8.5C46.5 7.95 46.05 7.5 45.5 7.5H18.5C17.95 7.5 17.5 7.95 17.5 8.5V20.5Z"  stroke-width="3" stroke-miterlimit="10" stroke-linejoin="round"/>
<path d="M17.5 36.5V54.04C17.5 54.85 18.22 55.5 19.11 55.5H44.89C45.78 55.5 46.5 54.85 46.5 54.04V36.5H17.5Z"  stroke-width="3" stroke-miterlimit="10" stroke-linejoin="round"/>
<path d="M53 28.5H46"  stroke-width="3" stroke-miterlimit="10" stroke-linejoin="round"/>
<path d="M43 28.5H38"  stroke-width="3" stroke-miterlimit="10" stroke-linejoin="round"/>
<path d="M13 36.5H51"  stroke-width="3" stroke-miterlimit="10" stroke-linejoin="round"/>
<path d="M23 43.5H41"  stroke-width="3" stroke-miterlimit="10" stroke-linejoin="round"/>
<path d="M23 49.5H41"  stroke-width="3" stroke-miterlimit="10" stroke-linejoin="round"/>
</svg>
