<svg width="69" height="62" viewBox="0 0 69 62" fill="none" xmlns="http://www.w3.org/2000/svg">
<path d="M23 31C30.1797 31 36 25.1797 36 18C36 10.8203 30.1797 5 23 5C15.8203 5 10 10.8203 10 18C10 25.1797 15.8203 31 23 31Z"  stroke-width="3" stroke-miterlimit="10" stroke-linejoin="round"/>
<path d="M33.25 57.5H3.75C2.51 57.5 1.5 56.49 1.5 55.25V41.44C1.5 39.27 3.26 37.5 5.44 37.5H41"  stroke-width="3" stroke-miterlimit="10" stroke-linejoin="round"/>
<path d="M46.4565 28H40V60H67V28H60.5435"  stroke-width="3" stroke-miterlimit="10" stroke-linejoin="round"/>
<path d="M61 25H46V31H61V25Z"  stroke-width="3" stroke-miterlimit="10" stroke-linejoin="round"/>
<path d="M46 44L51 49L61 39"  stroke-width="3" stroke-miterlimit="10" stroke-linejoin="round"/>
</svg>
