<svg width="32" height="32" viewBox="0 0 32 32" fill="none" xmlns="http://www.w3.org/2000/svg">
<path d="M11 14C14.3137 14 17 11.3137 17 8C17 4.68629 14.3137 2 11 2C7.68629 2 5 4.68629 5 8C5 11.3137 7.68629 14 11 14Z"  stroke-width="2" stroke-miterlimit="10" stroke-linejoin="round"/>
<path d="M14.41 27H3C2.45 27 2 26.55 2 26V19.5C2 18.67 2.67 18 3.5 18H18"  stroke-width="2" stroke-miterlimit="10" stroke-linejoin="round"/>
<path d="M20.2727 14H17V29H29V14H25.7273"  stroke-width="2" stroke-miterlimit="10" stroke-linejoin="round"/>
<path d="M26 13H20V16H26V13Z"  stroke-width="2" stroke-miterlimit="10" stroke-linejoin="round"/>
<path d="M20 21.2133L22.4 24L26 20"  stroke-width="2" stroke-miterlimit="10" stroke-linejoin="round"/>
</svg>
