<svg width="64" height="64" viewBox="0 0 64 64" fill="none" xmlns="http://www.w3.org/2000/svg">
<path d="M21.5 30C27.8513 30 33 24.8513 33 18.5C33 12.1487 27.8513 7 21.5 7C15.1487 7 10 12.1487 10 18.5C10 24.8513 15.1487 30 21.5 30Z"  stroke-width="3" stroke-miterlimit="10" stroke-linejoin="round"/>
<path d="M30 54.5H4.5C3.4 54.5 2.5 53.6 2.5 52.5V40C2.5 38.07 4.07 36.5 6 36.5H38"  stroke-width="3" stroke-miterlimit="10" stroke-linejoin="round"/>
<path d="M42.8909 28H37V57H61V28H55.2509"  stroke-width="3" stroke-miterlimit="10" stroke-linejoin="round"/>
<path d="M55 26H43V31H55V26Z"  stroke-width="3" stroke-miterlimit="10" stroke-linejoin="round"/>
<path d="M43 42.5L47.3333 47L56 38"  stroke-width="3" stroke-miterlimit="10" stroke-linejoin="round"/>
</svg>
