<svg width="40" height="40" viewBox="0 0 40 40" fill="none" xmlns="http://www.w3.org/2000/svg">
<path d="M18 34H3C2.45 34 2 33.55 2 33V25C2 23.9 2.9 23 4 23H22"  stroke-width="2" stroke-miterlimit="10" stroke-linejoin="round"/>
<path d="M13.5 18C17.6421 18 21 14.6421 21 10.5C21 6.35786 17.6421 3 13.5 3C9.35786 3 6 6.35786 6 10.5C6 14.6421 9.35786 18 13.5 18Z"  stroke-width="2" stroke-miterlimit="10" stroke-linejoin="round"/>
<path d="M32.3029 18H37V37H21V18H24.8057"  stroke-width="2" stroke-miterlimit="10" stroke-linejoin="round"/>
<path d="M32.5 16.6201H25.5V20.1201H32.5V16.6201Z"  stroke-width="2" stroke-miterlimit="10" stroke-linejoin="round"/>
<path d="M25 26.9977L27.9943 30L33 25"  stroke-width="2" stroke-miterlimit="10" stroke-linejoin="round"/>
</svg>
