<svg width="24" height="24" viewBox="0 0 24 24" fill="none" xmlns="http://www.w3.org/2000/svg">
<path d="M6.02 21H17.98C20.42 19.18 22 16.28 22 13C22 7.48 17.52 3 12 3C6.48 3 2 7.48 2 13C2 16.28 3.58 19.18 6.02 21Z"  stroke-width="2" stroke-miterlimit="10" stroke-linejoin="round"/>
<path d="M12 16C13.1046 16 14 15.1046 14 14C14 12.8954 13.1046 12 12 12C10.8954 12 10 12.8954 10 14C10 15.1046 10.8954 16 12 16Z"/>
<path d="M17 8L12 14"  stroke-width="2" stroke-miterlimit="10" stroke-linejoin="round"/>
<path d="M12 5V8"  stroke-width="2" stroke-miterlimit="10" stroke-linejoin="round"/>
<path d="M7 14H4"  stroke-width="2" stroke-miterlimit="10" stroke-linejoin="round"/>
<path d="M20 14H17"  stroke-width="2" stroke-miterlimit="10" stroke-linejoin="round"/>
<path d="M20 18H3"  stroke-width="2" stroke-miterlimit="10" stroke-linejoin="round"/>
<path d="M6 8L8 10"  stroke-width="2" stroke-miterlimit="10" stroke-linejoin="round"/>
</svg>
