<svg width="32" height="32" viewBox="0 0 32 32" fill="none" xmlns="http://www.w3.org/2000/svg">
<path d="M16 20C17.1046 20 18 19.1046 18 18C18 16.8954 17.1046 16 16 16C14.8954 16 14 16.8954 14 18C14 19.1046 14.8954 20 16 20Z"  stroke-width="2" stroke-miterlimit="10" stroke-linejoin="round"/>
<path d="M9.91 28.0002H22.29C26.69 25.6002 29.53 20.7602 28.92 15.3402C28.26 9.48019 23.44 4.73019 17.48 4.08019C9.64 3.23019 3 9.25019 3 16.8002C3 19.4702 3.83 21.9502 5.25 24.0002H5.43H26.15"  stroke-width="2" stroke-miterlimit="10" stroke-linejoin="round"/>
<path d="M23 17H26"  stroke-width="2" stroke-miterlimit="10" stroke-linejoin="round"/>
<path d="M6 17H9"  stroke-width="2" stroke-miterlimit="10" stroke-linejoin="round"/>
<path d="M23 9.6001L17 17.0001"  stroke-width="2" stroke-miterlimit="10" stroke-linejoin="round"/>
<path d="M9 10L11 12"  stroke-width="2" stroke-miterlimit="10" stroke-linejoin="round"/>
<path d="M16 7V10"  stroke-width="2" stroke-miterlimit="10" stroke-linejoin="round"/>
</svg>
