<svg width="72" height="72" viewBox="0 0 72 72" fill="none" xmlns="http://www.w3.org/2000/svg">
<path d="M35.5 43.5C37.1569 43.5 38.5 42.1569 38.5 40.5C38.5 38.8431 37.1569 37.5 35.5 37.5C33.8431 37.5 32.5 38.8431 32.5 40.5C32.5 42.1569 33.8431 43.5 35.5 43.5Z"  stroke-width="3" stroke-miterlimit="10" stroke-linejoin="round"/>
<path d="M18.6799 23.73L23.4499 28"  stroke-width="3" stroke-miterlimit="10" stroke-linejoin="round"/>
<path d="M53 40.5H60"  stroke-width="3" stroke-miterlimit="10" stroke-linejoin="round"/>
<path d="M12 40.5H19"  stroke-width="3" stroke-miterlimit="10" stroke-linejoin="round"/>
<path d="M37.5 38.5L52.5 21.5"  stroke-width="3" stroke-miterlimit="10" stroke-linejoin="round"/>
<path d="M35.5 15V21"  stroke-width="3" stroke-miterlimit="10" stroke-linejoin="round"/>
<path d="M60 53.5H11L10.59 53C7.99 48.61 6.5 43.48 6.5 38C6.5 21.71 19.71 8.5 36 8.5C52.29 8.5 65.5 21.71 65.5 38C65.5 48.21 60.31 57.2 52.43 62.5H19.56"  stroke-width="3" stroke-miterlimit="10" stroke-linejoin="round"/>
</svg>
