<svg width="16" height="16" viewBox="0 0 16 16" fill="none" xmlns="http://www.w3.org/2000/svg">
<path d="M12.46 13C13.41 11.94 14 10.54 14 9C14 5.69 11.31 3 8 3C4.69 3 2 5.69 2 9C2 10.54 2.58 11.94 3.54 13H12.46Z"  stroke-width="2" stroke-miterlimit="10" stroke-linejoin="round"/>
<path d="M8 13C9.10457 13 10 12.1046 10 11C10 9.89543 9.10457 9 8 9C6.89543 9 6 9.89543 6 11C6 12.1046 6.89543 13 8 13Z"/>
<path d="M8 4V6.5"  stroke-width="2" stroke-miterlimit="10" stroke-linejoin="round"/>
<path d="M11 8L13 6"  stroke-width="2" stroke-miterlimit="10" stroke-linejoin="round"/>
<path d="M5 8L3 6"  stroke-width="2" stroke-miterlimit="10" stroke-linejoin="round"/>
<path d="M13 12H3"  stroke-width="2" stroke-miterlimit="10" stroke-linejoin="round"/>
</svg>
