<svg width="64" height="64" viewBox="0 0 64 64" fill="none" xmlns="http://www.w3.org/2000/svg">
<path d="M32.25 38.5C33.7688 38.5 35 37.2688 35 35.75C35 34.2312 33.7688 33 32.25 33C30.7312 33 29.5 34.2312 29.5 35.75C29.5 37.2688 30.7312 38.5 32.25 38.5Z"  stroke-width="3" stroke-miterlimit="10" stroke-linejoin="round"/>
<path d="M16.6 20.2002L20.84 24.0002"  stroke-width="3" stroke-miterlimit="10" stroke-linejoin="round"/>
<path d="M20 55.4999H44.38C52.55 50.9699 57.99 42.1199 57.57 32.0199C57.04 19.0499 46.58 8.35993 33.63 7.54993C18.75 6.62993 6.39001 18.4199 6.39001 33.0999C6.39001 38.4399 8.03002 43.3999 10.83 47.4999H11.19H53"  stroke-width="3" stroke-miterlimit="10" stroke-linejoin="round"/>
<path d="M47 35.5H53"  stroke-width="3" stroke-miterlimit="10" stroke-linejoin="round"/>
<path d="M11 35.5H17"  stroke-width="3" stroke-miterlimit="10" stroke-linejoin="round"/>
<path d="M33.6 34.6L47.5 19.5"  stroke-width="3" stroke-miterlimit="10" stroke-linejoin="round"/>
<path d="M32.5 13V19"  stroke-width="3" stroke-miterlimit="10" stroke-linejoin="round"/>
</svg>
