<svg width="40" height="40" viewBox="0 0 40 40" fill="none" xmlns="http://www.w3.org/2000/svg">
<path d="M20 24C21.1046 24 22 23.1046 22 22C22 20.8954 21.1046 20 20 20C18.8954 20 18 20.8954 18 22C18 23.1046 18.8954 24 20 24Z"  stroke-width="2" stroke-miterlimit="10" stroke-linejoin="round"/>
<path d="M11 12L14 15"  stroke-width="2" stroke-miterlimit="10" stroke-linejoin="round"/>
<path d="M12.26 35H27.74C32.66 32.27 36 27.03 36 21C36 12.16 28.84 5 20 5C11.16 5 4 12.16 4 21C4 24.34 5.02 27.44 6.77 30H7H33"  stroke-width="2" stroke-miterlimit="10" stroke-linejoin="round"/>
<path d="M29 22H33"  stroke-width="2" stroke-miterlimit="10" stroke-linejoin="round"/>
<path d="M7 22H11"  stroke-width="2" stroke-miterlimit="10" stroke-linejoin="round"/>
<path d="M21 21L30 12"  stroke-width="2" stroke-miterlimit="10" stroke-linejoin="round"/>
<path d="M20 8V12"  stroke-width="2" stroke-miterlimit="10" stroke-linejoin="round"/>
</svg>
