<svg width="16" height="16" viewBox="0 0 16 16" fill="none" xmlns="http://www.w3.org/2000/svg">
<path d="M11 4C11 2.34772 9.65228 1 8 1M11 4C11 5.65228 9.65228 7 8 7M11 4C11 5.65772 9.65772 7 8 7M11 4C11 2.34228 9.65772 1 8 1M8 1C6.34772 1 5 2.34772 5 4M8 1C6.34228 1 5 2.34228 5 4M8 7C6.34772 7 5 5.65228 5 4M8 7C6.34228 7 5 5.65772 5 4"  stroke-width="2"/>
<path d="M2 11V14H14V11C14 10.45 13.55 10 13 10H3C2.45 10 2 10.45 2 11Z"  stroke-width="2" stroke-miterlimit="10" stroke-linejoin="round"/>
</svg>
