<svg width="64" height="64" viewBox="0 0 64 64" fill="none" xmlns="http://www.w3.org/2000/svg">
<path d="M12.5 11V52.5H44.5V7.5C44.5 6.4 43.6 5.5 42.5 5.5H17"  stroke-width="3" stroke-miterlimit="10" stroke-linejoin="round"/>
<path d="M51.5 52.5H10.5C9.4 52.5 8.5 53.4 8.5 54.5V58.5H53.5V54.5C53.5 53.4 52.6 52.5 51.5 52.5Z"  stroke-width="3" stroke-miterlimit="10" stroke-linejoin="round"/>
<path d="M38.5 11.5H18.5V24.5H38.5V11.5Z"  stroke-width="3" stroke-miterlimit="10" stroke-linejoin="round"/>
<path d="M46 36.5H50.5V44.5H56.5V17.45L53.17 9.5H46"  stroke-width="3" stroke-miterlimit="10" stroke-linejoin="round"/>
<path d="M49.5 9V20.5H56.5"  stroke-width="3" stroke-miterlimit="10" stroke-linejoin="round"/>
<path d="M28.5 30.5C28.5 30.5 23.5 34.5 23.5 40.6C23.5 43.25 25.5 45.4 28.5 45.4C31.5 45.4 33.5 43.25 33.5 40.6C33.5 34.5 28.5 30.5 28.5 30.5Z"  stroke-width="3" stroke-miterlimit="10" stroke-linejoin="round"/>
</svg>
