<svg width="40" height="40" viewBox="0 0 40 40" fill="none" xmlns="http://www.w3.org/2000/svg">
<path d="M8 6V33H28V4C28 3.45 27.55 3 27 3H11"  stroke-width="2" stroke-miterlimit="10" stroke-linejoin="round"/>
<path d="M32 33H6C5.45 33 5 33.45 5 34V37H33V34C33 33.45 32.55 33 32 33Z"  stroke-width="2" stroke-miterlimit="10" stroke-linejoin="round"/>
<path d="M24 7H12V15H24V7Z"  stroke-width="2" stroke-miterlimit="10" stroke-linejoin="round"/>
<path d="M29 23H32V28H35V11L33 6H29"  stroke-width="2" stroke-miterlimit="10" stroke-linejoin="round"/>
<path d="M31 6V13H34"  stroke-width="2" stroke-miterlimit="10" stroke-linejoin="round"/>
<path d="M18 20C18 20 15 23 15 26C15 27.66 16.34 29 18 29C19.66 29 21 27.66 21 26C21 23 18 20 18 20Z"  stroke-width="2" stroke-miterlimit="10" stroke-linejoin="round"/>
</svg>
