<svg width="72" height="72" viewBox="0 0 72 72" fill="none" xmlns="http://www.w3.org/2000/svg">
<path d="M14.5 14V59.5H50.5V9.75C50.5 8.51 49.49 7.5 48.25 7.5H20"  stroke-width="3" stroke-miterlimit="10" stroke-linejoin="round"/>
<path d="M55.5 59.5H10.5C9.4 59.5 8.5 60.4 8.5 61.5V66.5H57.5V61.5C57.5 60.4 56.6 59.5 55.5 59.5Z"  stroke-width="3" stroke-miterlimit="10" stroke-linejoin="round"/>
<path d="M44.5 12.5H20.5V27.5H44.5V12.5Z"  stroke-width="3" stroke-miterlimit="10" stroke-linejoin="round"/>
<path d="M52 41.5H56.5V49.5H63.5V19.36L59.61 10.5H52"  stroke-width="3" stroke-miterlimit="10" stroke-linejoin="round"/>
<path d="M55.5 11V23.5H63"  stroke-width="3" stroke-miterlimit="10" stroke-linejoin="round"/>
<path d="M32.5 33.5C26 40.5 26.5 45.5 26.5 45.5C26.5 45.5 26.5 46.17 26.5 46.5C26.5 49.81 29.19 52.5 32.5 52.5C35.81 52.5 38.5 49.81 38.5 46.5C38.5 46.17 38.5 45.5 38.5 45.5C38.5 45.5 39 40.5 32.5 33.5Z"  stroke-width="3" stroke-miterlimit="10" stroke-linejoin="round"/>
</svg>
