<svg width="32" height="32" viewBox="0 0 32 32" fill="none" xmlns="http://www.w3.org/2000/svg">
<path d="M6 6V26H22V3.8C22 3.36 21.64 3 21.2 3H9"  stroke-width="2" stroke-miterlimit="10" stroke-linejoin="round"/>
<path d="M25 26H5C4.45 26 4 26.45 4 27V29H26V27C26 26.45 25.55 26 25 26Z"  stroke-width="2" stroke-miterlimit="10" stroke-linejoin="round"/>
<path d="M18 7H10V12H18V7Z"  stroke-width="2" stroke-miterlimit="10" stroke-linejoin="round"/>
<path d="M23 18H25V23H28V8.8L26.4 5H23"  stroke-width="2" stroke-miterlimit="10" stroke-linejoin="round"/>
<path d="M25 4V10H27"  stroke-width="2" stroke-miterlimit="10" stroke-linejoin="round"/>
<path d="M14 16C14 16 12 18 12 20C12 21.1 12.9 22 14 22C15.1 22 16 21.1 16 20C16 18 14 16 14 16Z"  stroke-width="2" stroke-miterlimit="10" stroke-linejoin="round"/>
</svg>
