<svg width="72" height="72" viewBox="0 0 72 72" fill="none" xmlns="http://www.w3.org/2000/svg">
<path d="M68.5 26.5H48.5V48.5H68.5V26.5Z"  stroke-width="3" stroke-miterlimit="10" stroke-linejoin="round"/>
<path d="M3.5 34V48.5H48.5V26.5H12"  stroke-width="3" stroke-miterlimit="10" stroke-linejoin="round"/>
<path d="M12.5 42.5H16.5C17.05 42.5 17.5 42.05 17.5 41.5V33.5C17.5 32.95 17.05 32.5 16.5 32.5H12.5C11.95 32.5 11.5 32.95 11.5 33.5V41.5C11.5 42.05 11.95 42.5 12.5 42.5Z"  stroke-width="3" stroke-miterlimit="10" stroke-linejoin="round"/>
<path d="M24.5 42.5H28.5C29.05 42.5 29.5 42.05 29.5 41.5V33.5C29.5 32.95 29.05 32.5 28.5 32.5H24.5C23.95 32.5 23.5 32.95 23.5 33.5V41.5C23.5 42.05 23.95 42.5 24.5 42.5Z"  stroke-width="3" stroke-miterlimit="10" stroke-linejoin="round"/>
<path d="M36.5 42.5H40.5C41.05 42.5 41.5 42.05 41.5 41.5V33.5C41.5 32.95 41.05 32.5 40.5 32.5H36.5C35.95 32.5 35.5 32.95 35.5 33.5V41.5C35.5 42.05 35.95 42.5 36.5 42.5Z"  stroke-width="3" stroke-miterlimit="10" stroke-linejoin="round"/>
<path d="M61.5 47V41.3C61.5 40.31 60.69 39.5 59.7 39.5H57.3C56.31 39.5 55.5 40.31 55.5 41.3V47"  stroke-width="3" stroke-miterlimit="10" stroke-linejoin="round"/>
<path d="M55.5 27V28.7C55.5 29.69 56.31 30.5 57.3 30.5H59.7C60.69 30.5 61.5 29.69 61.5 28.7V27"  stroke-width="3" stroke-miterlimit="10" stroke-linejoin="round"/>
</svg>
