<svg width="32" height="32" viewBox="0 0 32 32" fill="none" xmlns="http://www.w3.org/2000/svg">
<path d="M30 11H20V23H30V11Z"  stroke-width="2" stroke-miterlimit="10" stroke-linejoin="round"/>
<path d="M2 15V23H20V11H6.1"  stroke-width="2" stroke-miterlimit="10" stroke-linejoin="round"/>
<path d="M25 23C25.55 23 26 22.55 26 22V20C26 19.45 25.55 19 25 19C24.45 19 24 19.45 24 20V22C24 22.55 24.45 23 25 23Z"  stroke-width="2" stroke-miterlimit="10" stroke-linejoin="round"/>
<path d="M24 12V13C24 13.55 24.45 14 25 14C25.55 14 26 13.55 26 13V12"  stroke-width="2" stroke-miterlimit="10" stroke-linejoin="round"/>
<path d="M14 19C14.55 19 15 18.55 15 18V16C15 15.45 14.55 15 14 15C13.45 15 13 15.45 13 16V18C13 18.55 13.45 19 14 19Z"  stroke-width="2" stroke-miterlimit="10" stroke-linejoin="round"/>
<path d="M8 19C8.55 19 9 18.55 9 18V16C9 15.45 8.55 15 8 15C7.45 15 7 15.45 7 16V18C7 18.55 7.45 19 8 19Z"  stroke-width="2" stroke-miterlimit="10" stroke-linejoin="round"/>
</svg>
