<svg width="24" height="24" viewBox="0 0 24 24" fill="none" xmlns="http://www.w3.org/2000/svg">
<path d="M23 7H16V18H23V7Z"  stroke-width="2" stroke-miterlimit="10" stroke-linejoin="round"/>
<path d="M1 7V18H16V7H1Z"  stroke-width="2" stroke-miterlimit="10" stroke-linejoin="round"/>
<path d="M19.5 18C19.78 18 20 17.78 20 17.5V15.5C20 15.22 19.78 15 19.5 15C19.22 15 19 15.22 19 15.5V17.5C19 17.78 19.22 18 19.5 18Z"  stroke-width="2" stroke-miterlimit="10" stroke-linejoin="round"/>
<path d="M10.5 14C10.78 14 11 13.78 11 13.5V11.5C11 11.22 10.78 11 10.5 11C10.22 11 10 11.22 10 11.5V13.5C10 13.78 10.22 14 10.5 14Z"  stroke-width="2" stroke-miterlimit="10" stroke-linejoin="round"/>
<path d="M5.5 14C5.78 14 6 13.78 6 13.5V11.5C6 11.22 5.78 11 5.5 11C5.22 11 5 11.22 5 11.5V13.5C5 13.78 5.22 14 5.5 14Z"  stroke-width="2" stroke-miterlimit="10" stroke-linejoin="round"/>
<path d="M19 8V8.5C19 8.78 19.22 9 19.5 9C19.78 9 20 8.78 20 8.5V8"  stroke-width="2" stroke-miterlimit="10" stroke-linejoin="round"/>
</svg>
