<svg width="73" height="72" viewBox="0 0 73 72" fill="none" xmlns="http://www.w3.org/2000/svg">
<path d="M8.53003 36C8.53003 20.81 20.84 8.5 36.03 8.5C51.22 8.5 63.53 20.81 63.53 36C63.53 51.19 51.22 63.5 36.03 63.5C26.81 63.5 18.65 58.96 13.66 52"  stroke-width="3" stroke-miterlimit="10" stroke-linejoin="round"/>
<path d="M36.03 51.5C44.5904 51.5 51.53 44.5604 51.53 36C51.53 27.4396 44.5904 20.5 36.03 20.5C27.4696 20.5 20.53 27.4396 20.53 36C20.53 44.5604 27.4696 51.5 36.03 51.5Z"  stroke-width="3" stroke-miterlimit="10" stroke-linejoin="round"/>
<path d="M36.03 15V2"  stroke-width="3" stroke-miterlimit="10" stroke-linejoin="round"/>
<path d="M36.53 70V57"  stroke-width="3" stroke-miterlimit="10" stroke-linejoin="round"/>
<path d="M57.28 35.75H70.28"  stroke-width="3" stroke-miterlimit="10" stroke-linejoin="round"/>
<path d="M2.28003 36.25H15.28"  stroke-width="3" stroke-miterlimit="10" stroke-linejoin="round"/>
</svg>
