<svg width="40" height="40" viewBox="0 0 40 40" fill="none" xmlns="http://www.w3.org/2000/svg">
<path d="M4 20C4 11.16 11.16 4 20 4C28.84 4 36 11.16 36 20C36 28.84 28.84 36 20 36C14.95 36 10.44 33.66 7.51 30"  stroke-width="2" stroke-miterlimit="10" stroke-linejoin="round"/>
<path d="M20 29C24.9706 29 29 24.9706 29 20C29 15.0294 24.9706 11 20 11C15.0294 11 11 15.0294 11 20C11 24.9706 15.0294 29 20 29Z"  stroke-width="2" stroke-miterlimit="10" stroke-linejoin="round"/>
<path d="M20 8V0"  stroke-width="2" stroke-miterlimit="10" stroke-linejoin="round"/>
<path d="M20 40V32"  stroke-width="2" stroke-miterlimit="10" stroke-linejoin="round"/>
<path d="M32 20H40"  stroke-width="2" stroke-miterlimit="10" stroke-linejoin="round"/>
<path d="M0 20H8"  stroke-width="2" stroke-miterlimit="10" stroke-linejoin="round"/>
</svg>
