<svg width="17" height="16" viewBox="0 0 17 16" fill="none" xmlns="http://www.w3.org/2000/svg">
<path d="M8.03003 13C10.7915 13 13.03 10.7614 13.03 8C13.03 5.23858 10.7915 3 8.03003 3C5.26861 3 3.03003 5.23858 3.03003 8C3.03003 10.7614 5.26861 13 8.03003 13Z"  stroke-width="2" stroke-miterlimit="10" stroke-linejoin="round"/>
<path d="M8.03003 10C9.1346 10 10.03 9.10457 10.03 8C10.03 6.89543 9.1346 6 8.03003 6C6.92546 6 6.03003 6.89543 6.03003 8C6.03003 9.10457 6.92546 10 8.03003 10Z"/>
<path d="M7.96997 0V3"  stroke-width="2" stroke-miterlimit="10" stroke-linejoin="round"/>
<path d="M8.03003 13V16"  stroke-width="2" stroke-miterlimit="10" stroke-linejoin="round"/>
<path d="M16 7.97021H13"  stroke-width="2" stroke-miterlimit="10" stroke-linejoin="round"/>
<path d="M3 8.02979H0"  stroke-width="2" stroke-miterlimit="10" stroke-linejoin="round"/>
</svg>
