<svg width="32" height="32" viewBox="0 0 32 32" fill="none" xmlns="http://www.w3.org/2000/svg">
<path d="M4 16C4 9.37 9.37 4 16 4C22.63 4 28 9.37 28 16C28 22.63 22.63 28 16 28C11.99 28 8.43 26.03 6.25 23"  stroke-width="2" stroke-miterlimit="10" stroke-linejoin="round"/>
<path d="M16 22C19.3137 22 22 19.3137 22 16C22 12.6863 19.3137 10 16 10C12.6863 10 10 12.6863 10 16C10 19.3137 12.6863 22 16 22Z"  stroke-width="2" stroke-miterlimit="10" stroke-linejoin="round"/>
<path d="M16 7V0"  stroke-width="2" stroke-miterlimit="10" stroke-linejoin="round"/>
<path d="M16 32V25"  stroke-width="2" stroke-miterlimit="10" stroke-linejoin="round"/>
<path d="M25 16H32"  stroke-width="2" stroke-miterlimit="10" stroke-linejoin="round"/>
<path d="M0 16H7"  stroke-width="2" stroke-miterlimit="10" stroke-linejoin="round"/>
</svg>
