<svg width="64" height="64" viewBox="0 0 64 64" fill="none" xmlns="http://www.w3.org/2000/svg">
<path d="M7.5 32C7.5 18.47 18.47 7.5 32 7.5C45.53 7.5 56.5 18.47 56.5 32C56.5 45.53 45.53 56.5 32 56.5C23.67 56.5 16.32 52.35 11.89 46"  stroke-width="3" stroke-miterlimit="10" stroke-linejoin="round"/>
<path d="M32 46.5C40.0081 46.5 46.5 40.0081 46.5 32C46.5 23.9919 40.0081 17.5 32 17.5C23.9919 17.5 17.5 23.9919 17.5 32C17.5 40.0081 23.9919 46.5 32 46.5Z"  stroke-width="3" stroke-miterlimit="10" stroke-linejoin="round"/>
<path d="M32 13V2"  stroke-width="3" stroke-miterlimit="10" stroke-linejoin="round"/>
<path d="M32 62V51"  stroke-width="3" stroke-miterlimit="10" stroke-linejoin="round"/>
<path d="M51 32H62"  stroke-width="3" stroke-miterlimit="10" stroke-linejoin="round"/>
<path d="M2 32H13"  stroke-width="3" stroke-miterlimit="10" stroke-linejoin="round"/>
</svg>
