<svg width="40" height="40" viewBox="0 0 40 40" fill="none" xmlns="http://www.w3.org/2000/svg">
<path d="M8 7V36C8 36.55 8.45 37 9 37H31C31.55 37 32 36.55 32 36V4C32 3.45 31.55 3 31 3H12"  stroke-width="2" stroke-miterlimit="10" stroke-linejoin="round"/>
<path d="M12 25V31"  stroke-width="2" stroke-miterlimit="10" stroke-linejoin="round"/>
<path d="M15 25V31"  stroke-width="2" stroke-miterlimit="10" stroke-linejoin="round"/>
<path d="M20 25V31"  stroke-width="2" stroke-miterlimit="10" stroke-linejoin="round"/>
<path d="M23 25V31"  stroke-width="2" stroke-miterlimit="10" stroke-linejoin="round"/>
<path d="M28 25V31"  stroke-width="2" stroke-miterlimit="10" stroke-linejoin="round"/>
<path d="M27 13C27 11.9 26.1 11 25 11C23.9 11 23 11.9 23 13C23 14.1 23.9 15 25 15"  stroke-width="2" stroke-miterlimit="10" stroke-linejoin="round"/>
<path d="M23 17C23 18.1 23.9 19 25 19C26.1 19 27 18.1 27 17C27 15.9 26.1 15 25 15"  stroke-width="2" stroke-miterlimit="10" stroke-linejoin="round"/>
<path d="M25 8V11"  stroke-width="2" stroke-miterlimit="10" stroke-linejoin="round"/>
<path d="M25 19V22"  stroke-width="2" stroke-miterlimit="10" stroke-linejoin="round"/>
</svg>
