<svg width="72" height="72" viewBox="0 0 72 72" fill="none" xmlns="http://www.w3.org/2000/svg">
<path d="M15.5 13V63.25C15.5 64.49 16.51 65.5 17.75 65.5H55.25C56.49 65.5 57.5 64.49 57.5 63.25V7.75C57.5 6.51 56.49 5.5 55.25 5.5H23"  stroke-width="3" stroke-miterlimit="10" stroke-linejoin="round"/>
<path d="M22.5 45V56"  stroke-width="3" stroke-miterlimit="10" stroke-linejoin="round"/>
<path d="M27.5 45V56"  stroke-width="3" stroke-miterlimit="10" stroke-linejoin="round"/>
<path d="M37.5 45V56"  stroke-width="3" stroke-miterlimit="10" stroke-linejoin="round"/>
<path d="M42.5 45V56"  stroke-width="3" stroke-miterlimit="10" stroke-linejoin="round"/>
<path d="M50.5 45V56"  stroke-width="3" stroke-miterlimit="10" stroke-linejoin="round"/>
<path d="M45.5 13V17"  stroke-width="3" stroke-miterlimit="10" stroke-linejoin="round"/>
<path d="M45.5 33V38"  stroke-width="3" stroke-miterlimit="10" stroke-linejoin="round"/>
<path d="M49.5501 22.0698C49.5501 19.8698 47.7701 18.0898 45.5701 18.0898C43.3701 18.0898 41.5901 19.8698 41.5901 22.0698C41.5901 24.2698 43.3701 26.0498 45.5701 26.0498"  stroke-width="3" stroke-miterlimit="10" stroke-linejoin="round"/>
<path d="M41.6001 30.02C41.6001 32.22 43.3801 34 45.5801 34C47.7801 34 49.5601 32.22 49.5601 30.02C49.5601 27.82 47.7801 26.04 45.5801 26.04"  stroke-width="3" stroke-miterlimit="10" stroke-linejoin="round"/>
</svg>
