<svg width="32" height="32" viewBox="0 0 32 32" fill="none" xmlns="http://www.w3.org/2000/svg">
<path d="M7 6V28C7 28.55 7.45 29 8 29H24C24.55 29 25 28.55 25 28V4C25 3.45 24.55 3 24 3H10"  stroke-width="2" stroke-miterlimit="10" stroke-linejoin="round"/>
<path d="M11 20V25"  stroke-width="2" stroke-miterlimit="10" stroke-linejoin="round"/>
<path d="M14 20V25"  stroke-width="2" stroke-miterlimit="10" stroke-linejoin="round"/>
<path d="M17 20V25"  stroke-width="2" stroke-miterlimit="10" stroke-linejoin="round"/>
<path d="M21 20V25"  stroke-width="2" stroke-miterlimit="10" stroke-linejoin="round"/>
<path d="M21.5999 10.3998C21.5999 9.51981 20.8799 8.7998 19.9999 8.7998C19.1199 8.7998 18.3999 9.51981 18.3999 10.3998C18.3999 11.2798 19.1199 11.9998 19.9999 11.9998"  stroke-width="2" stroke-miterlimit="10" stroke-linejoin="round"/>
<path d="M18.3999 13.6C18.3999 14.48 19.1199 15.2 19.9999 15.2C20.8799 15.2 21.5999 14.48 21.5999 13.6C21.5999 12.72 20.8799 12 19.9999 12"  stroke-width="2" stroke-miterlimit="10" stroke-linejoin="round"/>
<path d="M20 6V9"  stroke-width="2" stroke-miterlimit="10" stroke-linejoin="round"/>
<path d="M20 15V18"  stroke-width="2" stroke-miterlimit="10" stroke-linejoin="round"/>
</svg>
