<svg width="64" height="64" viewBox="0 0 64 64" fill="none" xmlns="http://www.w3.org/2000/svg">
<path d="M13.5 12V56.5C13.5 57.6 14.4 58.5 15.5 58.5H48.5C49.6 58.5 50.5 57.6 50.5 56.5V7.5C50.5 6.4 49.6 5.5 48.5 5.5H20"  stroke-width="3" stroke-miterlimit="10" stroke-linejoin="round"/>
<path d="M19.5 40V50"  stroke-width="3" stroke-miterlimit="10" stroke-linejoin="round"/>
<path d="M24.5 40V50"  stroke-width="3" stroke-miterlimit="10" stroke-linejoin="round"/>
<path d="M32.5 40V50"  stroke-width="3" stroke-miterlimit="10" stroke-linejoin="round"/>
<path d="M37.5 40V50"  stroke-width="3" stroke-miterlimit="10" stroke-linejoin="round"/>
<path d="M44.5 40V50"  stroke-width="3" stroke-miterlimit="10" stroke-linejoin="round"/>
<path d="M40.5 13V17"  stroke-width="3" stroke-miterlimit="10" stroke-linejoin="round"/>
<path d="M40.5 29V34"  stroke-width="3" stroke-miterlimit="10" stroke-linejoin="round"/>
<path d="M43.5 20.5C43.5 18.84 42.16 17.5 40.5 17.5C38.84 17.5 37.5 18.84 37.5 20.5C37.5 22.16 38.84 23.5 40.5 23.5"  stroke-width="3" stroke-miterlimit="10" stroke-linejoin="round"/>
<path d="M37.5 26.5C37.5 28.16 38.84 29.5 40.5 29.5C42.16 29.5 43.5 28.16 43.5 26.5C43.5 24.84 42.16 23.5 40.5 23.5"  stroke-width="3" stroke-miterlimit="10" stroke-linejoin="round"/>
</svg>
