<svg width="72" height="72" viewBox="0 0 72 72" fill="none" xmlns="http://www.w3.org/2000/svg">
<path d="M57 58.5H7.75C6.51 58.5 5.5 57.49 5.5 56.25V24.5C5.5 23.4 6.4 22.5 7.5 22.5H21"  stroke-width="3" stroke-miterlimit="10"/>
<path d="M48 22.5H64.24C65.48 22.5 66.5 23.52 66.5 24.76V53"  stroke-width="3" stroke-miterlimit="10"/>
<path d="M44 46.97C41.83 49.15 38.82 50.5 35.5 50.5C28.87 50.5 23.5 45.13 23.5 38.5C23.5 35.18 24.85 32.17 27.03 30"  stroke-width="3" stroke-miterlimit="10"/>
<path d="M30 15.5H46.25C47.49 15.5 48.5 16.33 48.5 17.34V24"  stroke-width="3" stroke-miterlimit="10"/>
<path d="M6.5 8.5L63.5 65.5"  stroke-width="3" stroke-miterlimit="10"/>
</svg>
