<svg width="64" height="64" viewBox="0 0 64 64" fill="none" xmlns="http://www.w3.org/2000/svg">
<path d="M39 38.85C37.09 40.79 34.44 42 31.5 42C25.7 42 21 37.3 21 31.5C21 28.56 22.21 25.91 24.15 24"  stroke-width="3" stroke-miterlimit="10"/>
<path d="M52 50.5H7.44C6.36 50.5 5.48 49.6 5.48 48.5L5.5 20.5C5.5 19.4 6.4 18.5 7.5 18.5H19"  stroke-width="3" stroke-miterlimit="10"/>
<path d="M24 10.5H41.5C42.6 10.5 43.5 11.4 43.5 12.5V16.5V18.5H56.56C57.64 18.5 58.52 19.4 58.52 20.5V42"  stroke-width="3" stroke-miterlimit="10"/>
<path d="M7.5 7.5L58.5 57.5"  stroke-width="3" stroke-miterlimit="10"/>
</svg>
