<svg width="40" height="40" viewBox="0 0 40 40" fill="none" xmlns="http://www.w3.org/2000/svg">
<path d="M31 32H4.29C3.6 32 3.03 31.44 3.03 30.75L3 13C3 12.45 3.45 12 4 12H11"  stroke-width="2" stroke-miterlimit="10"/>
<path d="M27.71 12H35.71C36.4 12 36.97 12.57 36.97 13.26V29"  stroke-width="2" stroke-miterlimit="10"/>
<path d="M24 25.1901C22.83 26.3101 21.25 27.0001 19.5 27.0001C15.91 27.0001 13 24.0901 13 20.5001C13 18.6601 13.77 16.9901 15 15.8101"  stroke-width="2" stroke-miterlimit="10"/>
<path d="M16 8H25.75C26.44 8 27 8.56 27 9.25V11.75V13"  stroke-width="2" stroke-miterlimit="10"/>
<path d="M3 4L35 36"  stroke-width="2" stroke-miterlimit="10"/>
</svg>
