<svg width="24" height="24" viewBox="0 0 24 24" fill="none" xmlns="http://www.w3.org/2000/svg">
<path d="M14.24 14C13.69 14.61 12.89 15 12 15C10.34 15 9 13.66 9 12C9 11.23 9.29 10.53 9.76 10"  stroke-width="2" stroke-miterlimit="10"/>
<path d="M22 15V7.74C22 7.33 21.66 7 21.26 7H17"  stroke-width="2" stroke-miterlimit="10"/>
<path d="M7 7H2.75C2.34 7 2 7.31 2 7.69V18.25C2 18.66 2.33 18.99 2.74 18.99H19"  stroke-width="2" stroke-miterlimit="10"/>
<path d="M17 8V7.18V5.06C17 4.48 16.62 4 16.17 4H10"  stroke-width="2" stroke-miterlimit="10"/>
<path d="M2 2L22 22"  stroke-width="2" stroke-miterlimit="10"/>
</svg>
