<svg width="32" height="32" viewBox="0 0 32 32" fill="none" xmlns="http://www.w3.org/2000/svg">
<path d="M25 25H3.94C3.41 25 2.97 24.52 2.97 23.93V10C2.97 9.45 3.42 9 3.97 9H9"  stroke-width="2" stroke-miterlimit="10"/>
<path d="M22.28 9H28.07C28.6 9 29.04 9.48 29.04 10.07V23"  stroke-width="2" stroke-miterlimit="10"/>
<path d="M20 19C19.09 20.21 17.64 21 16 21C13.24 21 11 18.76 11 16C11 14.36 11.79 12.91 13 12"  stroke-width="2" stroke-miterlimit="10"/>
<path d="M13 6H21C21.55 6 22 6.45 22 7V9V10"  stroke-width="2" stroke-miterlimit="10"/>
<path d="M3 3L29 29"  stroke-width="2" stroke-miterlimit="10"/>
</svg>
