<svg width="64" height="64" viewBox="0 0 64 64" fill="none" xmlns="http://www.w3.org/2000/svg">
<path fill-rule="evenodd" clip-rule="evenodd" d="M18.6089 18.7226C20.5707 18.7226 22.4156 19.4867 23.8026 20.8733L31.3295 28.4013C31.8716 28.9434 32.7568 28.9457 33.3002 28.4006L40.7996 20.9006C42.1868 19.514 44.0317 18.7502 45.9935 18.7502H46.8968L37.3715 9.22483C34.4051 6.25839 29.5956 6.25839 26.6292 9.22483L17.1313 18.7226H18.6089ZM45.9935 45.2497C44.0317 45.2497 42.1868 44.4859 40.7998 43.0993L33.3002 35.6C32.7739 35.072 31.856 35.0737 31.3297 35.6L23.8029 43.1268C22.4156 44.5131 20.5707 45.277 18.6089 45.277H17.1311L26.6291 54.7753C29.5956 57.7415 34.405 57.7415 37.3715 54.7753L46.897 45.2497H45.9935ZM49.0189 20.8712L54.7752 26.6275C57.7416 29.5937 57.7416 34.4032 54.7752 37.3698L49.0191 43.1256C48.8922 43.0748 48.7553 43.0433 48.6102 43.0433H45.9932C44.64 43.0433 43.3156 42.4947 42.3596 41.5378L34.86 34.0391C33.501 32.6784 31.1295 32.6791 29.7691 34.0384L22.2422 41.5653C21.286 42.5219 19.9618 43.0706 18.6086 43.0706H15.3905C15.2534 43.0706 15.1248 43.1031 15.0037 43.1487L9.22483 37.3698C6.25839 34.4032 6.25839 29.5937 9.22483 26.6275L15.0039 20.8484C15.125 20.8941 15.2534 20.9265 15.3905 20.9265H18.6086C19.9618 20.9265 21.286 21.4752 22.2422 22.4318L29.7698 29.9594C30.4715 30.6604 31.3929 31.0118 32.315 31.0118C33.2364 31.0118 34.1585 30.6604 34.86 29.9587L42.3596 22.4591C43.3156 21.5024 44.64 20.9538 45.9932 20.9538H48.6102C48.7551 20.9538 48.8922 20.922 49.0189 20.8712Z" />
</svg>
