<svg width="32" height="32" viewBox="0 0 32 32" fill="none" xmlns="http://www.w3.org/2000/svg">
<path fill-rule="evenodd" clip-rule="evenodd" d="M9.57228 9.62687C10.5139 9.62687 11.3995 9.99362 12.0653 10.6592L15.6782 14.2726C15.9384 14.5328 16.3632 14.5339 16.6241 14.2723L20.2238 10.6723C20.8897 10.0067 21.7752 9.64008 22.7169 9.64008H23.1505L18.5783 5.06792C17.1544 3.64403 14.8459 3.64403 13.422 5.06792L8.86305 9.62687H9.57228ZM22.7168 22.3599C21.7751 22.3599 20.8896 21.9933 20.2238 21.3277L16.624 17.728C16.3714 17.4746 15.9308 17.4754 15.6782 17.728L12.0653 21.3409C11.3994 22.0064 10.5138 22.373 9.57216 22.373H8.86281L13.4219 26.9322C14.8458 28.356 17.1543 28.356 18.5782 26.9322L23.1505 22.3599H22.7168ZM24.1691 10.659L26.9321 13.4221C28.356 14.8458 28.356 17.1544 26.9321 18.5784L24.1692 21.3412C24.1082 21.3168 24.0425 21.3016 23.9729 21.3016H22.7167C22.0672 21.3016 21.4315 21.0383 20.9726 20.579L17.3728 16.9796C16.7205 16.3265 15.5822 16.3268 14.9291 16.9793L11.3163 20.5922C10.8573 21.0514 10.2216 21.3147 9.57212 21.3147H8.02745C7.96164 21.3147 7.89989 21.3303 7.84176 21.3522L5.06792 18.5784C3.64403 17.1544 3.64403 14.8458 5.06792 13.4221L7.84187 10.6481C7.9 10.67 7.96164 10.6856 8.02745 10.6856H9.57212C10.2216 10.6856 10.8573 10.9489 11.3163 11.4081L14.9295 15.0214C15.2663 15.3579 15.7086 15.5265 16.1512 15.5265C16.5935 15.5265 17.0361 15.3579 17.3728 15.021L20.9726 11.4212C21.4315 10.962 22.0672 10.6987 22.7167 10.6987H23.9729C24.0424 10.6987 24.1082 10.6834 24.1691 10.659Z"/>
</svg>
