<svg width="24" height="24" viewBox="0 0 24 24" fill="none" xmlns="http://www.w3.org/2000/svg">
<path fill-rule="evenodd" clip-rule="evenodd" d="M6.64344 6.68907C7.42816 6.68907 8.16612 6.9947 8.72094 7.54932L11.7317 10.5605C11.9485 10.7774 12.3026 10.7783 12.52 10.5603L15.5197 7.56023C16.0746 7.00561 16.8126 6.70007 17.5973 6.70007H17.9586L14.1485 2.88993C12.9619 1.70336 11.0381 1.70336 9.85154 2.88993L6.05241 6.68907H6.64344ZM17.5973 17.2999C16.8126 17.2999 16.0746 16.9944 15.5198 16.4397L12.52 13.44C12.3095 13.2288 11.9423 13.2295 11.7318 13.44L8.72104 16.4507C8.16613 17.0053 7.42816 17.3108 6.64344 17.3108H6.05232L9.85155 21.1101C11.0381 22.2966 12.9619 22.2966 14.1485 21.1101L17.9587 17.2999H17.5973ZM18.8076 7.5491L21.1101 9.85161C22.2967 11.0381 22.2967 12.9619 21.1101 14.1486L18.8077 16.4509C18.7569 16.4306 18.7022 16.418 18.6441 16.418H17.5973C17.0561 16.418 16.5263 16.1985 16.1439 15.8157L13.144 12.8163C12.6004 12.272 11.6518 12.2723 11.1076 12.816L8.09689 15.8267C7.71441 16.2094 7.18471 16.4289 6.64344 16.4289H5.35621C5.30137 16.4289 5.24992 16.4418 5.20147 16.4601L2.88993 14.1486C1.70336 12.9619 1.70336 11.0381 2.88993 9.85161L5.20157 7.53998C5.25001 7.55822 5.30137 7.57121 5.35621 7.57121H6.64344C7.18471 7.57121 7.71441 7.79067 8.09689 8.17334L11.1079 11.1844C11.3886 11.4648 11.7572 11.6053 12.126 11.6053C12.4946 11.6053 12.8634 11.4648 13.144 11.1841L16.1439 8.18425C16.5263 7.80158 17.0561 7.58212 17.5973 7.58212H18.6441C18.7021 7.58212 18.7569 7.56942 18.8076 7.5491Z"/>
</svg>
