<svg width="16" height="16" viewBox="0 0 16 16" fill="none" xmlns="http://www.w3.org/2000/svg">
<path fill-rule="evenodd" clip-rule="evenodd" d="M4.78611 4.81344C5.25694 4.81344 5.69972 4.99681 6.0326 5.32959L7.83905 7.13632C7.96915 7.26641 8.18159 7.26698 8.31203 7.13615L10.1119 5.33613C10.4448 5.00336 10.8876 4.82004 11.3584 4.82004H11.5752L9.28913 2.53396C8.57718 1.82201 7.42291 1.82201 6.71097 2.53396L4.43149 4.81344H4.78611ZM11.3583 11.1798C10.8875 11.1798 10.4447 10.9965 10.1118 10.6637L8.31194 8.86389C8.18562 8.73719 7.96533 8.73758 7.83902 8.86389L6.03257 10.6703C5.69963 11.0031 5.25685 11.1864 4.78602 11.1864H4.43134L6.71088 13.466C7.42282 14.1779 8.57709 14.1779 9.28904 13.466L11.5752 11.1798H11.3583ZM12.0845 5.32928L13.466 6.71079C14.178 7.42267 14.178 8.57695 13.466 9.28895L12.0846 10.6703C12.0541 10.6581 12.0213 10.6506 11.9864 10.6506H11.3584C11.0336 10.6506 10.7157 10.5189 10.4863 10.2892L8.68641 8.48958C8.36024 8.16301 7.79109 8.16318 7.46458 8.48941L5.65813 10.2959C5.42864 10.5255 5.11082 10.6571 4.78606 10.6571H4.01372C3.98082 10.6571 3.94995 10.6649 3.92088 10.6759L2.53396 9.28895C1.82201 8.57695 1.82201 7.42267 2.53396 6.71079L3.92094 5.32381C3.95 5.33476 3.98082 5.34255 4.01372 5.34255H4.78606C5.11082 5.34255 5.42864 5.47422 5.65813 5.70382L7.46475 7.51044C7.63316 7.67869 7.8543 7.76301 8.0756 7.76301C8.29674 7.76301 8.51804 7.67869 8.68641 7.51027L10.4863 5.71037C10.7157 5.48077 11.0336 5.34909 11.3584 5.34909H11.9864C12.0212 5.34909 12.0541 5.34147 12.0845 5.32928Z"/>
</svg>
