<svg width="72" height="72" viewBox="0 0 72 72" fill="none" xmlns="http://www.w3.org/2000/svg">
<path fill-rule="evenodd" clip-rule="evenodd" d="M21.0021 21.1294C23.1993 21.1294 25.2656 21.9851 26.8191 23.5381L35.2491 31.9695C35.8563 32.5766 36.8477 32.5793 37.4564 31.9687L45.8556 23.5686C47.4094 22.0157 49.4757 21.1602 51.6729 21.1602H52.6846L42.0162 10.4918C38.6938 7.1694 33.3072 7.1694 29.9848 10.4918L19.3472 21.1294H21.0021ZM51.6729 50.8396C49.4757 50.8396 47.4094 49.9841 45.8559 48.4311L37.4564 40.0319C36.8669 39.4405 35.8389 39.4424 35.2494 40.0319L26.8193 48.462C25.2656 50.0146 23.1993 50.8701 21.0021 50.8701H19.3469L29.9848 61.5082C33.3072 64.8304 38.6938 64.8304 42.0162 61.5082L52.6849 50.8396H51.6729ZM55.0613 23.5357L61.5083 29.9827C64.8307 33.3049 64.8307 38.6915 61.5083 42.0142L55.0615 48.4607C54.9193 48.4038 54.766 48.3685 54.6035 48.3685H51.6725C50.1569 48.3685 48.6735 47.754 47.6028 46.6823L39.2033 38.2838C37.6811 36.7598 35.0251 36.7606 33.5014 38.283L25.0713 46.7131C24.0003 47.7845 22.5172 48.399 21.0016 48.399H17.3974C17.2438 48.399 17.0998 48.4354 16.9641 48.4865L10.4918 42.0142C7.1694 38.6915 7.1694 33.3049 10.4918 29.9827L16.9644 23.5102C17.1 23.5613 17.2438 23.5976 17.3974 23.5976H21.0016C22.5172 23.5976 24.0003 24.2121 25.0713 25.2836L33.5022 33.7145C34.2881 34.4996 35.3201 34.8931 36.3529 34.8931C37.3848 34.8931 38.4176 34.4996 39.2033 33.7137L47.6028 25.3141C48.6735 24.2427 50.1569 23.6282 51.6725 23.6282H54.6035C54.7657 23.6282 54.9193 23.5926 55.0613 23.5357Z"/>
</svg>
