<svg width="40" height="40" viewBox="0 0 40 40" fill="none" xmlns="http://www.w3.org/2000/svg">
<path fill-rule="evenodd" clip-rule="evenodd" d="M11.4297 11.5025C12.6853 11.5025 13.866 11.9915 14.7537 12.8789L19.5709 17.6968C19.9178 18.0438 20.4843 18.0453 20.8322 17.6964L25.6317 12.8964C26.5196 12.009 27.7003 11.5201 28.9559 11.5201H29.534L23.4378 5.42389C21.5393 3.52537 18.4612 3.52537 16.5627 5.42389L10.4841 11.5025H11.4297ZM28.9557 28.4801C27.7002 28.4801 26.5194 27.9912 25.6317 27.1038L20.832 22.3042C20.4952 21.9663 19.9077 21.9674 19.5709 22.3042L14.7537 27.1214C13.8659 28.0087 12.6851 28.4975 11.4296 28.4975H10.4838L16.5625 34.5764C18.461 36.4748 21.5391 36.4748 23.4376 34.5764L29.534 28.4801H28.9557ZM30.8921 12.8779L34.5761 16.5619C36.4746 18.4602 36.4746 21.5383 34.5761 23.437L30.8923 27.1207C30.811 27.0882 30.7234 27.068 30.6305 27.068H28.9557C28.0896 27.068 27.242 26.7169 26.6301 26.1044L21.8304 21.3053C20.9606 20.4345 19.4429 20.4349 18.5722 21.3049L13.755 26.122C13.143 26.7343 12.2955 27.0855 11.4295 27.0855H9.36993C9.28218 27.0855 9.19986 27.1062 9.12234 27.1354L5.42389 23.437C3.52537 21.5383 3.52537 18.4602 5.42389 16.5619L9.12249 12.8633C9.20001 12.8925 9.28218 12.9132 9.36993 12.9132H11.4295C12.2955 12.9132 13.143 13.2644 13.755 13.8766L18.5726 18.6943C19.0218 19.1429 19.6115 19.3678 20.2016 19.3678C20.7913 19.3678 21.3814 19.1429 21.8304 18.6938L26.6301 13.8941C27.242 13.2818 28.0896 12.9307 28.9557 12.9307H30.6305C30.7232 12.9307 30.811 12.9104 30.8921 12.8779Z"/>
</svg>
