<svg xmlns="http://www.w3.org/2000/svg" width="24" height="24" viewBox="0 0 24 24" fill="none" stroke="transparent" stroke-width="0">
<path d="M16.1727 22.9989C15.8005 22.9375 15.4272 22.8876 15.0557 22.8114C14.0683 22.6072 13.144 22.2219 12.2461 21.7792C8.68528 20.0195 5.83436 17.449 3.60844 14.1732C2.64227 12.7512 1.87048 11.2282 1.35844 9.58601C1.06085 8.62959 0.885963 7.6531 1.08493 6.64507C1.16965 6.17703 1.39159 5.74473 1.72255 5.4031C2.30397 4.80906 2.88826 4.21789 3.48803 3.64335C4.23975 2.92432 5.08149 2.92317 5.82748 3.64966C6.69961 4.49943 7.55454 5.36984 8.40775 6.23395C8.78906 6.62042 9.03505 7.06938 8.95076 7.63934C8.88826 8.06422 8.64514 8.38877 8.35328 8.68177C7.86819 9.16916 7.37851 9.65253 6.89284 10.1382C6.63998 10.3905 6.63482 10.457 6.77817 10.7798C7.33207 12.0212 8.18069 13.0539 9.09066 14.0407C10.0006 15.0275 10.9955 15.9037 12.1297 16.6164C12.5167 16.8595 12.9324 17.0539 13.3338 17.2718C13.5196 17.3721 13.6595 17.2953 13.7925 17.1623C14.2919 16.6588 14.7896 16.1537 15.2959 15.6577C15.4467 15.5052 15.6145 15.3705 15.7959 15.2563C16.3693 14.9071 17.0064 14.9622 17.5293 15.3893C17.6353 15.4748 17.7367 15.5657 17.8332 15.6617C18.6457 16.4702 19.4622 17.2747 20.2621 18.0946C20.4649 18.2948 20.6329 18.5273 20.7592 18.7827C21.0104 19.328 20.9129 19.8721 20.5213 20.3045C19.8871 21.0034 19.2151 21.6703 18.5368 22.328C18.1635 22.6898 17.6841 22.8704 17.1715 22.9547C17.109 22.965 17.0477 22.9851 16.9857 23L16.1727 22.9989Z" />
<path d="M23.006 11.3073L21.3162 11.6118C20.8953 9.28899 19.8587 7.30333 18.1769 5.66858C16.4951 4.03383 14.4808 3.04989 12.1201 2.69381C12.1987 2.12615 12.2767 1.56537 12.3546 1C13.4037 1.1407 14.4301 1.4171 15.408 1.82225C17.2158 2.56769 18.8231 3.72772 20.1 5.20872C21.3484 6.63692 22.2526 8.33229 22.7434 10.1646C22.8386 10.5149 22.9189 10.8693 23.0054 11.2213L23.006 11.3073Z" />
<path d="M11.8965 7.06428C11.975 6.50923 12.0524 5.95935 12.1299 5.41003C15.0777 5.74203 17.9527 8.15946 18.5375 11.609L16.8781 11.8957C16.2531 9.22368 14.6041 7.62047 11.8965 7.06428Z" />
</svg>