<svg width="32" height="32" viewBox="0 0 32 32" fill="none" xmlns="http://www.w3.org/2000/svg">
<path d="M10 14V18"  stroke-width="2" stroke-miterlimit="10" stroke-linejoin="round"/>
<path d="M10 7V12"  stroke-width="2" stroke-miterlimit="10" stroke-linejoin="round"/>
<path d="M10 20V23"  stroke-width="2" stroke-miterlimit="10" stroke-linejoin="round"/>
<path d="M3 10V13C4.66 13 6 14.34 6 16C6 17.66 4.66 19 3 19V23C3 23.55 3.45 24 4 24H5.52H26.43H28C28.55 24 29 23.55 29 23V19C27.34 19 26 17.66 26 16C26 14.34 27.34 13 29 13V9C29 8.45 28.55 8 28 8H26.48H6"  stroke-width="2" stroke-miterlimit="10" stroke-linejoin="round"/>
</svg>
