<svg width="72" height="72" viewBox="0 0 72 72" fill="none" xmlns="http://www.w3.org/2000/svg">
<path d="M68 44C63.65 44 60.75 40.35 60.75 36C60.75 31.65 63.65 28 68 28"  stroke-width="3" stroke-miterlimit="10" stroke-linejoin="round"/>
<path d="M4 44C8.35 44 11.25 40.35 11.25 36C11.25 31.65 8.35 28 4 28"  stroke-width="3" stroke-miterlimit="10" stroke-linejoin="round"/>
<path d="M5.5 44V52.5C5.5 53.6 6.4 54.5 7.5 54.5H10.98H60.84H64.5C65.6 54.5 66.5 53.6 66.5 52.5V44"  stroke-width="3" stroke-miterlimit="10" stroke-linejoin="round"/>
<path d="M5.5 21V28"  stroke-width="3" stroke-miterlimit="10" stroke-linejoin="round"/>
<path d="M66.5 28V19.5C66.5 18.4 65.6 17.5 64.5 17.5H61.02H11.16"  stroke-width="3" stroke-miterlimit="10" stroke-linejoin="round"/>
<path d="M20.5 27V35"  stroke-width="3" stroke-miterlimit="10" stroke-linejoin="round"/>
<path d="M20.5 17V25"  stroke-width="3" stroke-miterlimit="10" stroke-linejoin="round"/>
<path d="M20.5 37V45"  stroke-width="3" stroke-miterlimit="10" stroke-linejoin="round"/>
<path d="M20.5 47V55"  stroke-width="3" stroke-miterlimit="10" stroke-linejoin="round"/>
<path d="M32.69 45.0699L50.13 27.6299"  stroke-width="3" stroke-miterlimit="10" stroke-linejoin="round"/>
<path d="M49.5 45.5C51.1569 45.5 52.5 44.1569 52.5 42.5C52.5 40.8431 51.1569 39.5 49.5 39.5C47.8431 39.5 46.5 40.8431 46.5 42.5C46.5 44.1569 47.8431 45.5 49.5 45.5Z"    stroke-width="3" stroke-miterlimit="10"/>
<path d="M34.5 32.5C36.1569 32.5 37.5 31.1569 37.5 29.5C37.5 27.8431 36.1569 26.5 34.5 26.5C32.8431 26.5 31.5 27.8431 31.5 29.5C31.5 31.1569 32.8431 32.5 34.5 32.5Z"    stroke-width="3" stroke-miterlimit="10"/>
</svg>
