<svg width="72" height="72" viewBox="0 0 72 72" fill="none" xmlns="http://www.w3.org/2000/svg">
<path d="M8.5 36C8.5 20.81 20.81 8.5 36 8.5C51.19 8.5 63.5 20.81 63.5 36C63.5 51.19 51.19 63.5 36 63.5C27 63.5 19.02 59.18 14 52.5"  stroke-width="3" stroke-miterlimit="10" stroke-linejoin="round"/>
<path d="M36 58.5C48.4264 58.5 58.5 48.4264 58.5 36C58.5 23.5736 48.4264 13.5 36 13.5C23.5736 13.5 13.5 23.5736 13.5 36C13.5 48.4264 23.5736 58.5 36 58.5Z"  stroke-width="3" stroke-miterlimit="10" stroke-linejoin="round"/>
<path d="M42.5 29C42.5 25.41 39.59 22.5 36 22.5C32.41 22.5 29.5 25.41 29.5 29C29.5 32.59 32.41 35.5 36 35.5"  stroke-width="3" stroke-miterlimit="10" stroke-linejoin="round"/>
<path d="M29.5 42C29.5 45.59 32.41 48.5 36 48.5C39.59 48.5 42.5 45.59 42.5 42C42.5 38.41 39.59 35.5 36 35.5"  stroke-width="3" stroke-miterlimit="10" stroke-linejoin="round"/>
<path d="M35.5 18V22"  stroke-width="3" stroke-miterlimit="10" stroke-linejoin="round"/>
<path d="M35.5 49V53"  stroke-width="3" stroke-miterlimit="10" stroke-linejoin="round"/>
</svg>
