<svg width="40" height="40" viewBox="0 0 40 40" fill="none" xmlns="http://www.w3.org/2000/svg">
<path d="M4 20C4 11.16 11.16 4 20 4C28.84 4 36 11.16 36 20C36 28.84 28.84 36 20 36C14.5 36 9.65 33.23 6.77 29"  stroke-width="2" stroke-miterlimit="10" stroke-linejoin="round"/>
<path d="M20 32C26.6274 32 32 26.6274 32 20C32 13.3726 26.6274 8 20 8C13.3726 8 8 13.3726 8 20C8 26.6274 13.3726 32 20 32Z"  stroke-width="2" stroke-miterlimit="10" stroke-linejoin="round"/>
<path d="M23 17C23 15.34 21.66 14 20 14C18.34 14 17 15.34 17 17C17 18.66 18.34 20 20 20"  stroke-width="2" stroke-miterlimit="10" stroke-linejoin="round"/>
<path d="M17 23C17 24.66 18.34 26 20 26C21.66 26 23 24.66 23 23C23 21.34 21.66 20 20 20"  stroke-width="2" stroke-miterlimit="10" stroke-linejoin="round"/>
<path d="M20 11V14"  stroke-width="2" stroke-miterlimit="10" stroke-linejoin="round"/>
<path d="M20 26V29"  stroke-width="2" stroke-miterlimit="10" stroke-linejoin="round"/>
</svg>
