<svg width="32" height="32" viewBox="0 0 32 32" fill="none" xmlns="http://www.w3.org/2000/svg">
<path d="M4 16C4 9.37 9.37 4 16 4C22.63 4 28 9.37 28 16C28 22.63 22.63 28 16 28C11.83 28 8.15 25.87 6 22.64"  stroke-width="2" stroke-miterlimit="10" stroke-linejoin="round"/>
<path d="M18 14C18 12.9 17.1 12 16 12C14.9 12 14 12.9 14 14C14 15.1 14.9 16 16 16"  stroke-width="2" stroke-miterlimit="10" stroke-linejoin="round"/>
<path d="M14 18C14 19.1 14.9 20 16 20C17.1 20 18 19.1 18 18C18 16.9 17.1 16 16 16"  stroke-width="2" stroke-miterlimit="10" stroke-linejoin="round"/>
<path d="M16 10V12"  stroke-width="2" stroke-miterlimit="10" stroke-linejoin="round"/>
<path d="M16 20V22"  stroke-width="2" stroke-miterlimit="10" stroke-linejoin="round"/>
<path d="M16 25C20.9706 25 25 20.9706 25 16C25 11.0294 20.9706 7 16 7C11.0294 7 7 11.0294 7 16C7 20.9706 11.0294 25 16 25Z"  stroke-width="2" stroke-miterlimit="10" stroke-linejoin="round"/>
</svg>
