<svg width="64" height="64" viewBox="0 0 64 64" fill="none" xmlns="http://www.w3.org/2000/svg">
<path d="M7.5 32C7.5 18.47 18.47 7.5 32 7.5C45.53 7.5 56.5 18.47 56.5 32C56.5 45.53 45.53 56.5 32 56.5C23.74 56.5 16.44 52.41 12 46.15"  stroke-width="3" stroke-miterlimit="10" stroke-linejoin="round"/>
<path d="M37.5 26C37.5 22.96 35.04 20.5 32 20.5C28.96 20.5 26.5 22.96 26.5 26C26.5 29.04 28.96 31.5 32 31.5"  stroke-width="3" stroke-miterlimit="10" stroke-linejoin="round"/>
<path d="M26.5 37C26.5 40.04 28.96 42.5 32 42.5C35.04 42.5 37.5 40.04 37.5 37C37.5 33.96 35.04 31.5 32 31.5"  stroke-width="3" stroke-miterlimit="10" stroke-linejoin="round"/>
<path d="M31.5 16V20"  stroke-width="3" stroke-miterlimit="10" stroke-linejoin="round"/>
<path d="M31.5 43V47"  stroke-width="3" stroke-miterlimit="10" stroke-linejoin="round"/>
<path d="M32 51.5C42.7696 51.5 51.5 42.7696 51.5 32C51.5 21.2304 42.7696 12.5 32 12.5C21.2304 12.5 12.5 21.2304 12.5 32C12.5 42.7696 21.2304 51.5 32 51.5Z"  stroke-width="3" stroke-miterlimit="10" stroke-linejoin="round"/>
</svg>
