<svg width="16" height="16" viewBox="0 0 16 16" fill="none" xmlns="http://www.w3.org/2000/svg">
<path d="M11 11H5"  stroke-width="2" stroke-miterlimit="10" stroke-linejoin="round"/>
<path d="M3 11H1V7H12.59L15 8V11H13"  stroke-width="2" stroke-miterlimit="10" stroke-linejoin="round"/>
<path d="M12 7L11 3.84C10.8 3.33 10.31 3 9.76 3H3.23C2.9 3 2.63 3.24 2.57 3.56L2 6.33"  stroke-width="2" stroke-miterlimit="10" stroke-linejoin="round"/>
<path d="M4.5 13C5.32843 13 6 12.3284 6 11.5C6 10.6716 5.32843 10 4.5 10C3.67157 10 3 10.6716 3 11.5C3 12.3284 3.67157 13 4.5 13Z"  stroke-width="2" stroke-miterlimit="10" stroke-linejoin="round"/>
<path d="M11.5 13C12.3284 13 13 12.3284 13 11.5C13 10.6716 12.3284 10 11.5 10C10.6716 10 10 10.6716 10 11.5C10 12.3284 10.6716 13 11.5 13Z"  stroke-width="2" stroke-miterlimit="10" stroke-linejoin="round"/>
</svg>
