<svg width="40" height="40" viewBox="0 0 40 40" fill="none" xmlns="http://www.w3.org/2000/svg">
<path d="M12 28H25"  stroke-width="2" stroke-miterlimit="10" stroke-linejoin="round"/>
<path d="M31.13 28H38C38.55 28 39 27.55 39 27V20.56C39 19.64 38.38 18.84 37.49 18.62L31 17H5L1.45 18.7C1.17 18.89 1 19.2 1 19.54V27C1 27.55 1.45 28 2 28H5"  stroke-width="2" stroke-miterlimit="10" stroke-linejoin="round"/>
<path d="M6.13001 12.05L5.14001 17H30.86L26.07 10.61C25.31 9.58 24.1 8.98 22.82 9H9.00002"  stroke-width="2" stroke-miterlimit="10" stroke-linejoin="round"/>
<path d="M15 9V17"  stroke-width="2" stroke-miterlimit="10" stroke-linejoin="round"/>
<path d="M8.5 31C10.433 31 12 29.433 12 27.5C12 25.567 10.433 24 8.5 24C6.567 24 5 25.567 5 27.5C5 29.433 6.567 31 8.5 31Z"  stroke-width="2" stroke-miterlimit="10" stroke-linejoin="round"/>
<path d="M28.5 31C30.433 31 32 29.433 32 27.5C32 25.567 30.433 24 28.5 24C26.567 24 25 25.567 25 27.5C25 29.433 26.567 31 28.5 31Z"  stroke-width="2" stroke-miterlimit="10" stroke-linejoin="round"/>
<path d="M18 17V27"  stroke-width="2" stroke-miterlimit="10" stroke-linejoin="round"/>
<path d="M39 24H35"  stroke-width="2" stroke-miterlimit="10" stroke-linejoin="round"/>
</svg>
