<svg width="24" height="24" viewBox="0 0 24 24" fill="none" xmlns="http://www.w3.org/2000/svg">
<path d="M15.22 17H8.77002"  stroke-width="2" stroke-miterlimit="10" stroke-linejoin="round"/>
<path d="M3.87 17H1V11L3 10H18L23 12V17H19.95"  stroke-width="2" stroke-miterlimit="10" stroke-linejoin="round"/>
<path d="M18 10L16.5 6.26C16.2 5.5 15.46 5 14.65 5H4.85C4.36 5 3.94 5.35 3.86 5.84L3 10"  stroke-width="2" stroke-miterlimit="10" stroke-linejoin="round"/>
<path d="M10 5V10"  stroke-width="2" stroke-miterlimit="10" stroke-linejoin="round"/>
<path d="M19.95 17.02C19.98 16.85 20 16.68 20 16.5C20 15.12 18.88 14 17.5 14C16.12 14 15 15.12 15 16.5C15 17.88 16.12 19 17.5 19C18.7 19 19.71 18.15 19.95 17.02Z"  stroke-width="2" stroke-miterlimit="10" stroke-linejoin="round"/>
<path d="M6.5 19C7.88071 19 9 17.8807 9 16.5C9 15.1193 7.88071 14 6.5 14C5.11929 14 4 15.1193 4 16.5C4 17.8807 5.11929 19 6.5 19Z"  stroke-width="2" stroke-miterlimit="10" stroke-linejoin="round"/>
</svg>
