<svg width="64" height="64" viewBox="0 0 64 64" fill="none" xmlns="http://www.w3.org/2000/svg">
<path d="M19 44.5H40"  stroke-width="3" stroke-miterlimit="10" stroke-linejoin="round"/>
<path d="M50 44.5H60.9C61.78 44.5 62.5 43.78 62.5 42.9V32.26C62.5 30.8 61.51 29.52 60.09 29.16L48.66 26.5H7.92L2.21001 29.29C1.76001 29.59 1.5 30.1 1.5 30.65V42.9C1.5 43.78 2.22001 44.5 3.10001 44.5H8"  stroke-width="3" stroke-miterlimit="10" stroke-linejoin="round"/>
<path d="M9.51003 18.4599L7.90002 26.4999H48.7L40.92 16.1099C39.69 14.4399 37.72 13.4699 35.64 13.4999H14"  stroke-width="3" stroke-miterlimit="10" stroke-linejoin="round"/>
<path d="M24.5 14V27"  stroke-width="3" stroke-miterlimit="10" stroke-linejoin="round"/>
<path d="M14 49.5C17.0376 49.5 19.5 47.0376 19.5 44C19.5 40.9624 17.0376 38.5 14 38.5C10.9624 38.5 8.5 40.9624 8.5 44C8.5 47.0376 10.9624 49.5 14 49.5Z"  stroke-width="3" stroke-miterlimit="10" stroke-linejoin="round"/>
<path d="M46 49.5C49.0376 49.5 51.5 47.0376 51.5 44C51.5 40.9624 49.0376 38.5 46 38.5C42.9624 38.5 40.5 40.9624 40.5 44C40.5 47.0376 42.9624 49.5 46 49.5Z"  stroke-width="3" stroke-miterlimit="10" stroke-linejoin="round"/>
<path d="M28.5 27V43"  stroke-width="3" stroke-miterlimit="10" stroke-linejoin="round"/>
<path d="M63 39.5H57.5C56.95 39.5 56.5 39.05 56.5 38.5V36.5C56.5 35.95 56.95 35.5 57.5 35.5H62"  stroke-width="3" stroke-miterlimit="10" stroke-linejoin="round"/>
</svg>
