<svg width="72" height="72" viewBox="0 0 72 72" fill="none" xmlns="http://www.w3.org/2000/svg">
<path d="M21 49.5H45"  stroke-width="3" stroke-miterlimit="10" stroke-linejoin="round"/>
<path d="M56 49.5H68.7C69.69 49.5 70.5 48.69 70.5 47.7V35.9C70.5 34.27 69.38 32.86 67.77 32.45L54.84 29.5H8.75999L2.31 32.6C1.8 32.94 1.5 33.5 1.5 34.11V47.7C1.5 48.69 2.31 49.5 3.3 49.5H9"  stroke-width="3" stroke-miterlimit="10" stroke-linejoin="round"/>
<path d="M10.15 20.2201L8.29004 29.5001H55.37L46.3901 17.5101C44.9701 15.5801 42.7 14.4601 40.3 14.5001H15"  stroke-width="3" stroke-miterlimit="10" stroke-linejoin="round"/>
<path d="M27.5 16V30"  stroke-width="3" stroke-miterlimit="10" stroke-linejoin="round"/>
<path d="M15 55.5C18.5899 55.5 21.5 52.5899 21.5 49C21.5 45.4101 18.5899 42.5 15 42.5C11.4101 42.5 8.5 45.4101 8.5 49C8.5 52.5899 11.4101 55.5 15 55.5Z"  stroke-width="3" stroke-miterlimit="10" stroke-linejoin="round"/>
<path d="M51 55.5C54.5899 55.5 57.5 52.5899 57.5 49C57.5 45.4101 54.5899 42.5 51 42.5C47.4101 42.5 44.5 45.4101 44.5 49C44.5 52.5899 47.4101 55.5 51 55.5Z"  stroke-width="3" stroke-miterlimit="10" stroke-linejoin="round"/>
<path d="M32.5 30V50"  stroke-width="3" stroke-miterlimit="10" stroke-linejoin="round"/>
<path d="M71 44.5H64.5C63.95 44.5 63.5 44.05 63.5 43.5V40.5C63.5 39.95 63.95 39.5 64.5 39.5H71"  stroke-width="3" stroke-miterlimit="10" stroke-linejoin="round"/>
</svg>
