<svg width="72" height="72" viewBox="0 0 72 72" fill="none" xmlns="http://www.w3.org/2000/svg">
<path d="M24.9999 52.5H33.2999C35.7899 52.5 37.7999 50.49 37.7999 48C37.7999 45.51 35.7899 43.5 33.2999 43.5H26.4899C23.2499 43.5 20.0399 44.02 16.9699 45.05C12.9899 46.38 9.61992 49.08 7.45992 52.68L5.3999 56.11"  stroke-width="3" stroke-miterlimit="10" stroke-linejoin="round"/>
<path d="M21.6699 68.3601L25.7699 62.9001C26.4299 62.0201 27.4599 61.5001 28.5599 61.5001H45.5499C47.8199 61.5001 49.9999 60.6001 51.6099 58.9901L63.7499 48.2701C65.3299 46.8701 66.2399 44.8601 66.2399 42.7501C66.2399 39.9401 62.9899 38.3801 60.7999 40.1401L47.4999 50.5001H36.4999"  stroke-width="3" stroke-miterlimit="10" stroke-linejoin="round"/>
<path d="M40 32.5H30"  stroke-width="3" stroke-miterlimit="10" stroke-linejoin="round"/>
<path d="M21 32.5H16.67C16.02 32.5 15.5 31.98 15.5 31.33V23"  stroke-width="3" stroke-miterlimit="10" stroke-linejoin="round"/>
<path d="M46.1201 20.56L43.4601 12.74C42.9201 11.39 41.6101 10.5 40.1601 10.5H22.7401C21.8701 10.5 21.1301 11.13 20.9901 11.99L19.0701 19.5H45.8101L55.7201 22.94C56.1901 23.1 56.5101 23.55 56.5101 24.04V31.33C56.5101 31.98 55.9901 32.5 55.3401 32.5H49.0001"  stroke-width="3" stroke-miterlimit="10" stroke-linejoin="round"/>
<path d="M31.5 10V21"  stroke-width="3" stroke-miterlimit="10" stroke-linejoin="round"/>
<path d="M25 36.5C27.4853 36.5 29.5 34.4853 29.5 32C29.5 29.5147 27.4853 27.5 25 27.5C22.5147 27.5 20.5 29.5147 20.5 32C20.5 34.4853 22.5147 36.5 25 36.5Z"  stroke-width="3" stroke-miterlimit="10" stroke-linejoin="round"/>
<path d="M45 36.5C47.4853 36.5 49.5 34.4853 49.5 32C49.5 29.5147 47.4853 27.5 45 27.5C42.5147 27.5 40.5 29.5147 40.5 32C40.5 34.4853 42.5147 36.5 45 36.5Z"  stroke-width="3" stroke-miterlimit="10" stroke-linejoin="round"/>
</svg>
