<svg width="64" height="64" viewBox="0 0 64 64" fill="none" xmlns="http://www.w3.org/2000/svg">
<path d="M22 46.5H29.6001C31.8101 46.5 33.6001 44.71 33.6001 42.5C33.6001 40.29 31.8101 38.5 29.6001 38.5H23.54C20.66 38.5 17.81 38.96 15.08 39.87C11.54 41.05 8.55005 43.45 6.63005 46.65L4.80005 49.7"  stroke-width="3" stroke-miterlimit="10" stroke-linejoin="round"/>
<path d="M18.6399 60.79L22.3899 55.78C22.9899 54.97 23.9399 54.5 24.9499 54.5H40.5199C42.5999 54.5 44.5999 53.67 46.0799 52.2L57.2099 42.37C58.6599 41.09 59.4899 39.25 59.4899 37.31C59.4899 34.74 56.5099 33.31 54.4999 34.91L43.7699 43.49H33.9999"  stroke-width="3" stroke-miterlimit="10" stroke-linejoin="round"/>
<path d="M35 27.5H26"  stroke-width="3" stroke-miterlimit="10" stroke-linejoin="round"/>
<path d="M18 27.5H14.5C13.95 27.5 13.5 27.05 13.5 26.5V20"  stroke-width="3" stroke-miterlimit="10" stroke-linejoin="round"/>
<path d="M39.81 17.11L37.53 10.42C37.07 9.26001 35.95 8.51001 34.7 8.51001H19.8C19.06 8.51001 18.42 9.05001 18.3 9.78001L16.54 16.51H39.37L47.83 19.42C48.23 19.56 48.5 19.94 48.5 20.37V26.51C48.5 27.06 48.05 27.51 47.5 27.51H42"  stroke-width="3" stroke-miterlimit="10" stroke-linejoin="round"/>
<path d="M27.5 8V17"  stroke-width="3" stroke-miterlimit="10" stroke-linejoin="round"/>
<path d="M21.5 30.5C23.7091 30.5 25.5 28.7091 25.5 26.5C25.5 24.2909 23.7091 22.5 21.5 22.5C19.2909 22.5 17.5 24.2909 17.5 26.5C17.5 28.7091 19.2909 30.5 21.5 30.5Z"  stroke-width="3" stroke-miterlimit="10" stroke-linejoin="round"/>
<path d="M38.5 30.5C40.7091 30.5 42.5 28.7091 42.5 26.5C42.5 24.2909 40.7091 22.5 38.5 22.5C36.2909 22.5 34.5 24.2909 34.5 26.5C34.5 28.7091 36.2909 30.5 38.5 30.5Z"  stroke-width="3" stroke-miterlimit="10" stroke-linejoin="round"/>
</svg>
