<svg width="32" height="32" viewBox="0 0 32 32" fill="none" xmlns="http://www.w3.org/2000/svg">
<path d="M10.9999 23H14.7999C15.8999 23 16.7999 22.1 16.7999 21C16.7999 19.9 15.8999 19 14.7999 19H11.7699C10.3299 19 8.8999 19.23 7.5399 19.69C5.7699 20.28 4.2699 21.48 3.3099 23.08L2.3999 24.6"  stroke-width="2" stroke-miterlimit="10" stroke-linejoin="round"/>
<path d="M7.70996 30.4299L9.79996 27.6399C10.1 27.2399 10.58 26.9999 11.08 26.9999H19.65C20.79 26.9999 21.88 26.5499 22.68 25.7399L28.05 20.8599C28.65 20.3099 29 19.5299 29 18.7099C29 17.2499 27.29 16.4599 26.18 17.4099L22 20.9999H16"  stroke-width="2" stroke-miterlimit="10" stroke-linejoin="round"/>
<path d="M18 13H13"  stroke-width="2" stroke-miterlimit="10" stroke-linejoin="round"/>
<path d="M10 13H7V10"  stroke-width="2" stroke-miterlimit="10" stroke-linejoin="round"/>
<path d="M20.36 8.04L19.15 5.02C18.91 4.4 18.31 4 17.65 4H9.74C9.35 4 9.01 4.29 8.94 4.67L8 8H20.04L24 9.71V13H21"  stroke-width="2" stroke-miterlimit="10" stroke-linejoin="round"/>
<path d="M14 5V8"  stroke-width="2" stroke-miterlimit="10" stroke-linejoin="round"/>
<path d="M11.5 14C12.3284 14 13 13.3284 13 12.5C13 11.6716 12.3284 11 11.5 11C10.6716 11 10 11.6716 10 12.5C10 13.3284 10.6716 14 11.5 14Z"  stroke-width="2" stroke-miterlimit="10" stroke-linejoin="round"/>
<path d="M19.5 14C20.3284 14 21 13.3284 21 12.5C21 11.6716 20.3284 11 19.5 11C18.6716 11 18 11.6716 18 12.5C18 13.3284 18.6716 14 19.5 14Z"  stroke-width="2" stroke-miterlimit="10" stroke-linejoin="round"/>
</svg>
