<svg width="40" height="40" viewBox="0 0 40 40" fill="none" xmlns="http://www.w3.org/2000/svg">
<path d="M14 29H18.5C19.88 29 21 27.88 21 26.5C21 25.12 19.88 24 18.5 24H14.71C12.91 24 11.13 24.29 9.42 24.86C7.21 25.6 5.34 27.1 4.14 29.1L3 31"  stroke-width="2" stroke-miterlimit="10" stroke-linejoin="round"/>
<path d="M11 38L13.4 34.8C13.78 34.3 14.37 34 15 34H24.93C26.26 34 27.53 33.47 28.47 32.54L35.58 26.26C36.49 25.46 37.01 24.31 37.01 23.1V22.94C37.01 21.35 35.17 20.47 33.94 21.46L27 27H21"  stroke-width="2" stroke-miterlimit="10" stroke-linejoin="round"/>
<path d="M22 17H16"  stroke-width="2" stroke-miterlimit="10" stroke-linejoin="round"/>
<path d="M11 17H8V13"  stroke-width="2" stroke-miterlimit="10" stroke-linejoin="round"/>
<path d="M25.25 10L23.75 6.26C23.45 5.5 22.71 5 21.89 5H12.09C11.6 5 11.18 5.35 11.1 5.84L10 10H25L31 12V17H27"  stroke-width="2" stroke-miterlimit="10" stroke-linejoin="round"/>
<path d="M17 5V10"  stroke-width="2" stroke-miterlimit="10" stroke-linejoin="round"/>
<path d="M13.5 19C14.8807 19 16 17.8807 16 16.5C16 15.1193 14.8807 14 13.5 14C12.1193 14 11 15.1193 11 16.5C11 17.8807 12.1193 19 13.5 19Z"  stroke-width="2" stroke-miterlimit="10" stroke-linejoin="round"/>
<path d="M24.5 19C25.8807 19 27 17.8807 27 16.5C27 15.1193 25.8807 14 24.5 14C23.1193 14 22 15.1193 22 16.5C22 17.8807 23.1193 19 24.5 19Z"  stroke-width="2" stroke-miterlimit="10" stroke-linejoin="round"/>
</svg>
