<svg width="24" height="24" viewBox="0 0 24 24" fill="none" xmlns="http://www.w3.org/2000/svg">
<path d="M8 17H11.1C11.93 17 12.6 16.33 12.6 15.5C12.6 14.67 11.93 14 11.1 14H8.83C7.75 14 6.68 14.17 5.66 14.52C4.33 14.96 3.21 15.86 2.49 17.06L2 18"  stroke-width="2" stroke-miterlimit="10" stroke-linejoin="round"/>
<path d="M5.79004 22.8201L7.36004 20.7301C7.58004 20.4301 8.00004 20.0001 9.00004 20.0001H14.74C16 20.0001 16.41 19.9101 17.01 19.3101L21.04 15.6501C21.49 15.2401 21.75 14.6501 21.75 14.0401C21.75 12.9401 20.47 12.3501 19.63 13.0701L16 16.0001H12"  stroke-width="2" stroke-miterlimit="10" stroke-linejoin="round"/>
<path d="M14 10H9"  stroke-width="2" stroke-miterlimit="10" stroke-linejoin="round"/>
<path d="M7 10H5V6H16L19 7V10H16"  stroke-width="2" stroke-miterlimit="10" stroke-linejoin="round"/>
<path d="M15.2401 6.06L14.2101 2.71C14.0901 2.29 13.7001 2 13.2601 2H7.80008C7.33008 2 6.93008 2.32 6.83008 2.78L6.08008 6.06"  stroke-width="2" stroke-miterlimit="10" stroke-linejoin="round"/>
<path d="M10 2V5"  stroke-width="2" stroke-miterlimit="10" stroke-linejoin="round"/>
<path d="M8 12C9.10457 12 10 11.1046 10 10C10 8.89543 9.10457 8 8 8C6.89543 8 6 8.89543 6 10C6 11.1046 6.89543 12 8 12Z"/>
<path d="M15 12C16.1046 12 17 11.1046 17 10C17 8.89543 16.1046 8 15 8C13.8954 8 13 8.89543 13 10C13 11.1046 13.8954 12 15 12Z"/>
</svg>
