<svg width="32" height="32" viewBox="0 0 32 32" fill="none" xmlns="http://www.w3.org/2000/svg">
<path fill-rule="evenodd" clip-rule="evenodd" d="M5.33491 0H26.6651C29.6102 0 32 2.38922 32 5.33333V26.6667C32 29.6108 29.6102 32 26.6651 32H5.33491C2.38046 32 0 29.6108 0 26.6667V5.33333C0 2.38922 2.38046 0 5.33491 0Z" fill="#003399"/>
<path fill-rule="evenodd" clip-rule="evenodd" d="M2.65039 26.647H5.12274V16.0273H2.65039V26.647Z" fill="#FFFF00"/>
<path fill-rule="evenodd" clip-rule="evenodd" d="M17.6435 23.7158C17.6435 23.8469 17.6341 23.9874 17.606 24.1185C17.606 24.1372 17.5873 24.1934 17.5779 24.2027C17.5686 24.2121 17.5686 24.2309 17.5592 24.2402C17.3438 24.7553 16.7538 25.2516 15.9766 25.2516C15.2929 25.2516 14.8247 24.8957 14.8247 24.2309C14.8247 23.4816 15.4615 23.0977 16.4167 22.9479C16.6414 22.9104 16.8849 22.8917 17.1471 22.8823C17.3064 22.873 17.4655 22.873 17.6342 22.873V23.7158H17.6435ZM16.2294 18.4621C14.7123 18.4621 13.5792 18.8554 12.9611 19.2113L13.4293 20.7752C13.9912 20.4381 14.9464 20.1384 15.8174 20.1384C17.2689 20.1384 17.5686 20.8688 17.5686 21.2434V21.3278C14.3565 21.3183 12.3711 22.3579 12.3711 24.4182C12.3711 25.6262 13.3357 26.8529 15.1056 26.8529C16.1639 26.8529 17.0535 26.4691 17.5967 25.8323H17.6248L17.8964 26.6563H19.9098V21.9458C19.9098 20.026 18.9639 18.4621 16.2294 18.4621Z" fill="#FFFF00"/>
<path fill-rule="evenodd" clip-rule="evenodd" d="M26.7461 18.6962V23.3599C26.7461 23.5472 26.7274 23.7157 26.6618 23.8656C26.4652 24.3432 25.9782 24.8863 25.1729 24.8863C24.1614 24.8863 23.7213 24.1465 23.7213 22.9011V18.6868H21.3052V23.3411C21.3052 23.9686 21.3801 24.493 21.5299 24.9332C21.6798 25.3733 21.8858 25.7292 22.148 26.0101C22.4102 26.2911 22.7193 26.5065 23.0845 26.6376C23.4497 26.7687 23.8524 26.8343 24.2832 26.8343C24.6671 26.8343 25.0043 26.7874 25.2946 26.6938C25.5849 26.6001 25.8471 26.4877 26.0532 26.3566C26.2685 26.2255 26.4465 26.0851 26.5869 25.9352C26.7274 25.7853 26.8398 25.6449 26.9241 25.5231L27.2331 26.6563H29.1903V18.6962H26.7461Z" fill="#FFFF00"/>
<path fill-rule="evenodd" clip-rule="evenodd" d="M7.45445 16.0273V18.6869H6.32129V20.5036H7.45445V23.7439C7.45445 24.8114 7.66989 25.6169 8.1287 26.1038C8.53143 26.5346 9.22441 26.8436 10.0766 26.8436C10.8071 26.8436 11.088 26.7312 11.4158 26.6095V24.7646C11.3502 24.7927 11.1536 24.8301 10.91 24.8301C10.0485 24.8301 9.85188 24.2964 9.85188 23.3224V20.5036H11.3877V18.6869H9.85188V16.0273H7.45445Z" fill="#FFFF00"/>
<path fill-rule="evenodd" clip-rule="evenodd" d="M25.8284 16.0273L24.3394 18.1718H26.0625L28.1696 16.0273H25.8284Z" fill="#FFFF00"/>
</svg>
