<svg width="186" height="257" viewBox="0 0 186 257" fill="none" xmlns="http://www.w3.org/2000/svg">
<path d="M65.479 150.81C61.4877 152.766 57.2281 153.885 52.7113 153.885C45.0194 153.885 40.1225 151.782 35.125 147.097C46.607 142.938 56.1436 144.749 65.479 150.81Z" fill="#FF946C"/>
<path d="M32.1174 144.033C15.951 125.964 23.71 88.9852 24.5038 81.7953L49.0218 84.9151C47.4566 99.362 49.2342 116.437 52.6441 121.189C58.5584 117.085 69.023 98.7134 75.105 81.3816L105.526 92.0491C100.059 107.648 86.3522 140.601 65.4789 150.787C56.1435 144.727 46.6069 142.915 35.1249 147.075C34.1298 146.147 33.146 145.152 32.1174 144.011V144.033Z" fill="#FF946C"/>
<path d="M158.051 153.337L82.0257 154.925C82.0257 154.925 76.0891 236.63 74.7363 255.181L122.285 256.456L122.9 241.405L127.562 256.747L172.484 255.382C172.484 255.382 166.905 169.785 158.062 153.359L158.051 153.337Z" fill="#561DFF"/>
<path d="M164.848 255.662H164.859C164.937 255.662 164.993 255.584 164.982 255.505L159.157 197.08C159.157 197.002 159.09 196.946 159.001 196.957C158.923 196.957 158.867 197.035 158.878 197.114L164.703 255.539C164.703 255.606 164.77 255.662 164.837 255.662H164.848Z" fill="#3D17E0"/>
<path d="M123.213 242.68C123.213 242.68 123.258 242.68 123.269 242.669C123.336 242.635 123.37 242.557 123.336 242.478L118.193 231.531L113.498 195.515C113.498 195.436 113.43 195.392 113.341 195.392C113.263 195.392 113.207 195.47 113.218 195.548L117.914 231.587C117.914 231.587 117.914 231.621 117.925 231.632L123.068 242.601C123.068 242.601 123.146 242.68 123.191 242.68H123.213Z" fill="#3D17E0"/>
<path d="M117.4 225.885C117.4 225.885 117.5 225.851 117.523 225.807C117.556 225.739 117.523 225.65 117.456 225.616L110.133 222.284L105.448 193.703C105.437 193.625 105.359 193.569 105.292 193.592C105.213 193.603 105.169 193.681 105.18 193.748L109.875 222.407C109.875 222.407 109.909 222.497 109.954 222.508L117.344 225.862C117.344 225.862 117.377 225.874 117.4 225.874V225.885Z" fill="#3D17E0"/>
<path d="M159.716 217.632C160.286 217.632 160.6 217.599 160.611 217.599C160.689 217.599 160.745 217.521 160.734 217.442C160.734 217.364 160.667 217.308 160.577 217.319C160.532 217.319 156.396 217.733 151.152 215.474C146.3 213.395 139.491 208.53 134.539 197.248C134.505 197.181 134.427 197.147 134.349 197.181C134.282 197.214 134.248 197.293 134.282 197.36C139.268 208.732 146.155 213.629 151.063 215.732C154.931 217.398 158.207 217.621 159.727 217.621L159.716 217.632Z" fill="#3D17E0"/>
<path d="M77.7771 213.574C77.8441 213.574 77.9001 213.529 77.9112 213.462C77.956 213.26 78.6603 212.522 79.4764 211.673C82.8417 208.162 90.7237 199.932 90.8914 190.382C90.8914 190.304 90.8355 190.237 90.7572 190.237C90.6789 190.237 90.623 190.293 90.623 190.371C90.4441 199.809 82.6181 207.983 79.2864 211.471C78.1907 212.612 77.6988 213.137 77.6429 213.406C77.6317 213.484 77.6765 213.551 77.7547 213.574H77.7771Z" fill="#3D17E0"/>
<path d="M69.8167 116.18L84.1832 124.331L87.2913 113.451L69.8167 116.18Z" fill="#A0BCB4"/>
<path d="M169.834 135.457C167.352 125.919 161.785 112.188 155.211 100.38L179.639 86.7714C186.325 98.7471 194.889 116.426 197.897 132.673C188.74 131.968 179.572 131.957 169.834 135.457Z" fill="#FF946C"/>
<path d="M167.99 201.296L87.5711 193.312L140.028 180.576L166.782 192.518L167.99 201.296Z" fill="#A0BCB4"/>
<path d="M113.084 55.1268C114.962 54.7019 116.102 54.5118 116.102 54.5118L132.56 54.1875C133.052 54.3217 133.532 54.467 134.013 54.6124C130.1 64.2288 126.12 73.8452 120.284 83.4504C115.063 74.6279 114.47 64.2959 113.095 55.1268H113.084Z" fill="#A0BCB4"/>
<path d="M56.1215 111.327C56.1215 111.327 69.6494 83.1596 82.2494 70.5241C91.9538 60.7959 106.779 56.558 113.084 55.1156C114.459 64.2959 115.052 74.6279 120.273 83.4392C126.109 73.834 130.089 64.2176 134.002 54.6012C163.842 63.3454 170.93 77.5463 170.93 77.5463C170.93 77.5463 165.161 117.835 164.848 133.579C164.502 150.877 167.598 192.842 167.598 192.842L79.1861 194.844C77.878 160.739 81.2097 118.561 81.2097 118.561C63.8469 116.459 56.0991 111.316 56.0991 111.316L56.1215 111.327Z" fill="#C3E5DC"/>
<path d="M166.234 124.622L163.126 116.56L180.02 111.696L184.425 115.643C184.425 115.643 175.861 120.496 166.223 124.611L166.234 124.622Z" fill="#A0BCB4"/>
<path d="M81.232 118.729C81.3103 118.729 81.3662 118.673 81.3773 118.595C82.5065 109.929 83.5687 98.7471 83.5798 98.6353C83.5798 98.557 83.5239 98.4787 83.4457 98.4675H83.4345C83.3562 98.4675 83.2891 98.5234 83.2891 98.6017C83.278 98.7135 82.2047 109.895 81.0867 118.561C81.0867 118.64 81.1314 118.718 81.2208 118.729H81.2432H81.232Z" fill="#A0BCB4"/>
<path d="M82.3834 107.447C82.3834 107.447 82.4281 107.447 82.4505 107.435C82.5287 107.402 82.5623 107.312 82.5176 107.234C81.2207 104.618 81.0753 99.3174 81.0753 99.2614C81.0753 99.1832 81.0083 99.1161 80.93 99.1161C80.8406 99.1161 80.7847 99.1832 80.7847 99.2726C80.7847 99.4963 80.9412 104.685 82.2604 107.368C82.2828 107.424 82.3387 107.458 82.3946 107.458L82.3834 107.447Z" fill="#A0BCB4"/>
<path d="M84.6753 85.5638C84.7423 85.5638 84.8094 85.5079 84.8206 85.4408C85.1672 83.2603 81.8467 74.8404 81.7013 74.4826C81.6678 74.4043 81.5895 74.3708 81.5113 74.4043C81.433 74.4379 81.3995 74.5161 81.433 74.5944C81.4666 74.6839 84.8765 83.2939 84.5411 85.3961C84.5299 85.4743 84.5858 85.5526 84.6641 85.5638C84.6641 85.5638 84.6753 85.5638 84.6864 85.5638H84.6753Z" fill="#A0BCB4"/>
<path d="M123.235 180.129C123.235 180.129 123.291 180.129 123.314 180.106C123.381 180.062 123.403 179.972 123.37 179.894C119.691 173.677 107.628 149.971 107.505 149.725C107.471 149.647 107.371 149.625 107.304 149.658C107.226 149.692 107.203 149.781 107.237 149.859C107.36 150.094 119.423 173.822 123.112 180.039C123.146 180.084 123.191 180.117 123.247 180.117L123.235 180.129Z" fill="#A0BCB4"/>
<path d="M108.523 168.265C108.523 168.265 108.556 168.265 108.578 168.265C108.657 168.231 108.701 168.153 108.668 168.074L104.721 157.273C104.688 157.194 104.61 157.161 104.531 157.183C104.453 157.217 104.408 157.295 104.442 157.373L108.388 168.175C108.411 168.231 108.467 168.276 108.534 168.276L108.523 168.265Z" fill="#A0BCB4"/>
<path d="M48.8765 84.5573C48.8765 84.5573 53.1138 75.7349 48.4069 67.874C45.6454 63.2671 37.9759 58.5819 37.9759 58.5819C37.9759 58.5819 19.674 68.4778 20.3224 73.1854C20.9709 77.8929 31.8715 94.006 31.8715 94.006L48.8653 84.5573H48.8765Z" fill="#FF946C"/>
<path d="M39.6864 74.8625C39.977 74.8401 40.2789 74.7842 40.5696 74.6724C42.2354 74.0686 43.0963 72.2124 42.4926 70.5463C42.4478 70.4233 38.0317 58.291 36.4441 52.3087L34.8006 46.1028C34.3423 44.3808 32.5982 43.3521 30.8652 43.8217C29.1435 44.2802 28.1261 46.0357 28.5845 47.7577L30.228 53.9637C31.8938 60.2367 36.2652 72.2571 36.4441 72.7603C36.9472 74.1357 38.3 74.9632 39.6864 74.8737V74.8625Z" fill="#FF946C"/>
<path d="M33.5932 74.2142C33.951 74.1918 34.3087 74.1024 34.6553 73.957C36.2876 73.2414 37.0255 71.3516 36.3099 69.7191C33.1572 62.5068 27.9808 49.849 27.4777 46.5615C27.2094 44.8059 25.5659 43.5983 23.8106 43.8667C22.0553 44.135 20.8479 45.7788 21.1162 47.5343C21.8988 52.7227 29.546 70.3117 30.418 72.3021C30.9771 73.588 32.2739 74.3148 33.5932 74.2254V74.2142Z" fill="#FF946C"/>
<path d="M27.9584 74.2029C28.4168 74.1694 28.8752 74.0352 29.3 73.8004C30.854 72.9282 31.4019 70.9714 30.541 69.4171C30.4627 69.2829 23.2963 56.4238 21.541 51.2466C20.9708 49.5582 19.1484 48.6636 17.4602 49.2227C15.772 49.793 14.8777 51.6156 15.4478 53.3041C17.382 59.0292 24.6155 72.0001 24.9174 72.548C25.5435 73.6662 26.7509 74.27 27.9472 74.1918L27.9584 74.2029Z" fill="#FF946C"/>
<path d="M24.6719 77.1213C25.2868 77.0766 25.8906 76.8641 26.416 76.4504C27.8135 75.3546 28.0707 73.3418 26.9862 71.9329C26.9079 71.8323 19.2272 61.9475 16.7787 58.0115C15.8396 56.502 13.8495 56.0435 12.3514 56.9828C10.8421 57.9221 10.3837 59.9124 11.3228 61.4108C13.9502 65.6264 21.5862 75.4552 21.9104 75.8689C22.5924 76.7523 23.6433 77.1772 24.6831 77.0989L24.6719 77.1213Z" fill="#FF946C"/>
<path d="M38.557 84.4119C38.557 84.4119 38.5793 84.4007 38.5905 84.3896C38.7135 84.3113 38.747 84.1436 38.6688 84.0206C32.9557 75.0974 40.4352 69.1151 40.7595 68.8691C40.8713 68.7797 40.8936 68.612 40.8042 68.489C40.7147 68.3771 40.5359 68.3548 40.4241 68.4442C40.3458 68.5113 32.2402 74.9633 38.2104 84.3113C38.2886 84.4231 38.4228 84.4678 38.5458 84.4119H38.557Z" fill="#C96649"/>
<path d="M21.9882 71.4076C21.9882 71.4076 22.0329 71.3852 22.0665 71.374C22.1783 71.3069 32.9224 64.5867 37.0255 62.5404C37.1596 62.4733 37.2155 62.3167 37.1485 62.1826C37.0814 62.0484 36.9249 61.9925 36.7907 62.0596C32.6652 64.117 21.8988 70.8485 21.787 70.9156C21.664 70.9938 21.6193 71.1616 21.6975 71.2846C21.7646 71.3852 21.8876 71.4299 21.9994 71.3964L21.9882 71.4076Z" fill="#C96649"/>
<path d="M24.884 69.5848C24.884 69.5848 24.9622 69.5736 24.9958 69.5401C25.0964 69.473 25.1076 69.3388 25.0405 69.2382L19.238 61.4109C19.1709 61.3102 19.0368 61.299 18.9361 61.3661C18.8355 61.4332 18.8243 61.5674 18.8914 61.6681L24.6939 69.4953C24.7386 69.5512 24.8057 69.5848 24.8728 69.5848H24.884Z" fill="#C96649"/>
<path d="M29.5909 66.3197C29.5909 66.3197 29.6579 66.3085 29.6915 66.2861C29.7921 66.2191 29.8256 66.0961 29.7586 65.9954L24.9399 58.0228C24.884 57.9221 24.7499 57.8886 24.6493 57.9557C24.5486 58.0228 24.5151 58.1458 24.5822 58.2464L29.4008 66.2191C29.4455 66.2861 29.5238 66.3309 29.5909 66.3197Z" fill="#C96649"/>
<path d="M34.3647 63.6691C34.3647 63.6691 34.4317 63.6691 34.4541 63.6467C34.5547 63.5908 34.5994 63.4566 34.5435 63.356L31.5811 57.8775C31.5252 57.7768 31.391 57.7321 31.2904 57.788C31.1898 57.8439 31.1451 57.9781 31.201 58.0787L34.1634 63.5573C34.2082 63.6355 34.2864 63.6691 34.3647 63.6691Z" fill="#412016"/>
<path d="M32.3296 62.6186L10.1594 67.7175L7.1967 49.0326L30.2613 47.6685L32.3296 62.6186Z" fill="#561DFF"/>
<path d="M9.81342 67.069C5.6544 67.6505 1.74136 64.2176 1.07055 59.4095C0.399737 54.6013 3.22831 50.2292 7.38733 49.6477C11.5463 49.0662 15.4594 52.4991 16.1302 57.3073C16.801 62.1155 13.9724 66.4876 9.81342 67.069Z" fill="#E2E2E2"/>
<path d="M10.2828 67.9861C14.8219 67.1474 17.8182 62.3952 17.0914 57.1732C16.7337 54.6126 15.5374 52.3203 13.7039 50.7213C11.8368 49.0888 9.54488 48.362 7.25295 48.675L6.91754 48.731C2.36723 49.5696 -0.617855 54.3219 0.108852 59.5438C0.857922 64.8775 5.27406 68.6905 9.94735 68.042L10.2828 67.9861ZM7.26412 50.6542L7.51009 50.6207C9.23183 50.3747 10.9759 50.9338 12.4182 52.1973C13.8939 53.4944 14.8666 55.3618 15.1573 57.4528C15.7387 61.6348 13.4467 65.4254 9.925 66.074L9.67903 66.1187C6.05667 66.6219 2.63556 63.5581 2.03184 59.2866C1.45047 55.1046 3.74239 51.314 7.26412 50.6654V50.6542Z" fill="#3D17E0"/>
<path d="M34.4653 54.7131C35.0131 58.8504 34.0181 62.395 32.2517 62.6298C30.474 62.8647 28.5958 59.7002 28.0479 55.5629C27.5001 51.4256 28.4952 47.881 30.2616 47.6462C32.0393 47.4114 33.9175 50.5758 34.4653 54.7131Z" fill="#2C4A62"/>
<path d="M20.3783 51.1237C20.6466 51.0789 20.8926 50.9336 21.0715 50.6988L24.3249 46.4385L26.941 46.0918L31.3013 48.4177C31.8491 48.7196 32.5311 48.5071 32.8217 47.9592C33.1124 47.4113 32.9112 46.7292 32.3634 46.4385L27.6901 43.9449C27.4777 43.8331 27.2429 43.7884 27.0193 43.8219L23.587 44.2804C23.2739 44.3027 23.028 44.4705 22.8379 44.7165L19.2938 49.3458C18.9137 49.8378 19.0143 50.5422 19.5062 50.9224C19.7746 51.1237 20.0876 51.1908 20.3895 51.1349L20.3783 51.1237Z" fill="#3D17E0"/>
<path d="M58.111 59.1856L35.9408 64.2845L32.9892 45.5997L56.0538 44.2355L58.111 59.1856Z" fill="#561DFF"/>
<path d="M35.6059 63.636C31.4469 64.2175 27.5339 60.7847 26.863 55.9765C26.1922 51.1683 29.0208 46.7962 33.1798 46.2147C37.3388 45.6333 41.2519 49.0661 41.9227 53.8743C42.5935 58.6825 39.7649 63.0546 35.6059 63.636Z" fill="#E2E2E2"/>
<path d="M36.0752 64.5529C40.6144 63.7143 43.6106 58.962 42.8839 53.7401C42.5262 51.1794 41.3299 48.8872 39.4963 47.2882C37.6293 45.6556 35.3373 44.9288 33.0454 45.2531L32.71 45.309C28.1709 46.1476 25.1746 50.8999 25.9013 56.1218C26.6504 61.4555 31.0665 65.2686 35.7398 64.62L36.0752 64.5641V64.5529ZM33.0566 47.2211L33.3026 47.1763C35.0243 46.9303 36.7684 47.4894 38.2106 48.753C39.6864 50.0501 40.6591 51.9174 40.9498 54.0084C41.5311 58.1905 39.2392 61.9811 35.7175 62.6296L35.4715 62.6744C31.8491 63.1776 28.428 60.1137 27.8243 55.8423C27.2429 51.6603 29.5349 47.8696 33.0566 47.2211Z" fill="#3D17E0"/>
<path d="M60.258 51.2801C60.8059 55.4174 59.8108 58.962 58.0444 59.1969C56.2779 59.4317 54.3885 56.2672 53.8407 52.1299C53.2928 47.9927 54.2879 44.448 56.0543 44.2132C57.832 43.9784 59.7102 47.1428 60.258 51.2801Z" fill="#3D17E0"/>
<path d="M22.7043 45.4541C22.5143 44.0565 23.498 42.7595 24.9066 42.5806C26.3151 42.4017 27.6007 43.3745 27.7796 44.7832C27.9697 46.1808 26.9859 47.4778 25.5773 47.6567C24.1688 47.8356 22.8832 46.8629 22.7043 45.4541Z" fill="#561DFF"/>
<path d="M47.4009 78.5191C48.5301 78.016 49.3015 76.8866 49.3015 75.5671C49.268 67.6168 49.7152 57.8886 50.4754 56.0325C51.1462 54.3887 50.3637 52.5102 48.709 51.8393C47.0655 51.1684 45.1872 51.9623 44.5164 53.606C42.9289 57.4973 42.8506 71.4187 42.873 75.6007C42.873 77.3786 44.3264 78.8099 46.104 78.8099C46.5736 78.8099 47.0096 78.7092 47.4121 78.5303L47.4009 78.5191Z" fill="#FF946C"/>
<path d="M35.6172 53.941C34.2712 53.941 33.1801 52.8497 33.1801 51.5036C33.1801 50.1574 34.2712 49.0662 35.6172 49.0662C36.9631 49.0662 38.0542 50.1574 38.0542 51.5036C38.0542 52.8497 36.9631 53.941 35.6172 53.941Z" fill="white"/>
<path d="M39.3958 55.7527C39.3958 54.9924 38.7809 54.3774 38.0207 54.3774C37.2605 54.3774 36.6457 54.9924 36.6457 55.7527C36.6457 56.513 37.2605 57.1279 38.0207 57.1279C38.7809 57.1279 39.3958 56.513 39.3958 55.7527Z" fill="white"/>
<path d="M9.9923 56.9601C8.64636 56.9601 7.55526 55.8689 7.55526 54.5227C7.55526 53.1766 8.64636 52.0853 9.9923 52.0853C11.3382 52.0853 12.4293 53.1766 12.4293 54.5227C12.4293 55.8689 11.3382 56.9601 9.9923 56.9601Z" fill="white"/>
<path d="M13.7596 58.772C13.7596 58.0117 13.1448 57.3967 12.3846 57.3967C11.6245 57.3967 11.0096 58.0117 11.0096 58.772C11.0096 59.5323 11.6245 60.1472 12.3846 60.1472C13.1448 60.1472 13.7596 59.5323 13.7596 58.772Z" fill="white"/>
<path d="M132.169 132.595C148.279 142.994 167.039 148.316 171.075 145.364C171.467 143.363 170.975 139.852 169.834 135.457C179.572 131.968 188.74 131.98 197.896 132.673C200.01 144.09 199.383 154.791 193.413 162.338C186.526 171.038 177.169 174.135 167.319 174.135C146.311 174.135 123.079 160.035 116.964 156.065L132.169 132.595Z" fill="#FF946C"/>
<path d="M180.221 170.613C175.827 162.26 191.222 151.358 197.953 152.834C197.069 156.345 195.605 159.565 193.413 162.349C189.858 166.845 185.632 169.819 181.026 171.675C180.735 171.362 180.444 171.049 180.221 170.624V170.613Z" fill="#FF946C"/>
<path d="M100.697 156.714C101.122 156.937 101.614 157.072 102.128 157.072L121.101 157.183C122.833 157.195 124.253 155.797 124.265 154.052C124.265 152.319 122.867 150.888 121.134 150.888L102.161 150.776C100.428 150.765 99.0086 152.163 98.9974 153.907C98.9974 155.126 99.6794 156.188 100.697 156.714Z" fill="#FF946C"/>
<path d="M103.727 135.58L110.435 136.419C110.513 136.419 110.591 136.385 110.636 136.318L111.061 135.625C111.117 135.524 111.083 135.401 110.994 135.334C110.905 135.267 110.77 135.3 110.703 135.401L110.357 135.983L103.783 135.155C103.671 135.144 103.57 135.222 103.548 135.334C103.537 135.446 103.604 135.546 103.716 135.569L103.727 135.58Z" fill="#412016"/>
<path d="M95.7887 135.804C96.0011 135.871 96.2247 135.915 96.4483 135.949L115.399 138.364C117.702 138.655 119.804 137.034 120.094 134.73C120.385 132.427 118.775 130.313 116.461 130.034L97.5104 127.619C95.2073 127.328 93.1055 128.949 92.8148 131.253C92.5464 133.321 93.8433 135.233 95.7887 135.815V135.804Z" fill="#FF946C"/>
<path d="M96.113 151.961C96.3255 152.028 96.5491 152.073 96.7727 152.107L115.723 154.522C118.026 154.813 120.128 153.191 120.419 150.888C120.709 148.584 119.077 146.493 116.785 146.192L97.8348 143.776C95.5317 143.486 93.4298 145.107 93.1391 147.41C92.8708 149.479 94.1677 151.391 96.113 151.973V151.961Z" fill="#FF946C"/>
<path d="M92.9042 145.074C93.2284 145.174 93.5639 145.23 93.9104 145.241L116.327 146.248C118.641 146.348 120.609 144.559 120.709 142.245C120.81 139.919 119.021 137.962 116.707 137.861L94.2906 136.855C91.9763 136.754 90.0086 138.543 89.9079 140.858C89.8185 142.826 91.1042 144.537 92.9042 145.074Z" fill="#FF946C"/>
<path d="M137.357 138.107C133.231 133.825 131.018 131.286 130.179 129.687C129.352 128.077 121.268 120.876 118.339 117.264C115.623 113.932 111.486 114.268 112.179 119.59C112.827 124.566 121.749 130.202 120.251 130.112C115.645 129.833 113.957 129.777 113.957 129.777L113.442 149.86L115.98 153.762L125.785 154.131L137.357 138.119V138.107Z" fill="#FF946C"/>
<path d="M140.465 140.757C140.465 140.757 132.952 134.16 129.899 134.182C121.257 134.272 117.657 135.591 117.657 135.591C117.657 135.591 108.87 154.914 112.995 156.445C116.875 157.888 138.776 156.915 138.776 156.915L140.453 140.746L140.465 140.757Z" fill="#FF946C"/>
<path d="M117.232 120.026C117.724 119.646 118.272 119.187 118.305 119.165C118.395 119.087 118.406 118.964 118.328 118.874C118.25 118.785 118.127 118.762 118.037 118.852C118.026 118.863 116.863 119.836 116.416 120.115C116.092 119.914 115.052 118.147 115.008 117.074C115.008 116.806 115.052 116.627 115.186 116.582C115.298 116.537 115.343 116.414 115.298 116.314C115.254 116.213 115.131 116.157 115.03 116.202C114.862 116.28 114.639 116.459 114.605 116.895C114.516 117.969 115.634 120.104 116.215 120.473C116.394 120.585 116.528 120.54 116.584 120.507C116.74 120.417 116.986 120.238 117.243 120.037L117.232 120.026Z" fill="#C96649"/>
<path d="M93.7651 145.197C93.7651 145.197 93.7651 145.23 93.7651 145.241C93.7651 145.331 93.8322 145.398 93.9105 145.409L107.986 146.058C108.076 146.058 108.143 145.991 108.154 145.912C108.154 145.823 108.087 145.756 108.009 145.745L93.9328 145.096C93.8657 145.096 93.7986 145.141 93.7763 145.197H93.7651Z" fill="#C96649"/>
<path d="M103.492 152.7C103.492 152.7 103.492 152.733 103.481 152.755C103.481 152.845 103.548 152.912 103.638 152.912L109.518 152.945C109.607 152.945 109.663 152.878 109.674 152.789C109.674 152.7 109.607 152.632 109.518 152.632L103.638 152.599C103.571 152.599 103.515 152.644 103.492 152.7Z" fill="#C96649"/>
<path d="M94.8278 134.227C94.8278 134.227 94.9396 134.227 94.9843 134.193C95.0514 134.137 95.0626 134.026 95.0067 133.958C93.8329 132.516 95.0961 130.783 95.398 130.414L99.3553 130.996C99.9813 132.136 99.087 134.73 99.0758 134.763C99.0423 134.853 99.087 134.942 99.1765 134.976C99.2659 134.998 99.3553 134.954 99.3777 134.875C99.4224 134.763 100.361 131.991 99.5789 130.761C99.5565 130.727 99.5118 130.694 99.4559 130.682L95.3309 130.079C95.3309 130.079 95.2191 130.09 95.1856 130.135C95.1632 130.157 93.2516 132.382 94.7272 134.182C94.7496 134.204 94.7831 134.227 94.8055 134.238L94.8278 134.227Z" fill="#C96649"/>
<path d="M92.6924 143.731C92.6924 143.731 92.8042 143.731 92.8489 143.698C92.916 143.642 92.9272 143.53 92.8713 143.463C91.6975 142.021 92.9607 140.288 93.2626 139.919L97.2199 140.5C97.846 141.64 96.9516 144.234 96.9405 144.268C96.9069 144.357 96.9516 144.447 97.0411 144.48C97.1305 144.503 97.2199 144.458 97.2423 144.38C97.287 144.268 98.2261 141.495 97.4435 140.265C97.4212 140.232 97.3764 140.198 97.3206 140.187L93.1955 139.583C93.1955 139.583 93.0837 139.594 93.0502 139.639C93.0278 139.661 91.1162 141.886 92.5918 143.686C92.6142 143.709 92.6477 143.731 92.6701 143.742L92.6924 143.731Z" fill="#C96649"/>
<path d="M95.3867 151.391C95.3867 151.391 95.4985 151.391 95.532 151.335C95.5991 151.268 95.5879 151.156 95.532 151.1C94.157 149.848 95.1631 147.947 95.409 147.533H99.4111C100.194 148.584 99.6794 151.279 99.6794 151.279C99.6571 151.402 99.713 151.491 99.8024 151.503C99.8918 151.514 99.9813 151.458 99.9924 151.368C100.015 151.246 100.551 148.372 99.6012 147.265C99.5676 147.232 99.5229 147.209 99.4782 147.209H95.3084C95.2525 147.209 95.1966 147.232 95.1631 147.276C95.1519 147.299 93.5645 149.77 95.2972 151.346C95.3196 151.368 95.3531 151.38 95.3867 151.391Z" fill="#C96649"/>
<path d="M101.245 156.904C101.245 156.904 101.335 156.904 101.368 156.87C101.424 156.825 101.413 156.758 101.346 156.714C100.105 155.864 100.921 154.69 101.122 154.433L104.61 154.589C105.325 155.282 104.968 156.982 104.968 156.993C104.957 157.049 105.012 157.105 105.091 157.127C105.169 157.138 105.236 157.105 105.247 157.049C105.27 156.971 105.638 155.159 104.778 154.422C104.744 154.399 104.711 154.377 104.666 154.377L101.033 154.209C101.033 154.209 100.943 154.22 100.91 154.254C100.899 154.265 99.6018 155.786 101.156 156.859C101.178 156.87 101.212 156.881 101.234 156.893L101.245 156.904Z" fill="#C96649"/>
<path d="M158.979 65.8726C172.708 74.9746 185.654 91.0988 195.795 114.469C195.795 114.469 187.007 117.175 180.735 117.141C174.474 117.108 166.883 116.906 160.667 122.195C160.667 122.195 153.02 97.5954 152.528 96.5891C152.036 95.5827 158.967 65.8837 158.967 65.8837L158.979 65.8726Z" fill="#C3E5DC"/>
<path d="M160.566 122.151C160.566 122.151 160.622 122.151 160.656 122.128C160.667 122.128 162.187 121.122 164.345 119.814C164.412 119.769 164.435 119.68 164.39 119.612C164.345 119.534 164.256 119.523 164.189 119.568C162.445 120.63 161.114 121.491 160.656 121.782L153.333 98.7025C153.31 98.6242 153.221 98.5795 153.143 98.6018C153.064 98.6242 153.02 98.7136 153.042 98.7919L160.432 122.061C160.432 122.061 160.477 122.14 160.522 122.162C160.533 122.162 160.555 122.162 160.566 122.162V122.151Z" fill="#A0BCB4"/>
<path d="M154.35 87.4645C154.35 87.4645 154.428 87.4533 154.462 87.4197C162.075 79.4024 170.226 77.8705 170.304 77.8593C170.382 77.8481 170.438 77.7698 170.427 77.6804C170.416 77.6021 170.326 77.5574 170.248 77.5574C170.17 77.5686 161.908 79.1228 154.238 87.2073C154.182 87.2632 154.182 87.3638 154.238 87.4197C154.272 87.4421 154.305 87.4645 154.339 87.4645H154.35Z" fill="#A0BCB4"/>
<path d="M118.585 22.3416C123.034 22.5541 127.417 23.5381 131.766 24.5221C134.55 25.1482 137.356 25.7856 139.961 26.9597C141.079 26.0092 142.186 25.0588 143.304 24.1195C143.651 23.8288 143.997 23.5269 144.187 23.1243C144.366 22.733 144.388 22.2969 144.4 21.8608C144.433 20.15 144.176 18.126 142.656 17.3321C142.219 17.1085 141.739 17.0079 141.28 16.8401C138.966 15.9568 137.96 13.2955 137.188 10.9361C136.417 8.57675 135.344 5.92666 132.996 5.12156C132.325 4.89793 131.61 4.84202 130.905 4.8532C130.424 4.8532 129.944 4.89793 129.474 5.02093C128.747 5.2222 128.099 5.65829 127.417 5.99375C125.058 7.15666 122.162 7.14548 119.803 5.97138C118.227 5.17747 116.93 3.92511 115.533 2.84047C114.169 1.75583 112.536 0.794189 110.77 0.794189C110.01 0.794189 109.26 0.961917 108.545 1.20792C108.064 1.36446 107.583 1.56574 107.203 1.90119C106.175 2.80692 106.164 4.42829 106.622 5.72538C106.823 6.28447 107.092 6.83239 107.17 7.41384C107.259 8.00648 107.114 8.66621 106.633 9.02403C106.141 9.38185 105.459 9.30357 104.9 9.52721C104.073 9.86266 103.648 10.8019 103.48 11.6741C102.944 14.3242 104.006 17.2315 106.108 18.92C106.98 19.6132 107.997 20.1052 109.015 20.5637C110.345 21.1451 111.72 21.6707 113.14 21.9502C114.929 22.2969 116.762 22.2633 118.574 22.3416H118.585Z" fill="#231714"/>
<path d="M114.381 34.239C114.381 34.239 111.161 30.5042 108.198 31.3541C105.235 32.2039 104.453 38.421 107.483 39.8411C110.513 41.25 114.403 39.0583 114.403 39.0583L114.381 34.239Z" fill="#FF946C"/>
<path d="M108.478 38.51C108.478 38.51 108.568 38.4876 108.59 38.4429C108.624 38.3758 108.59 38.3087 108.534 38.2752C108.456 38.2416 106.745 37.3248 107.427 35.2676C107.707 34.4066 108.076 33.8923 108.59 33.6463C109.238 33.3445 110.155 33.4675 111.653 34.06C111.72 34.0824 111.787 34.06 111.821 33.993C111.843 33.9259 111.821 33.8588 111.754 33.8252C110.155 33.1991 109.205 33.0761 108.489 33.4116C107.908 33.6799 107.494 34.2501 107.193 35.1781C106.444 37.4478 108.411 38.4876 108.433 38.4988C108.456 38.4988 108.467 38.51 108.489 38.51H108.478Z" fill="#C96649"/>
<path d="M110.803 16.8512C109.182 19.0875 109.484 24.0747 110.423 28.5138C111.362 32.953 111.988 20.0492 111.988 20.0492L115.107 16.4263L110.792 16.8624L110.803 16.8512Z" fill="#231714"/>
<path d="M115.823 46.4387L115.119 54.4672C115.119 54.4672 121.726 58.4368 133.913 54.6909L134.651 38.5107L124.331 45.5777L115.823 46.4499V46.4387Z" fill="#FF946C"/>
<path d="M115.577 49.3008L115.834 46.4494L124.343 45.5772L127.786 43.2179L129.933 43.1843C125.785 49.4238 117.623 49.4014 115.577 49.3008Z" fill="#C96649"/>
<path d="M110.77 19.0539C109.875 21.4133 110.837 25.0027 110.065 29.9115C109.294 34.8203 107.08 45.1523 116.55 47.3552C126.019 49.558 134.315 41.7307 134.315 41.7307L138.474 26.255C140.408 19.0651 135.903 13.2058 128.647 11.5174C128.479 11.4838 128.311 11.4391 128.132 11.4056C113.911 8.59892 110.758 19.0539 110.758 19.0539H110.77Z" fill="#FF946C"/>
<path d="M138.72 32.7182L141.482 21.0443L133.544 18.5508C133.544 18.5508 133.812 22.6881 133.723 27.6752C133.633 32.6623 132.75 34.675 132.75 34.675L138.731 32.7182H138.72Z" fill="#231714"/>
<path d="M133.991 34.5858C133.991 34.5858 137.345 30.9629 140.263 31.9245C143.192 32.8861 143.762 39.1256 140.677 40.4227C137.591 41.7198 133.79 39.394 133.79 39.394L133.991 34.5858Z" fill="#FF946C"/>
<path d="M139.738 39.0691C139.738 39.0691 139.771 39.0691 139.793 39.0579C139.816 39.0579 141.817 38.0852 141.146 35.782C140.878 34.8316 140.487 34.2614 139.916 33.9707C139.201 33.6017 138.251 33.6912 136.63 34.2614C136.563 34.2837 136.529 34.362 136.552 34.4291C136.574 34.4962 136.652 34.5297 136.719 34.5074C138.24 33.9707 139.167 33.8701 139.793 34.2055C140.297 34.4626 140.643 34.9881 140.9 35.8602C141.504 37.951 139.76 38.7896 139.682 38.8343C139.615 38.8678 139.592 38.9349 139.626 39.002C139.648 39.0467 139.693 39.0691 139.738 39.0803V39.0691Z" fill="#C96649"/>
<path d="M128.927 45.3871C128.927 45.3871 128.971 45.3871 128.994 45.3647C129.117 45.2976 132.001 43.6429 133.264 42.3012C133.309 42.2453 133.309 42.167 133.264 42.1223C133.208 42.0776 133.13 42.0776 133.085 42.1223C131.844 43.4304 128.904 45.1187 128.871 45.1411C128.815 45.1746 128.792 45.2529 128.826 45.32C128.848 45.3647 128.893 45.3871 128.938 45.3871H128.927Z" fill="#C96649"/>
<path d="M114.672 17.8352C113.688 18.1148 112.916 18.864 112.067 19.4342C111.217 20.0045 110.077 20.3959 109.193 19.8927C108.344 17.7011 109.272 15.2522 110.289 13.1277C110.68 12.3002 111.105 11.4616 111.776 10.8466C112.95 9.77313 114.66 9.58304 116.248 9.47123C121.044 9.13577 125.852 9.0575 130.659 9.22522C131.095 9.23641 131.554 9.25877 131.945 9.44886C132.727 9.81786 133.074 10.7236 133.544 11.4504C134.952 13.6197 137.77 14.5142 139.279 16.6164C140.341 18.0812 140.621 20.0828 140.017 21.7936C139.413 23.5044 137.926 24.8686 136.182 25.3494C135.489 25.5395 134.55 25.8862 134.718 26.5794C134.27 24.0971 132.034 22.062 129.519 21.8272C127.395 21.6371 125.214 22.5987 123.157 22.0396C121.581 21.6147 120.385 20.3623 119.121 19.3224C117.858 18.2825 116.237 17.388 114.66 17.8241L114.672 17.8352Z" fill="#231714"/>
<path d="M133.913 54.6904C133.913 54.6904 124.164 63.6247 117.914 60.8852C111.664 58.1456 112.134 55.2272 112.134 55.2272L115.119 54.4668L133.913 54.6904Z" fill="#FF946C"/>
</svg>
