<svg width="24" height="24" viewBox="0 0 24 24" fill="none" stroke="transparent" stroke-width="0" xmlns="http://www.w3.org/2000/svg">
<path d="M11.8195 1H12.6805C13.0319 1.0592 13.3882 1.09902 13.7342 1.18136C16.5591 1.84976 18.6094 4.3705 18.6568 7.27603C18.6665 7.85617 18.6622 8.4363 18.6649 9.0159C18.6649 9.0907 18.6713 9.16605 18.6751 9.25H19.8806C20.3434 9.25 20.4995 9.40607 20.4995 9.86889C20.4995 13.5926 20.4995 17.3159 20.4995 21.0389C20.4995 22.2229 19.7218 22.9995 18.533 23H5.9659C4.77764 23 4 22.2245 4 21.0389C4 17.3159 4 13.5926 4 9.86889C4 9.40607 4.15607 9.25054 4.61835 9.25H5.83459C5.83459 8.66879 5.83836 8.11179 5.83459 7.55533C5.82598 6.46233 6.04985 5.42153 6.56541 4.45607C7.4297 2.84535 8.73743 1.76526 10.4977 1.25724C10.9277 1.13346 11.3776 1.08395 11.8195 1ZM15.9052 9.23978C15.9052 8.56062 15.9219 7.90191 15.8982 7.24428C15.8855 6.92995 15.8312 6.61869 15.7367 6.31864C15.4985 5.55367 15.0154 4.88823 14.3618 4.42478C13.7083 3.96132 12.9205 3.72555 12.1198 3.75377C11.3191 3.78162 10.5498 4.07141 9.92975 4.57868C9.30972 5.08594 8.87327 5.78265 8.68738 6.56189C8.63053 6.80476 8.59968 7.053 8.59535 7.3024C8.58244 7.94442 8.59105 8.58645 8.59105 9.23978H15.9052ZM12.2457 19.3362C12.5245 19.3362 12.8038 19.3416 13.0831 19.3362C13.4727 19.3265 13.6589 19.1102 13.6159 18.7275C13.5281 17.9381 13.4372 17.1497 13.3565 16.3596C13.355 16.3201 13.3615 16.2806 13.3756 16.2436C13.3898 16.2066 13.4113 16.1729 13.4388 16.1444C13.9167 15.7101 14.126 15.1827 14.0636 14.5331C13.949 13.3373 12.588 12.5613 11.4982 13.0828C10.2723 13.6688 10.0484 15.2295 11.0553 16.1363C11.084 16.1634 11.1071 16.196 11.1231 16.2321C11.1391 16.2682 11.1477 16.3072 11.1484 16.3467C11.0687 17.1292 10.9828 17.9112 10.8906 18.6926C10.8416 19.1129 11.0241 19.3297 11.4508 19.3384C11.7135 19.3394 11.9788 19.3362 12.2435 19.3362H12.2457Z" />
</svg>
