<svg width="40" height="40" viewBox="0 0 40 40" fill="none" xmlns="http://www.w3.org/2000/svg">
<path d="M10 34H35C35.55 34 36 33.55 36 33V18.41C36 18.14 35.94 17.87 35.84 17.62L32.08 8.85C30.82 5.91 27.93 4 24.73 4H7C6.45 4 6 4.45 6 5V30"  stroke-width="2" stroke-miterlimit="10" stroke-linejoin="round"/>
<path d="M10 9V18C10 18.55 10.45 19 11 19H30.45C31.18 19 31.66 18.25 31.36 17.59L28.6 11.52C27.63 9.38 25.49 8 23.14 8H11C10.45 8 10 8.45 10 9Z"  stroke-width="2" stroke-miterlimit="10" stroke-linejoin="round"/>
<path d="M29.27 19L28.6 17.52C27.63 15.38 25.49 14 23.14 14H11"  stroke-width="2" stroke-miterlimit="10" stroke-linejoin="round"/>
<path d="M12 23H16"  stroke-width="2" stroke-miterlimit="10" stroke-linejoin="round"/>
</svg>
