<svg width="72" height="72" viewBox="0 0 72 72" fill="none" xmlns="http://www.w3.org/2000/svg">
<path d="M19 61.5002H63.5C64.6 61.5002 65.5 60.6002 65.5 59.5002V33.3102C65.5 32.9002 65.42 32.5002 65.26 32.1302L58.81 17.0502C56.33 11.2502 50.63 7.49023 44.33 7.49023H12.5C11.4 7.49023 10.5 8.39023 10.5 9.49023V52.4902"  stroke-width="3" stroke-miterlimit="10" stroke-linejoin="round"/>
<path d="M17.5 15.5V33.5C17.5 34.05 17.95 34.5 18.5 34.5H57.06C57.79 34.5 58.27 33.75 57.97 33.09L52.4 20.83C50.65 16.97 46.8 14.5 42.57 14.5H18.5C17.95 14.5 17.5 14.95 17.5 15.5Z"  stroke-width="3" stroke-miterlimit="10" stroke-linejoin="round"/>
<path d="M53.14 34.5L51.93 31.83C50.18 27.97 46.33 25.5 42.1 25.5H19"  stroke-width="3" stroke-miterlimit="10" stroke-linejoin="round"/>
<path d="M18 41.5H26"  stroke-width="3" stroke-miterlimit="10" stroke-linejoin="round"/>
</svg>
