<svg width="64" height="64" viewBox="0 0 64 64" fill="none" xmlns="http://www.w3.org/2000/svg">
<path d="M16 54.5H55.5C56.6 54.5 57.5 53.6 57.5 52.5V29.56C57.5 29.13 57.41 28.7 57.24 28.3L51.54 14.99C49.33 9.84 44.27 6.5 38.67 6.5H10.5C9.4 6.5 8.5 7.4 8.5 8.5V46.5"  stroke-width="3" stroke-miterlimit="10" stroke-linejoin="round"/>
<path d="M14.5 13.5V29.5C14.5 30.05 14.95 30.5 15.5 30.5H49.95C50.68 30.5 51.16 29.75 50.86 29.09L45.88 18.13C44.32 14.7 40.91 12.5 37.14 12.5H15.5C14.95 12.5 14.5 12.95 14.5 13.5Z"  stroke-width="3" stroke-miterlimit="10" stroke-linejoin="round"/>
<path d="M46.24 30.5L45.16 28.13C43.6 24.7 40.19 22.5 36.42 22.5H16"  stroke-width="3" stroke-miterlimit="10" stroke-linejoin="round"/>
<path d="M15 36.5H22"  stroke-width="3" stroke-miterlimit="10" stroke-linejoin="round"/>
</svg>
