<svg width="72" height="72" viewBox="0 0 72 72" fill="none" xmlns="http://www.w3.org/2000/svg">
<path d="M65.5 47.5H6.5V54.5H65.5V47.5Z"  stroke-width="3" stroke-miterlimit="10" stroke-linejoin="round"/>
<path d="M16.5 15V24.5H55.5V11.3C55.5 10.31 54.69 9.5 53.7 9.5H23"  stroke-width="3" stroke-miterlimit="10" stroke-linejoin="round"/>
<path d="M56 28.5H62.5V16"  stroke-width="3" stroke-miterlimit="10" stroke-linejoin="round"/>
<path d="M15 28.5H9.5V18"  stroke-width="3" stroke-miterlimit="10" stroke-linejoin="round"/>
<path d="M16.5 61.5H7.5C6.95 61.5 6.5 61.05 6.5 60.5V54.5H17.5V60.5C17.5 61.05 17.05 61.5 16.5 61.5Z"  stroke-width="3" stroke-miterlimit="10" stroke-linejoin="round"/>
<path d="M64.5 61.5H55.5C54.95 61.5 54.5 61.05 54.5 60.5V54.5H65.5V60.5C65.5 61.05 65.05 61.5 64.5 61.5Z"  stroke-width="3" stroke-miterlimit="10" stroke-linejoin="round"/>
<path d="M23.5 47.5H48.5V32.5C48.5 31.95 48.05 31.5 47.5 31.5H24.5C23.95 31.5 23.5 31.95 23.5 32.5V47.5Z"  stroke-width="3" stroke-miterlimit="10" stroke-linejoin="round"/>
<path d="M36.5 10V26"  stroke-width="3" stroke-miterlimit="10" stroke-linejoin="round"/>
<path d="M55.5 24.5H16.5V47.5H55.5V24.5Z"  stroke-width="3" stroke-miterlimit="10" stroke-linejoin="round"/>
<path d="M55.5 47.5H65.5V39.5C65.5 38.95 65.05 38.5 64.5 38.5H55.5V47.5Z"  stroke-width="3" stroke-miterlimit="10" stroke-linejoin="round"/>
<path d="M6.5 47.5H16.5V38.5H7.5C6.95 38.5 6.5 38.95 6.5 39.5V47.5Z"  stroke-width="3" stroke-miterlimit="10" stroke-linejoin="round"/>
</svg>
