<svg width="24" height="24" viewBox="0 0 24 24" fill="none" xmlns="http://www.w3.org/2000/svg">
<path d="M12 17C13.6569 17 15 15.6569 15 14C15 12.3431 13.6569 11 12 11C10.3431 11 9 12.3431 9 14C9 15.6569 10.3431 17 12 17Z"  stroke-width="2" stroke-miterlimit="10"/>
<path d="M17 9V8.18V6.06C17 5.48 16.62 5 16.17 5H7.84C7.38 5 7 5.48 7 6.06V8.18V9V8H2.75C2.34 8 2 8.31 2 8.69V19.25C2 19.66 2.33 19.99 2.74 19.99H21.24C21.66 19.99 22 19.65 22 19.23V8.73C22 8.32 21.66 7.99 21.26 7.99H17"  stroke-width="2" stroke-miterlimit="10"/>
</svg>
