<svg width="32" height="32" viewBox="0 0 32 32" fill="none" xmlns="http://www.w3.org/2000/svg">
<path d="M6 9H9.72"  stroke-width="2" stroke-miterlimit="10"/>
<path d="M22.28 9H28.07C28.6 9 29.04 9.48 29.04 10.07V24.94C29.04 25.53 28.61 26 28.07 26H3.94C3.41 26 2.97 25.52 2.97 24.93V12"  stroke-width="2" stroke-miterlimit="10"/>
<path d="M16 22C18.7614 22 21 19.7614 21 17C21 14.2386 18.7614 12 16 12C13.2386 12 11 14.2386 11 17C11 19.7614 13.2386 22 16 22Z"  stroke-width="2" stroke-miterlimit="10"/>
<path d="M10 10V9V7C10 6.45 10.45 6 11 6H21C21.55 6 22 6.45 22 7V9V10"  stroke-width="2" stroke-miterlimit="10"/>
</svg>
