<svg width="40" height="40" viewBox="0 0 40 40" fill="none" xmlns="http://www.w3.org/2000/svg">
<path d="M27.71 12H35.71C36.4 12 36.97 12.56 36.97 13.25V30.75C36.97 31.44 36.4 32 35.71 32H4.27999C3.58999 32 3.01999 31.44 3.01999 30.75V15"  stroke-width="2" stroke-miterlimit="10"/>
<path d="M5 12H13"  stroke-width="2" stroke-miterlimit="10"/>
<path d="M19.5 28C23.0899 28 26 25.0899 26 21.5C26 17.9101 23.0899 15 19.5 15C15.9101 15 13 17.9101 13 21.5C13 25.0899 15.9101 28 19.5 28Z"  stroke-width="2" stroke-miterlimit="10"/>
<path d="M32 17C32.5523 17 33 16.5523 33 16C33 15.4477 32.5523 15 32 15C31.4477 15 31 15.4477 31 16C31 16.5523 31.4477 17 32 17Z"  stroke-width="2" stroke-miterlimit="10"/>
<path d="M12 13V11.75V9.25C12 8.56 12.56 8 13.25 8H25.75C26.44 8 27 8.56 27 9.25V11.75V13"  stroke-width="2" stroke-miterlimit="10"/>
</svg>
