<svg width="72" height="72" viewBox="0 0 72 72" fill="none" xmlns="http://www.w3.org/2000/svg">
<path d="M48 22.5H64.24C65.48 22.5 66.5 23.52 66.5 24.76V56.25C66.5 57.49 65.49 58.5 64.25 58.5H7.75C6.51 58.5 5.5 57.49 5.5 56.25V28"  stroke-width="3" stroke-miterlimit="10"/>
<path d="M9 22.5H23"  stroke-width="3" stroke-miterlimit="10"/>
<path d="M35.5 52.5C42.1274 52.5 47.5 47.1274 47.5 40.5C47.5 33.8726 42.1274 28.5 35.5 28.5C28.8726 28.5 23.5 33.8726 23.5 40.5C23.5 47.1274 28.8726 52.5 35.5 52.5Z"  stroke-width="3" stroke-miterlimit="10"/>
<path d="M57 30.5C57.8284 30.5 58.5 29.8284 58.5 29C58.5 28.1716 57.8284 27.5 57 27.5C56.1716 27.5 55.5 28.1716 55.5 29C55.5 29.8284 56.1716 30.5 57 30.5Z"  stroke-width="3" stroke-miterlimit="10"/>
<path d="M21.5 23V21.02V17.34C21.5 16.33 22.51 15.5 23.75 15.5H46.25C47.49 15.5 48.5 16.33 48.5 17.34V24"  stroke-width="3" stroke-miterlimit="10"/>
<path d="M30.8 35.5602C33.53 32.8302 37.97 32.8302 40.7 35.5602C43.43 38.2902 43.43 42.7302 40.7 45.4602"  stroke-width="3" stroke-miterlimit="10"/>
</svg>
