<svg width="24" height="24" viewBox="0 0 24 24" fill="none" xmlns="http://www.w3.org/2000/svg">
<path d="M7.26562 9.11719C7.42188 8.77344 7.66406 8.5 7.99219 8.29688C8.32031 8.09375 8.67188 7.99219 9.04688 7.99219H13.8047C13.9453 7.99219 14.0781 8.02344 14.2031 8.08594C14.3438 8.14844 14.4609 8.24219 14.5547 8.36719L15.9375 10.0078H12.4922C12.3516 10.0078 12.2344 10.0547 12.1406 10.1484C12.0469 10.2422 12 10.3594 12 10.5C12 10.6406 12.0469 10.7578 12.1406 10.8516C12.2344 10.9453 12.3516 10.9922 12.4922 10.9922H17.0156C17.0781 11.0234 17.1406 11.0547 17.2031 11.0859C17.2656 11.1172 17.3281 11.1406 17.3906 11.1562L19.2891 11.7891C19.8047 11.9609 20.2188 12.2656 20.5312 12.7031C20.8438 13.1406 21 13.625 21 14.1562V16.0078C21 16.2734 20.8984 16.5078 20.6953 16.7109C20.5078 16.8984 20.2734 16.9922 19.9922 16.9922V18C20.5547 18 21.0312 17.8047 21.4219 17.4141C21.8125 17.0234 22.0078 16.5547 22.0078 16.0078V14.1562C22.0078 13.4062 21.7812 12.7266 21.3281 12.1172C20.8906 11.5078 20.3203 11.0859 19.6172 10.8516L17.6953 10.1953C17.5703 10.1641 17.4453 10.1094 17.3203 10.0312C17.2109 9.95312 17.1094 9.85938 17.0156 9.75L15.3281 7.71094C15.1406 7.49219 14.9141 7.32031 14.6484 7.19531C14.3828 7.07031 14.1016 7.00781 13.8047 7.00781H9.04688C8.48438 7.00781 7.96094 7.15625 7.47656 7.45312C6.99219 7.75 6.61719 8.14844 6.35156 8.64844L5.46094 10.4531C5.38281 10.625 5.25781 10.7578 5.08594 10.8516C4.92969 10.9453 4.75781 10.9922 4.57031 10.9922H4.5C3.8125 10.9922 3.21875 11.2422 2.71875 11.7422C2.23438 12.2266 1.99219 12.8125 1.99219 13.5V16.5C1.99219 16.9219 2.14062 17.2812 2.4375 17.5781C2.73438 17.8594 3.08594 18 3.49219 18H4.00781V16.9922H3.49219C3.35156 16.9922 3.23438 16.9453 3.14062 16.8516C3.04688 16.7578 3 16.6406 3 16.5V13.5C3 13.0781 3.14062 12.7266 3.42188 12.4453C3.71875 12.1484 4.07812 12 4.5 12H4.57031C4.94531 12 5.29688 11.9062 5.625 11.7188C5.95312 11.5156 6.19531 11.2422 6.35156 10.8984L7.26562 9.11719ZM4.99219 17.5078C4.99219 18.1953 5.23438 18.7812 5.71875 19.2656C6.21875 19.75 6.8125 19.9922 7.5 19.9922C8.1875 19.9922 8.77344 19.75 9.25781 19.2656C9.75781 18.7812 10.0078 18.1953 10.0078 17.5078C10.0078 16.8047 9.75781 16.2109 9.25781 15.7266C8.77344 15.2422 8.1875 15 7.5 15C6.8125 15 6.21875 15.2422 5.71875 15.7266C5.23438 16.2109 4.99219 16.8047 4.99219 17.5078ZM7.5 19.0078C7.07812 19.0078 6.71875 18.8594 6.42188 18.5625C6.14062 18.2656 6 17.9141 6 17.5078C6 17.0859 6.14062 16.7344 6.42188 16.4531C6.71875 16.1562 7.07812 16.0078 7.5 16.0078C7.92188 16.0078 8.27344 16.1562 8.55469 16.4531C8.85156 16.7344 9 17.0859 9 17.5078C9 17.9141 8.85156 18.2656 8.55469 18.5625C8.27344 18.8594 7.92188 19.0078 7.5 19.0078ZM13.0078 18H10.9922V16.9922H13.0078V18ZM16.5 15C17.1875 15 17.7734 15.2422 18.2578 15.7266C18.7578 16.2109 19.0078 16.8047 19.0078 17.5078C19.0078 18.1953 18.7578 18.7812 18.2578 19.2656C17.7734 19.75 17.1875 19.9922 16.5 19.9922C15.8125 19.9922 15.2188 19.75 14.7188 19.2656C14.2344 18.7812 13.9922 18.1953 13.9922 17.5078C13.9922 16.8047 14.2344 16.2109 14.7188 15.7266C15.2188 15.2422 15.8125 15 16.5 15ZM15 17.5078C15 17.9141 15.1406 18.2656 15.4219 18.5625C15.7188 18.8594 16.0781 19.0078 16.5 19.0078C16.9219 19.0078 17.2734 18.8594 17.5547 18.5625C17.8516 18.2656 18 17.9141 18 17.5078C18 17.0859 17.8516 16.7344 17.5547 16.4531C17.2734 16.1562 16.9219 16.0078 16.5 16.0078C16.0781 16.0078 15.7188 16.1562 15.4219 16.4531C15.1406 16.7344 15 17.0859 15 17.5078Z" fill="#EC7000"/>
</svg>
