<svg width="24" height="24" viewBox="0 0 24 24" fill="none" xmlns="http://www.w3.org/2000/svg">
<path d="M9 9C9 9.28125 8.89844 9.52344 8.69531 9.72656C8.50781 9.91406 8.27344 10.0078 7.99219 10.0078C7.72656 10.0078 7.49219 9.91406 7.28906 9.72656C7.10156 9.52344 7.00781 9.28125 7.00781 9C7.00781 8.71875 7.10156 8.48438 7.28906 8.29688C7.49219 8.09375 7.72656 7.99219 7.99219 7.99219C8.27344 7.99219 8.50781 8.09375 8.69531 8.29688C8.89844 8.48438 9 8.71875 9 9ZM22.0078 13.0078C22.0078 13.9609 21.8281 14.8594 21.4688 15.7031C21.1094 16.5312 20.6172 17.2656 19.9922 17.9062V21C19.9922 21.2812 19.8906 21.5156 19.6875 21.7031C19.5 21.9062 19.2734 22.0078 19.0078 22.0078H15C14.7188 22.0078 14.4766 21.9062 14.2734 21.7031C14.0859 21.5156 13.9922 21.2812 13.9922 21V19.9922H12V21C12 21.2812 11.8984 21.5156 11.6953 21.7031C11.5078 21.9062 11.2734 22.0078 10.9922 22.0078H7.00781C6.72656 22.0078 6.48438 21.9062 6.28125 21.7031C6.09375 21.5156 6 21.2812 6 21V17.9062C5.48438 17.375 5.0625 16.7812 4.73438 16.125C4.40625 15.4688 4.1875 14.7578 4.07812 13.9922H4.00781C3.44531 13.9922 2.96875 13.7969 2.57812 13.4062C2.1875 13.0156 1.99219 12.5469 1.99219 12V10.0078C1.99219 9.44531 2.1875 8.96875 2.57812 8.57812C2.96875 8.1875 3.44531 7.99219 4.00781 7.99219H4.28906C4.46094 7.44531 4.6875 6.92969 4.96875 6.44531C5.26562 5.94531 5.60938 5.5 6 5.10938V2.48438C6 2.125 6.14844 1.85156 6.44531 1.66406C6.74219 1.46094 7.05469 1.42187 7.38281 1.54688L10.9922 3H15C15.9688 3 16.875 3.17969 17.7188 3.53906C18.5781 3.91406 19.3203 4.42187 19.9453 5.0625C20.5859 5.6875 21.0859 6.42188 21.4453 7.26562C21.8203 8.125 22.0078 9.03906 22.0078 10.0078V13.0078ZM21 10.0078C21 9.17969 20.8438 8.39844 20.5312 7.66406C20.2188 6.92969 19.7891 6.29687 19.2422 5.76562C18.6953 5.21875 18.0625 4.78906 17.3438 4.47656C16.6094 4.16406 15.8281 4.00781 15 4.00781C15 4.00781 14.7812 4.00781 14.3438 4.00781C13.9062 4.00781 13.4219 4.00781 12.8906 4.00781C12.375 4.00781 11.8984 4.00781 11.4609 4.00781C11.0078 4.00781 10.7734 4.00781 10.7578 4.00781L7.00781 2.50781V5.53125C6.99219 5.54687 6.97656 5.5625 6.96094 5.57812C6.94531 5.57812 6.92969 5.58594 6.91406 5.60156C6.91406 5.61719 6.90625 5.625 6.89062 5.625C6.54688 5.95312 6.24219 6.32031 5.97656 6.72656C5.71094 7.13281 5.5 7.5625 5.34375 8.01562C5.32812 8.03125 5.32031 8.04688 5.32031 8.0625C5.32031 8.0625 5.32031 8.07031 5.32031 8.08594C5.32031 8.08594 5.3125 8.09375 5.29688 8.10938C5.29688 8.125 5.29688 8.13281 5.29688 8.13281C5.29688 8.14844 5.28906 8.16406 5.27344 8.17969C5.27344 8.17969 5.27344 8.1875 5.27344 8.20312C5.27344 8.20312 5.27344 8.21094 5.27344 8.22656C5.27344 8.24219 5.26562 8.25 5.25 8.25C5.25 8.26562 5.25 8.28125 5.25 8.29688C5.25 8.29688 5.25 8.30469 5.25 8.32031C5.23438 8.33594 5.22656 8.35156 5.22656 8.36719C5.22656 8.36719 5.22656 8.375 5.22656 8.39062C5.22656 8.39062 5.21875 8.39844 5.20312 8.41406C5.20312 8.42969 5.20312 8.4375 5.20312 8.4375C5.20312 8.45312 5.20312 8.46875 5.20312 8.48438C5.20312 8.48438 5.19531 8.49219 5.17969 8.50781C5.17969 8.50781 5.17969 8.51562 5.17969 8.53125C5.17969 8.54688 5.17969 8.5625 5.17969 8.57812C5.17969 8.57812 5.17188 8.58594 5.15625 8.60156C5.15625 8.60156 5.15625 8.60938 5.15625 8.625C5.15625 8.64062 5.15625 8.65625 5.15625 8.67188C5.15625 8.67188 5.14844 8.67969 5.13281 8.69531C5.13281 8.71094 5.13281 8.72656 5.13281 8.74219C5.13281 8.75781 5.125 8.77344 5.10938 8.78906C5.10938 8.80469 5.10938 8.82031 5.10938 8.83594C5.10938 8.83594 5.10156 8.85938 5.08594 8.90625C5.08594 8.95312 5.08594 8.98438 5.08594 9H4.00781C3.72656 9 3.48438 9.10156 3.28125 9.30469C3.09375 9.49219 3 9.72656 3 10.0078V12C3 12.2812 3.09375 12.5234 3.28125 12.7266C3.48438 12.9141 3.72656 13.0078 4.00781 13.0078H4.99219C4.99219 13.0234 5 13.1797 5.01562 13.4766C5.04688 13.7578 5.07031 13.9297 5.08594 13.9922C5.17969 14.5703 5.35156 15.1172 5.60156 15.6328C5.85156 16.1328 6.16406 16.5938 6.53906 17.0156C6.55469 17.0312 6.57031 17.0469 6.58594 17.0625C6.60156 17.0781 6.61719 17.1016 6.63281 17.1328C6.64844 17.1484 6.66406 17.1641 6.67969 17.1797C6.71094 17.1953 6.73438 17.2109 6.75 17.2266C6.75 17.2422 6.75 17.25 6.75 17.25C6.76562 17.25 6.77344 17.2578 6.77344 17.2734C6.78906 17.2734 6.80469 17.2812 6.82031 17.2969C6.83594 17.3125 6.85156 17.3281 6.86719 17.3438C6.86719 17.3438 6.86719 17.3516 6.86719 17.3672C6.86719 17.3672 6.875 17.3672 6.89062 17.3672C6.90625 17.3828 6.92188 17.3984 6.9375 17.4141C6.95312 17.4297 6.97656 17.4453 7.00781 17.4609V21H10.9922V19.9922C10.9922 19.7266 11.0859 19.5 11.2734 19.3125C11.4766 19.1094 11.7188 19.0078 12 19.0078H13.9922C14.2734 19.0078 14.5078 19.1094 14.6953 19.3125C14.8984 19.5 15 19.7266 15 19.9922V21H19.0078V17.4609C19.0234 17.4453 19.0391 17.4297 19.0547 17.4141C19.0859 17.3984 19.1094 17.375 19.125 17.3438C19.1406 17.3438 19.1484 17.3438 19.1484 17.3438C19.1484 17.3281 19.1562 17.3203 19.1719 17.3203C19.1875 17.3047 19.2031 17.2891 19.2188 17.2734C19.2344 17.2578 19.25 17.2422 19.2656 17.2266C19.2812 17.2109 19.2891 17.1953 19.2891 17.1797C19.3047 17.1641 19.3203 17.1484 19.3359 17.1328C19.3516 17.1172 19.3672 17.1016 19.3828 17.0859C19.3984 17.0703 19.4141 17.0625 19.4297 17.0625C19.4453 17.0469 19.4609 17.0312 19.4766 17.0156C19.4922 16.9844 19.5078 16.9609 19.5234 16.9453C19.5234 16.9297 19.5234 16.9219 19.5234 16.9219C19.5547 16.9062 19.5781 16.8906 19.5938 16.875C19.6094 16.8438 19.625 16.8125 19.6406 16.7812C19.6562 16.7812 19.6641 16.7812 19.6641 16.7812C19.6641 16.7656 19.6719 16.7578 19.6875 16.7578C19.6875 16.7422 19.6953 16.7266 19.7109 16.7109C19.7266 16.6953 19.7422 16.6797 19.7578 16.6641C19.7578 16.6484 19.7578 16.6406 19.7578 16.6406C19.7734 16.625 19.7812 16.6172 19.7812 16.6172C19.7969 16.6016 19.8125 16.5859 19.8281 16.5703C19.8438 16.5391 19.8594 16.5156 19.875 16.5C19.8906 16.4844 19.8984 16.4766 19.8984 16.4766C19.9141 16.4453 19.9297 16.4219 19.9453 16.4062C19.9609 16.375 19.9766 16.3516 19.9922 16.3359C20.3047 15.8516 20.5469 15.3281 20.7188 14.7656C20.9062 14.2031 21 13.6172 21 13.0078V10.0078ZM15 6.82031C15 6.94531 15.0312 7.0625 15.0938 7.17188C15.1719 7.28125 15.2656 7.35938 15.375 7.40625C15.7031 7.5625 16.0078 7.75 16.2891 7.96875C16.5703 8.1875 16.8203 8.4375 17.0391 8.71875C17.1172 8.8125 17.2031 8.88281 17.2969 8.92969C17.3906 8.97656 17.4922 9 17.6016 9C17.8828 9 18.0859 8.875 18.2109 8.625C18.3516 8.375 18.3359 8.13281 18.1641 7.89844C17.8828 7.50781 17.5391 7.16406 17.1328 6.86719C16.7422 6.57031 16.3125 6.35156 15.8438 6.21094C15.6406 6.14844 15.4453 6.17969 15.2578 6.30469C15.0859 6.42969 15 6.60156 15 6.82031Z" fill="#FF7500"/>
</svg>
