<svg width="24" height="24" viewBox="0 0 24 24" fill="none" xmlns="http://www.w3.org/2000/svg">
<path d="M3 8.50781C3 8.36719 3.04688 8.25 3.14062 8.15625C3.23438 8.04688 3.35156 7.99219 3.49219 7.99219H18.9141C19.1328 7.99219 19.3281 8.05469 19.5 8.17969C19.6719 8.30469 19.7969 8.47656 19.875 8.69531L20.9297 11.8594C20.9297 11.875 20.9297 11.8984 20.9297 11.9297C20.9453 11.9453 20.9531 11.9688 20.9531 12H18.8672L17.9766 9.35156C17.9297 9.21094 17.8438 9.10938 17.7188 9.04688C17.5938 8.98438 17.4688 8.97656 17.3438 9.02344C17.2188 9.07031 17.125 9.15625 17.0625 9.28125C17 9.40625 16.9844 9.53125 17.0156 9.65625L18.0234 12.6562C18.0547 12.7656 18.1094 12.8516 18.1875 12.9141C18.2812 12.9766 18.3828 13.0078 18.4922 13.0078H21V16.0078C21 16.2734 20.8984 16.5078 20.6953 16.7109C20.5078 16.8984 20.2734 16.9922 19.9922 16.9922V18C20.5547 18 21.0312 17.8047 21.4219 17.4141C21.8125 17.0234 22.0078 16.5547 22.0078 16.0078V12.3281C22.0078 12.1875 21.9922 12.0547 21.9609 11.9297C21.9453 11.7891 21.9141 11.6562 21.8672 11.5312L20.8125 8.36719C20.6719 7.96094 20.4297 7.63281 20.0859 7.38281C19.7422 7.13281 19.3516 7.00781 18.9141 7.00781H3.49219C3.08594 7.00781 2.73438 7.15625 2.4375 7.45312C2.14062 7.73438 1.99219 8.08594 1.99219 8.50781V16.9922C1.99219 17.2734 2.08594 17.5156 2.27344 17.7188C2.47656 17.9062 2.71875 18 3 18V8.50781ZM13.0078 18H10.0078V16.9922H13.0078V18ZM14.5078 12C14.6484 12 14.7656 11.9531 14.8594 11.8594C14.9531 11.7656 15 11.6484 15 11.5078V9.49219C15 9.35156 14.9531 9.23438 14.8594 9.14062C14.7656 9.04688 14.6484 9 14.5078 9C14.3672 9 14.2422 9.04688 14.1328 9.14062C14.0391 9.23438 13.9922 9.35156 13.9922 9.49219V10.9922H10.9922V9.49219C10.9922 9.35156 10.9453 9.23438 10.8516 9.14062C10.7578 9.04688 10.6406 9 10.5 9C10.3594 9 10.2422 9.04688 10.1484 9.14062C10.0547 9.23438 10.0078 9.35156 10.0078 9.49219V10.9922H7.00781V9.49219C7.00781 9.35156 6.95312 9.23438 6.84375 9.14062C6.75 9.04688 6.63281 9 6.49219 9C6.35156 9 6.23438 9.04688 6.14062 9.14062C6.04688 9.23438 6 9.35156 6 9.49219V10.9922H4.5C4.35938 10.9922 4.24219 11.0469 4.14844 11.1562C4.05469 11.25 4.00781 11.3672 4.00781 11.5078C4.00781 11.6484 4.05469 11.7656 4.14844 11.8594C4.24219 11.9531 4.35938 12 4.5 12H14.5078ZM6.49219 15C7.19531 15 7.78906 15.2422 8.27344 15.7266C8.75781 16.2109 9 16.8047 9 17.5078C9 18.1953 8.75781 18.7812 8.27344 19.2656C7.78906 19.75 7.19531 19.9922 6.49219 19.9922C5.80469 19.9922 5.21875 19.75 4.73438 19.2656C4.25 18.7812 4.00781 18.1953 4.00781 17.5078C4.00781 16.8047 4.25 16.2109 4.73438 15.7266C5.21875 15.2422 5.80469 15 6.49219 15ZM4.99219 17.5078C4.99219 17.9141 5.14062 18.2656 5.4375 18.5625C5.73438 18.8594 6.08594 19.0078 6.49219 19.0078C6.91406 19.0078 7.26562 18.8594 7.54688 18.5625C7.84375 18.2656 7.99219 17.9141 7.99219 17.5078C7.99219 17.0859 7.84375 16.7344 7.54688 16.4531C7.26562 16.1562 6.91406 16.0078 6.49219 16.0078C6.08594 16.0078 5.73438 16.1562 5.4375 16.4531C5.14062 16.7344 4.99219 17.0859 4.99219 17.5078ZM13.9922 17.5078C13.9922 18.1953 14.2344 18.7812 14.7188 19.2656C15.2188 19.75 15.8125 19.9922 16.5 19.9922C17.1875 19.9922 17.7734 19.75 18.2578 19.2656C18.7578 18.7812 19.0078 18.1953 19.0078 17.5078C19.0078 16.8047 18.7578 16.2109 18.2578 15.7266C17.7734 15.2422 17.1875 15 16.5 15C15.8125 15 15.2188 15.2422 14.7188 15.7266C14.2344 16.2109 13.9922 16.8047 13.9922 17.5078ZM16.5 19.0078C16.0781 19.0078 15.7188 18.8594 15.4219 18.5625C15.1406 18.2656 15 17.9141 15 17.5078C15 17.0859 15.1406 16.7344 15.4219 16.4531C15.7188 16.1562 16.0781 16.0078 16.5 16.0078C16.9219 16.0078 17.2734 16.1562 17.5547 16.4531C17.8516 16.7344 18 17.0859 18 17.5078C18 17.9141 17.8516 18.2656 17.5547 18.5625C17.2734 18.8594 16.9219 19.0078 16.5 19.0078Z" fill="#EC7000"/>
</svg>
