<svg width="24" height="24" viewBox="0 0 24 24" fill="none" xmlns="http://www.w3.org/2000/svg">
<path d="M13.2188 5.50781H16.7812L15 7.28906L13.2188 5.50781ZM15.5859 6L15 6.58594L14.4141 6H15.5859ZM18 4.99219H12L15 7.99219L18 4.99219ZM21 10.0078H3C2.71875 10.0078 2.47656 10.1094 2.27344 10.3125C2.08594 10.5 1.99219 10.7266 1.99219 10.9922V15C1.99219 15.2812 2.08594 15.5234 2.27344 15.7266C2.47656 15.9141 2.71875 16.0078 3 16.0078H21C21.2812 16.0078 21.5156 15.9141 21.7031 15.7266C21.9062 15.5234 22.0078 15.2812 22.0078 15V10.9922C22.0078 10.7266 21.9062 10.5 21.7031 10.3125C21.5156 10.1094 21.2812 10.0078 21 10.0078ZM15 15V10.9922H21V15H15ZM3 15V10.9922H13.9922V15H3Z" fill="#FF7500"/>
</svg>
