<svg width="24" height="24" viewBox="0 0 24 24" fill="none" xmlns="http://www.w3.org/2000/svg">
<path d="M5.25 9.75C5.25 10.2344 5.42188 10.6484 5.76562 10.9922C6.10938 11.3359 6.52344 11.5078 7.00781 11.5078C7.49219 11.5078 7.89844 11.3359 8.22656 10.9922C8.57031 10.6484 8.74219 10.2344 8.74219 9.75C8.74219 9.26562 8.57031 8.85156 8.22656 8.50781C7.89844 8.16406 7.49219 7.99219 7.00781 7.99219C6.52344 7.99219 6.10938 8.16406 5.76562 8.50781C5.42188 8.85156 5.25 9.26562 5.25 9.75ZM7.00781 10.5C6.78906 10.5 6.60938 10.4297 6.46875 10.2891C6.32812 10.1328 6.25781 9.95312 6.25781 9.75C6.25781 9.54688 6.32812 9.375 6.46875 9.23438C6.60938 9.07812 6.78906 9 7.00781 9C7.21094 9 7.38281 9.07812 7.52344 9.23438C7.67969 9.375 7.75781 9.54688 7.75781 9.75C7.75781 9.95312 7.67969 10.1328 7.52344 10.2891C7.38281 10.4297 7.21094 10.5 7.00781 10.5ZM4.00781 14.5078V15C4.00781 15.2812 4.10156 15.5234 4.28906 15.7266C4.49219 15.9141 4.72656 16.0078 4.99219 16.0078H9C9.28125 16.0078 9.51562 15.9141 9.70312 15.7266C9.90625 15.5234 10.0078 15.2812 10.0078 15V14.5078C10.0078 13.8047 9.75781 13.2109 9.25781 12.7266C8.77344 12.2422 8.1875 12 7.5 12H6.49219C5.80469 12 5.21875 12.2422 4.73438 12.7266C4.25 13.2109 4.00781 13.8047 4.00781 14.5078ZM4.99219 14.5078C4.99219 14.0859 5.14062 13.7344 5.4375 13.4531C5.73438 13.1562 6.08594 13.0078 6.49219 13.0078H7.5C7.92188 13.0078 8.27344 13.1562 8.55469 13.4531C8.85156 13.7344 9 14.0859 9 14.5078V15H4.99219V14.5078ZM12 10.5C12 10.3594 12.0469 10.2422 12.1406 10.1484C12.2344 10.0547 12.3516 10.0078 12.4922 10.0078H18.4922C18.6328 10.0078 18.75 10.0547 18.8438 10.1484C18.9531 10.2422 19.0078 10.3594 19.0078 10.5C19.0078 10.6406 18.9531 10.7578 18.8438 10.8516C18.75 10.9453 18.6328 10.9922 18.4922 10.9922H12.4922C12.3516 10.9922 12.2344 10.9453 12.1406 10.8516C12.0469 10.7578 12 10.6406 12 10.5ZM12 12.4922C12 12.3516 12.0469 12.2344 12.1406 12.1406C12.2344 12.0469 12.3516 12 12.4922 12H18.4922C18.6328 12 18.75 12.0469 18.8438 12.1406C18.9531 12.2344 19.0078 12.3516 19.0078 12.4922C19.0078 12.6328 18.9531 12.7578 18.8438 12.8672C18.75 12.9609 18.6328 13.0078 18.4922 13.0078H12.4922C12.3516 13.0078 12.2344 12.9609 12.1406 12.8672C12.0469 12.7578 12 12.6328 12 12.4922ZM12 14.5078C12 14.3672 12.0469 14.25 12.1406 14.1562C12.2344 14.0469 12.3516 13.9922 12.4922 13.9922H16.1016C16.2422 13.9922 16.3594 14.0469 16.4531 14.1562C16.5469 14.25 16.5938 14.3672 16.5938 14.5078C16.5938 14.6484 16.5469 14.7656 16.4531 14.8594C16.3594 14.9531 16.2422 15 16.1016 15H12.4922C12.3516 15 12.2344 14.9531 12.1406 14.8594C12.0469 14.7656 12 14.6484 12 14.5078ZM1.99219 6.49219V17.5078C1.99219 17.9141 2.14062 18.2656 2.4375 18.5625C2.73438 18.8594 3.08594 19.0078 3.49219 19.0078H20.5078C20.9141 19.0078 21.2656 18.8594 21.5625 18.5625C21.8594 18.2656 22.0078 17.9141 22.0078 17.5078V6.49219C22.0078 6.08594 21.8594 5.73437 21.5625 5.4375C21.2656 5.14063 20.9141 4.99219 20.5078 4.99219H3.49219C3.08594 4.99219 2.73438 5.14063 2.4375 5.4375C2.14062 5.73437 1.99219 6.08594 1.99219 6.49219ZM3.49219 6H20.5078C20.6484 6 20.7656 6.04688 20.8594 6.14062C20.9531 6.23438 21 6.35156 21 6.49219V17.5078C21 17.6484 20.9531 17.7656 20.8594 17.8594C20.7656 17.9531 20.6484 18 20.5078 18H3.49219C3.35156 18 3.23438 17.9531 3.14062 17.8594C3.04688 17.7656 3 17.6484 3 17.5078V6.49219C3 6.35156 3.04688 6.23438 3.14062 6.14062C3.23438 6.04688 3.35156 6 3.49219 6Z" fill="#FF7500"/>
</svg>
