<svg width="24" height="24" viewBox="0 0 24 24" fill="none" xmlns="http://www.w3.org/2000/svg">
<path d="M4.00781 3V21C4.00781 21.2812 4.10156 21.5156 4.28906 21.7031C4.49219 21.9062 4.72656 22.0078 4.99219 22.0078H19.0078C19.2734 22.0078 19.5 21.9062 19.6875 21.7031C19.8906 21.5156 19.9922 21.2812 19.9922 21V3C19.9922 2.71875 19.8906 2.48438 19.6875 2.29688C19.5 2.09375 19.2734 1.99219 19.0078 1.99219H4.99219C4.72656 1.99219 4.49219 2.09375 4.28906 2.29688C4.10156 2.48438 4.00781 2.71875 4.00781 3ZM19.0078 21H4.99219V3H19.0078V21ZM16.9922 18.4922C16.9922 18.6328 16.9453 18.7578 16.8516 18.8672C16.7578 18.9609 16.6406 19.0078 16.5 19.0078H11.5078C11.3672 19.0078 11.2422 18.9609 11.1328 18.8672C11.0391 18.7578 10.9922 18.6328 10.9922 18.4922C10.9922 18.3672 11.0391 18.2578 11.1328 18.1641C11.2422 18.0547 11.3672 18 11.5078 18H16.5C16.6406 18 16.7578 18.0547 16.8516 18.1641C16.9453 18.2578 16.9922 18.3672 16.9922 18.4922ZM16.9922 15.4922C16.9922 15.6328 16.9453 15.7578 16.8516 15.8672C16.7578 15.9609 16.6406 16.0078 16.5 16.0078H7.5C7.35938 16.0078 7.24219 15.9609 7.14844 15.8672C7.05469 15.7578 7.00781 15.6328 7.00781 15.4922C7.00781 15.3672 7.05469 15.2578 7.14844 15.1641C7.24219 15.0547 7.35938 15 7.5 15H16.5C16.6406 15 16.7578 15.0547 16.8516 15.1641C16.9453 15.2578 16.9922 15.3672 16.9922 15.4922ZM16.9922 12.4922C16.9922 12.6328 16.9453 12.7578 16.8516 12.8672C16.7578 12.9609 16.6406 13.0078 16.5 13.0078H7.5C7.35938 13.0078 7.24219 12.9609 7.14844 12.8672C7.05469 12.7578 7.00781 12.6328 7.00781 12.4922C7.00781 12.3672 7.05469 12.2578 7.14844 12.1641C7.24219 12.0547 7.35938 12 7.5 12H16.5C16.6406 12 16.7578 12.0547 16.8516 12.1641C16.9453 12.2578 16.9922 12.3672 16.9922 12.4922Z" fill="#EC7000"/>
</svg>
