<svg width="24" height="24" viewBox="0 0 24 24" fill="none" xmlns="http://www.w3.org/2000/svg">
<path d="M6.77344 2.13281C6.47656 2.17969 6.21875 2.23438 6 2.29688C5.79688 2.35937 5.64844 2.42188 5.55469 2.48438C5.47656 2.51563 5.41406 2.5625 5.36719 2.625C5.32031 2.6875 5.28906 2.75781 5.27344 2.83594C5.25781 2.91406 5.25781 2.99219 5.27344 3.07031C5.30469 3.14844 5.35156 3.21875 5.41406 3.28125L6.11719 3.98438L8.25 6.09375C8.25 6.09375 8.27344 6.14062 8.32031 6.23438C8.38281 6.3125 8.42969 6.41406 8.46094 6.53906C8.47656 6.63281 8.48438 6.71875 8.48438 6.79688C8.48438 6.875 8.46875 6.95312 8.4375 7.03125C8.40625 7.17188 8.34375 7.3125 8.25 7.45312C8.15625 7.59375 8.03906 7.73438 7.89844 7.875C7.66406 8.09375 7.4375 8.25781 7.21875 8.36719C7.01562 8.46094 6.82031 8.49219 6.63281 8.46094C6.49219 8.42969 6.375 8.38281 6.28125 8.32031C6.1875 8.25781 6.13281 8.21875 6.11719 8.20312L4.00781 6.09375L3.28125 5.39062C3.23438 5.34375 3.17188 5.3125 3.09375 5.29688C3.01562 5.26562 2.9375 5.25 2.85938 5.25C2.78125 5.26562 2.71094 5.29688 2.64844 5.34375C2.58594 5.39062 2.53125 5.45312 2.48438 5.53125C2.4375 5.625 2.38281 5.78125 2.32031 6C2.25781 6.20312 2.20312 6.45313 2.15625 6.75C1.95312 7.71875 1.98438 8.69531 2.25 9.67969C2.53125 10.6484 3.03906 11.5078 3.77344 12.2578C4.63281 13.1016 5.63281 13.6406 6.77344 13.875C7.92969 14.1094 9.04688 14.0234 10.125 13.6172L17.7656 21.2812C18.2656 21.7656 18.8516 22 19.5234 21.9844C20.2109 21.9844 20.7969 21.7422 21.2812 21.2578C21.7812 20.7734 22.0312 20.1953 22.0312 19.5234C22.0312 18.8359 21.7891 18.2422 21.3047 17.7422L13.6406 10.1016C14.0469 9.02344 14.1328 7.91406 13.8984 6.77344C13.6641 5.61719 13.1172 4.61719 12.2578 3.77344C11.5234 3.02344 10.6641 2.51563 9.67969 2.25C8.71094 1.96875 7.74219 1.92969 6.77344 2.13281ZM13.0312 8.01562C13.0312 8.42188 12.9766 8.82031 12.8672 9.21094C12.7734 9.60156 12.6406 9.96875 12.4688 10.3125L20.6484 18.4922C20.9141 18.7891 21.0391 19.1406 21.0234 19.5469C21.0078 19.9375 20.8594 20.2734 20.5781 20.5547C20.2969 20.8516 19.9531 21 19.5469 21C19.1562 21.0156 18.8125 20.8906 18.5156 20.625L10.3359 12.4453C9.99219 12.6328 9.625 12.7734 9.23438 12.8672C8.84375 12.9609 8.4375 13.0078 8.01562 13.0078C7.35938 13.0078 6.72656 12.8828 6.11719 12.6328C5.50781 12.3828 4.96094 12.0156 4.47656 11.5312C4.00781 11.0625 3.64844 10.5234 3.39844 9.91406C3.14844 9.30469 3.02344 8.67188 3.02344 8.01562C3.02344 7.82812 3.03125 7.64844 3.04688 7.47656C3.0625 7.30469 3.08594 7.14062 3.11719 6.98438L3.14062 6.96094C3.14062 6.94531 3.14062 6.9375 3.14062 6.9375C3.14062 6.89062 3.14844 6.85156 3.16406 6.82031C3.17969 6.78906 3.1875 6.75 3.1875 6.70312L3.30469 6.82031L5.41406 8.92969C5.41406 8.92969 5.71875 9.09375 6.32812 9.42188C6.95312 9.75 7.71094 9.46875 8.60156 8.57812C9.49219 7.70312 9.77344 6.95312 9.44531 6.32812C9.11719 5.70313 8.95312 5.39062 8.95312 5.39062L6.72656 3.1875C6.75781 3.17188 6.78906 3.16406 6.82031 3.16406C6.86719 3.14844 6.90625 3.13281 6.9375 3.11719C6.95312 3.11719 6.96094 3.11719 6.96094 3.11719C6.97656 3.11719 6.98438 3.11719 6.98438 3.11719C7.15625 3.08594 7.32812 3.0625 7.5 3.04688C7.67188 3.01562 7.84375 3 8.01562 3C8.6875 3 9.32812 3.13281 9.9375 3.39844C10.5469 3.64844 11.0859 4.00781 11.5547 4.47656C12.0234 4.94531 12.3828 5.48438 12.6328 6.09375C12.8984 6.70312 13.0312 7.34375 13.0312 8.01562Z" fill="#EC7000"/>
</svg>
