<svg width="40" height="40" viewBox="0 0 40 40" fill="none" xmlns="http://www.w3.org/2000/svg">
<path d="M8 34V6C8 5.45 8.45 5 9 5H12.96"  stroke-width="2" stroke-miterlimit="10" stroke-linejoin="round"/>
<path d="M27.18 5H31C31.55 5 32 5.45 32 6V36C32 36.55 31.55 37 31 37H11"  stroke-width="2" stroke-miterlimit="10" stroke-linejoin="round"/>
<path d="M27 3H13V7H27V3Z"  stroke-width="2" stroke-miterlimit="10" stroke-linejoin="round"/>
<path d="M12 13L14 15L18 11"  stroke-width="2" stroke-miterlimit="10" stroke-linejoin="round"/>
<path d="M12 20L14 22L18 18"  stroke-width="2" stroke-miterlimit="10" stroke-linejoin="round"/>
<path d="M17 26L12 31"  stroke-width="2" stroke-miterlimit="10" stroke-linejoin="round"/>
<path d="M12 26L17 31"  stroke-width="2" stroke-miterlimit="10" stroke-linejoin="round"/>
<path d="M21 13H27"  stroke-width="2" stroke-miterlimit="10" stroke-linejoin="round"/>
<path d="M21 21H27"  stroke-width="2" stroke-miterlimit="10" stroke-linejoin="round"/>
<path d="M21 29H27"  stroke-width="2" stroke-miterlimit="10" stroke-linejoin="round"/>
</svg>
