<svg width="64" height="64" viewBox="0 0 64 64" fill="none" xmlns="http://www.w3.org/2000/svg">
<path d="M12.5 54V9.5C12.5 8.4 13.4 7.5 14.5 7.5H20"  stroke-width="3" stroke-miterlimit="10" stroke-linejoin="round"/>
<path d="M44 7.5H49.5C50.6 7.5 51.5 8.4 51.5 9.5V56.5C51.5 57.6 50.6 58.5 49.5 58.5H18"  stroke-width="3" stroke-miterlimit="10" stroke-linejoin="round"/>
<path d="M43.5 4.5H20.5V11.5H43.5V4.5Z"  stroke-width="3" stroke-miterlimit="10" stroke-linejoin="round"/>
<path d="M19.5 20.5L23 24L29.5 17.5"  stroke-width="3" stroke-miterlimit="10" stroke-linejoin="round"/>
<path d="M19.5 31.5L23 35L29.5 28.5"  stroke-width="3" stroke-miterlimit="10" stroke-linejoin="round"/>
<path d="M27.5 41.5L19.5 49.5"  stroke-width="3" stroke-miterlimit="10" stroke-linejoin="round"/>
<path d="M19.5 41.5L27.5 49.5"  stroke-width="3" stroke-miterlimit="10" stroke-linejoin="round"/>
<path d="M34 20.5H45"  stroke-width="3" stroke-miterlimit="10" stroke-linejoin="round"/>
<path d="M34 32.5H45"  stroke-width="3" stroke-miterlimit="10" stroke-linejoin="round"/>
<path d="M34 45.5H45"  stroke-width="3" stroke-miterlimit="10" stroke-linejoin="round"/>
</svg>
