<svg width="72" height="72" viewBox="0 0 72 72" fill="none" xmlns="http://www.w3.org/2000/svg">
<path d="M14.5 61V10.5C14.5 9.4 15.4 8.5 16.5 8.5H23"  stroke-width="3" stroke-miterlimit="10" stroke-linejoin="round"/>
<path d="M49 8.5H55.5C56.6 8.5 57.5 9.4 57.5 10.5V63.5C57.5 64.6 56.6 65.5 55.5 65.5H20"  stroke-width="3" stroke-miterlimit="10" stroke-linejoin="round"/>
<path d="M49.5 5.5H22.5V13.5H49.5V5.5Z"  stroke-width="3" stroke-miterlimit="10" stroke-linejoin="round"/>
<path d="M22.41 23.6899L25.91 27.1899L32.41 20.6899"  stroke-width="3" stroke-miterlimit="10" stroke-linejoin="round"/>
<path d="M22.41 36.6899L25.91 40.1899L32.41 33.6899"  stroke-width="3" stroke-miterlimit="10" stroke-linejoin="round"/>
<path d="M30.41 48.6899L22.41 56.6899"  stroke-width="3" stroke-miterlimit="10" stroke-linejoin="round"/>
<path d="M22.41 48.6899L30.41 56.6899"  stroke-width="3" stroke-miterlimit="10" stroke-linejoin="round"/>
<path d="M37 23.5H51"  stroke-width="3" stroke-miterlimit="10" stroke-linejoin="round"/>
<path d="M37 37.5H51"  stroke-width="3" stroke-miterlimit="10" stroke-linejoin="round"/>
<path d="M37 52.5H51"  stroke-width="3" stroke-miterlimit="10" stroke-linejoin="round"/>
</svg>
