<svg width="24" height="24" viewBox="0 0 24 24" fill="none" xmlns="http://www.w3.org/2000/svg">
<path d="M12 3.01C14.55 3.01 17.11 3.02 19.66 3C20.34 3 20.89 3.48 20.98 4.08C20.99 4.15 21 4.21 21 4.28C21 9.43 21 14.57 21 19.72C21 20.4 20.46 20.97 19.78 21C19.74 21 19.69 21 19.65 21C14.55 21 9.45 21 4.36 21C3.72 21 3.24 20.66 3.07 20.08C3.02 19.95 3 19.82 3 19.7C3 14.57 3 9.44 3 4.31C3 3.58 3.55 3.02 4.28 3.01C4.9 3 5.52 3.01 6.13 3.01C8.09 3 10.04 3.01 12 3.01ZM12.6 10.85C12.6 10.54 12.59 10.23 12.6 9.92C12.61 9.76 12.55 9.72 12.4 9.72C11.67 9.73 10.94 9.72 10.21 9.72C9.99 9.72 9.99 9.72 9.99 9.94C9.99 12.68 9.99 15.41 9.99 18.15C9.99 18.32 10.04 18.37 10.21 18.37C10.97 18.36 11.73 18.37 12.48 18.37C12.71 18.37 12.71 18.37 12.71 18.15C12.71 16.77 12.71 15.4 12.71 14.02C12.71 13.74 12.73 13.45 12.78 13.17C12.88 12.59 13.15 12.12 13.77 11.96C13.96 11.91 14.16 11.9 14.35 11.91C14.99 11.92 15.39 12.22 15.53 12.84C15.61 13.19 15.64 13.55 15.64 13.91C15.65 15.33 15.65 16.74 15.64 18.16C15.64 18.33 15.69 18.38 15.86 18.38C16.62 18.37 17.38 18.37 18.13 18.38C18.29 18.38 18.35 18.34 18.35 18.16C18.34 16.52 18.36 14.88 18.34 13.24C18.33 12.7 18.26 12.14 18.14 11.61C17.92 10.65 17.37 9.96 16.39 9.68C16.05 9.59 15.7 9.56 15.35 9.52C14.76 9.45 14.2 9.57 13.68 9.85C13.24 10.1 12.89 10.44 12.6 10.85ZM5.64 14.05C5.64 15.43 5.64 16.8 5.64 18.18C5.64 18.32 5.67 18.38 5.82 18.38C6.61 18.37 7.39 18.38 8.18 18.38C8.32 18.38 8.36 18.33 8.36 18.19C8.36 15.43 8.36 12.68 8.36 9.92C8.36 9.77 8.31 9.73 8.16 9.73C7.39 9.74 6.61 9.74 5.84 9.73C5.67 9.73 5.64 9.78 5.64 9.94C5.64 11.31 5.64 12.68 5.64 14.05ZM6.99 8.58C7.86 8.58 8.55 7.89 8.56 7.03C8.56 6.16 7.87 5.46 7 5.45C6.13 5.45 5.44 6.14 5.44 7.02C5.43 7.89 6.13 8.58 6.99 8.58Z"/>
</svg>
