<svg width="64" height="64" viewBox="0 0 64 64" fill="none" xmlns="http://www.w3.org/2000/svg">
<path d="M31.99 9.01006C38.52 9.01006 45.05 9.03006 51.58 9.00006C53.32 8.99006 54.73 10.2401 54.96 11.7701C54.99 11.9401 55 12.1101 55 12.2801C55 25.4301 55 38.5801 55 51.7301C55 53.4701 53.61 54.9201 51.88 54.9901C51.77 54.9901 51.65 54.9901 51.54 54.9901C38.51 54.9901 25.48 54.9901 12.45 54.9901C10.81 54.9901 9.57999 54.1101 9.14999 52.6301C9.05999 52.3201 9.00999 51.9801 9.00999 51.6601C8.99999 38.5601 9 25.4501 9 12.3501C9 10.4801 10.4 9.05006 12.27 9.02006C13.85 9.00006 15.43 9.02006 17.01 9.02006C22 9.01006 27 9.01006 31.99 9.01006ZM33.53 29.0701C33.53 28.2801 33.51 27.4901 33.54 26.7001C33.55 26.3001 33.42 26.1901 33.02 26.1901C31.16 26.2101 29.29 26.2001 27.42 26.2001C26.85 26.2001 26.85 26.2001 26.85 26.7601C26.85 33.7501 26.85 40.7401 26.84 47.7301C26.84 48.1701 26.98 48.3001 27.4 48.2901C29.34 48.2701 31.27 48.2801 33.21 48.2801C33.79 48.2801 33.79 48.2801 33.79 47.7101C33.79 44.1901 33.78 40.6801 33.8 37.1601C33.8 36.4301 33.85 35.7001 33.98 34.9801C34.25 33.4901 34.93 32.2901 36.52 31.9001C37 31.7801 37.51 31.7601 38.01 31.7601C39.65 31.7801 40.67 32.5501 41.03 34.1401C41.23 35.0201 41.31 35.9501 41.32 36.8601C41.35 40.4801 41.34 44.0901 41.32 47.7101C41.32 48.1401 41.45 48.2801 41.89 48.2801C43.83 48.2601 45.76 48.2601 47.7 48.2801C48.12 48.2801 48.27 48.1801 48.27 47.7301C48.25 43.5401 48.3 39.3501 48.24 35.1601C48.22 33.7701 48.03 32.3601 47.72 31.0001C47.16 28.5601 45.74 26.7701 43.25 26.0701C42.39 25.8301 41.48 25.7701 40.59 25.6701C39.08 25.4901 37.66 25.8001 36.32 26.5201C35.18 27.1401 34.28 28.0101 33.53 29.0701ZM15.74 37.2401C15.74 40.7601 15.74 44.2701 15.73 47.7901C15.73 48.1501 15.8 48.3101 16.2 48.3001C18.21 48.2901 20.22 48.2901 22.22 48.3001C22.58 48.3001 22.68 48.1601 22.68 47.8201C22.67 40.7701 22.67 33.7301 22.68 26.6801C22.68 26.2901 22.55 26.2001 22.18 26.2001C20.2 26.2201 18.22 26.2201 16.24 26.2001C15.81 26.2001 15.72 26.3301 15.72 26.7401C15.75 30.2301 15.74 33.7401 15.74 37.2401ZM19.2 23.2501C21.42 23.2501 23.2 21.4901 23.2 19.2901C23.2 17.0601 21.43 15.2701 19.21 15.2601C16.98 15.2601 15.21 17.0301 15.21 19.2701C15.22 21.4901 16.99 23.2501 19.2 23.2501Z"/>
</svg>
