<svg width="32" height="32" viewBox="0 0 32 32" fill="none" xmlns="http://www.w3.org/2000/svg">
<path d="M16 4.01005C19.41 4.01005 22.81 4.02005 26.22 4.00005C27.13 4.00005 27.86 4.65005 27.98 5.44005C27.99 5.53005 28 5.62005 28 5.71005C28 12.57 28 19.43 28 26.2901C28 27.2001 27.28 27.95 26.37 27.99C26.31 27.99 26.25 27.99 26.19 27.99C19.39 27.99 12.59 27.99 5.8 27.99C4.95 27.99 4.3 27.5301 4.08 26.7601C4.03 26.6101 4 26.4301 4 26.2601C4 19.4201 4 12.5801 4 5.74005C4 4.77005 4.73 4.02005 5.71 4.00005C6.53 3.99005 7.36 4.00005 8.18 4.00005C10.78 4.01005 13.39 4.01005 16 4.01005ZM16.8 14.4701C16.8 14.0601 16.79 13.6501 16.8 13.2401C16.81 13.0301 16.74 12.9701 16.53 12.9701C15.56 12.9801 14.58 12.9701 13.61 12.9701C13.31 12.9701 13.31 12.97 13.31 13.26C13.31 16.91 13.31 20.55 13.31 24.2C13.31 24.43 13.38 24.49 13.6 24.49C14.61 24.48 15.62 24.49 16.63 24.49C16.93 24.49 16.93 24.4901 16.93 24.1901C16.93 22.3601 16.93 20.52 16.93 18.69C16.93 18.31 16.96 17.93 17.02 17.55C17.16 16.77 17.52 16.15 18.35 15.94C18.6 15.88 18.87 15.87 19.13 15.87C19.99 15.88 20.52 16.2801 20.71 17.1101C20.81 17.5701 20.86 18.06 20.86 18.53C20.88 20.42 20.87 22.3001 20.86 24.1901C20.86 24.4201 20.93 24.49 21.16 24.49C22.17 24.48 23.18 24.48 24.19 24.49C24.41 24.49 24.49 24.44 24.49 24.2C24.48 22.01 24.51 19.83 24.47 17.64C24.46 16.91 24.36 16.1801 24.2 15.4701C23.91 14.2001 23.17 13.2701 21.87 12.9001C21.42 12.7701 20.95 12.74 20.48 12.69C19.69 12.6 18.95 12.7601 18.25 13.1301C17.66 13.4601 17.19 13.9201 16.8 14.4701ZM7.52 18.73C7.52 20.56 7.52 22.4001 7.52 24.2301C7.52 24.4201 7.56 24.5 7.76 24.5C8.81 24.49 9.86 24.49 10.9 24.5C11.09 24.5 11.14 24.43 11.14 24.25C11.14 20.57 11.14 16.9001 11.14 13.2201C11.14 13.0201 11.07 12.9701 10.88 12.9701C9.85 12.9801 8.81 12.9801 7.78 12.9701C7.56 12.9701 7.51 13.04 7.51 13.25C7.52 15.08 7.52 16.91 7.52 18.73ZM9.32 11.44C10.48 11.44 11.41 10.52 11.41 9.37005C11.41 8.21005 10.48 7.27005 9.33 7.27005C8.17 7.27005 7.24 8.19005 7.25 9.36005C7.25 10.5201 8.17 11.44 9.32 11.44Z"/>
</svg>
