<svg width="72" height="72" viewBox="0 0 72 72" fill="none" xmlns="http://www.w3.org/2000/svg">
<path d="M35.99 10.0101C43.37 10.0101 50.75 10.0301 58.13 10.0001C60.1 9.99005 61.69 11.4001 61.95 13.1301C61.98 13.3201 62 13.5201 62 13.7101C62 28.5801 62 43.4401 62 58.3101C62 60.2801 60.43 61.9101 58.47 62.0001C58.34 62.0001 58.21 62.0001 58.08 62.0001C43.35 62.0001 28.62 62.0001 13.89 62.0001C12.04 62.0001 10.64 61.0101 10.16 59.3301C10.06 58.9801 10 58.6001 10 58.2301C10 43.4201 10 28.6001 10 13.7801C10 11.6701 11.59 10.0401 13.7 10.0201C15.48 10.0001 17.27 10.0101 19.05 10.0101C24.7 10.0101 30.34 10.0101 35.99 10.0101ZM37.73 32.6901C37.73 31.8001 37.71 30.9101 37.74 30.0101C37.76 29.5601 37.6 29.4301 37.16 29.4401C35.05 29.4601 32.94 29.4501 30.83 29.4501C30.18 29.4501 30.18 29.4501 30.18 30.0901C30.18 37.9901 30.18 45.9001 30.17 53.8001C30.17 54.3001 30.32 54.4401 30.81 54.4301C33 54.4101 35.19 54.4201 37.38 54.4201C38.03 54.4201 38.03 54.4201 38.03 53.7801C38.03 49.8001 38.02 45.8301 38.04 41.8501C38.04 41.0301 38.1 40.1901 38.24 39.3901C38.54 37.7101 39.32 36.3501 41.11 35.9001C41.65 35.7701 42.23 35.7401 42.79 35.7501C44.64 35.7701 45.8 36.6401 46.21 38.4401C46.44 39.4401 46.52 40.4901 46.53 41.5201C46.57 45.6101 46.55 49.7001 46.54 53.7901C46.54 54.2801 46.69 54.4401 47.18 54.4301C49.37 54.4101 51.56 54.4101 53.75 54.4301C54.22 54.4301 54.39 54.3201 54.39 53.8101C54.37 49.0701 54.43 44.3301 54.35 39.6001C54.33 38.0301 54.11 36.4301 53.76 34.9001C53.13 32.1401 51.52 30.1201 48.7 29.3301C47.73 29.0601 46.7 28.9901 45.69 28.8701C43.98 28.6701 42.38 29.0101 40.87 29.8301C39.59 30.5101 38.58 31.4901 37.73 32.6901ZM17.62 41.9201C17.62 45.8901 17.63 49.8701 17.61 53.8401C17.61 54.2401 17.69 54.4201 18.14 54.4201C20.41 54.4001 22.68 54.4101 24.95 54.4201C25.36 54.4201 25.47 54.2701 25.47 53.8701C25.46 45.9101 25.46 37.9401 25.47 29.9801C25.47 29.5401 25.32 29.4301 24.91 29.4401C22.67 29.4601 20.44 29.4601 18.2 29.4401C17.72 29.4301 17.61 29.5901 17.61 30.0501C17.63 34.0001 17.62 37.9601 17.62 41.9201ZM21.54 26.1101C24.05 26.1101 26.06 24.1201 26.06 21.6301C26.06 19.1101 24.05 17.0801 21.55 17.0801C19.03 17.0801 17.03 19.0801 17.03 21.6201C17.03 24.1201 19.03 26.1101 21.54 26.1101Z"/>
</svg>
