<svg width="40" height="40" viewBox="0 0 40 40" fill="none" xmlns="http://www.w3.org/2000/svg">
<path d="M19.99 5.01009C24.25 5.01009 28.51 5.02009 32.76 5.00009C33.9 4.99009 34.81 5.81009 34.96 6.81009C34.98 6.92009 34.99 7.03009 34.99 7.14009C34.99 15.7201 34.99 24.2901 34.99 32.8701C34.99 34.0101 34.09 34.9501 32.95 35.0001C32.88 35.0001 32.8 35.0001 32.73 35.0001C24.23 35.0001 15.74 35.0001 7.24 35.0001C6.17 35.0001 5.37 34.4301 5.09 33.4601C5.03 33.2601 5 33.0401 5 32.8301C5 24.2801 5 15.7301 5 7.19009C5 5.97009 5.92 5.04009 7.14 5.02009C8.17 5.01009 9.2 5.02009 10.23 5.02009C13.48 5.01009 16.74 5.01009 19.99 5.01009ZM21 18.0901C21 17.5801 20.99 17.0601 21.01 16.5501C21.02 16.2901 20.93 16.2201 20.67 16.2201C19.45 16.2301 18.24 16.2301 17.02 16.2301C16.65 16.2301 16.65 16.2301 16.65 16.6001C16.65 21.1601 16.65 25.7201 16.64 30.2801C16.64 30.5701 16.73 30.6501 17.01 30.6501C18.27 30.6401 19.54 30.6501 20.8 30.6401C21.18 30.6401 21.18 30.6401 21.18 30.2701C21.18 27.9801 21.17 25.6801 21.19 23.3901C21.19 22.9201 21.22 22.4301 21.31 21.9701C21.48 21.0001 21.93 20.2201 22.97 19.9601C23.28 19.8801 23.62 19.8701 23.94 19.8701C25.01 19.8801 25.68 20.3801 25.91 21.4201C26.04 22.0001 26.09 22.6001 26.1 23.2001C26.12 25.5601 26.11 27.9201 26.1 30.2801C26.1 30.5601 26.19 30.6501 26.47 30.6501C27.73 30.6401 29 30.6401 30.26 30.6501C30.53 30.6501 30.63 30.5801 30.63 30.2901C30.62 27.5601 30.65 24.8201 30.61 22.0901C30.6 21.1801 30.47 20.2601 30.27 19.3801C29.91 17.7901 28.98 16.6201 27.35 16.1701C26.79 16.0101 26.2 15.9701 25.61 15.9101C24.63 15.7901 23.7 15.9901 22.83 16.4601C22.07 16.8301 21.49 17.4001 21 18.0901ZM9.4 23.4201C9.4 25.7101 9.4 28.0101 9.4 30.3001C9.4 30.5301 9.45 30.6401 9.71 30.6401C11.02 30.6301 12.33 30.6301 13.64 30.6401C13.88 30.6401 13.94 30.5501 13.94 30.3201C13.94 25.7201 13.93 21.1301 13.94 16.5301C13.94 16.2801 13.85 16.2201 13.61 16.2201C12.32 16.2301 11.03 16.2301 9.74 16.2201C9.46 16.2201 9.4 16.3101 9.4 16.5701C9.4 18.8501 9.4 21.1301 9.4 23.4201ZM11.66 14.3001C13.11 14.3001 14.27 13.1501 14.27 11.7101C14.27 10.2501 13.11 9.09009 11.67 9.08009C10.21 9.08009 9.06 10.2401 9.06 11.7001C9.06 13.1501 10.21 14.3001 11.66 14.3001Z"/>
</svg>
