<svg width="16" height="16" viewBox="0 0 16 16" fill="none" xmlns="http://www.w3.org/2000/svg">
<path d="M8 2.00005C9.7 2.00005 11.41 2.01005 13.11 2.00005C13.56 2.00005 13.93 2.32005 13.99 2.72005C14 2.77005 14 2.81005 14 2.86005C14 6.29005 14 9.72005 14 13.1501C14 13.6101 13.64 13.98 13.19 14C13.16 14 13.13 14 13.1 14C9.7 14 6.3 14 2.9 14C2.47 14 2.15 13.77 2.04 13.38C2.01 13.3 2 13.22 2 13.13C2 9.71005 2 6.29005 2 2.87005C2 2.38005 2.37 2.01005 2.85 2.00005C3.26 1.99005 3.67 2.00005 4.09 2.00005C5.39 2.00005 6.69 2.00005 8 2.00005ZM8.4 7.24005C8.4 7.03005 8.4 6.83005 8.4 6.62005C8.4 6.52005 8.37 6.49005 8.27 6.49005C7.78 6.49005 7.3 6.49005 6.81 6.49005C6.66 6.49005 6.66 6.49005 6.66 6.64005C6.66 8.46005 6.66 10.2901 6.66 12.1101C6.66 12.22 6.7 12.2601 6.81 12.2601C7.32 12.2601 7.82 12.2601 8.33 12.2601C8.48 12.2601 8.48 12.26 8.48 12.1101C8.48 11.1901 8.48 10.2801 8.48 9.36005C8.48 9.17005 8.49 8.98005 8.53 8.79005C8.6 8.40005 8.78 8.09005 9.19 7.99005C9.31 7.96005 9.45 7.95005 9.58 7.95005C10.01 7.96005 10.28 8.16005 10.37 8.57005C10.42 8.80005 10.44 9.04005 10.44 9.28005C10.45 10.22 10.44 11.1701 10.44 12.1101C10.44 12.22 10.47 12.2601 10.59 12.2601C11.1 12.2601 11.6 12.2601 12.11 12.2601C12.22 12.2601 12.26 12.2301 12.26 12.1201C12.26 11.0301 12.27 9.93005 12.25 8.84005C12.24 8.48005 12.19 8.11005 12.11 7.75005C11.96 7.11005 11.59 6.65005 10.94 6.47005C10.72 6.41005 10.48 6.39005 10.25 6.36005C9.86 6.31005 9.49 6.39005 9.14 6.58005C8.83 6.73005 8.6 6.96005 8.4 7.24005ZM3.76 9.37005C3.76 10.2901 3.76 11.2001 3.76 12.1201C3.76 12.2101 3.78 12.25 3.88 12.25C4.4 12.25 4.93 12.25 5.45 12.25C5.54 12.25 5.57 12.2101 5.57 12.1201C5.57 10.2801 5.57 8.44005 5.57 6.61005C5.57 6.51005 5.54 6.48005 5.44 6.48005C4.92 6.48005 4.41 6.49005 3.89 6.48005C3.78 6.48005 3.75 6.52005 3.75 6.62005C3.76 7.54005 3.76 8.45005 3.76 9.37005ZM4.66 5.72005C5.24 5.72005 5.7 5.26005 5.7 4.69005C5.7 4.11005 5.24 3.64005 4.66 3.64005C4.08 3.64005 3.62 4.10005 3.62 4.69005C3.62 5.26005 4.08 5.72005 4.66 5.72005Z"/>
</svg>
