<svg width="72" height="72" viewBox="0 0 72 72" fill="none" xmlns="http://www.w3.org/2000/svg">
<path d="M20.15 50.22L36 62.5L60.34 42.22C64.87 37.69 66.5 33.86 66.5 28.63V29C66.5 19.34 58.66 11.5 49 11.5C43.83 11.5 39.2 13.75 36 17.31C32.8 13.75 28.17 11.5 23 11.5C13.34 11.5 5.5 19.34 5.5 29C5.5 34.09 7.68 39.19 11 42.22"/>
<path d="M20.15 50.22L36 62.5L60.34 42.22C64.87 37.69 66.5 33.86 66.5 28.63V29C66.5 19.34 58.66 11.5 49 11.5C43.83 11.5 39.2 13.75 36 17.31C32.8 13.75 28.17 11.5 23 11.5C13.34 11.5 5.5 19.34 5.5 29C5.5 34.09 7.68 39.19 11 42.22" stroke-width="3" stroke-miterlimit="10" stroke-linejoin="round"/>
</svg>
