<svg width="32" height="32" viewBox="0 0 32 32" fill="none" xmlns="http://www.w3.org/2000/svg">
<path d="M9 22.56L16 28L25 21C29 18 29 15.23 29 12.5C29 8.36 25.64 5 21.5 5C19.32 5 17.37 5.93 16 7.41C14.63 5.93 12.68 5 10.5 5C6.36 5 3 8.36 3 12.5C3 14.61 3 16.75 4.86 19"/>
<path d="M9 22.56L16 28L25 21C29 18 29 15.23 29 12.5C29 8.36 25.64 5 21.5 5C19.32 5 17.37 5.93 16 7.41C14.63 5.93 12.68 5 10.5 5C6.36 5 3 8.36 3 12.5C3 14.61 3 16.75 4.86 19"  stroke-width="2" stroke-miterlimit="10" stroke-linejoin="round"/>
</svg>
