<svg width="24" height="24" viewBox="0 0 24 24" fill="none" xmlns="http://www.w3.org/2000/svg">
<path d="M1 6H5.2C5.63 6 6 6.27 6.14 6.67L8 12"  stroke-width="2" stroke-miterlimit="10" stroke-linejoin="round"/>
<path d="M1 12H8.62L10 14.61L10.02 19H1"  stroke-width="2" stroke-miterlimit="10" stroke-linejoin="round"/>
<path d="M6 19.25V20.75C6 21.58 6.67 22.25 7.5 22.25C8.33 22.25 9 21.58 9 20.75V19.25"  stroke-width="2" stroke-miterlimit="10" stroke-linejoin="round"/>
<path d="M7 16H4"  stroke-width="2" stroke-miterlimit="10" stroke-linejoin="round"/>
<path d="M23.02 6H18.82C18.39 6 18.02 6.27 17.88 6.67L16.02 12"  stroke-width="2" stroke-miterlimit="10" stroke-linejoin="round"/>
<path d="M23.02 12H15.4L14.02 14.61L14 19H23.02"  stroke-width="2" stroke-miterlimit="10" stroke-linejoin="round"/>
<path d="M18.02 19.25V20.75C18.02 21.58 17.35 22.25 16.52 22.25C15.69 22.25 15.02 21.58 15.02 20.75V19.25"  stroke-width="2" stroke-miterlimit="10" stroke-linejoin="round"/>
<path d="M17.02 16H20.02"  stroke-width="2" stroke-miterlimit="10" stroke-linejoin="round"/>
<path d="M14.9699 2L9.10986 8.06"  stroke-width="2" stroke-miterlimit="10" stroke-linejoin="round"/>
<path d="M9.10986 2L14.9699 8.06"  stroke-width="2" stroke-miterlimit="10" stroke-linejoin="round"/>
</svg>
