<svg width="64" height="64" viewBox="0 0 64 64" fill="none" xmlns="http://www.w3.org/2000/svg">
<path d="M4 15.5H15.1C16.57 15.5 17.85 16.5 18.21 17.93L23.02 31.4"  stroke-width="3" stroke-miterlimit="10" stroke-linejoin="round"/>
<path d="M4 31.5H24.32L27.22 36.91C27.41 37.66 27.5 38.43 27.5 39.2V48.9C27.5 49.78 26.78 50.5 25.9 50.5H4"  stroke-width="3" stroke-miterlimit="10" stroke-linejoin="round"/>
<path d="M22 30.5H29"  stroke-width="3" stroke-miterlimit="10" stroke-linejoin="round"/>
<path d="M16.5 51V53.4C16.5 55.61 18.29 57.4 20.5 57.4C22.71 57.4 24.5 55.61 24.5 53.4V51"  stroke-width="3" stroke-miterlimit="10" stroke-linejoin="round"/>
<path d="M11.5 43.5H21.5V38.5H14.5C12.84 38.5 11.5 39.84 11.5 41.5V43.5Z"  stroke-width="3" stroke-miterlimit="10" stroke-linejoin="round"/>
<path d="M60 15.5H48.9C47.43 15.5 46.15 16.5 45.79 17.93L40.98 31.4"  stroke-width="3" stroke-miterlimit="10" stroke-linejoin="round"/>
<path d="M60 31.5H39.68L36.78 36.91C36.59 37.66 36.5 38.43 36.5 39.2V48.9C36.5 49.78 37.22 50.5 38.1 50.5H60"  stroke-width="3" stroke-miterlimit="10" stroke-linejoin="round"/>
<path d="M42 30.5H35"  stroke-width="3" stroke-miterlimit="10" stroke-linejoin="round"/>
<path d="M47.5 51V53.4C47.5 55.61 45.71 57.4 43.5 57.4C41.29 57.4 39.5 55.61 39.5 53.4V51"  stroke-width="3" stroke-miterlimit="10" stroke-linejoin="round"/>
<path d="M52.5 43.5H42.5V38.5H49.5C51.16 38.5 52.5 39.84 52.5 41.5V43.5Z"  stroke-width="3" stroke-miterlimit="10" stroke-linejoin="round"/>
<path d="M38.5 6.5L25.5 19.5"  stroke-width="3" stroke-miterlimit="10" stroke-linejoin="round"/>
<path d="M25.5 6.5L38.5 19.5"  stroke-width="3" stroke-miterlimit="10" stroke-linejoin="round"/>
</svg>
