<svg width="32" height="32" viewBox="0 0 32 32" fill="none" xmlns="http://www.w3.org/2000/svg">
<path d="M2 7H5.55C6.29 7 6.93 7.5 7.1 8.21L9.51 14.64"  stroke-width="2" stroke-miterlimit="10" stroke-linejoin="round"/>
<path d="M2 15H10.47L11.86 16.85C11.95 17.24 11.99 17.65 11.99 18.05V23.17C11.99 23.63 11.65 24 11.23 24H2"  stroke-width="2" stroke-miterlimit="10" stroke-linejoin="round"/>
<path d="M10 14H13"  stroke-width="2" stroke-miterlimit="10" stroke-linejoin="round"/>
<path d="M7 24V26C7 27.1 7.9 28 9 28C10.1 28 11 27.1 11 26V24"  stroke-width="2" stroke-miterlimit="10" stroke-linejoin="round"/>
<path d="M8 20H4"  stroke-width="2" stroke-miterlimit="10" stroke-linejoin="round"/>
<path d="M30.0002 7H26.4502C25.7102 7 25.0702 7.5 24.9002 8.21L22.4902 14.64"  stroke-width="2" stroke-miterlimit="10" stroke-linejoin="round"/>
<path d="M29.9998 15H21.5298L20.1398 16.85C20.0498 17.24 20.0098 17.65 20.0098 18.05V23.17C20.0098 23.63 20.3498 24 20.7698 24H29.9998"  stroke-width="2" stroke-miterlimit="10" stroke-linejoin="round"/>
<path d="M22 14H19"  stroke-width="2" stroke-miterlimit="10" stroke-linejoin="round"/>
<path d="M25 24V26C25 27.1 24.1 28 23 28C21.9 28 21 27.1 21 26V24"  stroke-width="2" stroke-miterlimit="10" stroke-linejoin="round"/>
<path d="M24 20H28"  stroke-width="2" stroke-miterlimit="10" stroke-linejoin="round"/>
<path d="M19 4L13 10"  stroke-width="2" stroke-miterlimit="10" stroke-linejoin="round"/>
<path d="M13 4L19 10"  stroke-width="2" stroke-miterlimit="10" stroke-linejoin="round"/>
</svg>
