<svg width="72" height="72" viewBox="0 0 72 72" fill="none" xmlns="http://www.w3.org/2000/svg">
<path d="M5 19.5H16.86C18.51 19.5 19.96 20.63 20.35 22.23L25.76 35.51"  stroke-width="3" stroke-miterlimit="10" stroke-linejoin="round"/>
<path d="M5 36.5H26.9L30.18 42.48C30.39 43.31 30.5 44.16 30.5 45.01V55.72C30.5 56.7 29.7 57.5 28.71 57.5H5"  stroke-width="3" stroke-miterlimit="10" stroke-linejoin="round"/>
<path d="M25 34.5H33"  stroke-width="3" stroke-miterlimit="10" stroke-linejoin="round"/>
<path d="M18.5 58V60.7C18.5 63.19 20.51 65.2 23 65.2C25.49 65.2 27.5 63.19 27.5 60.7V58"  stroke-width="3" stroke-miterlimit="10" stroke-linejoin="round"/>
<path d="M12.5 49.5H23.5V43.5H15.5C13.84 43.5 12.5 44.84 12.5 46.5V49.5Z"  stroke-width="3" stroke-miterlimit="10" stroke-linejoin="round"/>
<path d="M67.0002 19.5H55.1403C53.4903 19.5 52.0402 20.63 51.6502 22.23L46.2402 35.51"  stroke-width="3" stroke-miterlimit="10" stroke-linejoin="round"/>
<path d="M67 36.5H45.1L41.82 42.48C41.61 43.31 41.5 44.16 41.5 45.01V55.72C41.5 56.7 42.3 57.5 43.29 57.5H67"  stroke-width="3" stroke-miterlimit="10" stroke-linejoin="round"/>
<path d="M47 34.5H39"  stroke-width="3" stroke-miterlimit="10" stroke-linejoin="round"/>
<path d="M53.5 58V60.7C53.5 63.19 51.49 65.2 49 65.2C46.51 65.2 44.5 63.19 44.5 60.7V58"  stroke-width="3" stroke-miterlimit="10" stroke-linejoin="round"/>
<path d="M59.5 49.5H48.5V43.5H56.5C58.16 43.5 59.5 44.84 59.5 46.5V49.5Z"  stroke-width="3" stroke-miterlimit="10" stroke-linejoin="round"/>
<path d="M42.5 8.5L29.5 21.5"  stroke-width="3" stroke-miterlimit="10" stroke-linejoin="round"/>
<path d="M29.5 8.5L42.5 21.5"  stroke-width="3" stroke-miterlimit="10" stroke-linejoin="round"/>
</svg>
