<svg width="64" height="64" viewBox="0 0 64 64" fill="none" xmlns="http://www.w3.org/2000/svg">
<path d="M53.7699 20.3999C53.7999 20.8599 53.7999 21.3299 53.7999 21.7899C53.7999 36.0299 42.9599 52.4399 23.1499 52.4399V52.4299C17.2999 52.4399 11.5599 50.7599 6.63989 47.5999C7.48989 47.6999 8.34989 47.7499 9.19989 47.7599C14.0499 47.7599 18.7599 46.1399 22.5799 43.1399C17.9699 43.0499 13.9299 40.0499 12.5099 35.6599C14.1199 35.9699 15.7899 35.9099 17.3699 35.4799C12.3399 34.4599 8.72989 30.0499 8.72989 24.9199C8.72989 24.8699 8.72989 24.8299 8.72989 24.7799C10.2299 25.6199 11.9099 26.0799 13.6199 26.1299C8.88989 22.9699 7.42989 16.6699 10.2799 11.7499C15.7499 18.4799 23.8199 22.5699 32.4799 23.0099C31.6099 19.2699 32.7999 15.3499 35.5999 12.7199C39.9399 8.63988 46.7599 8.84988 50.8399 13.1899C53.2499 12.7099 55.5699 11.8299 57.6799 10.5799C56.8799 13.0699 55.1899 15.1899 52.9399 16.5399C55.0799 16.2899 57.1599 15.7199 59.1299 14.8499C57.6999 16.9899 55.8799 18.8699 53.7699 20.3999Z"/>
</svg>
