<svg width="16" height="16" viewBox="0 0 16 16" fill="none" xmlns="http://www.w3.org/2000/svg">
<path d="M13.4399 5.10003C13.4499 5.22003 13.4499 5.33004 13.4499 5.45004C13.4499 9.01004 10.7399 13.11 5.78991 13.11C4.32991 13.11 2.88991 12.69 1.65991 11.9C1.86991 11.93 2.08991 11.94 2.29991 11.94C3.50991 11.94 4.68991 11.53 5.63991 10.78C4.48991 10.76 3.47991 10.01 3.11991 8.91004C3.51991 8.99004 3.93991 8.97004 4.33991 8.86003C3.07991 8.61003 2.17991 7.50004 2.17991 6.22004C2.17991 6.21004 2.17991 6.20003 2.17991 6.19003C2.54991 6.40003 2.96991 6.51003 3.39991 6.53003C2.21991 5.74003 1.84991 4.17003 2.56991 2.93003C3.93991 4.61003 5.95991 5.64004 8.11991 5.74004C7.89991 4.80004 8.19991 3.82003 8.89991 3.17003C9.97991 2.15003 11.6899 2.20004 12.7099 3.29004C13.3099 3.17004 13.8899 2.95003 14.4199 2.64003C14.2199 3.26003 13.7999 3.79004 13.2399 4.13004C13.7699 4.07004 14.2999 3.92003 14.7899 3.71003C14.4199 4.25003 13.9699 4.72003 13.4399 5.10003Z"/>
</svg>
