<svg width="32" height="32" viewBox="0 0 32 32" fill="none" xmlns="http://www.w3.org/2000/svg">
<path d="M26.8801 10.2C26.9001 10.43 26.9001 10.66 26.9001 10.9C26.9001 18.02 21.4801 26.23 11.5701 26.23C8.64006 26.23 5.78006 25.4 3.31006 23.81C3.74006 23.86 4.16006 23.89 4.59006 23.89C7.02006 23.89 9.37006 23.08 11.2801 21.58C8.98006 21.54 6.95006 20.03 6.25006 17.84C7.06006 18 7.89006 17.96 8.68006 17.75C6.17006 17.24 4.36006 15.03 4.36006 12.47C4.36006 12.45 4.36006 12.42 4.36006 12.4C5.11006 12.82 5.95006 13.05 6.80006 13.07C4.43006 11.49 3.70006 8.33997 5.13006 5.87997C7.87006 9.24997 11.9001 11.29 16.2301 11.51C15.8001 9.63997 16.3901 7.67997 17.7901 6.35997C19.9601 4.31997 23.3701 4.41997 25.4101 6.58997C26.6201 6.34997 27.7701 5.90997 28.8301 5.27997C28.4301 6.52997 27.5901 7.58997 26.4601 8.25997C27.5301 8.12997 28.5701 7.84997 29.5501 7.40997C28.8501 8.48997 27.9401 9.43997 26.8801 10.2Z"/>
</svg>
