<svg width="72" height="72" viewBox="0 0 72 72" fill="none" xmlns="http://www.w3.org/2000/svg">
<path d="M60.4902 22.9499C60.5302 23.4699 60.5302 23.9899 60.5302 24.5199C60.5302 40.5399 48.3402 58.9999 26.0502 58.9999V58.9899C19.4602 58.9999 13.0202 57.1099 7.47021 53.5599C8.43021 53.6699 9.39021 53.7299 10.3602 53.7299C15.8202 53.7399 21.1202 51.8999 25.4102 48.5299C20.2202 48.4299 15.6702 45.0499 14.0902 40.1099C15.9102 40.4599 17.7802 40.3899 19.5602 39.8999C13.9002 38.7599 9.84021 33.7899 9.84021 28.0199C9.84021 27.9699 9.84021 27.9199 9.84021 27.8699C11.5302 28.8099 13.4102 29.3299 15.3402 29.3899C10.0102 25.8299 8.37021 18.7499 11.5902 13.2099C17.7402 20.7799 26.8202 25.3799 36.5702 25.8699C35.5902 21.6599 36.9302 17.2499 40.0802 14.2899C44.9602 9.69992 52.6402 9.93992 57.2302 14.8199C59.9402 14.2799 62.5502 13.2899 64.9302 11.8799C64.0302 14.6899 62.1302 17.0699 59.6002 18.5799C62.0002 18.2999 64.3502 17.6499 66.5602 16.6699C64.9102 19.1099 62.8602 21.2299 60.4902 22.9499Z"/>
</svg>
