<svg width="40" height="40" viewBox="0 0 40 40" fill="none" xmlns="http://www.w3.org/2000/svg">
<path d="M33.6099 12.75C33.6299 13.04 33.6299 13.33 33.6299 13.62C33.6299 22.52 26.8599 32.78 14.4699 32.78V32.77C10.8099 32.77 7.2299 31.73 4.1499 29.75C4.6799 29.81 5.2199 29.85 5.7499 29.85C8.7799 29.85 11.7299 28.84 14.1099 26.96C11.2299 26.91 8.6999 25.03 7.8199 22.28C8.8299 22.47 9.8699 22.43 10.8599 22.16C7.7199 21.53 5.4599 18.76 5.4599 15.56C5.4599 15.53 5.4599 15.5 5.4599 15.47C6.3999 15.99 7.4399 16.28 8.5199 16.31C5.5599 14.33 4.6499 10.4 6.4399 7.32C9.8599 11.53 14.8999 14.08 20.3199 14.35C19.7799 12.01 20.5199 9.56 22.2699 7.92C24.9799 5.37 29.2499 5.5 31.7999 8.21C33.3099 7.91 34.7499 7.36 36.0799 6.58C35.5799 8.14 34.5299 9.46 33.1199 10.3C34.4499 10.14 35.7599 9.79 36.9899 9.24C36.0599 10.62 34.9199 11.8 33.6099 12.75Z"/>
</svg>
