<svg width="24" height="24" viewBox="0 0 24 24" fill="none" xmlns="http://www.w3.org/2000/svg">
<path d="M20.16 7.6501C20.17 7.8201 20.17 8.0001 20.17 8.1701C20.17 13.5101 16.11 19.6601 8.67999 19.6601C6.47999 19.6601 4.33999 19.0301 2.48999 17.8501C2.80999 17.8901 3.12999 17.9101 3.44999 17.9101C5.26999 17.9101 7.03999 17.3001 8.46999 16.1801C6.73999 16.1501 5.21999 15.0201 4.69999 13.3701C5.30999 13.4901 5.92999 13.4601 6.51999 13.3001C4.62999 12.9201 3.27999 11.2601 3.27999 9.3401C3.27999 9.3201 3.27999 9.3101 3.27999 9.2901C3.83999 9.6001 4.46999 9.7801 5.10999 9.8001C3.32999 8.6101 2.78999 6.2501 3.85999 4.4101C5.90999 6.9301 8.93999 8.4701 12.19 8.6301C11.86 7.2301 12.31 5.7601 13.36 4.7701C14.99 3.2401 17.55 3.3201 19.08 4.9501C19.98 4.7701 20.85 4.4401 21.65 3.9701C21.35 4.9101 20.72 5.7001 19.87 6.2001C20.67 6.1101 21.45 5.8901 22.19 5.5601C21.64 6.3701 20.95 7.0801 20.16 7.6501Z"/>
</svg>
