<svg width="32" height="32" viewBox="0 0 32 32" fill="none" xmlns="http://www.w3.org/2000/svg">
<path d="M6 9V26C6 26.55 6.45 27 7 27H25C25.55 27 26 26.55 26 26V5H6"  stroke-width="2" stroke-miterlimit="10" stroke-linejoin="round"/>
<path d="M20.5 17C21.8807 17 23 15.8807 23 14.5C23 13.1193 21.8807 12 20.5 12C19.1193 12 18 13.1193 18 14.5C18 15.8807 19.1193 17 20.5 17Z"  stroke-width="2" stroke-miterlimit="10" stroke-linejoin="round"/>
<path d="M3 5H29"  stroke-width="2" stroke-miterlimit="10" stroke-linejoin="round"/>
<path d="M20.8 14.3999L3.98 22.8099C3.56 23.0199 3.05 22.8299 2.88 22.3899L1.88 19.8799C1.73 19.4899 1.89 19.0499 2.27 18.8699L5.61 17.1999"  stroke-width="2" stroke-miterlimit="10" stroke-linejoin="round"/>
<path d="M15 5V11C15 11.55 14.55 12 14 12H13C12.45 12 12 11.55 12 11V10C12 9.45 11.55 9 11 9H10C9.45 9 9 9.45 9 10V14C9 14.55 8.55 15 8 15H7"  stroke-width="2" stroke-miterlimit="10" stroke-linejoin="round"/>
</svg>
