<svg width="72" height="72" viewBox="0 0 72 72" fill="none" xmlns="http://www.w3.org/2000/svg">
<path d="M13.5 20V57.5C13.5 58.6 14.4 59.5 15.5 59.5H58.5C59.6 59.5 60.5 58.6 60.5 57.5V11.5H13.5"  stroke-width="3" stroke-miterlimit="10" stroke-linejoin="round"/>
<path d="M47 38.5C50.0376 38.5 52.5 36.0376 52.5 33C52.5 29.9624 50.0376 27.5 47 27.5C43.9624 27.5 41.5 29.9624 41.5 33C41.5 36.0376 43.9624 38.5 47 38.5Z"  stroke-width="3" stroke-miterlimit="10" stroke-linejoin="round"/>
<path d="M7 11.5H65"  stroke-width="3" stroke-miterlimit="10" stroke-linejoin="round"/>
<path d="M34.5 12V25.25C34.5 26.49 33.49 27.5 32.25 27.5H29.75C28.51 27.5 27.5 26.49 27.5 25.25V24.75C27.5 23.51 26.49 22.5 25.25 22.5H23.75C22.51 22.5 21.5 23.51 21.5 24.75V31.25C21.5 32.49 20.49 33.5 19.25 33.5H14"  stroke-width="3" stroke-miterlimit="10" stroke-linejoin="round"/>
<path d="M46.8 33.5298L8.95004 52.4598C8.01004 52.9298 6.86004 52.4998 6.47004 51.5198L4.21005 45.8698C3.86005 44.9998 4.24004 44.0098 5.08004 43.5898L12.6 39.8298"  stroke-width="3" stroke-miterlimit="10" stroke-linejoin="round"/>
</svg>
