<svg width="40" height="40" viewBox="0 0 40 40" fill="none" xmlns="http://www.w3.org/2000/svg">
<path d="M7 11V32C7 32.55 7.45 33 8 33H32C32.55 33 33 32.55 33 32V6H7"  stroke-width="2" stroke-miterlimit="10" stroke-linejoin="round"/>
<path d="M26 21C27.6569 21 29 19.6569 29 18C29 16.3431 27.6569 15 26 15C24.3431 15 23 16.3431 23 18C23 19.6569 24.3431 21 26 21Z"  stroke-width="2" stroke-miterlimit="10" stroke-linejoin="round"/>
<path d="M4 6H36"  stroke-width="2" stroke-miterlimit="10" stroke-linejoin="round"/>
<path d="M19 6V13.5C19 14.33 18.33 15 17.5 15H16.5C15.67 15 15 14.33 15 13.5C15 12.67 14.33 12 13.5 12C12.67 12 12 12.67 12 13.5V16.5C12 17.33 11.33 18 10.5 18H7"  stroke-width="2" stroke-miterlimit="10" stroke-linejoin="round"/>
<path d="M26 18L4.96999 28.51C4.44999 28.77 3.80999 28.53 3.58999 27.99L2.33999 24.85C2.14999 24.37 2.35999 23.82 2.81999 23.58L6.99999 21.5"  stroke-width="2" stroke-miterlimit="10" stroke-linejoin="round"/>
</svg>
