<svg width="64" height="64" viewBox="0 0 64 64" fill="none" xmlns="http://www.w3.org/2000/svg">
<path d="M11.5 17V51.5C11.5 52.6 12.4 53.5 13.5 53.5H50.5C51.6 53.5 52.5 52.6 52.5 51.5V10.5H11.5"  stroke-width="3" stroke-miterlimit="10" stroke-linejoin="round"/>
<path d="M41.5 34.5C44.2614 34.5 46.5 32.2614 46.5 29.5C46.5 26.7386 44.2614 24.5 41.5 24.5C38.7386 24.5 36.5 26.7386 36.5 29.5C36.5 32.2614 38.7386 34.5 41.5 34.5Z"  stroke-width="3" stroke-miterlimit="10" stroke-linejoin="round"/>
<path d="M6 10.5H58"  stroke-width="3" stroke-miterlimit="10" stroke-linejoin="round"/>
<path d="M30.5 12V22.5C30.5 23.6 29.6 24.5 28.5 24.5H26.5C25.4 24.5 24.5 23.6 24.5 22.5V21.5C24.5 20.4 23.6 19.5 22.5 19.5H21.5C20.4 19.5 19.5 20.4 19.5 21.5V27.5C19.5 28.6 18.6 29.5 17.5 29.5H12"  stroke-width="3" stroke-miterlimit="10" stroke-linejoin="round"/>
<path d="M41.6 29.7998L7.96004 46.6198C7.12004 47.0398 6.11002 46.6498 5.76002 45.7798L3.75003 40.7598C3.44003 39.9898 3.78003 39.1098 4.52003 38.7298L11.2 35.3898"  stroke-width="3" stroke-miterlimit="10" stroke-linejoin="round"/>
</svg>
