<svg width="16" height="16" viewBox="0 0 16 16" fill="none" xmlns="http://www.w3.org/2000/svg">
<path d="M14 8.27C13.99 8.78 13.99 9.56 13.97 10.34C13.96 10.9 13.88 11.45 13.67 11.97C13.31 12.85 12.67 13.43 11.78 13.75C11.33 13.91 10.86 13.97 10.39 13.98C9.01 13.99 7.64 14 6.27 14C5.75 14 5.23 13.98 4.72 13.89C3.41 13.66 2.42 12.71 2.14 11.41C2.03 10.85 2 10.3 2 9.74C2 8.36 2.01 6.98 2.02 5.6C2.03 4.99 2.13 4.39 2.4 3.84C2.76 3.11 3.31 2.6 4.07 2.3C4.55 2.11 5.05 2.03 5.55 2.02C6.98 2.01 8.4 2 9.82 2C10.26 2 10.71 2.03 11.15 2.1C12.26 2.27 13.1 2.84 13.59 3.86C13.77 4.22 13.86 4.61 13.91 5.01C14.03 6.01 13.98 7.01 14 8.27ZM3.08 7.99C3.09 8.75 3.1 9.51 3.12 10.27C3.13 10.58 3.16 10.9 3.23 11.2C3.41 12.06 4.07 12.66 4.93 12.8C5.4 12.88 5.86 12.89 6.33 12.89C7.42 12.9 8.51 12.9 9.59 12.89C10.08 12.89 10.56 12.87 11.04 12.79C11.95 12.64 12.65 11.96 12.78 11.05C12.84 10.66 12.87 10.25 12.88 9.86C12.88 8.43 12.88 7 12.86 5.57C12.86 5.31 12.82 5.05 12.76 4.8C12.56 3.93 12.01 3.39 11.14 3.21C10.8 3.14 10.45 3.11 10.11 3.11C8.59 3.1 7.06 3.11 5.54 3.12C5.26 3.12 4.98 3.17 4.71 3.24C4.01 3.42 3.54 3.86 3.3 4.55C3.17 4.92 3.13 5.3 3.13 5.69C3.1 6.47 3.09 7.23 3.08 7.99Z"/>
<path d="M7.9899 11.0999C6.2999 11.0999 4.8999 9.6999 4.8999 7.9999C4.8999 6.2999 6.2899 4.8999 7.9999 4.8999C9.6999 4.8999 11.0899 6.2999 11.0899 7.9999C11.0799 9.6999 9.6899 11.0999 7.9899 11.0999ZM9.9799 8.0099C9.9899 6.9199 9.0999 6.0099 8.0099 5.9999C6.9199 5.9899 6.0199 6.8799 5.9999 7.9799C5.9799 9.0699 6.8699 9.9799 7.9699 9.9899C9.0699 10.0099 9.9699 9.1199 9.9799 8.0099Z"/>
<path d="M11.89 4.79006C11.89 5.18006 11.56 5.50006 11.17 5.50006C10.77 5.50006 10.45 5.17006 10.45 4.77006C10.46 4.38006 10.79 4.06006 11.18 4.06006C11.58 4.06006 11.9 4.39006 11.89 4.79006Z"/>
</svg>
