<svg width="40" height="40" viewBox="0 0 40 40" fill="none" xmlns="http://www.w3.org/2000/svg">
<path d="M35.0001 20.67C34.9801 21.95 34.9601 23.9 34.9101 25.85C34.8701 27.25 34.7 28.62 34.15 29.93C33.24 32.12 31.6601 33.59 29.4301 34.37C28.3001 34.76 27.13 34.93 25.95 34.94C22.52 34.98 19.09 35 15.67 35C14.37 35 13.0801 34.94 11.7901 34.71C8.51005 34.12 6.05005 31.75 5.35005 28.5C5.05005 27.13 5.00005 25.74 4.99005 24.35C4.98005 20.9 5.00005 17.45 5.05005 14C5.07005 12.47 5.32005 10.98 6.00005 9.59002C6.89005 7.76002 8.29005 6.49002 10.17 5.74002C11.36 5.27002 12.61 5.06002 13.88 5.05002C17.43 5.01002 20.9801 4.98002 24.5401 5.00002C25.6501 5.00002 26.7701 5.08002 27.8701 5.25002C30.6401 5.68002 32.73 7.10002 33.98 9.66002C34.42 10.57 34.67 11.53 34.7801 12.53C35.0701 15.02 34.9501 17.51 35.0001 20.67ZM7.70005 19.98C7.73005 21.89 7.74005 23.79 7.81005 25.69C7.84005 26.47 7.92005 27.26 8.08005 28.02C8.54005 30.17 10.1801 31.66 12.3301 32.02C13.4901 32.21 14.66 32.25 15.84 32.26C18.56 32.28 21.2801 32.28 24.0001 32.26C25.2101 32.25 26.43 32.22 27.63 32.02C29.91 31.64 31.6401 29.95 31.9701 27.66C32.1101 26.67 32.2101 25.67 32.2101 24.68C32.2201 21.11 32.2001 17.53 32.1601 13.96C32.1501 13.32 32.0501 12.66 31.9001 12.03C31.3901 9.85002 30.02 8.51002 27.84 8.06002C27 7.89002 26.12 7.81002 25.27 7.81002C21.46 7.79002 17.65 7.80002 13.84 7.84002C13.15 7.85002 12.45 7.97002 11.78 8.15002C10.03 8.61002 8.84005 9.71002 8.24005 11.43C7.92005 12.35 7.83005 13.32 7.80005 14.28C7.75005 16.17 7.73005 18.08 7.70005 19.98Z"/>
<path d="M19.97 27.74C15.73 27.74 12.26 24.25 12.25 20C12.25 15.74 15.73 12.26 19.99 12.26C24.23 12.26 27.71 15.75 27.7 20C27.71 24.26 24.22 27.74 19.97 27.74ZM24.96 20.03C24.99 17.31 22.77 15.04 20.03 15C17.31 14.97 15.06 17.19 15.01 19.94C14.97 22.66 17.19 24.94 19.93 24.98C22.67 25.02 24.92 22.8 24.96 20.03Z"/>
<path d="M29.74 11.97C29.73 12.94 28.92 13.74 27.94 13.74C26.94 13.74 26.13 12.91 26.14 11.92C26.15 10.94 26.99 10.13 27.97 10.15C28.95 10.16 29.75 10.98 29.74 11.97Z"/>
</svg>
