<svg width="64" height="64" viewBox="0 0 64 64" fill="none" xmlns="http://www.w3.org/2000/svg">
<path d="M55.1099 33.03C55.0799 35 55.0599 38 54.9799 41C54.9199 43.15 54.6499 45.26 53.8199 47.27C52.4199 50.64 49.9899 52.9 46.5499 54.1C44.8099 54.7 43.0099 54.96 41.1899 54.98C35.9099 55.04 30.6299 55.08 25.3499 55.07C23.3499 55.06 21.3599 54.98 19.3799 54.63C14.3299 53.73 10.5399 50.08 9.45994 45.08C8.99994 42.97 8.91993 40.83 8.90993 38.7C8.88993 33.39 8.92993 28.09 8.99993 22.78C9.02993 20.43 9.41994 18.14 10.4599 16C11.8299 13.19 13.9799 11.23 16.8899 10.09C18.7299 9.37003 20.6499 9.05003 22.5999 9.03003C28.0699 8.97003 33.5499 8.93003 39.0199 8.95003C40.7299 8.96003 42.4599 9.07003 44.1499 9.33003C48.4099 9.99003 51.6399 12.17 53.5599 16.12C54.2399 17.51 54.6199 19 54.7899 20.54C55.2099 24.34 55.0399 28.17 55.1099 33.03ZM13.0399 31.97C13.0899 34.91 13.1099 37.83 13.2099 40.75C13.2499 41.95 13.3799 43.16 13.6299 44.33C14.3399 47.64 16.8599 49.93 20.1799 50.48C21.9699 50.78 23.7799 50.83 25.5799 50.84C29.7699 50.87 33.9599 50.87 38.1499 50.84C40.0199 50.83 41.8899 50.78 43.7399 50.47C47.2499 49.89 49.9299 47.28 50.4299 43.76C50.6499 42.24 50.7899 40.7 50.7999 39.17C50.8199 33.67 50.7799 28.17 50.7199 22.68C50.7099 21.69 50.5499 20.68 50.3299 19.72C49.5499 16.37 47.4399 14.3 44.0699 13.61C42.7699 13.34 41.4299 13.23 40.0999 13.22C34.2299 13.19 28.3599 13.21 22.4899 13.26C21.4299 13.27 20.3399 13.46 19.3099 13.73C16.6199 14.44 14.7799 16.13 13.8599 18.78C13.3699 20.2 13.2199 21.68 13.1899 23.17C13.1299 26.11 13.0899 29.05 13.0399 31.97Z"/>
<path d="M31.9498 43.9001C25.4198 43.8901 20.0698 38.5301 20.0598 31.9901C20.0598 25.4401 25.4298 20.0801 31.9798 20.0901C38.5198 20.1001 43.8698 25.4601 43.8698 31.9901C43.8798 38.5501 38.5098 43.9101 31.9498 43.9001ZM39.6398 32.0501C39.6898 27.8601 36.2598 24.3701 32.0398 24.3201C27.8498 24.2701 24.3798 27.6801 24.3098 31.9201C24.2498 36.1101 27.6698 39.6101 31.8898 39.6701C36.1098 39.7201 39.5798 36.3101 39.6398 32.0501Z"/>
<path d="M46.9997 19.6401C46.9797 21.1401 45.7397 22.3601 44.2297 22.3601C42.6897 22.3601 41.4397 21.0901 41.4597 19.5601C41.4797 18.0501 42.7597 16.8101 44.2697 16.8301C45.7897 16.8601 47.0197 18.1201 46.9997 19.6401Z"/>
</svg>
