<svg width="24" height="24" viewBox="0 0 24 24" fill="none" xmlns="http://www.w3.org/2000/svg">
<path d="M21.9999 12.45C21.9899 13.3 21.9799 14.6 21.9399 15.9C21.9199 16.83 21.7999 17.75 21.4399 18.62C20.8399 20.08 19.7799 21.06 18.2899 21.58C17.5399 21.84 16.7599 21.95 15.9699 21.96C13.6899 21.99 11.3999 22 9.11991 22C8.25991 22 7.38992 21.96 6.53992 21.81C4.34992 21.42 2.70992 19.84 2.24992 17.67C2.03992 16.75 1.99992 15.83 1.99992 14.9C1.98992 12.6 2.00992 10.3 2.03992 8C2.04992 6.98 2.21992 5.99 2.66992 5.06C3.25992 3.84 4.18992 2.99 5.44992 2.5C6.23992 2.19 7.07992 2.05 7.91992 2.04C10.2899 2.01 12.6599 2 15.0199 2C15.7599 2 16.5099 2.05 17.2399 2.16C19.0799 2.45 20.4799 3.39 21.3099 5.1C21.5999 5.7 21.7699 6.35 21.8399 7.02C22.0399 8.68 21.9699 10.34 21.9999 12.45ZM3.79991 11.99C3.81991 13.26 3.82992 14.53 3.86992 15.8C3.88992 16.32 3.93991 16.84 4.04991 17.35C4.35991 18.78 5.44991 19.78 6.87991 20.02C7.65991 20.15 8.43992 20.17 9.21992 20.18C11.0299 20.19 12.8499 20.19 14.6599 20.18C15.4699 20.17 16.2799 20.15 17.0799 20.02C18.5999 19.77 19.7599 18.64 19.9699 17.11C20.0599 16.45 20.1299 15.78 20.1299 15.12C20.1399 12.74 20.1199 10.35 20.0899 7.97C20.0899 7.54 20.0199 7.1 19.9199 6.69C19.5799 5.24 18.6699 4.34 17.2099 4.04C16.6499 3.92 16.0699 3.87 15.4899 3.87C12.9499 3.86 10.4099 3.86 7.86992 3.89C7.40992 3.89 6.93992 3.98 6.48992 4.1C5.32992 4.41 4.52991 5.14 4.12991 6.29C3.91991 6.91 3.84992 7.55 3.83992 8.19C3.83992 9.45 3.81991 10.72 3.79991 11.99Z"/>
<path d="M11.9798 17.1601C9.15984 17.1601 6.83984 14.8301 6.83984 12.0001C6.83984 9.16009 9.15984 6.84009 11.9998 6.84009C14.8298 6.84009 17.1398 9.17009 17.1398 12.0001C17.1398 14.8401 14.8198 17.1601 11.9798 17.1601ZM15.2998 12.0201C15.3198 10.2001 13.8398 8.69009 12.0098 8.67009C10.1998 8.65009 8.68984 10.1301 8.66984 11.9601C8.63984 13.7801 10.1298 15.2901 11.9498 15.3201C13.7798 15.3501 15.2798 13.8701 15.2998 12.0201Z"/>
<path d="M18.49 6.64007C18.48 7.29007 17.94 7.82007 17.29 7.82007C16.63 7.82007 16.08 7.27007 16.09 6.61007C16.1 5.96007 16.65 5.42007 17.31 5.43007C17.97 5.44007 18.5 5.99007 18.49 6.64007Z"/>
</svg>
