<svg width="32" height="32" viewBox="0 0 32 32" fill="none" xmlns="http://www.w3.org/2000/svg">
<path d="M28.0001 16.5399C27.9801 17.5699 27.9701 19.1299 27.9301 20.6899C27.9001 21.8099 27.7601 22.9099 27.3301 23.9499C26.6001 25.6999 25.3401 26.8799 23.5501 27.4999C22.6501 27.8099 21.7101 27.9499 20.7701 27.9599C18.0301 27.9899 15.2901 28.0099 12.5401 27.9999C11.5001 27.9999 10.4701 27.9499 9.44011 27.7699C6.82011 27.2999 4.85011 25.3999 4.29011 22.7999C4.05011 21.6999 4.01011 20.5899 4.00011 19.4799C3.99011 16.7199 4.01011 13.9599 4.05011 11.1999C4.07011 9.97992 4.27011 8.77991 4.81011 7.66991C5.52011 6.20991 6.64011 5.18992 8.15011 4.58992C9.10011 4.21992 10.1001 4.04992 11.1201 4.03992C13.9601 4.00992 16.8001 3.98992 19.6501 3.99992C20.5401 3.99992 21.4401 4.05992 22.3101 4.19992C24.5201 4.53992 26.2001 5.67992 27.1901 7.72992C27.5401 8.44991 27.7401 9.22991 27.8301 10.0299C28.0501 12.0199 27.9601 14.0099 28.0001 16.5399ZM6.16011 15.9799C6.19011 17.5099 6.19011 19.0299 6.25011 20.5499C6.27011 21.1699 6.34011 21.7999 6.47011 22.4099C6.84011 24.1299 8.15011 25.3199 9.87011 25.6099C10.8001 25.7699 11.7401 25.7899 12.6701 25.7999C14.8501 25.8199 17.0201 25.8199 19.2001 25.7999C20.1701 25.7899 21.1401 25.7699 22.1001 25.6099C23.9201 25.3099 25.3101 23.9499 25.5701 22.1199C25.6801 21.3299 25.7601 20.5299 25.7601 19.7299C25.7701 16.8699 25.7501 14.0099 25.7201 11.1499C25.7101 10.6299 25.6301 10.1099 25.5201 9.60992C25.1101 7.86992 24.0201 6.78992 22.2701 6.42992C21.6001 6.28992 20.9001 6.22992 20.2101 6.22992C17.1601 6.21992 14.1101 6.21992 11.0701 6.24992C10.5201 6.25992 9.9501 6.34992 9.4201 6.49992C8.0201 6.86992 7.07011 7.74992 6.59011 9.12992C6.33011 9.86992 6.26011 10.6399 6.24011 11.4099C6.20011 12.9399 6.18011 14.4699 6.16011 15.9799Z"/>
<path d="M15.9801 22.1898C12.5901 22.1898 9.81006 19.3998 9.81006 15.9998C9.81006 12.5898 12.6001 9.80981 16.0001 9.80981C19.3901 9.80981 22.1701 12.5998 22.1701 15.9998C22.1701 19.4098 19.3801 22.1898 15.9801 22.1898ZM19.9601 16.0298C19.9901 13.8498 18.2101 12.0398 16.0101 12.0098C13.8301 11.9798 12.0301 13.7598 12.0001 15.9598C11.9701 18.1398 13.7501 19.9598 15.9401 19.9898C18.1301 20.0198 19.9401 18.2398 19.9601 16.0298Z"/>
<path d="M23.79 9.56997C23.78 10.35 23.13 10.99 22.35 10.98C21.55 10.98 20.9 10.32 20.91 9.51997C20.92 8.73997 21.59 8.08997 22.37 8.09997C23.16 8.12997 23.8 8.77997 23.79 9.56997Z"/>
</svg>
