<svg width="72" height="72" viewBox="0 0 72 72" fill="none" xmlns="http://www.w3.org/2000/svg">
<path d="M62 37.1599C61.97 39.3799 61.94 42.7499 61.85 46.1299C61.79 48.5499 61.48 50.9299 60.54 53.1899C58.97 56.9799 56.23 59.5199 52.36 60.8699C50.41 61.5499 48.38 61.8399 46.33 61.8599C40.39 61.9299 34.45 61.9699 28.51 61.9599C26.27 61.9499 24.02 61.8599 21.79 61.4699C16.1 60.4599 11.84 56.3499 10.63 50.7199C10.12 48.3499 10.02 45.9399 10.01 43.5399C9.98998 37.5699 10.03 31.5999 10.11 25.6299C10.15 22.9899 10.58 20.4099 11.76 17.9999C13.3 14.8399 15.72 12.6299 18.99 11.3499C21.06 10.5399 23.22 10.1799 25.42 10.1499C31.58 10.0799 37.73 10.0299 43.89 10.0599C45.82 10.0699 47.76 10.1899 49.66 10.4899C54.46 11.2299 58.09 13.6899 60.24 18.1199C61 19.6899 61.43 21.3599 61.63 23.0899C62.12 27.3799 61.92 31.6999 62 37.1599ZM14.67 35.9599C14.73 39.2699 14.74 42.5499 14.86 45.8399C14.91 47.1899 15.05 48.5499 15.33 49.8599C16.13 53.5799 18.96 56.1599 22.7 56.7799C24.72 57.1199 26.75 57.1799 28.78 57.1899C33.5 57.2199 38.21 57.2199 42.93 57.1899C45.03 57.1799 47.13 57.1199 49.22 56.7799C53.17 56.1299 56.18 53.1899 56.74 49.2299C56.98 47.5199 57.15 45.7899 57.15 44.0699C57.17 37.8799 57.13 31.6999 57.06 25.5099C57.05 24.3999 56.87 23.2599 56.62 22.1799C55.74 18.4099 53.36 16.0799 49.58 15.3099C48.12 15.0099 46.61 14.8799 45.12 14.8699C38.52 14.8399 31.91 14.8499 25.31 14.9199C24.11 14.9299 22.89 15.1499 21.73 15.4499C18.7 16.2499 16.64 18.1499 15.6 21.1299C15.04 22.7299 14.88 24.3899 14.85 26.0699C14.77 29.3799 14.73 32.6799 14.67 35.9599Z"/>
<path d="M35.9501 49.3899C28.6101 49.3799 22.5801 43.3499 22.5801 35.9899C22.5801 28.6199 28.6201 22.5899 35.9901 22.5999C43.3401 22.6099 49.3601 28.6399 49.3601 35.9899C49.3601 43.3699 43.3201 49.3999 35.9501 49.3899ZM44.5901 36.0599C44.6501 31.3399 40.7901 27.4199 36.0401 27.3599C31.3201 27.2999 27.4201 31.1399 27.3401 35.9099C27.2701 40.6199 31.1201 44.5699 35.8701 44.6299C40.6201 44.6899 44.5301 40.8499 44.5901 36.0599Z"/>
<path d="M52.8801 22.0999C52.8601 23.7899 51.4601 25.1599 49.7701 25.1599C48.0401 25.1599 46.6301 23.7299 46.6501 22.0099C46.6701 20.3199 48.1201 18.9199 49.8101 18.9399C51.5101 18.9699 52.8901 20.3899 52.8801 22.0999Z"/>
</svg>
