<svg width="64" height="64" viewBox="0 0 64 64" fill="none" xmlns="http://www.w3.org/2000/svg">
<path d="M49 57.5H49.5C53.92 57.5 57.5 53.92 57.5 49.5V9.5C57.5 8.4 56.6 7.5 55.5 7.5H21"  stroke-width="3" stroke-miterlimit="10" stroke-linejoin="round"/>
<path d="M18.5 50V33"  stroke-width="3" stroke-miterlimit="10" stroke-linejoin="round"/>
<path d="M49.5 57.5C45.08 57.5 41.5 53.92 41.5 49.5H7.90002C7.90002 53.92 11.48 57.5 15.9 57.5H49.5Z"  stroke-width="3" stroke-miterlimit="10" stroke-linejoin="round"/>
<path d="M50 41.5H26"  stroke-width="3" stroke-miterlimit="10" stroke-linejoin="round"/>
<path d="M50 33.5H40"  stroke-width="3" stroke-miterlimit="10" stroke-linejoin="round"/>
<path d="M31.07 16.9299L19.87 27.1999L19.34 27.7299L14.3 22.6999"  stroke-width="3" stroke-miterlimit="10" stroke-linejoin="round"/>
<path d="M22 7.5H19.89C19.12 7.5 18.5 8.12 18.5 8.89V10.5V16"  stroke-width="3" stroke-miterlimit="10" stroke-linejoin="round"/>
</svg>
