<svg width="72" height="72" viewBox="0 0 72 72" fill="none" xmlns="http://www.w3.org/2000/svg">
<path d="M55 64.5H55.5C60.47 64.5 64.5 60.47 64.5 55.5V10.75C64.5 9.51 63.49 8.5 62.25 8.5H24"  stroke-width="3" stroke-miterlimit="10" stroke-linejoin="round"/>
<path d="M20.5 56V37"  stroke-width="3" stroke-miterlimit="10" stroke-linejoin="round"/>
<path d="M55.69 64.5C50.72 64.5 46.69 60.47 46.69 55.5H8.89001C8.89001 60.47 12.92 64.5 17.89 64.5H55.69Z"  stroke-width="3" stroke-miterlimit="10" stroke-linejoin="round"/>
<path d="M56 46.5H29"  stroke-width="3" stroke-miterlimit="10" stroke-linejoin="round"/>
<path d="M56 37.5H45"  stroke-width="3" stroke-miterlimit="10" stroke-linejoin="round"/>
<path d="M34.95 19.05L22.35 30.6L21.76 31.1901L16.09 25.5301"  stroke-width="3" stroke-miterlimit="10" stroke-linejoin="round"/>
<path d="M24 8.5H22.07C21.2 8.5 20.5 9.2 20.5 10.07V11.88V18"  stroke-width="3" stroke-miterlimit="10" stroke-linejoin="round"/>
</svg>
