<svg width="120" height="43" viewBox="0 0 120 43" fill="none" xmlns="http://www.w3.org/2000/svg">
<g clip-path="url(#clip0_1528_1392)">
<path fill-rule="evenodd" clip-rule="evenodd" d="M18.1202 11.12C18.8612 11.1216 19.5734 11.408 20.1094 11.9198C20.6454 12.4316 20.9643 13.1297 21.0002 13.87V14.12C20.9682 14.8407 20.6668 15.5233 20.1557 16.0325C19.6447 16.5417 18.961 16.8406 18.2402 16.87H18.0002C17.284 16.8438 16.6034 16.5516 16.0912 16.0505C15.579 15.5494 15.272 14.8753 15.2301 14.16V14C15.2297 13.2558 15.5183 12.5406 16.0351 12.0051C16.5519 11.4697 17.2564 11.1559 18.0002 11.13L18.1202 11.12ZM98.4002 22C97.9401 21.9855 97.4844 22.0925 97.0789 22.3102C96.6734 22.5279 96.3323 22.8486 96.0901 23.24C95.4726 24.2879 95.1803 25.4956 95.2502 26.7099C95.1807 27.9369 95.4727 29.1573 96.0901 30.2199C96.3423 30.6037 96.6859 30.9187 97.09 31.1367C97.494 31.3547 97.946 31.4689 98.4052 31.4689C98.8643 31.4689 99.3163 31.3547 99.7204 31.1367C100.124 30.9187 100.468 30.6037 100.72 30.2199C101.329 29.1727 101.618 27.9697 101.55 26.76C101.62 25.5342 101.332 24.3145 100.72 23.25C100.477 22.8566 100.134 22.5341 99.7273 22.3148C99.3201 22.0954 98.8625 21.9868 98.4002 22ZM61.3201 27.6H60.7101C59.6742 27.5405 58.6406 27.7506 57.7101 28.2099C57.3984 28.3786 57.1398 28.6307 56.9632 28.938C56.7866 29.2453 56.699 29.5957 56.7101 29.95C56.6999 30.2352 56.7508 30.5193 56.8595 30.7832C56.9682 31.0471 57.1321 31.2846 57.3401 31.4799C57.8042 31.8751 58.4013 32.0789 59.0101 32.0499C59.3992 32.0576 59.7855 31.9832 60.1439 31.8316C60.5023 31.6799 60.8247 31.4545 61.0901 31.17C61.364 30.8808 61.5776 30.54 61.7184 30.1674C61.8592 29.7948 61.9244 29.398 61.9101 29V27.6299C61.7141 27.6097 61.5172 27.5997 61.3201 27.6ZM88.3202 18.2199C88.7031 18.2096 89.0851 18.2637 89.4501 18.3799V22.7999C89.0179 22.6427 88.56 22.568 88.1002 22.58C87.6393 22.5571 87.1794 22.6409 86.7562 22.8247C86.333 23.0085 85.958 23.2875 85.6602 23.6399C85.0239 24.4645 84.7045 25.4899 84.7602 26.53V34.9H80.0002V18.53H84.1902L84.5002 20.8899C84.8499 20.0923 85.4056 19.402 86.1102 18.8899C86.7656 18.44 87.5452 18.2058 88.3401 18.2199H88.3202ZM76.8102 18.2199C77.1964 18.2096 77.5817 18.2637 77.9501 18.3799V22.7999C77.5146 22.6419 77.0533 22.5673 76.5901 22.58C76.1293 22.5571 75.6694 22.6409 75.2462 22.8247C74.823 23.0085 74.448 23.2875 74.1502 23.6399C73.5139 24.4645 73.1945 25.4899 73.2502 26.53V34.9H68.4802V18.53H72.6702L73.0002 20.8899C73.3466 20.0902 73.9029 19.3992 74.6102 18.8899C75.2629 18.442 76.0386 18.2079 76.8302 18.2199H76.8102ZM114.66 18.1299C116.113 18.1238 117.554 18.3883 118.91 18.91V22.58C117.605 22.0203 116.2 21.7311 114.78 21.7299C114.159 21.6968 113.54 21.8207 112.98 22.09C112.786 22.1869 112.624 22.3372 112.512 22.5232C112.401 22.7092 112.344 22.9231 112.35 23.1399C112.348 23.3459 112.402 23.5485 112.508 23.7251C112.614 23.9017 112.767 24.0453 112.95 24.1399C113.587 24.4626 114.258 24.7141 114.95 24.8899L115.34 25C116.66 25.2927 117.875 25.9431 118.85 26.8799C119.634 27.7651 120.046 28.9186 120 30.1C120.028 30.8381 119.874 31.5717 119.551 32.2362C119.229 32.9007 118.748 33.4755 118.15 33.91C116.684 34.9154 114.926 35.4076 113.15 35.31C111.288 35.3436 109.44 34.9787 107.73 34.24V30.51C109.241 31.322 110.935 31.7318 112.65 31.7C113.297 31.7387 113.943 31.6041 114.52 31.3099C114.724 31.1963 114.892 31.0289 115.006 30.8261C115.121 30.6233 115.178 30.3928 115.17 30.16C115.162 29.9526 115.1 29.751 114.989 29.5754C114.879 29.3998 114.724 29.2565 114.54 29.16C113.859 28.8112 113.141 28.5396 112.4 28.35L112.02 28.24C110.777 27.9615 109.642 27.3294 108.75 26.42C108.01 25.5493 107.624 24.4319 107.67 23.29C107.653 22.5595 107.818 21.8362 108.149 21.1851C108.481 20.5341 108.969 19.9756 109.57 19.5599C111.074 18.5437 112.867 18.042 114.68 18.1299H114.66ZM98.3801 18.1299C99.8754 18.0933 101.352 18.4668 102.65 19.2099C103.848 19.9162 104.811 20.9596 105.42 22.2099C106.098 23.5978 106.441 25.1255 106.42 26.67C106.464 28.2616 106.121 29.8401 105.42 31.27C104.787 32.5259 103.8 33.5688 102.58 34.27C101.313 34.963 99.8842 35.308 98.4402 35.27C96.9434 35.3082 95.4654 34.9309 94.1702 34.18C92.9722 33.4737 92.0088 32.4303 91.4002 31.18C90.7221 29.7921 90.3795 28.2644 90.4002 26.7199C90.3564 25.1283 90.6996 23.5498 91.4002 22.12C92.0335 20.864 93.0208 19.8211 94.2402 19.12C95.515 18.4283 96.9504 18.0867 98.4002 18.1299H98.3801ZM59.0802 18.1299C60.0641 18.0646 61.0513 18.1964 61.9837 18.5175C62.9161 18.8386 63.775 19.3426 64.5102 20C65.1783 20.7029 65.6931 21.537 66.0219 22.4493C66.3507 23.3617 66.4863 24.3324 66.4202 25.2999V34.9H62.5101L62.2601 33.18C61.7432 33.8701 61.0533 34.4117 60.2601 34.75C59.4001 35.1279 58.4695 35.3188 57.5301 35.31C56.1147 35.3794 54.7253 34.9115 53.6401 34C53.1532 33.5646 52.7688 33.0266 52.5146 32.4249C52.2604 31.8232 52.1428 31.1726 52.1701 30.52C52.1384 29.6725 52.3205 28.8307 52.6997 28.0722C53.079 27.3138 53.6431 26.663 54.3401 26.18C56.1814 25.0417 58.3294 24.5003 60.4902 24.6299H61.1801L61.8801 24.68C61.8647 24.2833 61.768 23.894 61.596 23.5362C61.424 23.1784 61.1803 22.8597 60.8801 22.6C60.1371 22.0957 59.2459 21.8562 58.3501 21.92C56.7181 21.946 55.1164 22.3644 53.6801 23.1399V19.41C55.3603 18.5609 57.2177 18.1223 59.1001 18.1299H59.0802ZM46.3701 18.1299C47.731 18.1003 49.079 18.3987 50.3001 19V22.86C49.2943 22.2896 48.1564 21.993 47.0001 22C46.4263 21.9726 45.8532 22.0692 45.32 22.2832C44.7868 22.4971 44.3059 22.8235 43.9101 23.24C43.1097 24.2129 42.7062 25.4522 42.7801 26.7099C42.7092 27.9737 43.1202 29.2173 43.9301 30.19C44.3219 30.6074 44.7987 30.936 45.3283 31.1533C45.8579 31.3707 46.4281 31.4719 47.0001 31.45C48.218 31.4785 49.4197 31.1668 50.4701 30.5499V34.3699C49.1517 35.0263 47.6924 35.3491 46.2201 35.31C44.6649 35.3552 43.1256 34.9859 41.7601 34.24C40.5271 33.5468 39.528 32.5025 38.8901 31.24C38.1997 29.8422 37.8566 28.2986 37.8901 26.74C37.8573 25.1525 38.24 23.584 39.0001 22.19C39.6951 20.9254 40.7356 19.8849 42.0001 19.19C43.3487 18.4667 44.8602 18.1018 46.3901 18.1299H46.3701ZM26.9402 7.60995L27.1502 7.70995C33.4101 10.82 37.0602 17.15 36.0901 23.85C35.2001 30 29.4601 35 23.0602 35.59C17.5401 36.07 15.4501 33.59 15.4101 29.41V29.25L15.5301 23.7999L15.6101 20.2999H12.6701V18.25H20.2201L20.0002 27.3899V28.9V29.25C20.0802 30.94 20.4802 32.0299 21.4701 32.7599C23.9902 34.6099 27.9002 33.17 30.2302 30.19C35.3502 23.66 32.6801 13.4 25.2302 9.54995C22.0918 7.86456 18.4396 7.40402 14.9811 8.25756C11.5226 9.1111 8.50401 11.218 6.51015 14.17C5.08379 16.1744 4.1008 18.4596 3.62662 20.8736C3.15244 23.2876 3.19796 25.7749 3.76015 28.17C5.00015 33.94 8.55015 38.36 13.6501 40.13C19.0001 42 27.3601 40.66 31.4902 37.45L31.8602 37.16L32.7101 38.2299L32.5201 38.3899C29.1801 41.25 24.2302 42.87 19.2902 42.99C12.9202 43.15 6.92015 40.7299 3.62015 36.1699C-2.43985 27.7899 -0.72985 15.76 7.53015 9.74995C13.2201 5.59995 20.8702 4.67995 26.9402 7.60995Z" fill="white"/>
<path fill-rule="evenodd" clip-rule="evenodd" d="M69.9202 0.929979C69.9202 2.22998 69.5202 2.92998 68.6002 2.92998C68.1715 2.89185 67.7591 2.74751 67.4002 2.50998C67.156 2.32128 66.8662 2.20053 66.5602 2.15998C66.2502 2.15998 66.1002 2.49998 66.0602 3.04998H65.1302C65.1302 1.76998 65.6102 1.04998 66.4502 1.04998C66.88 1.09026 67.2927 1.23815 67.6502 1.47998C67.8979 1.66083 68.1864 1.77763 68.4902 1.81998C68.7802 1.81998 68.9702 1.63998 69.0102 0.989979L69.9202 0.929979ZM55.4502 0.909979C55.5885 0.909536 55.7255 0.937798 55.8523 0.99298C55.9792 1.04816 56.0932 1.12906 56.1872 1.23057C56.2811 1.33207 56.353 1.45197 56.3983 1.58269C56.4436 1.7134 56.4613 1.85209 56.4502 1.98998C56.4605 2.13227 56.4402 2.27511 56.3907 2.40891C56.3412 2.54271 56.2636 2.66437 56.1632 2.76572C56.0628 2.86707 55.9419 2.94576 55.8085 2.99652C55.6752 3.04727 55.5326 3.06891 55.3902 3.05998C55.2528 3.06032 55.1167 3.03232 54.9906 2.97775C54.8645 2.92318 54.751 2.84319 54.6571 2.74279C54.5633 2.64238 54.4912 2.52372 54.4452 2.39419C54.3993 2.26467 54.3806 2.12707 54.3902 1.98998C54.3784 1.84689 54.3976 1.70293 54.4464 1.56791C54.4952 1.43289 54.5726 1.30997 54.6731 1.2075C54.7737 1.10503 54.8952 1.02542 55.0293 0.974084C55.1633 0.922745 55.3069 0.900881 55.4502 0.909979ZM49.0802 5.69998C47.3402 5.69998 46.6002 7.30998 46.4602 8.50998H51.4602C51.4502 7.40998 51.0002 5.69998 49.0802 5.69998ZM76.6702 5.69998C74.6702 5.69998 73.7902 7.58998 73.7902 9.40998C73.7902 11.5 74.9602 13.07 76.6102 13.07C78.2402 13.07 79.4602 11.52 79.4602 9.34998C79.4902 7.77998 78.6902 5.74998 76.6702 5.74998V5.69998ZM65.2802 11.49C65.2597 11.7066 65.2862 11.9252 65.358 12.1306C65.4298 12.336 65.5451 12.5235 65.6961 12.6803C65.8471 12.837 66.0302 12.9592 66.2329 13.0385C66.4355 13.1179 66.6529 13.1525 66.8702 13.14C67.3743 13.1552 67.8701 13.0093 68.2856 12.7233C68.701 12.4373 69.0144 12.0263 69.1802 11.55C69.2353 11.3719 69.2623 11.1864 69.2602 11V9.33998C67.4002 9.29998 65.2802 9.62998 65.2802 11.49ZM56.2802 4.66998V14.21H54.5902V4.66998H56.2802ZM62.7202 4.44998C62.8767 4.43923 63.0337 4.43923 63.1902 4.44998V6.12998C62.997 6.11829 62.8034 6.11829 62.6102 6.12998C62.0234 6.15481 61.4658 6.39308 61.0423 6.80004C60.6187 7.20699 60.3584 7.75461 60.3102 8.33998C60.2696 8.6047 60.2495 8.87216 60.2502 9.13998V14.25H58.5502V7.63998C58.5502 6.51998 58.5502 5.55998 58.4702 4.63998H60.0002L60.0802 6.50998H60.1402C60.3057 5.93897 60.6451 5.43373 61.111 5.06453C61.577 4.69533 62.1465 4.48052 62.7402 4.44998H62.7202ZM43.8802 -2.07101e-05C44.3805 -0.00345898 44.8766 0.0916852 45.3402 0.279979L45.1202 1.61998C44.7682 1.46329 44.3853 1.38809 44.0002 1.39998C42.5602 1.39998 42.1702 2.69998 42.1702 4.15998V4.66998H44.4402V5.99998H42.2102V14.22H40.5002V5.99998H39.2002V4.66998H40.5002V4.21998C40.4544 3.61899 40.529 3.0149 40.7196 2.4431C40.9102 1.8713 41.2129 1.34328 41.6102 0.889979C42.2209 0.307226 43.0361 -0.012379 43.8802 -2.07101e-05ZM49.2202 4.44998C52.2902 4.44998 53.0802 7.18998 53.0802 8.94998C53.1052 9.2194 53.1052 9.49056 53.0802 9.75998H46.4402C46.3966 10.1959 46.449 10.6361 46.5938 11.0496C46.7385 11.4631 46.9721 11.8399 47.278 12.1535C47.584 12.4671 47.9549 12.7098 48.3647 12.8647C48.7746 13.0196 49.2133 13.0828 49.6502 13.05C50.5433 13.079 51.4316 12.9082 52.2502 12.55L52.5602 13.79C51.5676 14.2228 50.4927 14.4344 49.4102 14.41C46.5402 14.41 44.7902 12.41 44.7902 9.59998C44.7902 6.78998 46.4802 4.44998 49.2202 4.44998ZM67.3402 4.44998C70.2102 4.44998 70.9202 6.44998 70.9302 8.29998V11.92C70.9213 12.6857 70.9681 13.451 71.0702 14.21H69.5402L69.3802 13H69.3202C68.9928 13.4516 68.5605 13.8169 68.0605 14.0643C67.5605 14.3117 67.0079 14.4337 66.4502 14.42C66.0782 14.4449 65.7052 14.3925 65.3545 14.2661C65.0038 14.1397 64.683 13.942 64.4125 13.6855C64.1419 13.4291 63.9274 13.1194 63.7825 12.7759C63.6375 12.4325 63.5652 12.0627 63.5702 11.69C63.5702 9.37998 65.5702 8.11998 69.2202 8.13998V7.93998C69.2615 7.64752 69.2355 7.3495 69.1441 7.06863C69.0528 6.78775 68.8985 6.53145 68.693 6.31925C68.4876 6.10705 68.2364 5.94456 67.9586 5.84418C67.6809 5.74379 67.3838 5.70815 67.0902 5.73998C66.2165 5.72967 65.3586 5.97282 64.6202 6.43998L64.2302 5.27998C65.1735 4.72894 66.2478 4.44222 67.3402 4.44998ZM76.7102 4.44998C79.4102 4.44998 81.2302 6.44998 81.2302 9.33998C81.2302 12.89 78.8102 14.42 76.5702 14.42C74.0502 14.42 72.0702 12.53 72.0702 9.51998C72.0502 6.31998 74.1302 4.44998 76.7102 4.44998Z" fill="#FFE681"/>
</g>
<defs>
<clipPath id="clip0_1528_1392">
<rect width="120" height="43" fill="white"/>
</clipPath>
</defs>
</svg>
