<svg width="32" height="32" viewBox="0 0 32 32" fill="none" xmlns="http://www.w3.org/2000/svg">
<path d="M16 29C17.1 29 18 28.1 18 27V19C18 17.9 17.1 17 16 17C14.9 17 14 17.9 14 19V27C14 28.1 14.9 29 16 29Z"  stroke-width="2" stroke-miterlimit="10" stroke-linejoin="round"/>
<path d="M13 7C13 8.66 14.34 10 16 10C17.66 10 19 8.66 19 7C19 5.34 17.66 4 16 4"  stroke-width="2" stroke-miterlimit="10" stroke-linejoin="round"/>
<path d="M27 3H22V6H19"  stroke-width="2" stroke-miterlimit="10" stroke-linejoin="round"/>
<path d="M5 3H10V6H14"  stroke-width="2" stroke-miterlimit="10" stroke-linejoin="round"/>
<path d="M14.13 9.17993C12.41 9.90993 11.2 11.6099 11.2 13.5999C11.2 15.7299 12.59 17.5399 14.51 18.1699"  stroke-width="2" stroke-miterlimit="10" stroke-linejoin="round"/>
<path d="M17.63 18.1201C19.48 17.4501 20.8 15.6801 20.8 13.6001C20.8 11.7401 19.74 10.1201 18.18 9.32007"  stroke-width="2" stroke-miterlimit="10" stroke-linejoin="round"/>
</svg>
