<svg width="72" height="72" viewBox="0 0 72 72" fill="none" xmlns="http://www.w3.org/2000/svg">
<path d="M35.5 64.5H36.5C38.71 64.5 40.5 62.71 40.5 60.5V41.5C40.5 39.29 38.71 37.5 36.5 37.5H35.5C33.29 37.5 31.5 39.29 31.5 41.5V60.5C31.5 62.71 33.29 64.5 35.5 64.5Z"  stroke-width="3" stroke-miterlimit="10" stroke-linejoin="round"/>
<path d="M29.5 16C29.5 19.59 32.41 22.5 36 22.5C39.59 22.5 42.5 19.59 42.5 16C42.5 12.41 39.59 9.5 36 9.5"  stroke-width="3" stroke-miterlimit="10" stroke-linejoin="round"/>
<path d="M58 7.5H52.3C51.31 7.5 50.5 8.31 50.5 9.3V12.7C50.5 13.69 49.69 14.5 48.7 14.5H43"  stroke-width="3" stroke-miterlimit="10" stroke-linejoin="round"/>
<path d="M14 7.5H19.7C20.69 7.5 21.5 8.31 21.5 9.3V12.7C21.5 13.69 22.31 14.5 23.3 14.5H31"  stroke-width="3" stroke-miterlimit="10" stroke-linejoin="round"/>
<path d="M31.7999 20.6499C27.9199 22.2899 25.2 26.1299 25.2 30.5999C25.2 35.3999 28.33 39.4699 32.66 40.8699"  stroke-width="3" stroke-miterlimit="10" stroke-linejoin="round"/>
<path d="M39.67 40.76C43.83 39.26 46.8 35.28 46.8 30.6C46.8 26.4 44.41 22.77 40.91 20.98"  stroke-width="3" stroke-miterlimit="10" stroke-linejoin="round"/>
<path d="M45 51.5H41.5"  stroke-width="3" stroke-miterlimit="10" stroke-linejoin="round"/>
<path d="M30 51.5H27"  stroke-width="3" stroke-miterlimit="10" stroke-linejoin="round"/>
</svg>
