<svg width="16" height="16" viewBox="0 0 16 16" fill="none" xmlns="http://www.w3.org/2000/svg">
<path d="M8 5C9.10457 5 10 4.10457 10 3C10 1.89543 9.10457 1 8 1C6.89543 1 6 1.89543 6 3C6 4.10457 6.89543 5 8 5Z"  stroke-width="2" stroke-miterlimit="10" stroke-linejoin="round"/>
<path d="M7.02996 4.17993C6.02996 4.56993 5.32996 5.52993 5.32996 6.66993C5.32996 7.82993 6.06996 8.80993 7.09996 9.17993"  stroke-width="2" stroke-miterlimit="10" stroke-linejoin="round"/>
<path d="M8.92003 9.17012C9.94003 8.79012 10.66 7.82012 10.66 6.67012C10.66 5.47012 9.87003 4.46012 8.78003 4.12012"  stroke-width="2" stroke-miterlimit="10" stroke-linejoin="round"/>
<path d="M10 3H13V1H16"  stroke-width="2" stroke-miterlimit="10" stroke-linejoin="round"/>
<path d="M6 3H3V1H0"  stroke-width="2" stroke-miterlimit="10" stroke-linejoin="round"/>
<path d="M8 8C6.9 8 6 8.9 6 10V13C6 14.1 6.9 15 8 15C9.1 15 10 14.1 10 13V10C10 8.9 9.1 8 8 8Z"  stroke-width="2" stroke-miterlimit="10" stroke-linejoin="round"/>
</svg>
