<svg width="24" height="24" viewBox="0 0 24 24" fill="none" xmlns="http://www.w3.org/2000/svg">
<path d="M12 22C13.1 22 14 21.1 14 20V15C14 13.9 13.1 13 12 13C10.9 13 10 13.9 10 15V20C10 21.1 10.9 22 12 22Z"  stroke-width="2" stroke-miterlimit="10" stroke-linejoin="round"/>
<path d="M12 7C13.1046 7 14 6.10457 14 5C14 3.89543 13.1046 3 12 3C10.8954 3 10 3.89543 10 5C10 6.10457 10.8954 7 12 7Z"  stroke-width="2" stroke-miterlimit="10" stroke-linejoin="round"/>
<path d="M20 2H17V4H14"  stroke-width="2" stroke-miterlimit="10" stroke-linejoin="round"/>
<path d="M4 2H7V4H10"  stroke-width="2" stroke-miterlimit="10" stroke-linejoin="round"/>
<path d="M10.55 6.27002C9.06 6.85002 8 8.30002 8 10C8 11.74 9.11 13.21 10.65 13.77"  stroke-width="2" stroke-miterlimit="10" stroke-linejoin="round"/>
<path d="M13.3801 13.7499C14.9101 13.1899 16.0001 11.7199 16.0001 9.99993C16.0001 8.19993 14.8101 6.67993 13.1801 6.17993"  stroke-width="2" stroke-miterlimit="10" stroke-linejoin="round"/>
</svg>
