<svg width="40" height="40" viewBox="0 0 40 40" fill="none" xmlns="http://www.w3.org/2000/svg">
<path d="M20 36C21.66 36 23 34.66 23 33V24C23 22.34 21.66 21 20 21C18.34 21 17 22.34 17 24V33C17 34.66 18.34 36 20 36Z"  stroke-width="2" stroke-miterlimit="10" stroke-linejoin="round"/>
<path d="M16 9C16 11.21 17.79 13 20 13C22.21 13 24 11.21 24 9C24 6.79 22.21 5 20 5"  stroke-width="2" stroke-miterlimit="10" stroke-linejoin="round"/>
<path d="M34 4H29C28.45 4 28 4.45 28 5V7C28 7.55 27.55 8 27 8H24"  stroke-width="2" stroke-miterlimit="10" stroke-linejoin="round"/>
<path d="M6 4H11C11.55 4 12 4.45 12 5V7C12 7.55 12.45 8 13 8H17"  stroke-width="2" stroke-miterlimit="10" stroke-linejoin="round"/>
<path d="M17.66 11.47C15.51 12.38 14 14.51 14 17C14 19.67 15.74 21.93 18.14 22.71"  stroke-width="2" stroke-miterlimit="10" stroke-linejoin="round"/>
<path d="M22.04 22.6399C24.35 21.8099 26 19.5999 26 16.9999C26 14.6699 24.67 12.6499 22.73 11.6599"  stroke-width="2" stroke-miterlimit="10" stroke-linejoin="round"/>
</svg>
