<svg width="64" height="64" viewBox="0 0 64 64" fill="none" xmlns="http://www.w3.org/2000/svg">
<path d="M32 57.5C33.93 57.5 35.5 55.93 35.5 54V37C35.5 35.07 33.93 33.5 32 33.5C30.07 33.5 28.5 35.07 28.5 37V54C28.5 55.93 30.07 57.5 32 57.5Z"  stroke-width="3" stroke-miterlimit="10" stroke-linejoin="round"/>
<path d="M26.5 14C26.5 17.04 28.96 19.5 32 19.5C35.04 19.5 37.5 17.04 37.5 14C37.5 10.96 35.04 8.5 32 8.5"  stroke-width="3" stroke-miterlimit="10" stroke-linejoin="round"/>
<path d="M52 6.5H46.1C45.22 6.5 44.5 7.22 44.5 8.1V10.9C44.5 11.78 43.78 12.5 42.9 12.5H38"  stroke-width="3" stroke-miterlimit="10" stroke-linejoin="round"/>
<path d="M11 6.5H17.9C18.78 6.5 19.5 7.22 19.5 8.1V10.9C19.5 11.78 20.22 12.5 21.1 12.5H28"  stroke-width="3" stroke-miterlimit="10" stroke-linejoin="round"/>
<path d="M28.26 18.3501C24.81 19.8101 22.4 23.2201 22.4 27.2001C22.4 31.4701 25.18 35.0801 29.03 36.3301"  stroke-width="3" stroke-miterlimit="10" stroke-linejoin="round"/>
<path d="M35.26 36.2299C38.96 34.8899 41.6 31.3599 41.6 27.1999C41.6 23.4699 39.47 20.2399 36.37 18.6499"  stroke-width="3" stroke-miterlimit="10" stroke-linejoin="round"/>
<path d="M23.99 45.4299H29"  stroke-width="3" stroke-miterlimit="10" stroke-linejoin="round"/>
<path d="M34.99 45.4299H40"  stroke-width="3" stroke-miterlimit="10" stroke-linejoin="round"/>
</svg>
