<svg width="150" height="45" viewBox="0 0 150 45" fill="none" xmlns="http://www.w3.org/2000/svg">
<path d="M144.443 44.4443H5.5555C2.44442 44.4443 0 41.9999 0 38.8888V5.55582C0 2.44474 2.44442 0.000324249 5.5555 0.000324249H144.443C147.554 0.000324249 149.999 2.44474 149.999 5.55582V38.8888C149.999 41.9999 147.443 44.4443 144.443 44.4443Z" fill="black"/>
<path d="M144.443 0.000324249H5.5555C2.44442 0.000324249 0 2.55585 0 5.55582V38.8888C0 41.9999 2.44442 44.4443 5.5555 44.4443H144.443C147.554 44.4443 149.999 41.8888 149.999 38.8888V5.55582C149.999 2.55585 147.443 0.000324249 144.443 0.000324249ZM144.443 0.889202C146.999 0.889202 149.11 3.00029 149.11 5.55582V38.8888C149.11 41.4444 146.999 43.5555 144.443 43.5555H5.5555C2.99997 43.5555 0.888884 41.4444 0.888884 38.8888V5.55582C0.888884 3.00029 2.99997 0.889202 5.5555 0.889202H144.443Z" fill="#A6A6A6"/>
<path d="M118.777 33.333H120.888V19.4443H118.777V33.333ZM137.444 24.4442L135.111 30.4441H134.999L132.555 24.4442H130.333L133.999 32.8886L131.888 37.5552H133.999L139.666 24.4442H137.444ZM125.777 31.7775C125.111 31.7775 124.111 31.4441 124.111 30.5553C124.111 29.4442 125.333 29.1108 126.333 29.1108C127.222 29.1108 127.666 29.333 128.222 29.5553C128 30.8886 126.888 31.7775 125.777 31.7775ZM126 24.1109C124.444 24.1109 122.888 24.7775 122.333 26.222L124.222 26.9997C124.666 26.222 125.333 25.9997 126.111 25.9997C127.222 25.9997 128.222 26.6664 128.333 27.7775V27.8886C128 27.6664 127.111 27.3331 126.222 27.3331C124.222 27.3331 122.222 28.4442 122.222 30.4441C122.222 32.333 123.888 33.5552 125.666 33.5552C127.111 33.5552 127.777 32.8886 128.333 32.2219H128.444V33.333H130.444V27.9997C130.222 25.5553 128.333 24.1109 126 24.1109ZM113.222 26.1109H110.222V21.3331H113.222C114.777 21.3331 115.666 22.6664 115.666 23.6664C115.555 24.8886 114.666 26.1109 113.222 26.1109ZM113.111 19.4443H108.111V33.333H110.222V28.1108H113.111C115.444 28.1108 117.666 26.4442 117.666 23.7775C117.666 21.1109 115.444 19.4443 113.111 19.4443ZM85.9999 31.7775C84.5555 31.7775 83.3333 30.5553 83.3333 28.8886C83.3333 27.222 84.5555 25.9997 85.9999 25.9997C87.4444 25.9997 88.5555 27.222 88.5555 28.8886C88.5555 30.5553 87.4444 31.7775 85.9999 31.7775ZM88.4444 25.222C87.8888 24.6664 86.9999 24.1109 85.8888 24.1109C83.5555 24.1109 81.3333 26.222 81.3333 28.8886C81.3333 31.5552 83.4444 33.5552 85.8888 33.5552C86.9999 33.5552 87.8888 32.9997 88.3332 32.4441H88.4444V33.1108C88.4444 34.8885 87.4444 35.8885 85.8888 35.8885C84.6666 35.8885 83.7777 34.9997 83.5555 34.2219L81.7778 34.9997C82.3333 36.2219 83.6666 37.7774 85.9999 37.7774C88.4444 37.7774 90.4443 36.333 90.4443 32.8886V24.4442H88.4444V25.222ZM91.7777 33.333H93.8887V19.4443H91.7777V33.333ZM96.9998 28.7775C96.9998 26.9997 98.4443 25.9997 99.4442 25.9997C100.222 25.9997 101 26.4442 101.222 26.9997L96.9998 28.7775ZM103.444 27.222C103 26.1109 101.889 24.222 99.4442 24.222C96.9998 24.222 94.9998 26.1109 94.9998 28.9997C94.9998 31.6664 96.9998 33.7774 99.6665 33.7774C101.778 33.7774 103.111 32.4441 103.555 31.6664L102 30.5553C101.444 31.333 100.778 31.8886 99.6665 31.8886C98.6665 31.8886 97.8887 31.4441 97.3332 30.4441L103.666 27.7775L103.444 27.222ZM53.0003 25.6664V27.6664H57.778C57.6669 28.7775 57.2224 29.6664 56.6669 30.2219C56.0002 30.8886 54.8891 31.6664 53.0003 31.6664C50.0003 31.6664 47.7781 29.333 47.7781 26.3331C47.7781 23.3331 50.1114 20.9998 53.0003 20.9998C54.5558 20.9998 55.778 21.6665 56.6669 22.4442L58.1113 20.9998C56.8891 19.8887 55.3336 18.9998 53.1114 18.9998C49.1114 18.9998 45.667 22.3331 45.667 26.3331C45.667 30.333 49.1114 33.6663 53.1114 33.6663C55.3336 33.6663 56.8891 32.9997 58.2224 31.5552C59.5557 30.2219 60.0002 28.3331 60.0002 26.8886C60.0002 26.4442 60.0002 25.9997 59.8891 25.6664H53.0003ZM65.3335 31.7775C63.889 31.7775 62.6668 30.5553 62.6668 28.8886C62.6668 27.222 63.889 25.9997 65.3335 25.9997C66.7779 25.9997 68.0001 27.1108 68.0001 28.8886C68.0001 30.5553 66.7779 31.7775 65.3335 31.7775ZM65.3335 24.222C62.6668 24.222 60.5557 26.222 60.5557 28.9997C60.5557 31.6664 62.6668 33.7774 65.3335 33.7774C68.0001 33.7774 70.1112 31.7775 70.1112 28.9997C70.1112 26.1109 68.0001 24.222 65.3335 24.222ZM75.6667 31.7775C74.2223 31.7775 73.0001 30.5553 73.0001 28.8886C73.0001 27.222 74.2223 25.9997 75.6667 25.9997C77.1111 25.9997 78.3333 27.1108 78.3333 28.8886C78.3333 30.5553 77.1111 31.7775 75.6667 31.7775ZM75.6667 24.222C73.0001 24.222 70.889 26.222 70.889 28.9997C70.889 31.6664 73.0001 33.7774 75.6667 33.7774C78.3333 33.7774 80.4444 31.7775 80.4444 28.9997C80.4444 26.1109 78.3333 24.222 75.6667 24.222Z" fill="white"/>
<path d="M11.5556 8.33404C11.2222 8.66737 11 9.22292 11 9.88958V34.556C11 35.2227 11.2222 35.7782 11.5556 36.1115L11.6667 36.2227L25.4443 22.445V22.2228V22.1117L11.5556 8.33404Z" fill="url(#paint0_linear_475_2536)"/>
<path d="M25.4443 22.111V22.2221V22.3332L29.9998 26.8887L30.111 26.7776L35.5553 23.6665C37.1109 22.7777 37.1109 21.3332 35.5553 20.4444L30.111 17.3333L29.9998 17.4444L25.4443 22.111Z" fill="url(#paint1_linear_475_2536)"/>
<path d="M11.5547 36.1113C12.1102 36.6669 12.888 36.6669 13.888 36.2224L30.1101 27.0003L25.4434 22.2226L11.5547 36.1113Z" fill="url(#paint2_linear_475_2536)"/>
<path d="M11.5547 8.33298L25.4434 22.2217L30.1101 17.5551L13.888 8.33298C13.4436 8.11077 12.9991 7.99966 12.6658 7.99966C12.2213 7.88855 11.888 8.11077 11.5547 8.33298Z" fill="url(#paint3_linear_475_2536)"/>
<path opacity="0.2" d="M30.0322 26.814L13.9212 35.9251C13.0323 36.4806 12.2546 36.3695 11.699 35.9251L11.5879 36.0362L11.699 36.1473C12.2546 36.5917 13.0323 36.7028 13.9212 36.1473L30.0322 26.814Z" fill="black"/>
<path opacity="0.12" d="M11.5946 35.9084C11.2613 35.5751 11.0391 35.0195 11.0391 34.3529V34.464C11.0391 35.1307 11.2613 35.6862 11.5946 36.0195V35.9084Z" fill="black"/>
<path opacity="0.12" d="M35.5711 23.6656L30.0156 26.7766L30.1267 26.8878L35.5711 23.7767C36.3489 23.3322 36.6822 22.7767 36.6822 22.2211C36.6822 22.7767 36.2378 23.2211 35.5711 23.6656Z" fill="black"/>
<path opacity="0.25" d="M13.9037 8.4704L35.5702 20.8036C36.2368 21.2481 36.6813 21.6925 36.6813 22.248C36.6813 21.6925 36.348 21.1369 35.5702 20.6925L13.9037 8.35929C12.3482 7.47041 11.126 8.24818 11.126 10.0259V10.1371C11.126 8.35929 12.3482 7.58152 13.9037 8.4704Z" fill="white"/>
<path d="M46.7863 13.6266H48.0086C48.7863 13.6266 49.3419 13.4044 49.7863 12.9599C50.2308 12.5155 50.453 11.8488 50.453 11.0711C50.453 10.2933 50.2308 9.62663 49.7863 9.18219C49.3419 8.73775 48.6752 8.51553 48.0086 8.51553H46.7863V13.6266ZM45.8975 14.4044V7.73776H47.8974C48.8974 7.73776 49.7863 8.07109 50.3419 8.62664C51.0085 9.2933 51.2307 10.0711 51.2307 11.0711C51.2307 12.071 50.8974 12.8488 50.3419 13.5155C49.7863 14.1821 49.0085 14.4044 48.0086 14.4044H45.8975Z" fill="white"/>
<path d="M46.7863 13.6266H48.0086C48.7863 13.6266 49.3419 13.4044 49.7863 12.9599C50.2308 12.5155 50.453 11.8488 50.453 11.0711C50.453 10.2933 50.2308 9.62663 49.7863 9.18219C49.3419 8.73775 48.6752 8.51553 48.0086 8.51553H46.7863V13.6266ZM45.8975 14.4044V7.73776H47.8974C48.8974 7.73776 49.7863 8.07109 50.3419 8.62664C51.0085 9.2933 51.2307 10.0711 51.2307 11.0711C51.2307 12.071 50.8974 12.8488 50.3419 13.5155C49.7863 14.1821 49.0085 14.4044 48.0086 14.4044H45.8975Z" stroke="white" stroke-width="0.3556" stroke-miterlimit="13.3333"/>
<path d="M52.5547 7.77773H53.4436V14.4443H52.5547V7.77773Z" fill="white" stroke="white" stroke-width="0.3556" stroke-miterlimit="13.3333"/>
<path d="M56.8148 14.5928C56.3703 14.5928 55.8148 14.4817 55.3703 14.1483C54.9259 13.815 54.5926 13.3706 54.4814 12.815L55.2592 12.4817C55.3703 12.815 55.5925 13.1483 55.8148 13.3706C56.1481 13.5928 56.4814 13.7039 56.8148 13.7039C57.1481 13.7039 57.4814 13.5928 57.8147 13.3706C58.037 13.1483 58.2592 12.9261 58.2592 12.5928C58.2592 12.2595 58.1481 11.9261 57.8147 11.7039C57.5925 11.4817 57.1481 11.2595 56.5925 11.1484C56.037 10.9261 55.5925 10.7039 55.2592 10.4817C54.9259 10.1484 54.8148 9.81504 54.8148 9.3706C54.8148 8.92616 55.037 8.48172 55.3703 8.14839C55.7037 7.81506 56.2592 7.59284 56.8148 7.59284C57.3703 7.59284 57.8147 7.70395 58.1481 8.03728C58.4814 8.37061 58.7036 8.59283 58.8147 8.92616L58.037 9.25949C57.9259 9.03727 57.8147 8.81505 57.5925 8.70394C57.3703 8.48172 57.037 8.48172 56.7036 8.48172C56.3703 8.48172 56.1481 8.59283 55.8148 8.70394C55.5925 8.92616 55.4814 9.14838 55.4814 9.3706C55.4814 9.59282 55.5925 9.81504 55.8148 10.0373C56.037 10.2595 56.3703 10.3706 56.8148 10.4817C57.1481 10.5928 57.3703 10.7039 57.5925 10.815C57.8147 10.9261 58.037 11.0373 58.2592 11.2595C58.4814 11.3706 58.7036 11.5928 58.8147 11.9261C59.037 12.0372 59.037 12.3706 59.037 12.7039C59.037 13.0372 58.9258 13.3706 58.8147 13.5928C58.7036 13.815 58.4814 14.0372 58.2592 14.1483C58.037 14.2594 57.8147 14.3706 57.5925 14.4817C57.3703 14.5928 57.037 14.5928 56.8148 14.5928Z" fill="white"/>
<path d="M56.8148 14.5928C56.3703 14.5928 55.8148 14.4817 55.3703 14.1483C54.9259 13.815 54.5926 13.3706 54.4814 12.815L55.2592 12.4817C55.3703 12.815 55.5925 13.1483 55.8148 13.3706C56.1481 13.5928 56.4814 13.7039 56.8148 13.7039C57.1481 13.7039 57.4814 13.5928 57.8147 13.3706C58.037 13.1483 58.2592 12.9261 58.2592 12.5928C58.2592 12.2595 58.1481 11.9261 57.8147 11.7039C57.5925 11.4817 57.1481 11.2595 56.5925 11.1484C56.037 10.9261 55.5925 10.7039 55.2592 10.4817C54.9259 10.1484 54.8148 9.81504 54.8148 9.3706C54.8148 8.92616 55.037 8.48172 55.3703 8.14839C55.7037 7.81506 56.2592 7.59284 56.8148 7.59284C57.3703 7.59284 57.8147 7.70395 58.1481 8.03728C58.4814 8.37061 58.7036 8.59283 58.8147 8.92616L58.037 9.25949C57.9259 9.03727 57.8147 8.81505 57.5925 8.70394C57.3703 8.48172 57.037 8.48172 56.7036 8.48172C56.3703 8.48172 56.1481 8.59283 55.8148 8.70394C55.5925 8.92616 55.4814 9.14838 55.4814 9.3706C55.4814 9.59282 55.5925 9.81504 55.8148 10.0373C56.037 10.2595 56.3703 10.3706 56.8148 10.4817C57.1481 10.5928 57.3703 10.7039 57.5925 10.815C57.8147 10.9261 58.037 11.0373 58.2592 11.2595C58.4814 11.3706 58.7036 11.5928 58.8147 11.9261C59.037 12.0372 59.037 12.3706 59.037 12.7039C59.037 13.0372 58.9258 13.3706 58.8147 13.5928C58.7036 13.815 58.4814 14.0372 58.2592 14.1483C58.037 14.2594 57.8147 14.3706 57.5925 14.4817C57.3703 14.5928 57.037 14.5928 56.8148 14.5928Z" stroke="white" stroke-width="0.3556" stroke-miterlimit="13.3333"/>
<path d="M61.1252 10.924H62.5696C62.903 10.924 63.2363 10.8129 63.4585 10.5907C63.6807 10.3685 63.7918 10.0352 63.7918 9.81293C63.7918 9.4796 63.6807 9.25738 63.4585 9.03516C63.2363 8.81294 62.903 8.70183 62.5696 8.70183H61.1252V10.924ZM61.1252 14.4796H60.2363V7.81295H62.4585C63.0141 7.81295 63.4585 8.03517 63.903 8.3685C64.4585 8.70183 64.6807 9.14627 64.6807 9.81293C64.6807 10.4796 64.4585 10.8129 64.0141 11.1463C63.5696 11.4796 63.1252 11.7018 62.5696 11.7018H61.1252V14.4796Z" fill="white"/>
<path d="M61.1252 10.924H62.5696C62.903 10.924 63.2363 10.8129 63.4585 10.5907C63.6807 10.3685 63.7918 10.0352 63.7918 9.81293C63.7918 9.4796 63.6807 9.25738 63.4585 9.03516C63.2363 8.81294 62.903 8.70183 62.5696 8.70183H61.1252V10.924ZM61.1252 14.4796H60.2363V7.81295H62.4585C63.0141 7.81295 63.4585 8.03517 63.903 8.3685C64.4585 8.70183 64.6807 9.14627 64.6807 9.81293C64.6807 10.4796 64.4585 10.8129 64.0141 11.1463C63.5696 11.4796 63.1252 11.7018 62.5696 11.7018H61.1252V14.4796Z" stroke="white" stroke-width="0.3556" stroke-miterlimit="13.3333"/>
<path d="M66.902 13.0246C67.3464 13.469 68.0131 13.8024 68.6798 13.8024C69.3464 13.8024 70.0131 13.5801 70.4575 13.0246C70.902 12.5802 71.2353 11.9135 71.2353 11.1357C71.2353 10.358 71.0131 9.6913 70.4575 9.24686C70.0131 8.69131 69.3464 8.46909 68.6798 8.46909C68.0131 8.46909 67.3464 8.69131 66.902 9.24686C66.4576 9.6913 66.1242 10.358 66.1242 11.1357C66.1242 11.9135 66.4576 12.5802 66.902 13.0246ZM71.1242 13.5801C70.4575 14.2468 69.6798 14.5801 68.6798 14.5801C67.6798 14.5801 66.902 14.2468 66.2353 13.5801C65.5687 12.9135 65.2354 12.1357 65.2354 11.1357C65.2354 10.1357 65.5687 9.35797 66.2353 8.69131C66.902 8.02465 67.6798 7.69132 68.6798 7.69132C69.6798 7.69132 70.4575 8.02465 71.1242 8.69131C71.7908 9.35797 72.1242 10.1357 72.1242 11.1357C72.1242 12.1357 71.7908 12.9135 71.1242 13.5801Z" fill="white"/>
<path d="M66.902 13.0246C67.3464 13.469 68.0131 13.8024 68.6798 13.8024C69.3464 13.8024 70.0131 13.5801 70.4575 13.0246C70.902 12.5802 71.2353 11.9135 71.2353 11.1357C71.2353 10.358 71.0131 9.6913 70.4575 9.24686C70.0131 8.69131 69.3464 8.46909 68.6798 8.46909C68.0131 8.46909 67.3464 8.69131 66.902 9.24686C66.4576 9.6913 66.1242 10.358 66.1242 11.1357C66.1242 11.9135 66.4576 12.5802 66.902 13.0246ZM71.1242 13.5801C70.4575 14.2468 69.6798 14.5801 68.6798 14.5801C67.6798 14.5801 66.902 14.2468 66.2353 13.5801C65.5687 12.9135 65.2354 12.1357 65.2354 11.1357C65.2354 10.1357 65.5687 9.35797 66.2353 8.69131C66.902 8.02465 67.6798 7.69132 68.6798 7.69132C69.6798 7.69132 70.4575 8.02465 71.1242 8.69131C71.7908 9.35797 72.1242 10.1357 72.1242 11.1357C72.1242 12.1357 71.7908 12.9135 71.1242 13.5801Z" stroke="white" stroke-width="0.3556" stroke-miterlimit="13.3333"/>
<path d="M73.3428 14.4444V7.77779H74.3428L77.565 13V11.6666V7.77779H78.4538V14.4444H77.565L74.1205 9.00001V10.3333V14.4444H73.3428Z" fill="white"/>
<path d="M73.3428 14.4444V7.77779H74.3428L77.565 13V11.6666V7.77779H78.4538V14.4444H77.565L74.1205 9.00001V10.3333V14.4444H73.3428Z" stroke="white" stroke-width="0.3556" stroke-miterlimit="13.3333"/>
<path d="M80.809 7.25642H80.0312L80.4757 6.03421H81.3646L80.809 7.25642ZM80.0312 7.81197H80.9201V14.4786H80.0312V7.81197Z" fill="white"/>
<path d="M80.809 7.25642H80.0312L80.4757 6.03421H81.3646L80.809 7.25642ZM80.0312 7.81197H80.9201V14.4786H80.0312V7.81197Z" stroke="white" stroke-width="0.3556" stroke-miterlimit="13.3333"/>
<path d="M84.0403 14.4444L81.707 7.77779H82.707L84.4848 13.2222L86.3737 7.77779H87.3736L84.9292 14.4444H84.0403Z" fill="white"/>
<path d="M84.0403 14.4444L81.707 7.7778H82.707L84.4848 13.2222L86.3737 7.7778H87.3736L84.9292 14.4444H84.0403Z" stroke="white" stroke-width="0.3556" stroke-miterlimit="13.3333"/>
<path d="M92.216 8.59658H89.216V10.7077H91.9938V11.4854H89.216V13.5965H92.216V14.4854H88.3271V7.81881H92.216V8.59658Z" fill="white"/>
<path d="M92.216 8.59658H89.216V10.7077H91.9938V11.4854H89.216V13.5965H92.216V14.4854H88.3271V7.81881H92.216V8.59658Z" stroke="white" stroke-width="0.3556" stroke-miterlimit="13.3333"/>
<path d="M93.5566 14.4444V7.77779H94.4455V13.6666H97.3344V14.4444H93.5566Z" fill="white"/>
<path d="M93.5566 14.4444V7.7778H94.4455V13.6666H97.3344V14.4444H93.5566Z" stroke="white" stroke-width="0.3556" stroke-miterlimit="13.3333"/>
<path d="M100.614 14.4443V7.77773H101.614L104.836 12.9999V11.6666V7.77773H105.725V14.4443H104.836L101.392 8.99994V10.3333V14.4443H100.614Z" fill="white"/>
<path d="M100.614 14.4443V7.77773H101.614L104.836 12.9999V11.6666V7.77773H105.725V14.4443H104.836L101.392 8.99994V10.3333V14.4443H100.614Z" stroke="white" stroke-width="0.3556" stroke-miterlimit="13.3333"/>
<path d="M108.475 13.0245C108.92 13.469 109.586 13.8023 110.253 13.8023C110.92 13.8023 111.586 13.5801 112.031 13.0245C112.475 12.469 112.809 11.9134 112.809 11.1357C112.809 10.3579 112.586 9.69124 112.031 9.2468C111.586 8.69125 110.92 8.46903 110.253 8.46903C109.586 8.46903 108.92 8.69125 108.475 9.2468C108.031 9.69124 107.697 10.3579 107.697 11.1357C107.697 11.9134 108.031 12.5801 108.475 13.0245ZM112.697 13.5801C112.031 14.2467 111.253 14.5801 110.253 14.5801C109.253 14.5801 108.475 14.2467 107.809 13.5801C107.142 12.9134 106.809 12.1357 106.809 11.1357C106.809 10.1357 107.142 9.35791 107.809 8.69125C108.475 8.02459 109.253 7.69126 110.253 7.69126C111.253 7.69126 112.031 8.02459 112.697 8.69125C113.364 9.35791 113.697 10.1357 113.697 11.1357C113.697 12.1357 113.364 12.9134 112.697 13.5801Z" fill="white"/>
<path d="M108.475 13.0245C108.92 13.469 109.586 13.8023 110.253 13.8023C110.92 13.8023 111.586 13.5801 112.031 13.0245C112.475 12.469 112.809 11.9134 112.809 11.1357C112.809 10.3579 112.586 9.69124 112.031 9.2468C111.586 8.69125 110.92 8.46903 110.253 8.46903C109.586 8.46903 108.92 8.69125 108.475 9.2468C108.031 9.69124 107.697 10.3579 107.697 11.1357C107.697 11.9134 108.031 12.5801 108.475 13.0245ZM112.697 13.5801C112.031 14.2467 111.253 14.5801 110.253 14.5801C109.253 14.5801 108.475 14.2467 107.809 13.5801C107.142 12.9134 106.809 12.1357 106.809 11.1357C106.809 10.1357 107.142 9.35791 107.809 8.69125C108.475 8.02459 109.253 7.69126 110.253 7.69126C111.253 7.69126 112.031 8.02459 112.697 8.69125C113.364 9.35791 113.697 10.1357 113.697 11.1357C113.697 12.1357 113.364 12.9134 112.697 13.5801Z" stroke="white" stroke-width="0.3556" stroke-miterlimit="13.3333"/>
<defs>
<linearGradient id="paint0_linear_475_2536" x1="24.2213" y1="9.69944" x2="-0.641281" y2="34.562" gradientUnits="userSpaceOnUse">
<stop stop-color="#00A0FF"/>
<stop offset="0.00657445" stop-color="#00A1FF"/>
<stop offset="0.2601" stop-color="#00BEFF"/>
<stop offset="0.5122" stop-color="#00D2FF"/>
<stop offset="0.7604" stop-color="#00DFFF"/>
<stop offset="1" stop-color="#00E3FF"/>
</linearGradient>
<linearGradient id="paint1_linear_475_2536" x1="37.5823" y1="22.2304" x2="1.73542" y2="22.2304" gradientUnits="userSpaceOnUse">
<stop stop-color="#FFE000"/>
<stop offset="0.4087" stop-color="#FFBD00"/>
<stop offset="0.7754" stop-color="#FFA500"/>
<stop offset="1" stop-color="#FF9C00"/>
</linearGradient>
<linearGradient id="paint2_linear_475_2536" x1="27.5834" y1="24.7558" x2="-6.13232" y2="58.4714" gradientUnits="userSpaceOnUse">
<stop stop-color="#FF3A44"/>
<stop offset="1" stop-color="#C31162"/>
</linearGradient>
<linearGradient id="paint3_linear_475_2536" x1="8.12338" y1="0.196726" x2="23.1788" y2="15.2521" gradientUnits="userSpaceOnUse">
<stop stop-color="#32A071"/>
<stop offset="0.0685" stop-color="#2DA771"/>
<stop offset="0.4762" stop-color="#15CF74"/>
<stop offset="0.8009" stop-color="#06E775"/>
<stop offset="1" stop-color="#00F076"/>
</linearGradient>
</defs>
</svg>
