<svg width="742" height="500" viewBox="0 0 742 500" fill="none" xmlns="http://www.w3.org/2000/svg">
<g clip-path="url(#clip0_253_2390)">
<path d="M640.4 3.06212H-30.1624C-42.1715 3.06212 -51.914 12.666 -51.914 24.5168V473.097H-48.8123V21.4547C-48.8123 20.5003 -48.7328 19.5657 -48.5936 18.671C-48.5538 18.3727 -48.4942 18.0744 -48.4345 17.7762C-48.3749 17.4779 -48.2954 17.1797 -48.2357 16.8814C-48.1562 16.5832 -48.0767 16.3048 -47.9772 16.0065C-47.2018 13.5608 -45.9293 11.3338 -44.2791 9.44484C-44.0802 9.22612 -43.8814 9.0074 -43.6826 8.78868C-43.5832 8.68926 -43.4838 8.58984 -43.3645 8.47053C-42.4101 7.53599 -41.3563 6.70087 -40.2429 5.98505C-39.8651 5.74644 -39.4873 5.52772 -39.0897 5.309C-38.692 5.09027 -38.2944 4.89144 -37.8769 4.71248C-37.5985 4.59318 -37.3201 4.47387 -37.0418 4.37445C-34.9342 3.55922 -32.6278 3.10189 -30.222 3.10189H640.36C643.561 3.10189 646.583 3.89724 649.228 5.309C649.625 5.52772 650.003 5.74644 650.381 5.98505C650.878 6.30319 651.375 6.64122 651.832 6.99913C652.071 7.17808 652.289 7.37692 652.508 7.55587C652.846 7.85413 653.164 8.15239 653.482 8.45065C653.582 8.55007 653.701 8.64949 653.801 8.76879C653.999 8.98751 654.218 9.20624 654.397 9.42496C657.22 12.6461 658.93 16.8416 658.93 21.4348V473.097H662.092V23.1846C661.396 11.9701 651.932 3.06212 640.38 3.06212H640.4Z" fill="url(#paint0_linear_253_2390)"/>
<path d="M-51.9737 21.4547C-51.9737 9.60391 -42.2312 0 -30.2221 0H640.36C652.369 0 662.112 9.60391 662.112 21.4547V23.1647C661.416 11.9502 651.952 3.04223 640.4 3.04223H-30.1624C-42.1715 3.04223 -51.914 12.6461 -51.914 24.4969L-51.9538 21.4348L-51.9737 21.4547Z" fill="url(#paint1_linear_253_2390)"/>
<path d="M658.97 460.531H-48.8123V473.097H658.97V460.531Z" fill="#3D3D3D"/>
<path d="M662.112 473.097V474.25H658.97H-48.8123H-51.914V473.097H662.112Z" fill="#666666"/>
<path d="M301.5 474.907H-139V488.249H301.5V474.907Z" fill="url(#paint2_linear_253_2390)"/>
<path d="M742 474.25H-139V474.907H742V474.25Z" fill="url(#paint3_linear_253_2390)"/>
<path d="M742 474.907H301.5V488.249H742V474.907Z" fill="url(#paint4_linear_253_2390)"/>
<path d="M301.5 474.907H-139V487.453H301.5V474.907Z" fill="url(#paint5_linear_253_2390)"/>
<path d="M742 474.907H301.5V487.453H742V474.907Z" fill="url(#paint6_linear_253_2390)"/>
<path d="M364.21 474.25C364.21 477.074 363.077 479.619 361.228 481.468C359.378 483.317 356.833 484.451 354.01 484.451H249.03C243.403 484.451 238.83 479.877 238.83 474.23H364.23L364.21 474.25Z" fill="url(#paint7_linear_253_2390)"/>
<path d="M364.21 474.25C364.21 477.074 363.077 479.619 361.227 481.468C359.378 483.317 356.833 484.451 354.01 484.451H249.03C243.403 484.451 238.83 479.877 238.83 474.23H238.333V474.986C238.333 480.613 242.906 485.186 248.553 485.186H354.527C360.174 485.186 364.747 480.613 364.747 474.986V474.23H364.25L364.21 474.25Z" fill="url(#paint8_linear_253_2390)"/>
<path d="M-139 488.249C-108.023 496.043 -75.7732 500 -43.3247 500H646.325C678.773 500 711.043 496.043 742 488.249H-139Z" fill="url(#paint9_linear_253_2390)"/>
<path d="M640.36 3.10188H-30.2022C-40.4616 3.10188 -48.8123 11.3736 -48.8123 21.5541V460.53H658.97V21.5541C658.97 11.3736 650.619 3.10188 640.36 3.10188ZM644.317 449.674H-34.1787V29.8457H644.317V449.694V449.674Z" fill="black"/>
</g>
<defs>
<linearGradient id="paint0_linear_253_2390" x1="305.099" y1="473.097" x2="305.099" y2="3.06212" gradientUnits="userSpaceOnUse">
<stop stop-color="#9A9A9A"/>
<stop offset="0.09" stop-color="#A1A1A1"/>
<stop offset="0.24" stop-color="#B7B7B7"/>
<stop offset="0.42" stop-color="#DADADA"/>
<stop offset="0.45" stop-color="#E2E2E2"/>
<stop offset="1" stop-color="#C5C5C5"/>
</linearGradient>
<linearGradient id="paint1_linear_253_2390" x1="305.079" y1="24.5367" x2="305.079" y2="0" gradientUnits="userSpaceOnUse">
<stop stop-color="#404040"/>
<stop offset="0.28" stop-color="#424242"/>
<stop offset="0.45" stop-color="#4A4A4A"/>
<stop offset="0.59" stop-color="#595959"/>
<stop offset="0.71" stop-color="#6D6D6D"/>
<stop offset="0.82" stop-color="#878787"/>
<stop offset="0.92" stop-color="#A7A7A7"/>
<stop offset="1" stop-color="#C5C5C5"/>
</linearGradient>
<linearGradient id="paint2_linear_253_2390" x1="-139" y1="481.588" x2="301.5" y2="481.588" gradientUnits="userSpaceOnUse">
<stop stop-color="#929292"/>
<stop offset="0.01" stop-color="#C1C1C1"/>
<stop offset="0.03" stop-color="#B1B1B1"/>
<stop offset="0.05" stop-color="#9C9C9C"/>
<stop offset="0.07" stop-color="#A3A3A3"/>
<stop offset="0.09" stop-color="#AFAFAF"/>
<stop offset="1" stop-color="#CFCFCF"/>
</linearGradient>
<linearGradient id="paint3_linear_253_2390" x1="-139" y1="474.588" x2="742" y2="474.588" gradientUnits="userSpaceOnUse">
<stop stop-color="#F8F8F8"/>
<stop offset="0.06" stop-color="#D0D0D0"/>
<stop offset="0.5" stop-color="#F8F8F8"/>
<stop offset="0.87" stop-color="#D0D0D0"/>
<stop offset="0.88" stop-color="#D3D3D3"/>
<stop offset="0.95" stop-color="#E8E8E8"/>
<stop offset="1" stop-color="#F1F1F1"/>
</linearGradient>
<linearGradient id="paint4_linear_253_2390" x1="301.5" y1="481.588" x2="742" y2="481.588" gradientUnits="userSpaceOnUse">
<stop stop-color="#CFCFCF"/>
<stop offset="0.91" stop-color="#AFAFAF"/>
<stop offset="0.93" stop-color="#A3A3A3"/>
<stop offset="0.95" stop-color="#9C9C9C"/>
<stop offset="0.97" stop-color="#B1B1B1"/>
<stop offset="0.99" stop-color="#C1C1C1"/>
<stop offset="1" stop-color="#929292"/>
</linearGradient>
<linearGradient id="paint5_linear_253_2390" x1="-139" y1="481.19" x2="301.5" y2="481.19" gradientUnits="userSpaceOnUse">
<stop stop-color="#666666"/>
<stop offset="0.01" stop-color="#D5D5D5"/>
<stop offset="0.02" stop-color="#BDBDBD"/>
<stop offset="0.04" stop-color="#858585"/>
<stop offset="0.05" stop-color="#707070"/>
<stop offset="0.06" stop-color="#787878"/>
<stop offset="0.07" stop-color="#8D8D8D"/>
<stop offset="0.09" stop-color="#BCBCBC"/>
<stop offset="1" stop-color="#F1F1F1"/>
</linearGradient>
<linearGradient id="paint6_linear_253_2390" x1="301.5" y1="481.19" x2="742" y2="481.19" gradientUnits="userSpaceOnUse">
<stop stop-color="#F1F1F1"/>
<stop offset="0.91" stop-color="#B1B1B1"/>
<stop offset="0.93" stop-color="#8D8D8D"/>
<stop offset="0.94" stop-color="#787878"/>
<stop offset="0.95" stop-color="#707070"/>
<stop offset="0.96" stop-color="#858585"/>
<stop offset="0.98" stop-color="#BDBDBD"/>
<stop offset="0.99" stop-color="#D5D5D5"/>
<stop offset="1" stop-color="#666666"/>
</linearGradient>
<linearGradient id="paint7_linear_253_2390" x1="238.81" y1="479.361" x2="364.21" y2="479.361" gradientUnits="userSpaceOnUse">
<stop stop-color="#9F9F9F"/>
<stop offset="0.04" stop-color="#ACACAC"/>
<stop offset="0.51" stop-color="#E5E5E5"/>
<stop offset="0.96" stop-color="#ACACAC"/>
<stop offset="1" stop-color="#9F9F9F"/>
</linearGradient>
<linearGradient id="paint8_linear_253_2390" x1="238.313" y1="479.738" x2="364.707" y2="479.738" gradientUnits="userSpaceOnUse">
<stop stop-color="#F7F7F7"/>
<stop offset="0.52" stop-color="#F8F8F8"/>
<stop offset="1" stop-color="#F7F7F7"/>
</linearGradient>
<linearGradient id="paint9_linear_253_2390" x1="301.5" y1="500" x2="301.5" y2="488.249" gradientUnits="userSpaceOnUse">
<stop stop-color="#575757"/>
<stop offset="0.74" stop-color="#B9B9B9"/>
<stop offset="0.85" stop-color="#B5B5B5"/>
<stop offset="0.94" stop-color="#ABABAB"/>
<stop offset="1" stop-color="#9F9F9F"/>
</linearGradient>
<clipPath id="clip0_253_2390">
<rect width="881" height="500" fill="white" transform="translate(-139)"/>
</clipPath>
</defs>
</svg>
