<svg width="85" height="26" viewBox="0 0 85 26" fill="none" xmlns="http://www.w3.org/2000/svg">
<path fill-rule="evenodd" clip-rule="evenodd" d="M5.31766 2.67391C2.53331 4.68439 0.661856 7.74581 0.159761 11.1499C0.0456479 11.8353 0 12.5435 0 13.2289V13.2975C0 16.1304 0.890082 18.8948 2.55613 21.2023C4.74709 24.1951 8.74103 26 13.2599 26H13.6707C17.2538 25.9086 20.7685 24.6978 23.0508 22.7787L23.142 22.7101L22.6171 22.0476L22.5258 22.1161C20.6088 23.6697 17.0484 24.6978 13.6935 24.6978C12.3242 24.7206 10.9548 24.515 9.65394 24.1038C6.0708 22.8701 3.46903 19.7858 2.57895 15.6506C1.80298 12.0866 2.48766 8.54542 4.54168 5.71248C6.59571 2.87954 9.67676 1.23461 13.0317 1.23461C14.7434 1.23461 16.4322 1.64583 17.9385 2.44545C20.5859 3.79338 22.5487 6.39786 23.2105 9.41357C23.8267 12.2237 23.2333 14.9652 21.5445 17.0899C20.5859 18.3008 18.8514 19.5117 17.1169 19.5117C16.4322 19.5117 15.7704 19.306 15.2226 18.8948C14.1272 18.0952 14.1271 16.6559 14.1271 15.3993V15.0795L14.2869 8.6825H9.03773V10.0076H11.1146C11.1026 10.7859 11.0781 11.8216 11.0542 12.8316C11.0325 13.7487 11.0113 14.6447 11.0005 15.3079C10.9776 15.9248 10.9776 16.336 10.9776 16.3817C10.9776 19.3289 12.5067 20.8367 15.4965 20.8367C15.7703 20.8367 16.067 20.8139 16.3636 20.7911L16.3638 20.791C20.9054 20.4027 24.945 16.7929 25.5841 12.5664C26.2687 7.86003 23.7354 3.38215 19.1025 1.1889C17.4136 0.389279 15.565 -0.0219436 13.6935 0.000902685C10.6581 -0.0219436 7.73684 0.914744 5.31766 2.67391ZM10.9126 5.80729V5.73874C10.9126 4.7335 11.7114 3.91104 12.6927 3.91104C13.6969 3.91104 14.5185 4.7335 14.5185 5.73874C14.5185 6.74398 13.7197 7.56645 12.7156 7.56645C11.7342 7.56645 10.9354 6.78968 10.9126 5.80729ZM27.8729 11.2438C28.3522 10.3528 29.1053 9.62166 29.9954 9.11904C30.9311 8.61643 31.981 8.36513 33.0536 8.38797C33.9894 8.36513 34.9479 8.57074 35.7923 8.98197V11.7007C35.0848 11.3123 34.2861 11.1067 33.4644 11.1067C32.5515 11.1067 31.8212 11.3808 31.2963 11.9748C30.7714 12.546 30.4975 13.3685 30.4975 14.4194C30.4975 15.4703 30.7486 16.2699 31.2963 16.8868C31.844 17.5036 32.5744 17.8006 33.4873 17.8006C34.3545 17.8235 35.199 17.595 35.9293 17.161V19.8568C34.9936 20.3137 33.9665 20.5422 32.9395 20.5194C31.844 20.5422 30.7714 20.2909 29.8128 19.7654C28.9456 19.2628 28.2609 18.5317 27.8045 17.6407C27.3024 16.6583 27.0741 15.5617 27.097 14.4651C27.0741 13.3456 27.348 12.2262 27.8729 11.2438ZM40.2756 16.7269C40.2528 17.1381 40.4125 17.5494 40.7092 17.8235C41.0516 18.1205 41.4624 18.2576 41.9188 18.2119C42.4666 18.2348 42.9915 18.0063 43.3795 17.5951C43.7674 17.1838 43.9957 16.6355 43.9728 16.0644V15.082C43.8359 15.0591 43.699 15.0591 43.5621 15.0591H43.562H43.1284C42.2155 15.0591 41.5308 15.1962 41.0287 15.4932C40.5495 15.7217 40.2756 16.2014 40.2756 16.7269ZM38.1531 11.952V9.30186C39.3399 8.68501 40.6408 8.36515 42.0101 8.45653C43.6533 8.45653 44.9314 8.89063 45.8215 9.75879C46.7116 10.6269 47.168 11.8835 47.168 13.5056V20.3138H44.4293L44.2467 19.1029C43.8816 19.6056 43.4023 19.9711 42.8545 20.2224C42.2612 20.4737 41.5993 20.6108 40.9375 20.6108C39.7735 20.6108 38.8606 20.2909 38.1759 19.6741C37.4913 19.0572 37.1489 18.2348 37.1489 17.2067C37.1489 15.8816 37.651 14.8535 38.678 14.1224C39.6822 13.3913 41.12 13.0258 42.9915 13.0258H43.4707C43.6305 13.0258 43.7903 13.0258 43.95 13.0487C43.8587 12.3633 43.6305 11.8835 43.2197 11.5637C42.8089 11.2438 42.2155 11.0839 41.4395 11.0839C40.2756 11.1067 39.1573 11.4037 38.1531 11.952ZM52.8933 8.95527C52.3912 9.32081 52.0032 9.77773 51.7521 10.3489L51.5239 8.68112H48.5798V20.2642H51.9575V14.347C51.9575 13.4788 52.1629 12.8163 52.5966 12.3137C53.0302 11.811 53.6464 11.5369 54.3082 11.5598C54.6278 11.5598 54.9473 11.6054 55.2668 11.7197V8.56689C55.0157 8.49835 54.7419 8.45266 54.468 8.45266C53.8974 8.45266 53.3497 8.61257 52.8933 8.95527ZM59.7149 10.3489C59.966 9.77773 60.354 9.32081 60.8561 8.95527C61.3125 8.61257 61.8603 8.45266 62.4308 8.45266C62.7047 8.45266 62.9786 8.49835 63.2296 8.56689V11.7197C62.9101 11.6054 62.5906 11.5598 62.2711 11.5598C61.6092 11.5369 60.993 11.811 60.5594 12.3137C60.1258 12.8163 59.9204 13.4788 59.9204 14.347V20.2642H56.5426V8.68112H59.4867L59.7149 10.3489ZM67.9705 16.9326C67.5825 16.3386 67.3771 15.5161 67.3771 14.4423C67.3771 13.3914 67.5825 12.5689 67.9705 11.9977C68.3128 11.4266 68.929 11.1067 69.5909 11.1296C70.2527 11.1067 70.8689 11.4494 71.2113 12.0206C71.5993 12.6146 71.8047 13.437 71.8047 14.5108C71.8047 15.5618 71.5993 16.3842 71.2113 16.9554C70.8689 17.5266 70.2527 17.8464 69.5909 17.8235C68.929 17.8235 68.3128 17.4809 67.9705 16.9326ZM66.6696 9.1191C65.8023 9.62172 65.1176 10.3528 64.684 11.2438C64.1819 12.2491 63.9309 13.3685 63.9537 14.488C63.9309 15.5846 64.1591 16.6584 64.6384 17.6408C65.072 18.5318 65.7338 19.2629 66.5783 19.7655C67.4912 20.2909 68.5182 20.5651 69.5909 20.5423C70.6179 20.5651 71.6221 20.3138 72.5121 19.8112C73.3794 19.3086 74.0641 18.5775 74.4977 17.6865C74.9998 16.6812 75.2509 15.5618 75.228 14.4423C75.2509 13.3457 75.0226 12.2719 74.5434 11.2895C74.1097 10.3985 73.4479 9.66743 72.6034 9.16481C71.6905 8.63935 70.6635 8.36519 69.5909 8.38803C68.5639 8.36519 67.5597 8.61648 66.6696 9.1191ZM76.1546 12.0236C76.1318 10.9726 76.6339 9.96736 77.5012 9.37336C78.3912 8.71082 79.578 8.39098 81.1071 8.39098C82.1341 8.39098 83.1383 8.57376 84.0969 8.9393V11.5209C83.184 11.1325 82.2026 10.9269 81.1984 10.9269C80.7648 10.9041 80.3312 10.9955 79.9432 11.1782C79.6693 11.3381 79.5095 11.6123 79.5095 11.9322C79.4867 12.2292 79.6693 12.5033 79.9204 12.6404C80.1942 12.8232 80.7648 13.0288 81.6092 13.2572C82.7275 13.5542 83.5491 14.0112 84.0741 14.5823C84.5761 15.1535 84.8272 15.8846 84.85 16.7984V16.9355C84.8728 17.9636 84.3936 18.946 83.5491 19.5628C82.6819 20.2254 81.5179 20.5452 80.0345 20.5452C78.7336 20.5681 77.4327 20.3168 76.2231 19.7913V17.1411C77.2729 17.7123 78.4597 18.0093 79.6693 17.9864C80.2399 17.9864 80.6963 17.895 80.993 17.7123C81.2897 17.5523 81.4723 17.2553 81.4495 16.9126C81.4495 16.5928 81.2897 16.3186 81.0158 16.1816C80.7191 15.9988 80.1258 15.7703 79.2357 15.519C78.2087 15.2449 77.4555 14.8108 76.9306 14.2396C76.4057 13.6685 76.1546 12.9146 76.1546 12.0236Z" fill="#0071CE"/>
</svg>
