<svg width="151" height="45" viewBox="0 0 151 45" fill="none" xmlns="http://www.w3.org/2000/svg">
<path d="M145.19 43.8202H5.68556C2.84278 43.8202 0.554688 41.5321 0.554688 38.6893V5.68531C0.554688 2.84253 2.84278 0.554443 5.68556 0.554443H145.19C148.033 0.554443 150.321 2.84253 150.321 5.68531V38.7586C150.321 41.5321 148.033 43.8202 145.19 43.8202Z" fill="black"/>
<path d="M145.19 44.4444H5.68556C2.56544 44.4444 0 41.879 0 38.7589V5.68556C0 2.56544 2.56544 0 5.68556 0H145.19C148.31 0 150.875 2.56544 150.875 5.68556V38.7589C150.875 41.879 148.31 44.4444 145.19 44.4444ZM5.68556 1.10938C3.18946 1.10938 1.10938 3.12012 1.10938 5.68556V38.7589C1.10938 41.255 3.12012 43.3351 5.68556 43.3351H145.19C147.686 43.3351 149.766 41.3243 149.766 38.7589V5.68556C149.766 3.18946 147.755 1.10938 145.19 1.10938H5.68556Z" fill="#A7A9AC"/>
<path d="M33.6975 21.7715C33.6975 18.166 36.679 16.4326 36.8176 16.2939C35.1536 13.7978 32.5188 13.5205 31.5481 13.4511C29.3293 13.2431 27.1799 14.7685 26.0705 14.7685C24.8918 14.7685 23.2278 13.4511 21.3557 13.5205C18.9289 13.5898 16.7102 14.9765 15.4621 17.1259C12.8967 21.4941 14.8381 28.0117 17.2649 31.5479C18.5129 33.2813 19.8996 35.2227 21.7717 35.1533C23.5744 35.084 24.2678 33.9746 26.4172 33.9746C28.5666 33.9746 29.26 35.1533 31.1321 35.084C33.0735 35.084 34.3215 33.3506 35.5002 31.5479C36.887 29.5371 37.4417 27.5957 37.511 27.457C37.4417 27.5264 33.6975 26.0703 33.6975 21.7715Z" fill="white"/>
<path d="M30.0918 11.1621C31.0625 9.91407 31.7559 8.25 31.5479 6.58594C30.1612 6.65527 28.3584 7.55664 27.3184 8.73536C26.417 9.7754 25.585 11.5088 25.793 13.1729C27.4571 13.3115 29.0518 12.3408 30.0918 11.1621Z" fill="white"/>
<path d="M59.9756 34.876H57.4102L56.0235 30.5078H51.1699L49.9219 34.876H47.4258L52.21 20.0381H55.1914L59.9756 34.876ZM55.6074 28.6358L54.3594 24.7529C54.2207 24.3369 53.9434 23.4356 53.5967 21.9795H53.5274C53.3887 22.6035 53.1113 23.5742 52.834 24.7529L51.5859 28.6358H55.6074Z" fill="white"/>
<path d="M72.3174 29.3985C72.3174 31.2012 71.8321 32.6572 70.8613 33.6973C69.96 34.668 68.8506 35.084 67.6026 35.084C66.2158 35.084 65.1758 34.5987 64.5518 33.5586H64.4824V39.1748H62.125V27.665C62.125 26.4863 62.125 25.377 62.0557 24.1289H64.1357L64.2744 25.793H64.3438C65.1065 24.5449 66.3545 23.8516 67.9492 23.8516C69.1973 23.8516 70.2373 24.3369 71.1387 25.377C71.8321 26.417 72.3174 27.7344 72.3174 29.3985ZM69.8906 29.4678C69.8906 28.4277 69.6826 27.5957 69.1973 26.9023C68.7119 26.209 68.0186 25.8623 67.1172 25.8623C66.5625 25.8623 66.0078 26.0703 65.5225 26.417C65.0371 26.833 64.7598 27.3184 64.5518 27.9424C64.4824 28.2197 64.4131 28.4971 64.4131 28.6358V30.4385C64.4131 31.2012 64.6211 31.8945 65.1065 32.3799C65.5918 32.9346 66.2158 33.2119 66.9785 33.2119C67.8799 33.2119 68.5733 32.8653 69.0586 32.1719C69.6133 31.4785 69.8906 30.5772 69.8906 29.4678Z" fill="white"/>
<path d="M84.5899 29.3985C84.5899 31.2012 84.1045 32.6572 83.1338 33.6973C82.2324 34.668 81.1924 35.084 79.875 35.084C78.4883 35.084 77.4483 34.5987 76.8242 33.5586H76.7549V39.1748H74.3975V27.665C74.3975 26.4863 74.3975 25.377 74.3281 24.1289H76.4082L76.5469 25.793H76.6162C77.3789 24.5449 78.627 23.8516 80.2217 23.8516C81.4697 23.8516 82.5098 24.3369 83.4112 25.377C84.1739 26.417 84.5899 27.7344 84.5899 29.3985ZM82.1631 29.4678C82.1631 28.4277 81.9551 27.5957 81.4697 26.9023C80.9844 26.209 80.291 25.8623 79.3897 25.8623C78.835 25.8623 78.2803 26.0703 77.7949 26.417C77.3096 26.833 77.0322 27.3184 76.8936 27.9424C76.8242 28.2197 76.7549 28.4971 76.7549 28.6358V30.4385C76.7549 31.2012 76.9629 31.8945 77.4483 32.3799C77.9336 32.9346 78.5576 33.2119 79.3203 33.2119C80.2217 33.2119 80.9151 32.8653 81.4004 32.1719C81.9551 31.4785 82.1631 30.5772 82.1631 29.4678Z" fill="white"/>
<path d="M98.3877 30.7158C98.3877 31.9639 97.9717 33.0039 97.0703 33.836C96.0996 34.7373 94.7822 35.1534 93.0488 35.1534C91.4541 35.1534 90.1367 34.876 89.166 34.252L89.7207 32.2412C90.7607 32.8653 91.9395 33.2119 93.1875 33.2119C94.0889 33.2119 94.7822 33.0039 95.2676 32.5879C95.7529 32.1719 96.0303 31.6172 96.0303 30.9932C96.0303 30.3692 95.8223 29.8838 95.4063 29.4678C94.9902 29.0518 94.2969 28.7051 93.3262 28.2891C90.6914 27.3184 89.4434 25.8623 89.4434 24.0596C89.4434 22.8115 89.9287 21.8408 90.8301 21.0781C91.7314 20.3154 92.9795 19.8994 94.4356 19.8994C95.8223 19.8994 96.9317 20.1074 97.833 20.5928L97.209 22.5342C96.377 22.0488 95.4063 21.8408 94.3662 21.8408C93.5342 21.8408 92.8408 22.0488 92.4248 22.4648C92.0088 22.8115 91.8008 23.2969 91.8008 23.7822C91.8008 24.3369 92.0088 24.8223 92.4941 25.2383C92.9102 25.585 93.6035 26.001 94.6436 26.417C95.8916 26.9024 96.8623 27.5264 97.4863 28.2197C98.1104 28.7744 98.3877 29.6758 98.3877 30.7158Z" fill="white"/>
<path d="M106.292 25.9317H103.657V31.1319C103.657 32.4492 104.143 33.1426 105.044 33.1426C105.46 33.1426 105.807 33.0733 106.084 33.0039L106.154 34.8067C105.668 35.0147 105.044 35.084 104.281 35.084C103.311 35.084 102.617 34.8067 102.063 34.252C101.508 33.6973 101.3 32.7266 101.3 31.3399V25.9317H99.7053V24.1289H101.3V22.1875L103.657 21.4941V24.1289H106.292V25.9317Z" fill="white"/>
<path d="M118.148 29.3994C118.148 31.0635 117.663 32.3809 116.762 33.4903C115.791 34.5996 114.474 35.1543 112.81 35.1543C111.215 35.1543 109.967 34.5996 109.065 33.5596C108.164 32.5196 107.679 31.2022 107.679 29.6074C107.679 27.9434 108.164 26.5566 109.135 25.5166C110.105 24.4766 111.423 23.9219 113.018 23.9219C114.612 23.9219 115.86 24.4766 116.831 25.5166C117.663 26.4873 118.148 27.8047 118.148 29.3994ZM115.652 29.4688C115.652 28.4981 115.444 27.666 115.028 26.9033C114.543 26.0713 113.85 25.5859 112.879 25.5859C111.908 25.5859 111.215 26.002 110.729 26.9033C110.313 27.5967 110.105 28.4981 110.105 29.4688C110.105 30.4395 110.313 31.2715 110.729 32.0342C111.215 32.8662 111.978 33.2822 112.879 33.2822C113.78 33.2822 114.474 32.8662 115.028 31.9649C115.444 31.3408 115.652 30.5088 115.652 29.4688Z" fill="white"/>
<path d="M125.845 26.209C125.637 26.1397 125.359 26.1397 125.082 26.1397C124.25 26.1397 123.626 26.4863 123.141 27.1104C122.725 27.665 122.517 28.3584 122.517 29.2598V34.876H120.159V27.5264C120.159 26.2783 120.159 25.1689 120.09 24.1289H122.17L122.239 26.209H122.309C122.586 25.5156 122.933 24.9609 123.487 24.5449C124.042 24.1289 124.597 23.9902 125.221 23.9902C125.429 23.9902 125.637 23.9902 125.845 24.0596V26.209Z" fill="white"/>
<path d="M136.522 28.9824C136.522 29.3985 136.522 29.7451 136.453 30.0918H129.312C129.312 31.1319 129.658 31.9639 130.352 32.5186C130.976 33.0039 131.738 33.2813 132.709 33.2813C133.749 33.2813 134.72 33.1426 135.621 32.7959L135.968 34.46C134.928 34.876 133.749 35.1533 132.362 35.1533C130.698 35.1533 129.381 34.668 128.48 33.6973C127.509 32.7266 127.023 31.4092 127.023 29.7451C127.023 28.1504 127.439 26.7637 128.341 25.7236C129.242 24.5449 130.49 23.9902 132.085 23.9902C133.61 23.9902 134.789 24.5449 135.621 25.7236C136.176 26.5557 136.522 27.665 136.522 28.9824ZM134.234 28.3584C134.234 27.665 134.096 27.041 133.749 26.5557C133.333 25.8623 132.709 25.585 131.877 25.585C131.114 25.585 130.49 25.9316 130.005 26.5557C129.589 27.041 129.381 27.665 129.312 28.4277H134.234V28.3584Z" fill="white"/>
<path d="M48.8821 8.37188H51.2482C52.3264 8.37188 53.1081 8.52615 53.5935 8.83469C54.0823 9.13977 54.3267 9.62686 54.3267 10.296C54.3267 10.7501 54.2192 11.1228 54.0043 11.414C53.7928 11.7052 53.5103 11.8803 53.1567 11.9392V11.9912C53.6385 12.0987 53.9852 12.2998 54.1967 12.5944C54.4116 12.8891 54.5191 13.2809 54.5191 13.7697C54.5191 14.4631 54.2678 15.0039 53.7651 15.3922C53.2659 15.7804 52.5864 15.9746 51.7266 15.9746H48.8821V8.37188ZM50.4941 11.3828H51.4302C51.867 11.3828 52.1825 11.3152 52.3766 11.18C52.5742 11.0448 52.673 10.8212 52.673 10.5092C52.673 10.218 52.5656 10.0099 52.3506 9.88514C52.1391 9.75687 51.8029 9.69273 51.3418 9.69273H50.4941V11.3828ZM50.4941 12.662V14.6433H51.5446C51.9883 14.6433 52.316 14.5584 52.5274 14.3885C52.7389 14.2186 52.8446 13.9586 52.8446 13.6085C52.8446 12.9775 52.394 12.662 51.4926 12.662H50.4941Z" fill="white"/>
<path d="M59.6049 15.9746L59.2981 15.1841H59.2565C58.9895 15.5204 58.7139 15.7544 58.4297 15.8862C58.1488 16.0144 57.7814 16.0786 57.3272 16.0786C56.7691 16.0786 56.3288 15.9191 56.0064 15.6002C55.6874 15.2812 55.5279 14.8271 55.5279 14.2377C55.5279 13.6206 55.7429 13.1665 56.1728 12.8753C56.6061 12.5806 57.2579 12.4176 58.128 12.3864L59.1369 12.3552V12.1004C59.1369 11.5111 58.8353 11.2164 58.2321 11.2164C57.7675 11.2164 57.2215 11.3568 56.594 11.6376L56.0688 10.5664C56.7379 10.2162 57.4798 10.0411 58.2945 10.0411C59.0745 10.0411 59.6725 10.211 60.0885 10.5508C60.5045 10.8905 60.7126 11.4071 60.7126 12.1004V15.9746H59.6049ZM59.1369 13.2809L58.5233 13.3017C58.0622 13.3155 57.719 13.3987 57.4936 13.5513C57.2683 13.7038 57.1556 13.9361 57.1556 14.2481C57.1556 14.6953 57.4122 14.9189 57.9252 14.9189C58.2927 14.9189 58.5857 14.8132 58.8041 14.6017C59.026 14.3903 59.1369 14.1094 59.1369 13.7593V13.2809Z" fill="white"/>
<path d="M62.283 8.65789C62.283 8.14133 62.5708 7.88306 63.1462 7.88306C63.7217 7.88306 64.0095 8.14133 64.0095 8.65789C64.0095 8.90403 63.9367 9.09644 63.7911 9.23511C63.6489 9.37032 63.434 9.43792 63.1462 9.43792C62.5708 9.43792 62.283 9.17791 62.283 8.65789ZM63.9367 15.9746H62.3506V10.1607H63.9367V15.9746Z" fill="white"/>
<path d="M66.7968 13.0053L64.9247 10.1607H66.724L67.8524 12.012L68.9913 10.1607H70.7906L68.8977 13.0053L70.879 15.9746H69.0745L67.8524 13.9829L66.6252 15.9746H64.8259L66.7968 13.0053Z" fill="white"/>
<path d="M74.1707 11.18C73.8344 11.18 73.5709 11.2875 73.3803 11.5024C73.1896 11.7139 73.0804 12.0155 73.0526 12.4072H75.2783C75.2714 12.0155 75.1691 11.7139 74.9715 11.5024C74.7739 11.2875 74.507 11.18 74.1707 11.18ZM74.3943 16.0786C73.4583 16.0786 72.7268 15.8203 72.1998 15.3038C71.6729 14.7872 71.4094 14.0557 71.4094 13.1093C71.4094 12.1351 71.6521 11.3828 72.1374 10.8524C72.6262 10.3185 73.3005 10.0515 74.1603 10.0515C74.9819 10.0515 75.6215 10.2856 76.0792 10.7536C76.5368 11.2216 76.7656 11.8681 76.7656 12.6932V13.4629H73.0162C73.0336 13.9136 73.167 14.2654 73.4167 14.5185C73.6663 14.7716 74.0164 14.8981 74.4671 14.8981C74.8172 14.8981 75.1483 14.8617 75.4603 14.7889C75.7724 14.7161 76.0982 14.6 76.438 14.4405V15.6678C76.1606 15.8064 75.8642 15.9087 75.5487 15.9746C75.2333 16.0439 74.8484 16.0786 74.3943 16.0786Z" fill="white"/>
<path d="M84.5139 15.9746L84.2071 15.1841H84.1655C83.8985 15.5204 83.6229 15.7544 83.3387 15.8862C83.0578 16.0144 82.6904 16.0786 82.2362 16.0786C81.6781 16.0786 81.2378 15.9191 80.9154 15.6002C80.5964 15.2812 80.4369 14.8271 80.4369 14.2377C80.4369 13.6206 80.6519 13.1665 81.0818 12.8753C81.5151 12.5806 82.1669 12.4176 83.037 12.3864L84.0459 12.3552V12.1004C84.0459 11.5111 83.7443 11.2164 83.141 11.2164C82.6765 11.2164 82.1305 11.3568 81.503 11.6376L80.9778 10.5664C81.6469 10.2162 82.3888 10.0411 83.2034 10.0411C83.9835 10.0411 84.5815 10.211 84.9975 10.5508C85.4135 10.8905 85.6215 11.4071 85.6215 12.1004V15.9746H84.5139ZM84.0459 13.2809L83.4323 13.3017C82.9712 13.3155 82.628 13.3987 82.4026 13.5513C82.1773 13.7038 82.0646 13.9361 82.0646 14.2481C82.0646 14.6953 82.3211 14.9189 82.8342 14.9189C83.2017 14.9189 83.4947 14.8132 83.7131 14.6017C83.9349 14.3903 84.0459 14.1094 84.0459 13.7593V13.2809Z" fill="white"/>
<path d="M92.3194 10.1607V10.9668L91.4094 11.2008C91.5758 11.4608 91.659 11.752 91.659 12.0744C91.659 12.6984 91.4406 13.1855 91.0038 13.5357C90.5704 13.8824 89.9672 14.0557 89.1941 14.0557L88.9081 14.0401L88.6741 14.0141C88.5111 14.1389 88.4297 14.2776 88.4297 14.4301C88.4297 14.6589 88.7209 14.7733 89.3033 14.7733H90.2913C90.9292 14.7733 91.4146 14.9103 91.7474 15.1841C92.0837 15.458 92.2518 15.8602 92.2518 16.3906C92.2518 17.0701 91.9675 17.597 91.399 17.9715C90.8339 18.3459 90.0209 18.5331 88.9601 18.5331C88.1488 18.5331 87.5283 18.3909 87.0984 18.1067C86.672 17.8259 86.4588 17.4306 86.4588 16.921C86.4588 16.5709 86.568 16.2779 86.7864 16.0422C87.0048 15.8064 87.3255 15.6383 87.7484 15.5378C87.5855 15.4684 87.4434 15.3558 87.322 15.1997C87.2007 15.0403 87.14 14.8721 87.14 14.6953C87.14 14.4735 87.2041 14.2897 87.3324 14.1441C87.4607 13.995 87.6462 13.8494 87.8888 13.7073C87.5838 13.5756 87.3411 13.3641 87.1608 13.0729C86.984 12.7817 86.8956 12.4384 86.8956 12.0432C86.8956 11.4088 87.1019 10.9182 87.5144 10.5716C87.927 10.2249 88.5163 10.0515 89.2825 10.0515C89.4454 10.0515 89.6378 10.0671 89.8597 10.0983C90.0851 10.1261 90.2289 10.1469 90.2913 10.1607H92.3194ZM87.8316 16.7962C87.8316 17.0146 87.9356 17.1862 88.1436 17.311C88.3551 17.4358 88.6498 17.4982 89.0277 17.4982C89.5962 17.4982 90.0417 17.4202 90.3641 17.2642C90.6865 17.1082 90.8478 16.895 90.8478 16.6246C90.8478 16.4062 90.7524 16.2554 90.5617 16.1722C90.3711 16.089 90.0764 16.0474 89.6777 16.0474H88.8561C88.5649 16.0474 88.3205 16.115 88.1228 16.2502C87.9287 16.3889 87.8316 16.5709 87.8316 16.7962ZM88.4089 12.064C88.4089 12.3795 88.4799 12.6291 88.6221 12.8129C88.7677 12.9966 88.9878 13.0885 89.2825 13.0885C89.5806 13.0885 89.799 12.9966 89.9377 12.8129C90.0764 12.6291 90.1457 12.3795 90.1457 12.064C90.1457 11.3637 89.858 11.0136 89.2825 11.0136C88.7001 11.0136 88.4089 11.3637 88.4089 12.064Z" fill="white"/>
<path d="M94.5451 13.0573C94.5451 13.6328 94.6387 14.0678 94.8259 14.3625C95.0166 14.6572 95.3251 14.8045 95.7515 14.8045C96.1745 14.8045 96.4778 14.6589 96.6616 14.3677C96.8488 14.073 96.9424 13.6362 96.9424 13.0573C96.9424 12.4818 96.8488 12.0502 96.6616 11.7624C96.4744 11.4747 96.1676 11.3308 95.7411 11.3308C95.3182 11.3308 95.0131 11.4747 94.8259 11.7624C94.6387 12.0467 94.5451 12.4783 94.5451 13.0573ZM98.5649 13.0573C98.5649 14.0037 98.3153 14.7439 97.816 15.2778C97.3168 15.8116 96.6217 16.0786 95.7308 16.0786C95.1726 16.0786 94.6803 15.9572 94.2539 15.7146C93.8275 15.4684 93.4999 15.1165 93.271 14.6589C93.0422 14.2013 92.9278 13.6674 92.9278 13.0573C92.9278 12.1074 93.1757 11.3689 93.6715 10.842C94.1672 10.315 94.864 10.0515 95.762 10.0515C96.3201 10.0515 96.8124 10.1729 97.2388 10.4156C97.6652 10.6582 97.9928 11.0066 98.2216 11.4608C98.4505 11.915 98.5649 12.4471 98.5649 13.0573Z" fill="white"/>
<path d="M103.12 10.0515C103.335 10.0515 103.514 10.0671 103.656 10.0983L103.536 11.5856C103.408 11.5509 103.252 11.5336 103.068 11.5336C102.562 11.5336 102.167 11.6636 101.883 11.9236C101.602 12.1836 101.461 12.5476 101.461 13.0157V15.9746H99.8753V10.1607H101.077L101.311 11.1384H101.389C101.569 10.8125 101.812 10.5508 102.117 10.3532C102.425 10.1521 102.76 10.0515 103.12 10.0515Z" fill="white"/>
<path d="M108.404 15.9746L108.097 15.1841H108.055C107.788 15.5204 107.513 15.7544 107.228 15.8862C106.948 16.0144 106.58 16.0786 106.126 16.0786C105.568 16.0786 105.128 15.9191 104.805 15.6002C104.486 15.2812 104.327 14.8271 104.327 14.2377C104.327 13.6206 104.542 13.1665 104.972 12.8753C105.405 12.5806 106.057 12.4176 106.927 12.3864L107.936 12.3552V12.1004C107.936 11.5111 107.634 11.2164 107.031 11.2164C106.566 11.2164 106.02 11.3568 105.393 11.6376L104.868 10.5664C105.537 10.2162 106.279 10.0411 107.093 10.0411C107.873 10.0411 108.471 10.211 108.887 10.5508C109.303 10.8905 109.511 11.4071 109.511 12.1004V15.9746H108.404ZM107.936 13.2809L107.322 13.3017C106.861 13.3155 106.518 13.3987 106.292 13.5513C106.067 13.7038 105.954 13.9361 105.954 14.2481C105.954 14.6953 106.211 14.9189 106.724 14.9189C107.091 14.9189 107.384 14.8132 107.603 14.6017C107.825 14.3903 107.936 14.1094 107.936 13.7593V13.2809Z" fill="white"/>
</svg>
