<svg width="42" height="43" viewBox="0 0 42 43" fill="none" xmlns="http://www.w3.org/2000/svg">
<path fill-rule="evenodd" clip-rule="evenodd" d="M7 0.462036H35C36.969 0.462036 38.5895 1.15041 39.9367 2.48943C41.3217 3.85674 42 5.50694 42 7.46832V35.484C42 37.3983 41.3217 39.0673 39.9367 40.4346C38.5895 41.7642 36.969 42.462 35 42.462H7C5.03096 42.462 3.39165 41.7642 2.02557 40.4346C0.678331 39.0673 0 37.3983 0 35.484V7.46832C0 5.50694 0.678331 3.85674 2.02557 2.48943C3.39165 1.15041 5.03096 0.462036 7 0.462036Z" fill="#003499"/>
<path fill-rule="evenodd" clip-rule="evenodd" d="M32.0794 24.2815H34.3405L37.1575 21.4431H34.0861L32.0794 24.2815ZM31.2503 25.0076H27.9812V31.0803C27.9812 32.7022 28.4051 33.8998 29.1965 34.7107C29.9031 35.418 30.817 35.7386 31.9946 35.7386C33.6151 35.7386 34.8304 35.0974 35.5747 33.8338H35.603V35.484H38.4859V25.0076H35.2167V31.118C35.2167 31.4009 35.1978 31.6367 35.1507 31.7592C34.7645 32.6645 34.1238 33.1265 33.144 33.1265C31.891 33.1265 31.2503 32.2496 31.2503 30.5239V25.0076ZM22.8748 28.4683C20.7456 28.4683 19.1252 28.7889 17.9946 29.4961C16.8358 30.2033 16.2423 31.2312 16.2423 32.5702C16.2423 33.4094 16.5814 34.1544 17.1844 34.7767C17.8627 35.418 18.7389 35.7386 19.8035 35.7386C21.2544 35.7386 22.3284 35.2671 23.0727 34.3901H23.1575V35.484H26.144V29.3075C26.144 27.9213 25.7577 26.8463 25.0794 26.0825C24.2221 25.1867 22.969 24.7152 21.3015 24.7152C19.5962 24.7152 18.1642 25.0358 17.0336 25.7336L17.646 27.7893C18.5693 27.233 19.5962 26.9595 20.7456 26.9595C22.1965 26.9595 22.8748 27.4027 22.8748 28.3645V28.4683ZM14.961 25.0076H12.9542V21.4431H9.79811V25.0076H8.30013V27.4027H9.79811V31.6367C9.79811 33.0888 10.0713 34.1544 10.6743 34.7767C11.2678 35.418 12.144 35.7386 13.2086 35.7386C13.9152 35.7386 14.4711 35.6537 14.9798 35.4557L14.961 33.004C14.8573 33.0888 14.6595 33.1265 14.3392 33.1265C13.8304 33.1265 13.463 32.938 13.2086 32.5702C13.039 32.2967 12.9542 31.8252 12.9542 31.118V27.4027H14.961V25.0076ZM19.2476 32.2967C19.2476 31.0614 20.5101 30.4768 22.969 30.5239V31.6367L22.9408 32.2496C22.8183 32.6645 22.5168 33.004 22.1305 33.2114C21.7725 33.532 21.3015 33.6829 20.8116 33.6829C19.7846 33.6829 19.2476 33.2114 19.2476 32.2967ZM3.47644 35.484H6.7833V21.4431H3.47644V35.484Z" fill="#FFEC00"/>
</svg>
