<svg width="40" height="28" viewBox="0 0 40 28" fill="none" xmlns="http://www.w3.org/2000/svg">
<path d="M38.7035 4.37766C38.2573 2.65787 36.9327 1.30761 35.2596 0.838579C32.22 2.98023e-07 20.0479 0 20.0479 0C20.0479 0 7.86175 2.98023e-07 4.83614 0.838579C3.16299 1.2934 1.83841 2.65787 1.39224 4.37766C0.555662 7.50457 0.555664 14 0.555664 14C0.555664 14 0.555661 20.4954 1.36435 23.6223C1.81052 25.3421 3.1351 26.6924 4.80825 27.1614C7.84781 28 20.02 28 20.02 28C20.02 28 32.2061 28 35.2317 27.1614C36.9049 26.7066 38.2294 25.3421 38.6756 23.6223C39.5122 20.4954 39.5122 14 39.5122 14C39.5122 14 39.5122 7.50457 38.7035 4.37766ZM16.0602 19.8985V8.08731L26.2385 13.9858L16.0602 19.8985Z" fill="white"/>
</svg>
