<svg width="72" height="72" viewBox="0 0 72 72" fill="none" xmlns="http://www.w3.org/2000/svg">
<path d="M21.09 17.2998L9.5 25.4998H62.5V34.4998H9.5V24.9998"  stroke-width="3" stroke-miterlimit="10" stroke-linejoin="round"/>
<path d="M62.5 25.4998L36.67 6.06982L27.97 12.2498"  stroke-width="3" stroke-miterlimit="10" stroke-linejoin="round"/>
<path d="M62.5 58.5H9.5V65.5H62.5V58.5Z"  stroke-width="3" stroke-miterlimit="10" stroke-linejoin="round"/>
<path d="M36.5 20.5C38.1569 20.5 39.5 19.1569 39.5 17.5C39.5 15.8431 38.1569 14.5 36.5 14.5C34.8431 14.5 33.5 15.8431 33.5 17.5C33.5 19.1569 34.8431 20.5 36.5 20.5Z"  stroke-width="3" stroke-miterlimit="10" stroke-linejoin="round"/>
<path d="M22.5 34.5H12.5V40.5H22.5V34.5Z"  stroke-width="3" stroke-miterlimit="10" stroke-linejoin="round"/>
<path d="M22.5 53.5H12.5V58.5H22.5V53.5Z"  stroke-width="3" stroke-miterlimit="10" stroke-linejoin="round"/>
<path d="M20.5 40.5H14.5V53.5H20.5V40.5Z"  stroke-width="3" stroke-miterlimit="10" stroke-linejoin="round"/>
<path d="M41.5 34.5H31.5V40.5H41.5V34.5Z"  stroke-width="3" stroke-miterlimit="10" stroke-linejoin="round"/>
<path d="M41.5 53.5H31.5V58.5H41.5V53.5Z"  stroke-width="3" stroke-miterlimit="10" stroke-linejoin="round"/>
<path d="M39.5 40.5H33.5V53.5H39.5V40.5Z"  stroke-width="3" stroke-miterlimit="10" stroke-linejoin="round"/>
<path d="M60.5 34.5H50.5V40.5H60.5V34.5Z"  stroke-width="3" stroke-miterlimit="10" stroke-linejoin="round"/>
<path d="M60.5 53.5H50.5V58.5H60.5V53.5Z"  stroke-width="3" stroke-miterlimit="10" stroke-linejoin="round"/>
<path d="M58.5 40.5H52.5V53.5H58.5V40.5Z"  stroke-width="3" stroke-miterlimit="10" stroke-linejoin="round"/>
</svg>
