<svg width="64" height="64" viewBox="0 0 64 64" fill="none" xmlns="http://www.w3.org/2000/svg">
<path d="M18.78 15.21L8.5 22.5H55.5V30.5H8.5V22"  stroke-width="3" stroke-miterlimit="10" stroke-linejoin="round"/>
<path d="M55.5001 22.4999L32.6001 5.3999L24.8601 10.8899"  stroke-width="3" stroke-miterlimit="10" stroke-linejoin="round"/>
<path d="M55.5 52.5H8.5V58.5H55.5V52.5Z"  stroke-width="3" stroke-miterlimit="10" stroke-linejoin="round"/>
<path d="M32.5 18.5C34.1569 18.5 35.5 17.1569 35.5 15.5C35.5 13.8431 34.1569 12.5 32.5 12.5C30.8431 12.5 29.5 13.8431 29.5 15.5C29.5 17.1569 30.8431 18.5 32.5 18.5Z"  stroke-width="3" stroke-miterlimit="10" stroke-linejoin="round"/>
<path d="M20.5 30.5H11.5V35.5H20.5V30.5Z"  stroke-width="3" stroke-miterlimit="10" stroke-linejoin="round"/>
<path d="M20.5 47.5H11.5V52.5H20.5V47.5Z"  stroke-width="3" stroke-miterlimit="10" stroke-linejoin="round"/>
<path d="M18.5 35.5H13.5V47.5H18.5V35.5Z"  stroke-width="3" stroke-miterlimit="10" stroke-linejoin="round"/>
<path d="M36.5 30.5H27.5V35.5H36.5V30.5Z"  stroke-width="3" stroke-miterlimit="10" stroke-linejoin="round"/>
<path d="M36.5 47.5H27.5V52.5H36.5V47.5Z"  stroke-width="3" stroke-miterlimit="10" stroke-linejoin="round"/>
<path d="M34.5 35.5H29.5V47.5H34.5V35.5Z"  stroke-width="3" stroke-miterlimit="10" stroke-linejoin="round"/>
<path d="M53.5 30.5H44.5V35.5H53.5V30.5Z"  stroke-width="3" stroke-miterlimit="10" stroke-linejoin="round"/>
<path d="M53.5 47.5H44.5V52.5H53.5V47.5Z"  stroke-width="3" stroke-miterlimit="10" stroke-linejoin="round"/>
<path d="M51.5 35.5H46.5V47.5H51.5V35.5Z"  stroke-width="3" stroke-miterlimit="10" stroke-linejoin="round"/>
</svg>
