<svg width="40" height="40" viewBox="0 0 40 40" fill="none" xmlns="http://www.w3.org/2000/svg">
<path d="M10.45 10L5 14H35V19H5V14"  stroke-width="2" stroke-miterlimit="10" stroke-linejoin="round"/>
<path d="M34.9999 14L19.9999 3L14.1299 7.31"  stroke-width="2" stroke-miterlimit="10" stroke-linejoin="round"/>
<path d="M35 33H5V37H35V33Z"  stroke-width="2" stroke-miterlimit="10" stroke-linejoin="round"/>
<path d="M20 11C21.1046 11 22 10.1046 22 9C22 7.89543 21.1046 7 20 7C18.8954 7 18 7.89543 18 9C18 10.1046 18.8954 11 20 11Z"  stroke-width="2" stroke-miterlimit="10" stroke-linejoin="round"/>
<path d="M13 19H7V22H13V19Z"  stroke-width="2" stroke-miterlimit="10" stroke-linejoin="round"/>
<path d="M13 30H7V33H13V30Z"  stroke-width="2" stroke-miterlimit="10" stroke-linejoin="round"/>
<path d="M12 22H8V30H12V22Z"  stroke-width="2" stroke-miterlimit="10" stroke-linejoin="round"/>
<path d="M23 19H17V22H23V19Z"  stroke-width="2" stroke-miterlimit="10" stroke-linejoin="round"/>
<path d="M23 30H17V33H23V30Z"  stroke-width="2" stroke-miterlimit="10" stroke-linejoin="round"/>
<path d="M22 22H18V30H22V22Z"  stroke-width="2" stroke-miterlimit="10" stroke-linejoin="round"/>
<path d="M33 19H27V22H33V19Z"  stroke-width="2" stroke-miterlimit="10" stroke-linejoin="round"/>
<path d="M33 30H27V33H33V30Z"  stroke-width="2" stroke-miterlimit="10" stroke-linejoin="round"/>
<path d="M32 22H28V30H32V22Z"  stroke-width="2" stroke-miterlimit="10" stroke-linejoin="round"/>
</svg>
