<svg width="64" height="64" viewBox="0 0 64 64" fill="none" xmlns="http://www.w3.org/2000/svg">
<path d="M49 37.5C52.0376 37.5 54.5 35.0376 54.5 32C54.5 28.9624 52.0376 26.5 49 26.5C45.9624 26.5 43.5 28.9624 43.5 32C43.5 35.0376 45.9624 37.5 49 37.5Z"  stroke-width="3" stroke-miterlimit="10" stroke-linejoin="round"/>
<path d="M29 54.5C32.0376 54.5 34.5 52.0376 34.5 49C34.5 45.9624 32.0376 43.5 29 43.5C25.9624 43.5 23.5 45.9624 23.5 49C23.5 52.0376 25.9624 54.5 29 54.5Z"  stroke-width="3" stroke-miterlimit="10" stroke-linejoin="round"/>
<path d="M22 20.5C25.0376 20.5 27.5 18.0376 27.5 15C27.5 11.9624 25.0376 9.5 22 9.5C18.9624 9.5 16.5 11.9624 16.5 15C16.5 18.0376 18.9624 20.5 22 20.5Z"  stroke-width="3" stroke-miterlimit="10" stroke-linejoin="round"/>
<path d="M9 31.5H44"  stroke-width="3" stroke-miterlimit="10" stroke-linejoin="round"/>
<path d="M28 14.5H55"  stroke-width="3" stroke-miterlimit="10" stroke-linejoin="round"/>
<path d="M34.5 48.5H55"  stroke-width="3" stroke-miterlimit="10" stroke-linejoin="round"/>
<path d="M9 14.5H17"  stroke-width="3" stroke-miterlimit="10" stroke-linejoin="round"/>
<path d="M9 48.5H22.5"  stroke-width="3" stroke-miterlimit="10" stroke-linejoin="round"/>
<path d="M49 34C50.1046 34 51 33.1046 51 32C51 30.8954 50.1046 30 49 30C47.8954 30 47 30.8954 47 32C47 33.1046 47.8954 34 49 34Z" />
<path d="M22 17C23.1046 17 24 16.1046 24 15C24 13.8954 23.1046 13 22 13C20.8954 13 20 13.8954 20 15C20 16.1046 20.8954 17 22 17Z" />
<path d="M29 51C30.1046 51 31 50.1046 31 49C31 47.8954 30.1046 47 29 47C27.8954 47 27 47.8954 27 49C27 50.1046 27.8954 51 29 51Z" />
</svg>
