<svg width="32" height="32" viewBox="0 0 32 32" fill="none" xmlns="http://www.w3.org/2000/svg">
<path d="M11 11C12.6569 11 14 9.65685 14 8C14 6.34315 12.6569 5 11 5C9.34315 5 8 6.34315 8 8C8 9.65685 9.34315 11 11 11Z"  stroke-width="2" stroke-miterlimit="10" stroke-linejoin="round"/>
<path d="M14 27C15.6569 27 17 25.6569 17 24C17 22.3431 15.6569 21 14 21C12.3431 21 11 22.3431 11 24C11 25.6569 12.3431 27 14 27Z"  stroke-width="2" stroke-miterlimit="10" stroke-linejoin="round"/>
<path d="M24 19C25.6569 19 27 17.6569 27 16C27 14.3431 25.6569 13 24 13C22.3431 13 21 14.3431 21 16C21 17.6569 22.3431 19 24 19Z"  stroke-width="2" stroke-miterlimit="10" stroke-linejoin="round"/>
<path d="M21 16H5"  stroke-width="2" stroke-miterlimit="10" stroke-linejoin="round"/>
<path d="M14 8H27"  stroke-width="2" stroke-miterlimit="10" stroke-linejoin="round"/>
<path d="M17 24H27"  stroke-width="2" stroke-miterlimit="10" stroke-linejoin="round"/>
<path d="M8 8H5"  stroke-width="2" stroke-miterlimit="10" stroke-linejoin="round"/>
<path d="M11 24H5"  stroke-width="2" stroke-miterlimit="10" stroke-linejoin="round"/>
</svg>
