<svg width="24" height="24" viewBox="0 0 24 24" fill="none" xmlns="http://www.w3.org/2000/svg">
<path d="M8 7C9.10457 7 10 6.10457 10 5C10 3.89543 9.10457 3 8 3C6.89543 3 6 3.89543 6 5C6 6.10457 6.89543 7 8 7Z"  stroke-width="2" stroke-miterlimit="10" stroke-linejoin="round"/>
<path d="M10 21C11.1046 21 12 20.1046 12 19C12 17.8954 11.1046 17 10 17C8.89543 17 8 17.8954 8 19C8 20.1046 8.89543 21 10 21Z"  stroke-width="2" stroke-miterlimit="10" stroke-linejoin="round"/>
<path d="M18 14C19.1046 14 20 13.1046 20 12C20 10.8954 19.1046 10 18 10C16.8954 10 16 10.8954 16 12C16 13.1046 16.8954 14 18 14Z"  stroke-width="2" stroke-miterlimit="10" stroke-linejoin="round"/>
<path d="M10 5H21"  stroke-width="2" stroke-miterlimit="10" stroke-linejoin="round"/>
<path d="M6 5H3"  stroke-width="2" stroke-miterlimit="10" stroke-linejoin="round"/>
<path d="M16 12H3"  stroke-width="2" stroke-miterlimit="10" stroke-linejoin="round"/>
<path d="M12 19H21"  stroke-width="2" stroke-miterlimit="10" stroke-linejoin="round"/>
<path d="M8 19H3"  stroke-width="2" stroke-miterlimit="10" stroke-linejoin="round"/>
</svg>
