<svg width="16" height="16" viewBox="0 0 16 16" fill="none" xmlns="http://www.w3.org/2000/svg">
<path d="M6 5C7.10457 5 8 4.10457 8 3C8 1.89543 7.10457 1 6 1C4.89543 1 4 1.89543 4 3C4 4.10457 4.89543 5 6 5Z" />
<path d="M7 15C8.10457 15 9 14.1046 9 13C9 11.8954 8.10457 11 7 11C5.89543 11 5 11.8954 5 13C5 14.1046 5.89543 15 7 15Z" />
<path d="M13 10C14.1046 10 15 9.10457 15 8C15 6.89543 14.1046 6 13 6C11.8954 6 11 6.89543 11 8C11 9.10457 11.8954 10 13 10Z" />
<path d="M14 8H1"  stroke-width="2" stroke-miterlimit="10" stroke-linejoin="round"/>
<path d="M14.5 3H1"  stroke-width="2" stroke-miterlimit="10" stroke-linejoin="round"/>
<path d="M14.5 13H1"  stroke-width="2" stroke-miterlimit="10" stroke-linejoin="round"/>
</svg>
