<svg width="64" height="64" viewBox="0 0 64 64" fill="none" xmlns="http://www.w3.org/2000/svg">
<path d="M30 11.5H46.1C47.57 11.5 48.85 12.5 49.21 13.93L54.02 27.4"  stroke-width="3" stroke-miterlimit="10" stroke-linejoin="round"/>
<path d="M19 27.5H55.32L58.22 32.91C58.41 33.66 58.5 34.43 58.5 35.2V44.9C58.5 45.78 57.78 46.5 56.9 46.5H7.10001C6.22001 46.5 5.5 45.78 5.5 44.9V35.2C5.5 34.43 5.59 33.66 5.78 32.91L6.5 30.5"  stroke-width="3" stroke-miterlimit="10" stroke-linejoin="round"/>
<path d="M53 26.5H60"  stroke-width="3" stroke-miterlimit="10" stroke-linejoin="round"/>
<path d="M47.5 47V49.4C47.5 51.61 49.29 53.4 51.5 53.4C53.71 53.4 55.5 51.61 55.5 49.4V47"  stroke-width="3" stroke-miterlimit="10" stroke-linejoin="round"/>
<path d="M16.5 47V49.4C16.5 51.61 14.71 53.4 12.5 53.4C10.29 53.4 8.5 51.61 8.5 49.4V47"  stroke-width="3" stroke-miterlimit="10" stroke-linejoin="round"/>
<path d="M42.5 39.5H52.5V34.5H45.5C43.84 34.5 42.5 35.84 42.5 37.5V39.5Z"  stroke-width="3" stroke-miterlimit="10" stroke-linejoin="round"/>
<path d="M11.5 39.5H21.5V37.5C21.5 35.84 20.16 34.5 18.5 34.5H11.5V39.5Z"  stroke-width="3" stroke-miterlimit="10" stroke-linejoin="round"/>
<path d="M24.5 46.5H39.5L37.5 41.5H26.5L24.5 46.5Z"  stroke-width="3" stroke-miterlimit="10" stroke-linejoin="round"/>
<path d="M18.5 11.5L21.5 16.5L24.5 11.5L21.5 6.5L18.5 11.5Z"  stroke-width="3" stroke-miterlimit="10" stroke-linejoin="round"/>
<path d="M6.5 20.5L11.5 28.5L16.5 20.5L11.5 12.5L6.5 20.5Z"  stroke-width="3" stroke-miterlimit="10" stroke-linejoin="round"/>
</svg>
