<svg width="40" height="40" viewBox="0 0 40 40" fill="none" xmlns="http://www.w3.org/2000/svg">
<path d="M20 7H29.44C30.36 7 31.16 7.63 31.38 8.52L34.39 16.56"  stroke-width="2" stroke-miterlimit="10" stroke-linejoin="round"/>
<path d="M13 17H35L36.82 20.42C36.94 20.89 37 21.38 37 21.86V28C37 28.55 36.55 29 36 29H4C3.45 29 3 28.55 3 28V21"  stroke-width="2" stroke-miterlimit="10" stroke-linejoin="round"/>
<path d="M34 16H38"  stroke-width="2" stroke-miterlimit="10" stroke-linejoin="round"/>
<path d="M30 29V30.5C30 31.88 31.12 33 32.5 33C33.88 33 35 31.88 35 30.5V29"  stroke-width="2" stroke-miterlimit="10" stroke-linejoin="round"/>
<path d="M10 29V30.5C10 31.88 8.88 33 7.5 33C6.12 33 5 31.88 5 30.5V29"  stroke-width="2" stroke-miterlimit="10" stroke-linejoin="round"/>
<path d="M27 25H33V22H29C27.9 22 27 22.9 27 24V25Z"  stroke-width="2" stroke-miterlimit="10" stroke-linejoin="round"/>
<path d="M7 25H13V24C13 22.9 12.1 22 11 22H7V25Z"  stroke-width="2" stroke-miterlimit="10" stroke-linejoin="round"/>
<path d="M12 7.2L14 10L16 7.2L14 4L12 7.2Z"  stroke-width="2" stroke-miterlimit="10" stroke-linejoin="round"/>
<path d="M4 13L7 18L10 13L7 8L4 13Z"  stroke-width="2" stroke-miterlimit="10" stroke-linejoin="round"/>
</svg>
