<svg width="32" height="32" viewBox="0 0 32 32" fill="none" xmlns="http://www.w3.org/2000/svg">
<path d="M3 11V24.2C3 24.64 3.36 25 3.8 25H28.2C28.64 25 29 24.64 29 24.2V7.8C29 7.36 28.64 7 28.2 7H7"  stroke-width="2" stroke-miterlimit="10" stroke-linejoin="round"/>
<path d="M9 21.4001H23C23 20.3001 23.9 19.4001 25 19.4001V12.6001C23.9 12.6001 23 11.7001 23 10.6001H9C9 11.7001 8.1 12.6001 7 12.6001V19.4001C8.1 19.4001 9 20.3001 9 21.4001Z"  stroke-width="2" stroke-miterlimit="10" stroke-linejoin="round"/>
<path d="M16 18C17.1046 18 18 17.1046 18 16C18 14.8954 17.1046 14 16 14C14.8954 14 14 14.8954 14 16C14 17.1046 14.8954 18 16 18Z"  stroke-width="2" stroke-miterlimit="10" stroke-linejoin="round"/>
</svg>
