<svg width="24" height="24" viewBox="0 0 24 24" fill="none" xmlns="http://www.w3.org/2000/svg">
<path d="M22 5H2V19H22V5Z"  stroke-width="2" stroke-miterlimit="10" stroke-linejoin="round"/>
<path d="M12 14C13.1046 14 14 13.1046 14 12C14 10.8954 13.1046 10 12 10C10.8954 10 10 10.8954 10 12C10 13.1046 10.8954 14 12 14Z"/>
<path d="M7 16H17C17 14.9 17.9 14 19 14V10C17.9 10 17 9.1 17 8H7C7 9.1 6.1 10 5 10V14C6.1 14 7 14.9 7 16Z"  stroke-width="2" stroke-miterlimit="10" stroke-linejoin="round"/>
</svg>
