<svg width="72" height="72" viewBox="0 0 72 72" fill="none" xmlns="http://www.w3.org/2000/svg">
<path d="M5.5 24V53.5C5.5 54.6 6.4 55.5 7.5 55.5H64.5C65.6 55.5 66.5 54.6 66.5 53.5V18.5C66.5 17.4 65.6 16.5 64.5 16.5H14"  stroke-width="3" stroke-miterlimit="10" stroke-linejoin="round"/>
<path d="M16.5 49.5H55.5C55.5 46.74 57.74 44.5 60.5 44.5V27.5C57.74 27.5 55.5 25.26 55.5 22.5H16.5C16.5 25.26 14.26 27.5 11.5 27.5V44.5C14.26 44.5 16.5 46.74 16.5 49.5Z"  stroke-width="3" stroke-miterlimit="10" stroke-linejoin="round"/>
<path d="M36 42.5C39.5899 42.5 42.5 39.5899 42.5 36C42.5 32.4101 39.5899 29.5 36 29.5C32.4101 29.5 29.5 32.4101 29.5 36C29.5 39.5899 32.4101 42.5 36 42.5Z"  stroke-width="3" stroke-miterlimit="10" stroke-linejoin="round"/>
</svg>
