<svg width="72" height="72" viewBox="0 0 72 72" fill="none" xmlns="http://www.w3.org/2000/svg">
<path d="M68.5 36.5C63.79 49.03 50.74 57.5 36 57.5C21.26 57.5 8.21 49.03 3.5 36.5C8.21 23.97 21.26 14.5 36 14.5C50.74 14.5 63.79 23.97 68.5 36.5Z"  stroke-width="3" stroke-miterlimit="10" stroke-linejoin="round"/>
<path d="M22.5 36C22.5 43.46 28.54 49.5 36 49.5C43.46 49.5 49.5 43.46 49.5 36C49.5 28.54 43.46 22.5 36 22.5C32 22.5 28.41 24.24 25.94 27"  stroke-width="3" stroke-miterlimit="10" stroke-linejoin="round"/>
<path d="M32 29.4399C30.65 30.2199 29.59 31.4399 29 32.8999"  stroke-width="3" stroke-miterlimit="10" stroke-linejoin="round"/>
<path d="M28.52 36C28.74 39.13 31.02 41.69 34 42.34"  stroke-width="3" stroke-miterlimit="10" stroke-linejoin="round"/>
</svg>
