<svg width="64" height="64" viewBox="0 0 64 64" fill="none" xmlns="http://www.w3.org/2000/svg">
<path d="M60.5 32.4399C56.44 43.5799 44.7 51.1099 32 51.1099C19.3 51.1099 7.56 43.5799 3.5 32.4399C7.56 21.2999 19.3 12.8799 32 12.8799C44.7 12.8799 56.44 21.3099 60.5 32.4399Z"  stroke-width="3" stroke-miterlimit="10" stroke-linejoin="round"/>
<path d="M20.5 31.5C20.5 38.13 25.87 43.5 32.5 43.5C39.13 43.5 44.5 38.13 44.5 31.5C44.5 24.87 39.13 19.5 32.5 19.5C28.71 19.5 25.33 21.26 23.13 24"  stroke-width="3" stroke-miterlimit="10" stroke-linejoin="round"/>
<path d="M25.5 31.5C25.5 34.09 26.91 36.35 29 37.56"  stroke-width="3" stroke-miterlimit="10" stroke-linejoin="round"/>
<path d="M28.17 26C27.19 26.78 26.42 27.81 25.96 29"  stroke-width="3" stroke-miterlimit="10" stroke-linejoin="round"/>
</svg>
