<svg width="40" height="40" viewBox="0 0 40 40" fill="none" xmlns="http://www.w3.org/2000/svg">
<path d="M31 36C33.76 36 36 33.76 36 31V6.25C36 5.56 35.44 5 34.75 5H20"  stroke-width="2" stroke-miterlimit="10" stroke-linejoin="round"/>
<path d="M12 31V22"  stroke-width="2" stroke-miterlimit="10" stroke-linejoin="round"/>
<path d="M30.94 36C28.18 36 25.94 33.76 25.94 31H4.94C4.94 33.76 7.18 36 9.94 36H30.94Z"  stroke-width="2" stroke-miterlimit="10" stroke-linejoin="round"/>
<path d="M12 19C15.866 19 19 15.866 19 12C19 8.13401 15.866 5 12 5C8.13401 5 5 8.13401 5 12C5 15.866 8.13401 19 12 19Z"  stroke-width="2" stroke-miterlimit="10" stroke-linejoin="round"/>
<path d="M12 8V12H15"  stroke-width="2" stroke-miterlimit="10" stroke-linejoin="round"/>
</svg>
