<svg width="32" height="32" viewBox="0 0 32 32" fill="none" xmlns="http://www.w3.org/2000/svg">
<path d="M23 28.8H25C27.21 28.8 29 27.01 29 24.8V5C29 4.45 28.55 4 28 4H16"  stroke-width="2" stroke-miterlimit="10" stroke-linejoin="round"/>
<path d="M10 25V18"  stroke-width="2" stroke-miterlimit="10" stroke-linejoin="round"/>
<path d="M24.75 29C22.54 29 20.75 27.21 20.75 25H3.95001C3.95001 27.21 5.74001 29 7.95001 29H24.75Z"  stroke-width="2" stroke-miterlimit="10" stroke-linejoin="round"/>
<path d="M9.5 15C12.5376 15 15 12.5376 15 9.5C15 6.46243 12.5376 4 9.5 4C6.46243 4 4 6.46243 4 9.5C4 12.5376 6.46243 15 9.5 15Z"  stroke-width="2" stroke-miterlimit="10" stroke-linejoin="round"/>
<path d="M10 7V10H12"  stroke-width="2" stroke-miterlimit="10" stroke-linejoin="round"/>
</svg>
