<svg width="64" height="64" viewBox="0 0 64 64" fill="none" xmlns="http://www.w3.org/2000/svg">
<path d="M49 57.5H49.5C53.92 57.5 57.5 53.92 57.5 49.5V9.5C57.5 8.4 56.6 7.5 55.5 7.5H32"  stroke-width="3" stroke-miterlimit="10" stroke-linejoin="round"/>
<path d="M18.5 50V35"  stroke-width="3" stroke-miterlimit="10" stroke-linejoin="round"/>
<path d="M49.5 57.5C45.08 57.5 41.5 53.92 41.5 49.5H7.90002C7.90002 53.92 11.48 57.5 15.9 57.5H49.5Z"  stroke-width="3" stroke-miterlimit="10" stroke-linejoin="round"/>
<path d="M50 41.5H26"  stroke-width="3" stroke-miterlimit="10" stroke-linejoin="round"/>
<path d="M50 33.5H40"  stroke-width="3" stroke-miterlimit="10" stroke-linejoin="round"/>
<path d="M18.5 29.5C24.5751 29.5 29.5 24.5751 29.5 18.5C29.5 12.4249 24.5751 7.5 18.5 7.5C12.4249 7.5 7.5 12.4249 7.5 18.5C7.5 24.5751 12.4249 29.5 18.5 29.5Z"  stroke-width="3" stroke-miterlimit="10" stroke-linejoin="round"/>
<path d="M18.5 12V18.5H24"  stroke-width="3" stroke-miterlimit="10" stroke-linejoin="round"/>
</svg>
