<svg width="24" height="24" viewBox="0 0 24 24" fill="none" xmlns="http://www.w3.org/2000/svg">
<path d="M17 22H19C20.66 22 22 20.66 22 19V3.75C22 3.34 21.66 3 21.25 3H12"  stroke-width="2" stroke-miterlimit="10" stroke-linejoin="round"/>
<path d="M8 19V14"  stroke-width="2" stroke-miterlimit="10" stroke-linejoin="round"/>
<path d="M18.56 22C16.9 22 15.56 20.66 15.56 19H2.95999C2.95999 20.66 4.29999 22 5.95999 22H18.56Z"  stroke-width="2" stroke-miterlimit="10" stroke-linejoin="round"/>
<path d="M7 11C9.20914 11 11 9.20914 11 7C11 4.79086 9.20914 3 7 3C4.79086 3 3 4.79086 3 7C3 9.20914 4.79086 11 7 11Z"  stroke-width="2" stroke-miterlimit="10" stroke-linejoin="round"/>
</svg>
