<svg width="23" height="22" viewBox="0 0 23 22" fill="none"  xmlns="http://www.w3.org/2000/svg">
<path d="M0 8.47331C0.135258 8.04941 0.355278 7.67816 0.802982 7.55441C1.15195 7.45811 1.52436 7.43696 1.88775 7.40366C3.77235 7.22996 5.65754 7.0609 7.54334 6.8965C7.69483 6.88345 7.77418 6.82495 7.8355 6.6805C8.66102 4.7374 9.49691 2.79789 10.3247 0.856132C10.4924 0.461481 10.7453 0.169429 11.1651 0.0497285C11.7801 -0.125322 12.3766 0.171229 12.6435 0.790432C13.2084 2.09859 13.7661 3.40944 14.327 4.7194C14.6088 5.37775 14.8951 6.0343 15.1696 6.6958C15.2224 6.82315 15.2896 6.88165 15.4271 6.89335C16.813 7.01335 18.199 7.1368 19.5849 7.2637C20.3445 7.33211 21.1042 7.40276 21.864 7.47566C22.3933 7.52696 22.7626 7.80641 22.9289 8.30546C23.1021 8.82521 22.9533 9.27881 22.5435 9.63881C20.9528 11.0341 19.3598 12.427 17.7643 13.8175C17.6201 13.9431 17.5646 14.0488 17.611 14.2491C18.0894 16.3051 18.5551 18.3643 19.024 20.4227C19.1462 20.9627 19.0209 21.4253 18.5669 21.7547C18.1129 22.0841 17.6331 22.0697 17.1575 21.7839C15.3414 20.6994 13.5263 19.6138 11.712 18.5272C11.5573 18.4341 11.4478 18.4318 11.2918 18.5272C9.48564 19.6126 7.67664 20.6937 5.86479 21.7704C5.25072 22.1363 4.59021 22.0404 4.19255 21.5324C3.94052 21.2111 3.87695 20.8466 3.96712 20.4524C4.43601 18.394 4.9022 16.3353 5.38011 14.2788C5.42926 14.0691 5.39003 13.9485 5.22637 13.8067C3.63619 12.4279 2.05908 11.0406 0.474305 9.66086C0.240308 9.45791 0.103698 9.20276 0 8.92151V8.47331Z" />
</svg>
