<svg width="24" height="24" viewBox="0 0 24 24" fill="none" xmlns="http://www.w3.org/2000/svg">
<path d="M11 4H17.2C17.63 4 18 4.27 18.14 4.67L20 10"  stroke-width="2" stroke-miterlimit="10" stroke-linejoin="round"/>
<path d="M8 10H20.62L22 12.61L22.02 17H2L2.02 12.61"  stroke-width="2" stroke-miterlimit="10" stroke-linejoin="round"/>
<path d="M3 17.25V18.75C3 19.58 3.67 20.25 4.5 20.25C5.33 20.25 6 19.58 6 18.75V17.25"  stroke-width="2" stroke-miterlimit="10" stroke-linejoin="round"/>
<path d="M18 17.25V18.75C18 19.58 18.67 20.25 19.5 20.25C20.33 20.25 21 19.58 21 18.75V17.25"  stroke-width="2" stroke-miterlimit="10" stroke-linejoin="round"/>
<path d="M19 14H16"  stroke-width="2" stroke-miterlimit="10" stroke-linejoin="round"/>
<path d="M8 14H5"  stroke-width="2" stroke-miterlimit="10" stroke-linejoin="round"/>
<path d="M2 5.99977L4.01 8.00977L8.01 4.00977"  stroke-width="2" stroke-miterlimit="10" stroke-linejoin="round"/>
</svg>
