<svg width="32" height="32" viewBox="0 0 32 32" fill="none" xmlns="http://www.w3.org/2000/svg">
<path d="M16 6H22.55C23.29 6 23.93 6.5 24.1 7.21L26.51 13.64"  stroke-width="2" stroke-miterlimit="10" stroke-linejoin="round"/>
<path d="M11 14H27.47L28.86 15.85C28.95 16.24 28.99 16.65 28.99 17.05V22.17C28.99 22.63 28.65 23 28.23 23H3.76C3.34 23 3 22.63 3 22.17V17"  stroke-width="2" stroke-miterlimit="10" stroke-linejoin="round"/>
<path d="M27 13H30"  stroke-width="2" stroke-miterlimit="10" stroke-linejoin="round"/>
<path d="M4 23V25C4 26.1 4.9 27 6 27C7.1 27 8 26.1 8 25V23"  stroke-width="2" stroke-miterlimit="10" stroke-linejoin="round"/>
<path d="M24 23V25C24 26.1 24.9 27 26 27C27.1 27 28 26.1 28 25V23"  stroke-width="2" stroke-miterlimit="10" stroke-linejoin="round"/>
<path d="M25 19H21"  stroke-width="2" stroke-miterlimit="10" stroke-linejoin="round"/>
<path d="M11 19H7"  stroke-width="2" stroke-miterlimit="10" stroke-linejoin="round"/>
<path d="M2.97998 9.01998L5.94998 12L11.98 5.97998"  stroke-width="2" stroke-miterlimit="10" stroke-linejoin="round"/>
</svg>
