<svg width="24" height="24" viewBox="0 0 24 24" fill="none" xmlns="http://www.w3.org/2000/svg">
<path d="M5 8V22H19V8.23L15 4H8.78L5 8Z"  stroke-width="2" stroke-miterlimit="10" stroke-linejoin="round"/>
<path d="M12 11C13.1046 11 14 10.1046 14 9C14 7.89543 13.1046 7 12 7C10.8954 7 10 7.89543 10 9C10 10.1046 10.8954 11 12 11Z"  stroke-width="2" stroke-miterlimit="10" stroke-linejoin="round"/>
<path d="M11.8301 3.59996L11.3101 2.76996C10.4301 1.36996 8.58012 0.939959 7.18012 1.81996C5.78012 2.69996 5.35012 4.54996 6.23012 5.94996L7.23012 7.53996C8.11012 8.93996 9.96012 9.36996 11.3601 8.48996C12.0701 8.04996 12.5301 7.34996 12.7001 6.58996"  stroke-width="2" stroke-miterlimit="10" stroke-linejoin="round"/>
<path d="M8 15V19"  stroke-width="2" stroke-miterlimit="10" stroke-linejoin="round"/>
<path d="M10 15V19"  stroke-width="2" stroke-miterlimit="10" stroke-linejoin="round"/>
<path d="M13 15V19"  stroke-width="2" stroke-miterlimit="10" stroke-linejoin="round"/>
<path d="M16 15V19"  stroke-width="2" stroke-miterlimit="10" stroke-linejoin="round"/>
</svg>
