<svg width="40" height="40" viewBox="0 0 40 40" fill="none" xmlns="http://www.w3.org/2000/svg">
<path d="M9 16V36C9 36.5523 9.44772 37 10 37H29C29.5523 37 30 36.5523 30 36V13L24.2993 6.34921C24.1093 6.12756 23.832 6 23.5401 6H15.4739C15.1739 6 14.8899 6.13463 14.6999 6.36676L10.5 11.5"  stroke-width="2" stroke-miterlimit="10" stroke-linejoin="round"/>
<path d="M19.5 17C21.433 17 23 15.433 23 13.5C23 11.567 21.433 10 19.5 10C17.567 10 16 11.567 16 13.5C16 15.433 17.567 17 19.5 17Z"  stroke-width="2" stroke-miterlimit="10" stroke-linejoin="round"/>
<path d="M19.71 5.99994L18.85 4.61994C17.39 2.27994 14.3 1.56994 11.96 3.02994C9.62002 4.48994 8.91003 7.57994 10.37 9.91994L12.03 12.5799C13.49 14.9199 16.58 15.6299 18.92 14.1699C20.11 13.4299 20.87 12.2699 21.15 11.0099"  stroke-width="2" stroke-miterlimit="10" stroke-linejoin="round"/>
<path d="M13 26V32"  stroke-width="2" stroke-miterlimit="10" stroke-linejoin="round"/>
<path d="M16 26V32"  stroke-width="2" stroke-miterlimit="10" stroke-linejoin="round"/>
<path d="M21 26V32"  stroke-width="2" stroke-miterlimit="10" stroke-linejoin="round"/>
<path d="M26 26V32"  stroke-width="2" stroke-miterlimit="10" stroke-linejoin="round"/>
</svg>
