<svg width="72" height="72" viewBox="0 0 72 72" fill="none" xmlns="http://www.w3.org/2000/svg">
<path d="M14.5 29V64.5C14.5 65.6046 15.3954 66.5 16.5 66.5H50.5C51.6046 66.5 52.5 65.6046 52.5 64.5V23.17L42.2387 11.1984C41.8587 10.7551 41.304 10.5 40.7201 10.5H26.3105C25.7091 10.5 25.1396 10.7707 24.7598 11.237L17.46 20.2"  stroke-width="3" stroke-miterlimit="10" stroke-linejoin="round"/>
<path d="M51.9999 62.71L61.5565 60.8735C62.6331 60.6666 63.3425 59.6315 63.147 58.5528L56.4999 21.88L41.2 10.8"  stroke-width="3" stroke-miterlimit="10" stroke-linejoin="round"/>
<path d="M32.5 30.5C35.8137 30.5 38.5 27.8137 38.5 24.5C38.5 21.1863 35.8137 18.5 32.5 18.5C29.1863 18.5 26.5 21.1863 26.5 24.5C26.5 27.8137 29.1863 30.5 32.5 30.5Z"  stroke-width="3" stroke-miterlimit="10" stroke-linejoin="round"/>
<path d="M33.48 10.8L30.8 7.19005C28.16 2.98005 22.61 1.69005 18.4 4.33005C14.19 6.97005 12.9 12.52 15.54 16.73L19.65 22.64C22.29 26.85 27.84 28.14 32.05 25.5C34.18 24.17 35.57 22.08 36.07 19.81"  stroke-width="3" stroke-miterlimit="10" stroke-linejoin="round"/>
<path d="M22.5 47V57"  stroke-width="3" stroke-miterlimit="10" stroke-linejoin="round"/>
<path d="M27.5 47V57"  stroke-width="3" stroke-miterlimit="10" stroke-linejoin="round"/>
<path d="M35.5 47V57"  stroke-width="3" stroke-miterlimit="10" stroke-linejoin="round"/>
<path d="M44.5 47V57"  stroke-width="3" stroke-miterlimit="10" stroke-linejoin="round"/>
</svg>
