<svg width="32" height="32" viewBox="0 0 32 32" fill="none" xmlns="http://www.w3.org/2000/svg">
<path d="M7 13V28C7 28.5523 7.44772 29 8 29H24C24.5523 29 25 28.5523 25 28V10.65L21.2989 5.42218C21.1114 5.15739 20.8072 5 20.4827 5H12.3325C12.0334 5 11.7499 5.13394 11.56 5.36507L9 8.48"  stroke-width="2" stroke-miterlimit="10" stroke-linejoin="round"/>
<path d="M16 14C17.6569 14 19 12.6569 19 11C19 9.34315 17.6569 8 16 8C14.3431 8 13 9.34315 13 11C13 12.6569 14.3431 14 16 14Z"  stroke-width="2" stroke-miterlimit="10" stroke-linejoin="round"/>
<path d="M15.7701 4.79994L15.0801 3.68994C13.9101 1.81994 11.4401 1.24994 9.57007 2.41994C7.70007 3.58994 7.13007 6.05994 8.30007 7.92994L9.63007 10.0499C10.8001 11.9199 13.2701 12.4899 15.1401 11.3199C16.0901 10.7299 16.7001 9.79995 16.9301 8.78995"  stroke-width="2" stroke-miterlimit="10" stroke-linejoin="round"/>
<path d="M11 21V26"  stroke-width="2" stroke-miterlimit="10" stroke-linejoin="round"/>
<path d="M14 21V26"  stroke-width="2" stroke-miterlimit="10" stroke-linejoin="round"/>
<path d="M17 21V26"  stroke-width="2" stroke-miterlimit="10" stroke-linejoin="round"/>
<path d="M21 21V26"  stroke-width="2" stroke-miterlimit="10" stroke-linejoin="round"/>
</svg>
