<svg width="72" height="72" viewBox="0 0 72 72" fill="none" xmlns="http://www.w3.org/2000/svg">
<path d="M10.5 39V59.5C10.5 60.6 11.4 61.5 12.5 61.5H59.5C60.6 61.5 61.5 60.6 61.5 59.5V12.5C61.5 11.4 60.6 10.5 59.5 10.5H12.5C11.4 10.5 10.5 11.4 10.5 12.5V24.32V24.5H62"  stroke-width="3" stroke-miterlimit="10" stroke-linejoin="round"/>
<path d="M33.5 24V61"  stroke-width="3" stroke-miterlimit="10" stroke-linejoin="round"/>
<path d="M33.5 37H61.5"  stroke-width="3" stroke-miterlimit="10" stroke-linejoin="round"/>
<path d="M34 49.5H62"  stroke-width="3" stroke-miterlimit="10" stroke-linejoin="round"/>
<path d="M21.5 31V35"  stroke-width="3" stroke-miterlimit="10" stroke-linejoin="round"/>
<path d="M21.5 51V56"  stroke-width="3" stroke-miterlimit="10" stroke-linejoin="round"/>
<path d="M25.5 39.5C25.5 37.29 23.71 35.5 21.5 35.5C19.29 35.5 17.5 37.29 17.5 39.5C17.5 41.71 19.29 43.5 21.5 43.5"  stroke-width="3" stroke-miterlimit="10" stroke-linejoin="round"/>
<path d="M17.5 47.5C17.5 49.71 19.29 51.5 21.5 51.5C23.71 51.5 25.5 49.71 25.5 47.5C25.5 45.29 23.71 43.5 21.5 43.5"  stroke-width="3" stroke-miterlimit="10" stroke-linejoin="round"/>
</svg>
