<svg width="24" height="24" viewBox="0 0 24 24" fill="none" xmlns="http://www.w3.org/2000/svg">
<path d="M21 3H3V21H21V3Z"  stroke-width="2" stroke-miterlimit="10" stroke-linejoin="round"/>
<path d="M3.41016 7H21.0002"  stroke-width="2" stroke-miterlimit="10" stroke-linejoin="round"/>
<path d="M12 7V21"  stroke-width="2" stroke-miterlimit="10" stroke-linejoin="round"/>
<path d="M12 11H22"  stroke-width="2" stroke-miterlimit="10" stroke-linejoin="round"/>
<path d="M12 16H22"  stroke-width="2" stroke-miterlimit="10" stroke-linejoin="round"/>
<path d="M9 12C9 11.17 8.33 10.5 7.5 10.5C6.67 10.5 6 11.17 6 12C6 12.83 6.67 13.5 7.5 13.5"  stroke-width="2" stroke-miterlimit="10" stroke-linejoin="round"/>
<path d="M6 15C6 15.83 6.67 16.5 7.5 16.5C8.33 16.5 9 15.83 9 15C9 14.17 8.33 13.5 7.5 13.5"  stroke-width="2" stroke-miterlimit="10" stroke-linejoin="round"/>
<path d="M7.5 9V10.5"  stroke-width="2" stroke-miterlimit="10" stroke-linejoin="round"/>
<path d="M7.5 16.5V18"  stroke-width="2" stroke-miterlimit="10" stroke-linejoin="round"/>
</svg>
