<svg width="40" height="40" viewBox="0 0 40 40" fill="none" xmlns="http://www.w3.org/2000/svg">
<path d="M5 17V34C5 34.55 5.45 35 6 35H34C34.55 35 35 34.55 35 34V6C35 5.45 34.55 5 34 5H6C5.45 5 5 5.45 5 6V12H35"  stroke-width="2" stroke-miterlimit="10" stroke-linejoin="round"/>
<path d="M14 22C14 20.9 13.1 20 12 20C10.9 20 10 20.9 10 22C10 23.1 10.9 24 12 24"  stroke-width="2" stroke-miterlimit="10" stroke-linejoin="round"/>
<path d="M10 26C10 27.1 10.9 28 12 28C13.1 28 14 27.1 14 26C14 24.9 13.1 24 12 24"  stroke-width="2" stroke-miterlimit="10" stroke-linejoin="round"/>
<path d="M19 13V35"  stroke-width="2" stroke-miterlimit="10" stroke-linejoin="round"/>
<path d="M12 17V20"  stroke-width="2" stroke-miterlimit="10" stroke-linejoin="round"/>
<path d="M12 28V31"  stroke-width="2" stroke-miterlimit="10" stroke-linejoin="round"/>
<path d="M18.5898 20H33.9998"  stroke-width="2" stroke-miterlimit="10" stroke-linejoin="round"/>
<path d="M18.5898 28H33.9998"  stroke-width="2" stroke-miterlimit="10" stroke-linejoin="round"/>
</svg>
