<svg xmlns="http://www.w3.org/2000/svg" width="132" height="63" viewBox="0 0 132 63" fill="none">
<g clip-path="url(#clip0_317_974)">
<path fill-rule="evenodd" clip-rule="evenodd" d="M64.1566 37.0264L66.8622 62.2632L130.152 60.4452L129.197 39.3736L64.1566 37.0264Z" fill="white"/>
<path fill-rule="evenodd" clip-rule="evenodd" d="M123.334 5.81672C123.564 5.8129 123.766 5.96888 123.82 6.19213L131.395 37.5475C131.429 37.6875 131.4 37.8353 131.315 37.9517C131.23 38.0682 131.098 38.1414 130.955 38.1521L11.6147 47.0515C11.3735 47.0695 11.1552 46.9091 11.1003 46.6735L2.18688 8.42481C2.15322 8.28038 2.18669 8.12848 2.27792 8.01156C2.36915 7.89464 2.50837 7.82525 2.65665 7.82278L123.334 5.81672ZM3.28067 8.794L11.9608 46.0415L130.305 37.2164L122.958 6.80457L3.28067 8.794Z" fill="#FFD738"/>
<path fill-rule="evenodd" clip-rule="evenodd" d="M6.06318 2.15063L4.74377 41.6489L129.406 41.0816L129.217 10.4641L6.06318 2.15063Z" fill="#032EB9"/>
<g filter="url(#filter0_d_317_974)">
<path fill-rule="evenodd" clip-rule="evenodd" d="M114.071 43.5957H125.5C126.483 43.5957 127.279 44.3929 127.279 45.3756V56.6258C127.279 57.6085 126.483 58.4057 125.5 58.4057H114.071C113.088 58.4057 112.292 57.6085 112.292 56.6258V45.3756C112.292 44.3929 113.088 43.5957 114.071 43.5957Z" fill="#EC7F14"/>
<path d="M117.044 46.8699H122.603C123.37 46.8699 123.993 47.4928 123.993 48.2604V53.8225C123.993 54.5901 123.37 55.213 122.603 55.213H117.044C116.276 55.213 115.654 54.5901 115.654 53.8225V48.2604C115.654 47.4928 116.276 46.8699 117.044 46.8699Z" fill="#003398"/>
<path d="M116.999 51.0416H116.351V53.8227H116.999V51.0416Z" fill="#FFFF00"/>
<path d="M119.902 51.6757C119.505 51.6757 119.209 51.7795 119.046 51.8722L119.168 52.2838C119.312 52.1948 119.565 52.1169 119.794 52.1169C120.172 52.1169 120.254 52.3097 120.254 52.4062V52.4284C119.413 52.4247 118.894 52.6991 118.894 53.2368C118.894 53.5556 119.146 53.8745 119.609 53.8745C119.887 53.8745 120.117 53.7744 120.261 53.6076H120.269L120.339 53.8226H120.865V52.5878C120.865 52.0873 120.621 51.6757 119.902 51.6757ZM120.272 53.0514C120.272 53.0847 120.269 53.1218 120.261 53.1552C120.261 53.1589 120.258 53.1737 120.254 53.1774C120.254 53.1811 120.25 53.1848 120.25 53.1886C120.191 53.3257 120.039 53.4518 119.835 53.4518C119.657 53.4518 119.535 53.3591 119.535 53.1848C119.535 52.9883 119.702 52.8882 119.954 52.8474C120.013 52.84 120.076 52.8326 120.146 52.8289C120.187 52.8289 120.232 52.8252 120.276 52.8289V53.0514H120.272Z" fill="#FFFF00"/>
<path d="M122.655 51.7386V52.9623C122.655 53.0105 122.647 53.055 122.633 53.0958C122.581 53.2219 122.451 53.3628 122.243 53.3628C121.98 53.3628 121.862 53.17 121.862 52.8436V51.7424H121.228V52.9623C121.228 53.1255 121.246 53.2627 121.287 53.3776C121.328 53.4926 121.38 53.5853 121.447 53.6594C121.513 53.7336 121.595 53.7892 121.691 53.8226C121.787 53.8559 121.891 53.8745 122.006 53.8745C122.106 53.8745 122.195 53.8634 122.273 53.8374C122.351 53.8115 122.418 53.7855 122.473 53.7484C122.529 53.715 122.577 53.678 122.614 53.6372C122.651 53.5964 122.681 53.563 122.703 53.5296L122.784 53.8263H123.3V51.7424H122.655V51.7386Z" fill="#FFFF00"/>
<path d="M117.607 51.0416V51.7387H117.311V52.2134H117.607V53.0625C117.607 53.3443 117.663 53.552 117.785 53.6818C117.889 53.793 118.074 53.8783 118.293 53.8783C118.482 53.8783 118.56 53.8486 118.645 53.8153V53.3295C118.627 53.3369 118.578 53.348 118.512 53.348C118.286 53.348 118.234 53.2071 118.234 52.9513V52.2134H118.634V51.7387H118.234V51.0416H117.607Z" fill="#FFFF00"/>
<path fill-rule="evenodd" clip-rule="evenodd" d="M122.417 51.0416L122.024 51.6015H122.476L123.029 51.0416H122.417Z" fill="#FFFF00"/>
</g>
<g opacity="0.2">
<path opacity="0.2" d="M123.991 22.1001C123.795 21.0766 123.424 20.1163 122.961 19.1855C122.905 19.0743 122.853 18.963 122.801 18.8518C123.038 18.8741 123.161 19.0595 123.29 19.2152C124.043 20.1274 124.606 21.1508 125.036 22.2521C125.436 23.2681 125.674 24.3212 125.8 25.4077C125.896 26.2309 125.97 27.0503 125.937 27.8772C125.851 30.0057 125.485 32.0711 124.454 33.9696C124.043 34.7297 123.557 35.438 122.979 36.0906C121.775 37.444 120.303 38.371 118.591 38.9235C117.59 39.2462 116.564 39.4538 115.507 39.4575C115.248 39.4575 115 39.5428 114.737 39.5317C113.013 39.4501 111.323 39.2091 109.748 38.46C108.966 38.0892 108.243 37.6257 107.572 37.0695C106.883 36.4948 106.298 35.8384 105.797 35.1005C105.723 34.9893 105.634 34.8818 105.634 34.7334C105.805 34.8743 105.975 35.019 106.146 35.1599C107.665 36.4021 109.411 37.1214 111.349 37.3921C113.08 37.6331 114.8 37.5849 116.49 37.1214C119.844 36.2055 122.13 34.0808 123.424 30.8771C124.228 28.8821 124.447 26.7945 124.339 24.6623C124.299 23.7984 124.213 22.9418 123.991 22.1001Z" fill="#160200"/>
<path opacity="0.2" d="M67.2609 36.9731C67.4092 36.9657 67.5574 36.9546 67.7019 36.9546C69.1696 36.9546 70.6373 36.9546 72.1049 36.9546C72.3792 36.9546 72.3866 36.9508 72.3866 36.7024C72.3866 33.8398 72.3866 30.9772 72.3829 28.1145C72.3829 28.0886 72.3755 28.0663 72.3681 28.0404C72.3755 27.1541 72.3755 26.2642 72.3866 25.378C72.3977 24.5474 72.4718 23.7279 72.7498 22.9381C73.2687 21.4623 74.1989 20.3943 75.7592 19.9976C76.6561 19.7677 77.5679 19.7973 78.4685 20.0198C78.5871 20.0495 78.7057 20.0755 78.8243 20.1051C78.8354 20.1088 78.8465 20.1014 78.865 20.0977C78.9169 19.9679 78.891 19.8307 78.891 19.6972C78.8947 18.4884 78.891 17.2796 78.8947 16.0707C78.8947 15.9373 78.9058 15.8001 78.9095 15.6666C79.295 15.648 79.673 15.6999 80.0436 15.7963C80.3957 15.889 80.4476 15.9595 80.4476 16.3081C80.4513 18.0731 80.4513 19.8418 80.4476 21.6069C80.4476 22.0296 80.3661 22.0852 79.9584 21.9888C79.0059 21.7626 78.0497 21.7367 77.1083 22.0296C76.3411 22.2669 75.6888 22.6859 75.1662 23.32C74.3805 24.2804 74.0766 25.3965 73.9988 26.6054C73.8542 28.8636 73.9617 31.1218 73.9358 33.38C73.9173 35.0115 73.9321 36.6394 73.9321 38.2709C73.9321 38.3822 73.9395 38.4934 73.9247 38.6046C73.9024 38.8197 73.8135 38.905 73.5948 38.931C73.5096 38.9421 73.4206 38.9384 73.3354 38.9384C71.5082 38.9384 69.6811 38.9384 67.8539 38.9384C67.7909 38.9384 67.7316 38.9421 67.6686 38.9384C67.3684 38.9198 67.2683 38.8308 67.2646 38.5305C67.2572 38.0114 67.2609 37.4922 67.2609 36.9731Z" fill="#160200"/>
<path opacity="0.2" d="M13.9911 36.9732C14.3988 36.9658 14.8028 36.9546 15.2105 36.9546C16.4409 36.9509 17.6751 36.9546 18.9056 36.9546C19.2058 36.9546 19.2132 36.9509 19.2132 36.6506C19.2132 33.2985 19.2132 29.9464 19.2132 26.5943C19.2132 26.535 19.1984 26.4719 19.1872 26.4126C19.2317 26.294 19.2132 26.1679 19.2132 26.0492C19.2132 25.6376 19.2206 25.6821 19.569 25.6821C20.3658 25.6821 21.1663 25.6858 21.9632 25.6821C22.5154 25.6784 23.0676 25.671 23.6199 25.6636C23.668 25.671 23.7162 25.6821 23.7644 25.6821C25.4618 25.6821 27.1593 25.6821 28.8567 25.6821C28.8938 25.6821 28.9309 25.6784 28.9679 25.6821C29.1125 25.6932 29.1643 25.6191 29.1606 25.4819C29.1495 25.226 29.1458 24.9665 29.1421 24.7069C29.1495 24.0283 29.1532 23.3498 29.1606 22.6712C29.1643 22.4116 29.1718 22.152 29.1792 21.8962C29.5498 21.8962 29.9204 21.8925 30.291 21.8999C30.6357 21.9073 30.7321 22 30.7321 22.3449C30.7358 23.9727 30.7358 25.6043 30.7321 27.2321C30.7321 27.5769 30.632 27.6734 30.291 27.6771C29.6017 27.6845 28.9086 27.6808 28.2193 27.6808C25.9733 27.6808 23.7273 27.6808 21.4814 27.6808C21.3813 27.6808 21.2849 27.6771 21.1849 27.6808C20.8736 27.6919 20.8217 27.7438 20.8068 28.0479C20.8031 28.1591 20.8068 28.2704 20.8068 28.3816C20.8068 31.6632 20.8068 34.9486 20.8068 38.2302C20.8068 38.9088 20.7698 38.9459 20.099 38.9459C18.2977 38.9459 16.4965 38.9459 14.6953 38.9459C14.5952 38.9459 14.4989 38.9496 14.3988 38.9422C14.0986 38.9236 14.0022 38.8346 13.9948 38.5343C13.9874 38.0114 13.9911 37.4923 13.9911 36.9732Z" fill="#160200"/>
<path opacity="0.2" d="M56.8163 36.9732C57.2462 36.9658 57.6798 36.9584 58.1097 36.9547C59.3068 36.951 60.5039 36.9547 61.701 36.951C61.9827 36.951 61.9901 36.9435 61.9901 36.6654C61.9901 33.432 61.9901 30.1986 61.9901 26.9651C61.9901 26.9281 61.979 26.891 61.9753 26.8539C61.979 26.7056 61.9901 26.561 61.9901 26.4126C61.9901 23.1384 61.9901 19.8642 61.9901 16.59C61.9901 16.4305 62.0012 16.2711 62.005 16.1116C62.3756 16.1116 62.7462 16.1079 63.1168 16.1154C63.4578 16.1228 63.543 16.2155 63.5579 16.564C63.5616 16.6493 63.5579 16.7383 63.5579 16.8236C63.5579 23.9616 63.5579 31.0959 63.5579 38.234C63.5579 38.9237 63.543 38.9385 62.8537 38.9385C61.0747 38.9385 59.2994 38.9385 57.5204 38.9385C57.4204 38.9385 57.324 38.9422 57.2239 38.9348C56.9237 38.9162 56.8237 38.8272 56.82 38.5269C56.8126 38.0115 56.8163 37.4923 56.8163 36.9732Z" fill="#160200"/>
<path opacity="0.2" d="M52.5841 25.6711C52.6656 23.5686 52.4581 21.5107 51.702 19.5268C51.5278 19.067 51.2684 18.648 51.0868 18.1882C51.1906 18.1956 51.2721 18.2439 51.3425 18.3217C52.4396 19.5343 53.1734 20.9433 53.6181 22.5081C53.8553 23.3536 53.9776 24.2175 54.0851 25.0852C54.1704 25.7898 54.1333 26.4906 54.1444 27.1914C54.1555 27.8811 54.1518 28.5745 54.1444 29.2642C54.1407 29.6573 54.0555 29.7351 53.6589 29.7426C53.5588 29.7463 53.4625 29.7426 53.3624 29.7426C49.167 29.7426 44.9678 29.7426 40.7724 29.7426C40.6723 29.7426 40.576 29.7426 40.4759 29.7426C40.0905 29.7537 40.0015 29.8723 40.1016 30.258C40.1757 30.5435 40.3128 30.8105 40.3536 31.1071C40.0905 30.9773 39.9126 30.7512 39.7236 30.5435C39.0676 29.8241 38.6821 28.9639 38.4449 28.0294C38.3856 27.7958 38.4116 27.7699 38.6413 27.7625C38.7414 27.7587 38.8378 27.7625 38.9378 27.7625C43.3445 27.7625 47.7475 27.7625 52.1542 27.7625C52.6545 27.7625 52.5915 27.8107 52.5915 27.3323C52.5989 26.7835 52.5878 26.2273 52.5841 25.6711Z" fill="#160200"/>
<path opacity="0.2" d="M20.8068 19.9977C20.3398 20.0459 19.8728 20.0051 19.4021 20.0199C19.2539 20.0236 19.2094 19.9458 19.2131 19.816C19.2168 19.7418 19.2131 19.6677 19.2131 19.5935C19.2131 17.606 19.2131 15.6222 19.2131 13.6346C19.2131 13.1489 19.2057 13.2268 19.6393 13.2268C23.3863 13.2268 27.137 13.2268 30.8839 13.223C31.3991 13.223 31.325 13.2824 31.3287 12.767C31.3361 11.6582 31.3398 10.5495 31.3472 9.43711C31.7178 9.43711 32.0885 9.4297 32.4591 9.44082C32.7852 9.44824 32.8779 9.54094 32.8816 9.86725C32.8853 11.5099 32.8853 13.1526 32.8816 14.7953C32.8816 15.1142 32.7815 15.1994 32.4517 15.2143C32.3405 15.218 32.2293 15.2143 32.1181 15.2143C28.549 15.2143 24.98 15.2143 21.4109 15.2143C20.8068 15.2143 20.8068 15.2143 20.8068 15.8039C20.8068 17.2055 20.8068 18.6034 20.8068 19.9977Z" fill="#160200"/>
<path opacity="0.2" d="M84.1461 11.4282C84.8243 11.3688 85.5025 11.4133 86.1808 11.4022C86.7219 11.3948 86.6329 11.417 86.644 10.9461C86.6515 10.6235 86.6737 10.3046 86.77 9.99313C86.9813 9.32197 87.4779 9.02533 88.171 9.16623C88.4638 9.22556 88.7381 9.34051 88.9901 9.49996C89.4385 9.78548 89.8833 10.0747 90.328 10.3602C91.047 10.8237 91.792 11.2316 92.6444 11.3911C93.5598 11.5616 94.4641 11.5097 95.3462 11.2057C96.232 10.8979 96.9065 10.3194 97.3957 9.52592C97.8516 8.79172 98.0888 7.97595 98.2259 7.13051C98.2445 7.00814 98.2482 6.88577 98.3001 6.77082C98.6966 6.77082 99.0895 6.76712 99.4861 6.77453C99.8307 6.78195 99.9271 6.87465 99.9308 7.2195C99.9345 8.51361 99.7826 9.78919 99.2266 10.9684C98.6003 12.2995 97.5774 13.1524 96.08 13.3786C94.7977 13.5751 93.608 13.3675 92.4813 12.726C91.8253 12.3515 91.2101 11.9213 90.5726 11.5246C90.2131 11.3021 89.8425 11.1278 89.3978 11.1426C88.8604 11.1612 88.4341 11.4838 88.3118 12.0103C88.2488 12.2884 88.2229 12.5665 88.2229 12.8558C88.2229 13.2822 88.1191 13.3712 87.6929 13.3712C86.644 13.3749 85.5952 13.3749 84.5463 13.3712C84.1201 13.3712 84.0831 13.3304 84.0793 12.904C84.0793 12.4108 84.0571 11.9176 84.1461 11.4282Z" fill="#160200"/>
<path opacity="0.2" d="M95.3431 36.9731C95.7137 36.9657 96.0806 36.9583 96.4512 36.9546C97.3889 36.9509 98.3266 36.9546 99.2642 36.9509C99.5459 36.9509 99.5496 36.9434 99.5533 36.6653C99.557 36.3427 99.5533 36.0238 99.5533 35.7012C99.5533 33.2576 99.5533 30.814 99.5533 28.3704C99.5533 28.2369 99.5422 28.0997 99.5385 27.9662C99.5422 27.7067 99.5533 27.4508 99.5533 27.1912C99.5533 25.9119 99.5644 24.629 99.5496 23.3497C99.5348 21.9888 99.3606 20.6502 98.8936 19.3635C98.738 18.9371 98.5415 18.5292 98.3636 18.1139C98.6342 18.1621 98.7713 18.3846 98.927 18.5663C99.9165 19.7417 100.55 21.0878 100.851 22.5932C101.002 23.3645 101.125 24.1432 101.125 24.9367C101.125 29.3901 101.125 33.8435 101.125 38.2969C101.125 38.8939 101.084 38.9347 100.502 38.9347C99.0604 38.9347 97.615 38.9347 96.1733 38.9347C95.6581 38.9347 95.5654 38.8679 95.5098 38.3599C95.458 37.9001 95.3357 37.444 95.3431 36.9731Z" fill="#160200"/>
<path opacity="0.2" d="M35.3241 34.5813C36.7584 35.8902 38.4262 36.7394 40.3164 37.1584C41.9434 37.5218 43.589 37.5922 45.2494 37.4736C47.1136 37.3401 48.9 36.9285 50.6271 36.2128C51.0422 36.0423 51.2126 35.8458 51.1793 35.3822C51.1348 34.6925 51.1793 33.9991 51.183 33.3094C51.5277 33.2575 51.8279 33.0721 52.154 32.9646C52.2356 32.9386 52.3134 32.8941 52.3986 32.8793C52.6025 32.8422 52.7025 32.9164 52.7285 33.1203C52.7396 33.2056 52.7359 33.2946 52.7359 33.3799C52.7359 34.7111 52.7211 36.046 52.7433 37.3772C52.7507 37.7962 52.5765 38.0113 52.217 38.1596C50.8902 38.7121 49.5226 39.1051 48.0994 39.3091C47.4657 39.3981 46.8319 39.4797 46.187 39.4648C45.8794 39.4574 45.5792 39.5538 45.2679 39.5353C43.6816 39.4463 42.0991 39.3239 40.5832 38.7862C39.3528 38.3487 38.2261 37.7443 37.2217 36.8951C36.5435 36.3241 35.9875 35.6603 35.465 34.9595C35.3834 34.8446 35.3352 34.7185 35.3241 34.5813Z" fill="#160200"/>
<path opacity="0.2" d="M82.0078 35.8458C82.8046 36.465 83.6755 36.9508 84.6577 37.1955C86.8036 37.7295 88.9124 37.6627 90.9657 36.7839C92.0627 36.313 92.993 35.6196 93.749 34.6295C93.8268 34.7741 93.838 34.9002 93.8565 35.0263C93.9343 35.5899 94.0233 36.1498 94.0937 36.7134C94.1159 36.8988 94.1938 36.9656 94.3828 36.9582C94.5792 36.9471 94.7756 36.9656 94.9721 36.973C94.8572 37.2289 94.6348 37.3994 94.4347 37.5737C93.282 38.5638 91.9441 39.1422 90.4505 39.3832C89.7797 39.4908 89.1088 39.5649 88.4306 39.5279C87.0667 39.4574 85.7399 39.2164 84.5317 38.5304C83.5162 37.9556 82.6934 37.177 82.1078 36.1609C82.0522 36.0608 82.0115 35.9607 82.0078 35.8458Z" fill="#160200"/>
<path opacity="0.2" d="M56.5977 11.05C57.2944 11.4208 58.0357 11.6025 58.8288 11.5803C60.5633 11.5284 62.0013 10.3937 62.4016 8.74731C62.5498 8.13919 62.5424 7.52736 62.4053 6.91923C62.3831 6.82282 62.3645 6.72641 62.346 6.63C62.6759 6.73754 62.9131 6.97115 63.128 7.21959C63.81 8.0094 64.1287 8.93642 64.0694 9.98209C64.0027 11.1464 63.4875 12.0809 62.5684 12.7891C61.879 13.3193 61.0896 13.527 60.2186 13.5307C59.3217 13.5344 58.5138 13.3342 57.7948 12.7891C57.3241 12.4331 56.9572 11.9956 56.6792 11.4764C56.6125 11.343 56.5866 11.1983 56.5977 11.05Z" fill="#160200"/>
<path opacity="0.2" d="M83.2491 20.0273C83.9941 19.6565 84.7872 19.434 85.5915 19.2523C86.8738 18.9631 88.171 18.8407 89.483 19.0039C90.05 19.0743 90.5986 19.2004 91.1174 19.4377C92.0403 19.8642 92.6703 20.5464 92.9668 21.5291C92.8964 21.5142 92.8149 21.5142 92.7519 21.4809C91.5362 20.8653 90.2242 20.8579 88.9233 20.9506C87.2667 21.0656 85.6841 21.5254 84.1831 22.2484C84.0719 22.3003 83.957 22.3411 83.8421 22.3893C83.4345 22.5525 83.3455 22.4932 83.3455 22.0371C83.3418 21.5068 83.3455 20.9766 83.3455 20.4463C83.3418 20.3017 83.364 20.1497 83.2491 20.0273Z" fill="#160200"/>
<path opacity="0.2" d="M72.805 16.1116C72.5492 16.5158 72.275 16.9088 72.0452 17.3834C71.9451 17.2277 71.9451 17.0905 71.9303 16.9533C71.9155 16.8198 71.8858 16.6863 71.8747 16.5528C71.8599 16.4045 71.8562 16.2599 71.8451 16.1116C72.1638 16.1116 72.4862 16.1116 72.805 16.1116Z" fill="#160200"/>
<path opacity="0.2" d="M122.758 18.7532C122.705 18.7306 122.683 18.6856 122.679 18.6331C122.705 18.6706 122.732 18.7119 122.758 18.7532Z" fill="#160200"/>
<path opacity="0.2" d="M87.6408 32.6422C86.6439 32.2046 86.1806 31.4074 86.0842 30.358C86.0138 29.5719 86.2362 28.8748 86.7402 28.2667C87.5852 27.4546 88.6415 27.1135 89.7645 26.9466C90.8393 26.7871 91.9215 26.7834 93.0037 26.8428C93.2965 26.8576 93.2928 26.865 93.3039 27.1654C93.315 27.5844 93.2743 27.9997 93.3262 28.4187C93.3076 28.5448 93.2928 28.6671 93.2743 28.7932C92.7813 28.7821 92.2921 28.8117 91.8029 28.8525C90.8208 28.9378 89.8794 29.1566 89.027 29.6535C88.3524 30.0465 87.878 30.6027 87.7001 31.3926C87.6112 31.8079 87.6557 32.2232 87.6408 32.6422Z" fill="#160200"/>
<path opacity="0.2" d="M116.89 21.5253C116.764 21.5216 116.649 21.4734 116.542 21.4141C115.608 20.9135 114.626 20.8801 113.636 21.1619C112.851 21.3844 112.239 21.8776 111.761 22.5376C111.057 23.5166 110.757 24.6327 110.594 25.8082C110.519 26.3495 110.516 26.8909 110.497 27.4286C110.479 27.9217 110.512 28.4335 110.568 28.9378C110.653 29.7276 110.82 30.4914 111.086 31.2405C111.116 31.3183 111.112 31.411 111.124 31.4963C110.642 31.196 110.301 30.7621 110.004 30.2875C109.456 29.4013 109.189 28.4223 109.055 27.3989C108.996 26.9502 108.967 26.4941 108.922 26.0418C108.941 25.4893 108.944 24.933 108.985 24.3805C109.055 23.4016 109.244 22.4524 109.648 21.5513C109.819 21.1657 110.038 20.8097 110.29 20.4722C111.713 18.5403 114.882 18.5218 116.312 20.5093C116.535 20.8245 116.761 21.1508 116.89 21.5253Z" fill="#160200"/>
<path opacity="0.2" d="M40.361 23.3534C39.6864 23.3534 39.0119 23.3534 38.3077 23.3534C38.4634 22.1743 38.7302 21.0581 39.4159 20.0866C40.1238 19.0817 41.1208 18.6257 42.3253 18.5923C43.8411 18.5515 45.0382 19.1114 45.7943 20.476C45.9018 20.6688 45.9833 20.8727 46.0537 21.0804C45.8647 20.9877 45.6868 20.869 45.4904 20.806C44.2636 20.4204 43.0665 20.4166 41.9287 21.1101C41.584 21.3214 41.3098 21.6106 41.0689 21.9147C40.739 22.3374 40.4277 22.7898 40.361 23.3534Z" fill="#160200"/>
</g>
<path d="M20.8065 19.9976C20.9399 20.005 21.077 20.0198 21.2105 20.0198C23.727 20.0198 26.2398 20.0198 28.7563 20.0198C29.201 20.0198 29.1566 20.005 29.1603 20.4166C29.164 20.9098 29.1714 21.403 29.1788 21.8961C29.1714 22.1557 29.164 22.4153 29.1603 22.6711C29.1529 23.3497 29.1454 24.0283 29.1417 24.7068C28.8304 24.7068 28.5302 24.7773 28.2263 24.8218C27.4702 24.9293 26.7179 25.0406 25.9655 25.1592C25.2613 25.2705 24.5609 25.4002 23.8567 25.5189C23.7566 25.5374 23.6603 25.5486 23.6195 25.6598C23.0673 25.6672 22.515 25.6746 21.9628 25.6784C21.166 25.6821 20.3654 25.6784 19.5686 25.6784C19.2202 25.6784 19.2128 25.6339 19.2128 26.0455C19.2128 26.1678 19.2313 26.2902 19.1869 26.4088C19.0646 26.4163 18.9386 26.4088 18.8162 26.4311C17.2226 26.75 15.6252 27.08 14.0315 27.3989C13.5386 27.499 13.0494 27.6362 12.5416 27.6696C12.5342 27.5361 12.5268 27.3989 12.5268 27.2654C12.5268 20.8579 12.5268 14.4466 12.5268 8.03909C12.5268 7.51996 12.4601 7.56817 13.0049 7.56817C18.9534 7.56817 24.9055 7.56817 30.854 7.56817C31.4062 7.56817 31.321 7.50884 31.3284 8.03538C31.3358 8.5026 31.3395 8.97352 31.3432 9.44074C31.3395 10.5495 31.3321 11.6582 31.3247 12.7706C31.321 13.286 31.3951 13.2267 30.88 13.2267C27.133 13.2267 23.3823 13.2267 19.6353 13.2304C19.2017 13.2304 19.2091 13.1525 19.2091 13.6383C19.2091 15.6258 19.2091 17.6096 19.2091 19.5971C19.2091 19.6713 19.2128 19.7454 19.2091 19.8196C19.2054 19.9531 19.2499 20.031 19.3981 20.0236C19.8725 20.005 20.3395 20.0458 20.8065 19.9976Z" fill="white"/>
<path d="M80.3685 27.9549C80.5835 27.2875 80.9541 26.709 81.3951 26.1713C82.3588 24.9959 83.6041 24.2209 85.005 23.6758C86.3022 23.1715 87.6512 22.912 89.0299 22.7785C90.3456 22.6524 91.665 22.6487 92.9844 22.7303C93.2624 22.7488 93.2624 22.7414 93.2179 22.4484C93.1661 22.1333 93.1216 21.8144 92.9733 21.5251C92.6768 20.5462 92.0468 19.8602 91.1239 19.4338C90.6051 19.1928 90.0528 19.0667 89.4895 18.9999C88.1775 18.8368 86.8803 18.9592 85.598 19.2484C84.7937 19.4301 84.0006 19.6526 83.2557 20.0234C82.7887 20.1457 82.3884 20.4201 81.9474 20.5833C81.851 20.5054 81.8844 20.4127 81.8844 20.3311C81.8807 18.7997 81.8881 17.2683 81.877 15.7368C81.877 15.5255 81.9326 15.4031 82.1327 15.3104C83.7375 14.5429 85.4127 14.0274 87.1805 13.8012C88.8446 13.5899 90.505 13.5862 92.158 13.8902C94.0593 14.2388 95.753 15.0101 97.1169 16.4228C97.6098 16.9308 97.9915 17.5204 98.3696 18.1137C98.5475 18.529 98.7439 18.9406 98.8996 19.3633C99.3665 20.65 99.5407 21.9886 99.5556 23.3495C99.5704 24.6288 99.5593 25.9118 99.5593 27.1911C99.5593 27.4506 99.5481 27.7065 99.5444 27.966C99.3221 27.9512 99.1034 28.0105 98.8847 28.0328C97.8099 28.1403 96.7351 28.2738 95.6566 28.322C94.882 28.3591 94.1111 28.4592 93.3365 28.411C93.2847 27.9957 93.3254 27.5767 93.3143 27.1577C93.3069 26.8573 93.3069 26.8499 93.0141 26.8351C91.9319 26.7795 90.846 26.7832 89.7749 26.9389C88.6519 27.1021 87.5956 27.4469 86.7506 28.259C86.128 28.1996 85.5016 28.1366 84.8827 28.1292C83.9117 28.1181 82.948 28.0068 81.977 28.0365C81.573 28.0476 81.1654 28.0402 80.7614 28.0365C80.6168 28.0439 80.476 28.0587 80.3685 27.9549Z" fill="#FEFEFF"/>
<path d="M105.637 34.7332C105.471 34.5515 105.3 34.3772 105.133 34.1918C103.766 32.6789 102.958 30.8879 102.535 28.9078C102.439 28.4517 102.346 27.9919 102.328 27.521C103.636 27.2911 104.93 26.9759 106.223 26.6718C107.124 26.4605 108.021 26.2454 108.917 26.0341C108.962 26.4864 108.992 26.9388 109.051 27.3912C109.184 28.4109 109.451 29.3936 110 30.2798C110.292 30.7544 110.637 31.1846 111.119 31.4886C111.23 31.611 111.378 31.6777 111.519 31.7519C112.197 32.1079 112.92 32.1969 113.673 32.1412C114.714 32.0634 115.555 31.611 116.219 30.81C116.63 30.3095 116.919 29.7421 117.134 29.1303C117.468 28.1773 117.59 27.191 117.638 26.1898C117.675 25.4 117.612 24.6139 117.557 23.8278C117.694 23.8278 117.823 23.7981 117.957 23.761C119.332 23.3828 120.703 23.0046 122.078 22.6301C122.719 22.4558 123.346 22.2407 123.994 22.1035C124.22 22.9415 124.302 23.8018 124.346 24.6658C124.454 26.7979 124.235 28.8856 123.431 30.8805C122.137 34.0843 119.854 36.2127 116.497 37.1249C114.807 37.5847 113.087 37.6329 111.356 37.3956C109.418 37.1249 107.672 36.4055 106.153 35.1633C105.975 35.0187 105.808 34.8741 105.637 34.7332Z" fill="#F0F0F1"/>
<path d="M40.3604 31.114C40.9608 31.6331 41.6798 31.9186 42.4359 32.1151C43.633 32.4266 44.8523 32.4303 46.0717 32.3117C47.7432 32.1485 49.3257 31.6628 50.8601 30.9953C50.9491 30.9582 51.0269 30.8915 51.1863 30.9323C51.1863 31.7184 51.1863 32.5156 51.1863 33.3128C51.1788 34.0025 51.1381 34.696 51.1825 35.3857C51.2122 35.8492 51.0417 36.0457 50.6303 36.2163C48.9032 36.9282 47.1131 37.3435 45.2526 37.477C43.5922 37.5957 41.9467 37.5215 40.3197 37.1618C38.4295 36.7428 36.758 35.8937 35.3274 34.5847C35.2977 34.5476 35.2718 34.5031 35.2347 34.4698C33.5744 32.8419 32.6515 30.8359 32.229 28.5739C31.977 27.2316 31.951 25.8782 32.0029 24.521C32.0066 24.4617 32.0215 24.3987 32.0289 24.3393C32.4921 24.2911 32.9591 24.2244 33.4224 24.1984C33.8783 24.1725 34.3378 24.1502 34.7826 24.0946C35.446 24.013 36.1094 24.0649 36.7728 23.9834C37.6067 23.8832 38.4443 24.039 39.2819 24.0501C39.3301 24.0501 39.3783 24.0649 39.4302 24.0686C39.9565 24.1354 40.479 24.2021 41.0053 24.2652C41.691 24.3505 42.3729 24.4283 43.0585 24.5136C43.7924 24.6026 44.5225 24.6953 45.2563 24.7843C45.9531 24.8696 46.6499 24.9586 47.3429 25.0476C48.0137 25.1329 48.6846 25.2181 49.3591 25.3034C49.9076 25.3702 50.4561 25.448 51.0084 25.5C51.5346 25.5482 52.0535 25.6668 52.5872 25.6742C52.5909 26.2304 52.602 26.7829 52.602 27.3392C52.602 27.8175 52.665 27.7693 52.1647 27.7693C47.758 27.7693 43.355 27.7693 38.9484 27.7693C38.8483 27.7693 38.7519 27.7656 38.6519 27.7693C38.4221 27.7804 38.3961 27.8064 38.4554 28.0363C38.6926 28.9707 39.0781 29.831 39.7341 30.5503C39.9194 30.758 40.101 30.9842 40.3604 31.114Z" fill="#F0F0F1"/>
<path d="M123.992 22.1001C123.343 22.2373 122.713 22.4524 122.075 22.6267C120.7 23.0012 119.329 23.3794 117.954 23.7576C117.824 23.7947 117.691 23.8244 117.554 23.8244C117.502 23.7502 117.509 23.6612 117.495 23.5796C117.372 22.8714 117.224 22.1706 116.89 21.5254C116.761 21.1471 116.535 20.8245 116.305 20.5019C114.878 18.5107 111.709 18.5293 110.282 20.4649C110.034 20.8023 109.815 21.1583 109.641 21.5439C109.237 22.445 109.048 23.3979 108.978 24.3732C108.937 24.9257 108.933 25.4819 108.915 26.0344C108.018 26.2457 107.117 26.4608 106.22 26.6722C104.927 26.9762 103.633 27.2877 102.325 27.5213C102.017 24.5512 102.295 21.6737 103.759 19.0113C105.401 16.0263 107.959 14.3354 111.298 13.8089C113.303 13.4937 115.286 13.6124 117.22 14.2576C119.455 15.0029 121.212 16.3749 122.487 18.3624C122.546 18.4551 122.583 18.5626 122.676 18.6331C122.683 18.685 122.702 18.7295 122.754 18.7517C122.739 18.7999 122.754 18.8333 122.798 18.8556C122.85 18.9668 122.902 19.078 122.958 19.1893C123.424 20.1163 123.795 21.0767 123.992 22.1001Z" fill="#FEFEFF"/>
<path d="M52.5834 25.6709C52.0534 25.6598 51.5345 25.5448 51.0045 25.4966C50.4523 25.4447 49.9038 25.3705 49.3552 25.3001C48.6844 25.2185 48.0136 25.1295 47.3391 25.0442C46.6423 24.9552 45.9492 24.87 45.2525 24.781C44.5186 24.6883 43.7885 24.5993 43.0547 24.5103C42.369 24.425 41.6871 24.3471 41.0015 24.2618C40.4752 24.1988 39.9526 24.1321 39.4263 24.0653C39.3781 24.0579 39.33 24.0468 39.2781 24.0468C38.4405 24.0393 37.5992 23.8799 36.769 23.98C36.1056 24.0616 35.4421 24.0097 34.7787 24.0913C34.3303 24.1469 33.8707 24.1691 33.4186 24.1951C32.9516 24.221 32.4883 24.2878 32.025 24.336C32.2622 20.8986 33.4704 17.9285 36.2464 15.7481C37.7696 14.5504 39.5338 13.9275 41.4536 13.7309C42.8657 13.5863 44.2629 13.6456 45.6416 13.9979C47.9024 14.5764 49.6258 15.889 50.8674 17.8543C50.9378 17.9693 51.0156 18.0805 51.0898 18.1917C51.2677 18.6478 51.5271 19.0705 51.705 19.5303C52.4536 21.5105 52.6612 23.5684 52.5834 25.6709ZM40.3603 23.3534C40.4085 23.3571 40.4566 23.3682 40.5048 23.3682C42.3987 23.3682 44.2963 23.3682 46.1902 23.3682C46.2272 23.3682 46.2643 23.3645 46.3013 23.3682C46.4236 23.3756 46.4866 23.3311 46.4755 23.1976C46.4273 22.4708 46.3458 21.7515 46.053 21.0766C45.9826 20.869 45.9011 20.665 45.7936 20.4722C45.0375 19.1076 43.8404 18.5477 42.3246 18.5885C41.1201 18.6219 40.1194 19.078 39.4152 20.0828C38.7296 21.0544 38.4627 22.1742 38.307 23.3497C39.0112 23.3534 39.6858 23.3534 40.3603 23.3534Z" fill="#FEFEFF"/>
<path d="M80.3689 27.9551C80.48 28.0589 80.6172 28.0441 80.7543 28.0441C81.1583 28.0441 81.566 28.0552 81.9699 28.0441C82.941 28.0181 83.9046 28.1256 84.8756 28.1368C85.4945 28.1442 86.1209 28.2035 86.7435 28.2666C86.2395 28.8747 86.0171 29.5718 86.0875 30.3579C86.1839 31.4036 86.6472 32.2045 87.6441 32.6421C87.7368 32.7311 87.8591 32.757 87.974 32.7941C88.5818 32.9869 89.2007 33.0314 89.8382 32.9498C91.8173 32.7051 93.411 30.788 93.2813 28.7894C93.2998 28.6633 93.3146 28.541 93.3332 28.4149C94.1115 28.4631 94.8824 28.363 95.6532 28.3259C96.7318 28.274 97.8066 28.1442 98.8814 28.0367C99.1 28.0144 99.3187 27.9588 99.5411 27.9699C99.5448 28.1034 99.5559 28.2406 99.5559 28.3741C99.5559 30.8177 99.5559 33.2613 99.5559 35.7049C99.5559 36.0275 99.5596 36.3464 99.5559 36.669C99.5522 36.9471 99.5485 36.9545 99.2668 36.9545C98.3291 36.9583 97.3915 36.9546 96.4538 36.9583C96.0832 36.9583 95.7163 36.9694 95.3456 36.9768C95.2233 36.9508 95.101 36.9508 94.975 36.9768C94.7786 36.9694 94.5785 36.9508 94.3857 36.962C94.2004 36.9731 94.1226 36.9063 94.0966 36.7172C94.0262 36.1536 93.9373 35.5937 93.8594 35.0301C93.8409 34.904 93.8298 34.7779 93.752 34.6333C92.9959 35.6234 92.0656 36.3168 90.9686 36.7877C88.9154 37.6665 86.8065 37.7332 84.6606 37.1993C83.6748 36.9546 82.8075 36.4688 82.0107 35.8495C81.9514 35.7902 81.8921 35.7235 81.8291 35.6679C80.6468 34.5851 80.0131 33.2317 79.8759 31.6483C79.7721 30.4469 79.8648 29.264 80.291 28.1182C80.3058 28.0589 80.3133 27.9959 80.3689 27.9551Z" fill="#F0F0F1"/>
<path d="M72.8045 16.1115C73.1121 15.7778 73.4012 15.4292 73.7496 15.1288C75.1246 13.9534 76.7072 13.5863 78.4676 13.8903C78.5417 13.9015 78.6085 13.9348 78.6826 13.9423C78.8568 13.9608 78.8938 14.0646 78.8938 14.2241C78.8901 14.7024 78.9012 15.1845 78.9087 15.6628C78.905 15.7963 78.8938 15.9335 78.8938 16.067C78.8938 17.2758 78.8938 18.4846 78.8901 19.6935C78.8901 19.827 78.9161 19.9642 78.8642 20.0939C78.8494 20.0976 78.8345 20.1051 78.8234 20.1014C78.7048 20.0754 78.5862 20.0457 78.4676 20.0161C77.567 19.7936 76.659 19.7639 75.7584 19.9938C74.1981 20.3906 73.2641 21.4585 72.7489 22.9343C72.471 23.7241 72.3968 24.5436 72.3857 25.3742C72.3746 26.2604 72.3746 27.1504 72.3672 28.0366C72.0966 28.0255 71.8335 27.9587 71.5592 27.955C71.1664 27.9513 70.7735 27.9142 70.3844 27.8697C69.6654 27.7882 68.9464 27.6843 68.2274 27.5953C67.412 27.4915 66.5966 27.3951 65.7776 27.295C65.7739 27.1726 65.7627 27.0503 65.7627 26.9279C65.7627 22.8305 65.7627 18.7331 65.7627 14.6357C65.7627 14.5615 65.7664 14.4873 65.7627 14.4132C65.7553 14.276 65.8109 14.2055 65.9555 14.2129C66.0185 14.2167 66.0778 14.2129 66.1408 14.2129C67.8308 14.2129 69.5208 14.2129 71.2109 14.2129C71.5667 14.2129 71.563 14.2167 71.6148 14.5689C71.689 15.0806 71.7186 15.5961 71.8409 16.1004C71.8483 16.2487 71.8557 16.3933 71.8706 16.5416C71.8854 16.6751 71.9113 16.8086 71.9262 16.9421C71.9447 17.0756 71.941 17.2165 72.0411 17.3722C72.2745 16.9087 72.5488 16.5157 72.8045 16.1115Z" fill="#FEFEFF"/>
<path d="M55.3631 26.0416C55.3594 25.9193 55.3483 25.7969 55.3483 25.6745C55.3483 21.9999 55.3483 18.3252 55.3483 14.6468C55.3483 14.5726 55.352 14.4984 55.3483 14.4243C55.3409 14.2871 55.3928 14.2166 55.5373 14.224C55.6114 14.2277 55.6855 14.224 55.7597 14.224C57.6943 14.224 59.6327 14.224 61.5673 14.224C61.5932 14.224 61.6155 14.224 61.6414 14.224C61.9898 14.2277 61.9898 14.2277 61.9935 14.5615C61.9972 15.0806 62.0046 15.596 62.0083 16.1152C62.0046 16.2746 61.9935 16.434 61.9935 16.5935C61.9935 19.8677 61.9935 23.1419 61.9935 26.4162C61.9935 26.5645 61.9824 26.7091 61.9787 26.8574C61.5043 26.7944 61.0299 26.7239 60.5555 26.6646C59.8995 26.5793 59.2435 26.4866 58.5838 26.4236C58.0353 26.3717 57.4868 26.2864 56.9382 26.2233C56.412 26.1603 55.8857 26.101 55.3631 26.0416Z" fill="#FEFEFF"/>
<path d="M84.1458 11.428C83.727 11.3724 83.3082 11.4169 82.8894 11.4021C82.5854 11.3947 82.5817 11.3947 82.5817 11.098C82.5743 9.99302 82.6744 8.90656 83.0376 7.85347C83.2155 7.33805 83.4564 6.8523 83.79 6.41845C84.5497 5.42469 85.5801 4.95377 86.8068 4.83882C88.0484 4.72387 89.1751 5.04647 90.2239 5.69909C90.7576 6.03281 91.2802 6.37766 91.8102 6.7188C92.0585 6.87825 92.3216 7.01545 92.6107 7.09703C93.4446 7.33063 94.0228 6.9932 94.2155 6.15147C94.2896 5.82516 94.323 5.49144 94.3008 5.15771C94.2859 4.95748 94.3675 4.90927 94.5565 4.90927C95.7425 4.91669 96.9248 4.90927 98.1107 4.91298C98.3665 4.91298 98.3628 4.92039 98.3739 5.18737C98.3961 5.71763 98.3072 6.24417 98.3072 6.77443C98.2553 6.88938 98.2516 7.01174 98.233 7.13411C98.0959 7.97955 97.8587 8.79532 97.4029 9.52952C96.9099 10.323 96.2391 10.9015 95.3533 11.2093C94.4712 11.5133 93.5669 11.5652 92.6515 11.3947C91.7991 11.2352 91.0541 10.8236 90.3351 10.3638C89.8904 10.0783 89.4456 9.78908 88.9972 9.50356C88.7452 9.34411 88.4709 9.22916 88.1781 9.16983C87.485 9.02893 86.9884 9.32557 86.7772 9.99673C86.6808 10.3045 86.6586 10.6271 86.6512 10.9497C86.6363 11.4206 86.7253 11.3984 86.1879 11.4058C85.5022 11.4132 84.824 11.3687 84.1458 11.428Z" fill="#FEFEFF"/>
<path d="M55.3629 26.0416C55.8855 26.101 56.4117 26.1603 56.9343 26.2196C57.4828 26.2826 58.0276 26.3679 58.5799 26.4198C59.2396 26.4829 59.8956 26.5793 60.5516 26.6609C61.026 26.7239 61.5004 26.7907 61.9748 26.8537C61.9785 26.8908 61.9896 26.9279 61.9896 26.9649C61.9896 30.1984 61.9933 33.4318 61.9896 36.6652C61.9896 36.9433 61.9822 36.9507 61.7005 36.9507C60.5034 36.9545 59.3063 36.9507 58.1092 36.9545C57.6793 36.9545 57.2456 36.9656 56.8157 36.973C56.4451 36.9656 56.0782 36.9582 55.7076 36.9545C55.3481 36.9507 55.3481 36.9507 55.3481 36.5911C55.3481 33.925 55.3481 31.2589 55.3481 28.5928C55.3481 27.7436 55.3555 26.8908 55.3629 26.0416Z" fill="#F0F0F1"/>
<path d="M12.5452 27.6731C13.0529 27.6397 13.5384 27.5025 14.0351 27.4024C15.6287 27.0835 17.2261 26.7535 18.8198 26.4346C18.9384 26.4124 19.0644 26.4198 19.1904 26.4124C19.1978 26.4717 19.2163 26.5347 19.2163 26.594C19.2163 29.9461 19.2163 33.2982 19.2163 36.6503C19.2163 36.9507 19.2089 36.9544 18.9087 36.9544C17.6783 36.9581 16.4441 36.9544 15.2136 36.9544C14.8059 36.9544 14.402 36.9655 13.9943 36.9729C13.6014 36.9655 13.2049 36.9618 12.812 36.9544C12.5415 36.947 12.5303 36.947 12.5303 36.6948C12.5303 33.7098 12.5303 30.7285 12.5303 27.7435C12.5303 27.7213 12.5415 27.6953 12.5452 27.6731Z" fill="#F0F0F1"/>
<path d="M65.7848 27.3022C66.6001 27.4024 67.4192 27.4988 68.2346 27.6026C68.9536 27.6916 69.6689 27.7917 70.3916 27.877C70.7808 27.9215 71.1736 27.9586 71.5665 27.9623C71.8407 27.966 72.1039 28.0327 72.3744 28.0439C72.3781 28.0698 72.3892 28.0921 72.3892 28.118C72.3892 30.9806 72.393 33.8433 72.393 36.7059C72.393 36.9506 72.3855 36.958 72.1113 36.958C70.6436 36.958 69.176 36.958 67.7083 36.958C67.5601 36.958 67.4118 36.9692 67.2673 36.9766C66.8485 36.9692 66.4297 36.958 66.0109 36.9618C65.8404 36.9618 65.7514 36.9173 65.7737 36.7356C65.7811 36.6874 65.7737 36.6354 65.7737 36.5872C65.7737 33.5911 65.7737 30.5987 65.7737 27.6026C65.77 27.4988 65.7774 27.4024 65.7848 27.3022Z" fill="#F0F0F1"/>
<path d="M56.5971 11.05C56.4711 10.9536 56.3414 10.8609 56.219 10.7571C55.0627 9.78931 54.6254 8.54711 54.9033 7.08242C55.1628 5.71415 55.9893 4.75746 57.305 4.30879C59.0802 3.70437 61.1224 4.2235 62.123 6.12945C62.2083 6.2926 62.275 6.46317 62.3528 6.63004C62.3714 6.72645 62.3899 6.82286 62.4121 6.91927C62.5493 7.52739 62.5567 8.13922 62.4084 8.74734C62.0081 10.39 60.5701 11.5247 58.8356 11.5803C58.0351 11.6025 57.2938 11.4209 56.5971 11.05Z" fill="#FEFEFF"/>
<path d="M29.1417 24.7068C29.1491 24.9664 29.1528 25.2222 29.1603 25.4818C29.164 25.619 29.1121 25.6931 28.9675 25.682C28.9305 25.6783 28.8934 25.682 28.8563 25.682C27.1589 25.682 25.4615 25.682 23.764 25.682C23.7158 25.682 23.6677 25.6709 23.6195 25.6635C23.6565 25.5485 23.7566 25.5374 23.8567 25.5226C24.5609 25.4039 25.2613 25.2778 25.9655 25.1629C26.7179 25.0442 27.4702 24.9293 28.2263 24.8255C28.5302 24.7773 28.8304 24.7031 29.1417 24.7068Z" fill="#F0F0F1"/>
<path d="M82.5094 49.0724C82.0943 49.3023 81.7682 49.6286 81.5273 50.055C81.2901 50.4815 81.1678 50.9783 81.1678 51.542C81.1678 52.1019 81.2752 52.5913 81.4902 53.0104C81.7052 53.4294 82.0165 53.7557 82.4204 53.9856C82.8244 54.2155 83.3099 54.3341 83.8659 54.3341C84.3959 54.3341 84.8591 54.2303 85.2446 54.0264V52.7767C84.9259 52.9733 84.5478 53.0734 84.1216 53.0734C83.6991 53.0734 83.3618 52.9325 83.1135 52.6544C82.8652 52.3763 82.7392 51.9981 82.7392 51.5197C82.7392 51.034 82.8615 50.6594 83.1061 50.3888C83.3507 50.1181 83.6843 49.9846 84.1068 49.9846C84.4959 49.9846 84.8517 50.0773 85.1816 50.259V49.0019C84.8258 48.8165 84.4033 48.7275 83.9141 48.7275C83.3952 48.7275 82.9245 48.8425 82.5094 49.0724Z" fill="#032EB9"/>
<path d="M73.7554 47.5039V47.5299C73.7665 47.9823 74.1371 48.3457 74.5893 48.3457H74.593C75.0526 48.3457 75.4232 47.9674 75.4232 47.5039C75.4232 47.0404 75.0489 46.6659 74.5856 46.6659C74.126 46.6659 73.7554 47.0404 73.7554 47.5039Z" fill="#032EB9"/>
<path d="M71.1726 46.0911C69.8902 47.0144 69.0452 48.4049 68.7895 50.0031C68.7376 50.322 68.7117 50.6446 68.7117 50.9635V50.9968C68.7154 52.3021 69.1268 53.5888 69.8902 54.6381C70.8983 56.0213 72.744 56.8481 74.8232 56.8481C74.8862 56.8481 74.9492 56.8482 75.0122 56.8444C76.6689 56.8037 78.2848 56.2474 79.3337 55.3575L79.3744 55.3204L79.1298 55.0164L79.0853 55.0534C78.1996 55.7654 76.5614 56.2437 75.0085 56.2437C74.3154 56.2437 73.6743 56.1473 73.148 55.9693C71.4913 55.3983 70.2979 53.9818 69.8828 52.0759C69.5233 50.4332 69.8421 48.8054 70.7909 47.4927C71.7359 46.1801 73.1628 45.4273 74.7083 45.4273C75.4866 45.4273 76.2464 45.6164 76.9728 45.9835C78.1921 46.6028 79.1002 47.8042 79.4041 49.191C79.6895 50.4888 79.4152 51.7459 78.6332 52.7322C78.1921 53.2884 77.3879 53.8483 76.5874 53.8483C76.2649 53.8483 75.9721 53.7556 75.7164 53.5702C75.2086 53.1994 75.2124 52.5394 75.2161 51.9572V51.8052L75.2902 48.861H72.87V49.4728H73.8299C73.8188 50.1625 73.7929 51.2749 73.7744 51.9164C73.7669 52.2019 73.7632 52.3948 73.7632 52.4133C73.7632 53.7742 74.4637 54.4639 75.8461 54.4639C75.9721 54.4639 76.1056 54.4565 76.2464 54.4453C78.3441 54.2673 80.2083 52.5987 80.4974 50.652C80.8161 48.479 79.645 46.4211 77.5102 45.4051C76.743 45.038 75.9017 44.8526 75.0122 44.8526C73.6483 44.8489 72.2845 45.2901 71.1726 46.0911Z" fill="#032EB9"/>
<path d="M87.4392 53.0845C87.3021 52.9622 87.2353 52.7953 87.2353 52.5839C87.2353 52.3392 87.3502 52.1501 87.5763 52.0166C87.8061 51.8831 88.1248 51.8164 88.5436 51.8164H88.7438C88.8068 51.8164 88.8698 51.8201 88.9328 51.8275V52.2762C88.9328 52.5543 88.8401 52.7916 88.6585 52.9807C88.4732 53.1735 88.2508 53.2662 87.984 53.2662C87.7579 53.2699 87.5763 53.2106 87.4392 53.0845ZM86.2532 49.1466V50.3628C86.7647 50.0958 87.2687 49.9623 87.7653 49.9623C88.1248 49.9623 88.3991 50.0365 88.5881 50.1811C88.7771 50.3294 88.8846 50.5556 88.9217 50.8597C88.8475 50.8523 88.7697 50.8486 88.6956 50.8448C88.6215 50.8411 88.5473 50.8411 88.4695 50.8411C87.6097 50.8411 86.9463 51.0117 86.4756 51.3491C86.0049 51.6866 85.7714 52.1575 85.7714 52.7656C85.7714 53.2365 85.9308 53.6148 86.2458 53.9003C86.5645 54.1858 86.987 54.3304 87.517 54.3304C87.8357 54.3304 88.1323 54.2674 88.4028 54.145C88.6734 54.0227 88.8846 53.8521 89.0403 53.6333L89.1218 54.1969H90.3893V51.0599C90.3893 50.3109 90.1818 49.7324 89.7704 49.332C89.359 48.9315 88.7734 48.7275 88.0174 48.7275C87.391 48.7275 86.798 48.8684 86.2532 49.1466Z" fill="#032EB9"/>
<path d="M93.0388 48.9907C92.8201 49.1428 92.6459 49.3578 92.5162 49.6285L92.4125 48.8609H91.0523V54.2006H92.6052V51.4677C92.6052 51.071 92.7015 50.7595 92.898 50.5259C93.0907 50.296 93.3575 50.1773 93.6911 50.1773C93.8616 50.1773 94.0098 50.1996 94.1321 50.2478V48.8053C94.0283 48.772 93.906 48.7534 93.7652 48.7534C93.4984 48.7608 93.2575 48.835 93.0388 48.9907Z" fill="#032EB9"/>
<path d="M96.8049 48.9907C96.5863 49.1428 96.4121 49.3578 96.2823 49.6285L96.1786 48.8609H94.8184V54.2006H96.3713V51.4677C96.3713 51.071 96.4677 50.7595 96.6641 50.5259C96.8568 50.296 97.1237 50.1773 97.4572 50.1773C97.6277 50.1773 97.7759 50.1996 97.8983 50.2478V48.8053C97.7945 48.772 97.6722 48.7534 97.5313 48.7534C97.2645 48.7608 97.0199 48.835 96.8049 48.9907Z" fill="#032EB9"/>
<path d="M100.062 52.6655C99.8807 52.3911 99.7918 52.0092 99.7918 51.5197C99.7918 51.034 99.8807 50.6594 100.062 50.3888C100.244 50.1181 100.492 49.9846 100.815 49.9846C101.133 49.9846 101.385 50.1218 101.567 50.3925C101.749 50.6669 101.838 51.0488 101.838 51.5383C101.838 52.024 101.749 52.3985 101.567 52.6692C101.385 52.9399 101.137 53.0734 100.815 53.0734C100.492 53.0771 100.244 52.9399 100.062 52.6655ZM99.4693 49.065C99.0765 49.2912 98.7689 49.6175 98.5502 50.0402C98.3278 50.4666 98.2166 50.9672 98.2166 51.5383C98.2166 52.0908 98.3204 52.5765 98.528 52.9955C98.7355 53.4145 99.0357 53.7408 99.4286 53.9782C99.8214 54.2118 100.281 54.3304 100.815 54.3304C101.319 54.3304 101.767 54.2192 102.16 53.993C102.553 53.7668 102.861 53.4442 103.079 53.0178C103.302 52.5913 103.413 52.0908 103.413 51.5197C103.413 50.9672 103.309 50.4815 103.101 50.0624C102.894 49.6434 102.594 49.3171 102.201 49.0798C101.808 48.8462 101.348 48.7275 100.815 48.7275C100.311 48.7275 99.8622 48.8425 99.4693 49.065Z" fill="#032EB9"/>
<path d="M104.469 49.1911C104.058 49.4989 103.85 49.9031 103.85 50.4074C103.85 50.8227 103.969 51.1638 104.202 51.4308C104.436 51.6978 104.792 51.8943 105.262 52.0241C105.67 52.139 105.944 52.2392 106.082 52.3244C106.219 52.4097 106.285 52.521 106.285 52.6582C106.285 52.8213 106.215 52.9474 106.074 53.0327C105.933 53.118 105.733 53.1588 105.466 53.1588C104.866 53.1588 104.336 53.029 103.873 52.7694V53.9857C104.384 54.2193 104.97 54.3342 105.633 54.3342C106.315 54.3342 106.856 54.1822 107.253 53.8781C107.646 53.5815 107.842 53.1773 107.849 52.6619V52.6026C107.846 52.1798 107.723 51.8387 107.486 51.5791C107.245 51.3121 106.864 51.1082 106.345 50.9636C105.955 50.8561 105.696 50.7596 105.566 50.6818C105.437 50.6039 105.374 50.4964 105.374 50.3592C105.374 50.2109 105.44 50.0959 105.577 50.018C105.715 49.9402 105.907 49.8994 106.159 49.8994C106.615 49.8994 107.064 49.9921 107.497 50.1738V48.9761C107.06 48.8055 106.6 48.7202 106.119 48.7202C105.433 48.7313 104.884 48.8834 104.469 49.1911Z" fill="#032EB9"/>
</g>
<defs>
<filter id="filter0_d_317_974" x="111.739" y="43.5957" width="17.1984" height="17.0206" filterUnits="userSpaceOnUse" color-interpolation-filters="sRGB">
<feFlood flood-opacity="0" result="BackgroundImageFix"/>
<feColorMatrix in="SourceAlpha" type="matrix" values="0 0 0 0 0 0 0 0 0 0 0 0 0 0 0 0 0 0 127 0" result="hardAlpha"/>
<feOffset dx="0.552632" dy="1.10526"/>
<feGaussianBlur stdDeviation="0.552632"/>
<feComposite in2="hardAlpha" operator="out"/>
<feColorMatrix type="matrix" values="0 0 0 0 0 0 0 0 0 0 0 0 0 0 0 0 0 0 0.15 0"/>
<feBlend mode="normal" in2="BackgroundImageFix" result="effect1_dropShadow_317_974"/>
<feBlend mode="normal" in="SourceGraphic" in2="effect1_dropShadow_317_974" result="shape"/>
</filter>
<clipPath id="clip0_317_974">
<rect width="132" height="62.2794" fill="white" transform="translate(-0.000244141 0.23584)"/>
</clipPath>
</defs>
</svg>
