<svg width="1087" height="333" viewBox="0 0 1087 333" fill="none" xmlns="http://www.w3.org/2000/svg">
<path fill-rule="evenodd" clip-rule="evenodd" d="M68.0784 34.2466C32.4322 59.9962 8.4733 99.206 2.04531 142.805C0.584399 151.583 0 160.654 0 169.432V170.31C0 206.593 11.3951 241.999 32.7244 271.552C60.7738 309.884 111.906 333 169.757 333H175.017C220.889 331.83 265.885 316.321 295.103 291.742L296.272 290.864L289.552 282.379L288.383 283.257C263.84 303.154 218.26 316.321 175.309 316.321C157.778 316.614 140.247 313.98 123.593 308.714C77.7203 292.913 44.4116 253.411 33.0166 200.448C23.0824 154.801 31.8478 109.447 58.1441 73.1637C84.4404 36.8802 123.885 15.8125 166.836 15.8125C188.749 15.8125 210.371 21.0792 229.655 31.3205C263.548 48.5844 288.675 81.9418 297.149 120.566C305.038 156.557 297.441 191.67 275.819 218.883C263.548 234.391 241.342 249.899 219.136 249.899C210.371 249.899 201.897 247.266 194.885 241.999C180.86 231.758 180.86 213.323 180.86 197.23V193.133L182.906 111.203H115.704V128.174H142.292C142.139 138.143 141.826 151.406 141.52 164.343C141.242 176.089 140.971 187.565 140.832 196.059C140.539 203.96 140.539 209.227 140.539 209.812C140.539 247.558 160.115 266.871 198.391 266.871C201.897 266.871 205.695 266.578 209.493 266.285L209.494 266.285C267.638 261.311 319.354 215.079 327.536 160.946C336.301 100.669 303.869 43.3175 244.556 15.2271C222.935 4.98576 199.268 -0.281047 175.309 0.0115613C136.449 -0.281047 99.0496 11.7158 68.0784 34.2466ZM139.706 74.378V73.5C139.706 60.6253 149.933 50.0913 162.497 50.0913C175.353 50.0913 185.871 60.6253 185.871 73.5C185.871 86.3748 175.645 96.9087 162.789 96.9087C150.225 96.9087 139.999 86.9602 139.706 74.378ZM356.838 144.007C362.974 132.595 372.616 123.231 384.011 116.794C395.991 110.357 409.431 107.138 423.163 107.431C435.143 107.138 447.415 109.771 458.225 115.038V149.859C449.168 144.884 438.941 142.251 428.423 142.251C416.735 142.251 407.386 145.762 400.665 153.37C393.945 160.685 390.439 171.219 390.439 184.679C390.439 198.139 393.653 208.38 400.665 216.281C407.678 224.181 417.028 227.985 428.715 227.985C439.818 228.278 450.629 225.352 459.978 219.792V254.32C447.999 260.172 434.851 263.098 421.703 262.806C407.678 263.098 393.945 259.879 381.674 253.149C370.571 246.712 361.805 237.349 355.962 225.937C349.534 213.355 346.612 199.31 346.904 185.264C346.612 170.927 350.118 156.589 356.838 144.007ZM515.621 214.233C515.329 219.5 517.374 224.767 521.173 228.278C525.555 232.082 530.815 233.838 536.658 233.253C543.671 233.545 550.391 230.619 555.358 225.352C560.325 220.085 563.247 213.063 562.955 205.747V193.165C561.202 192.873 559.449 192.873 557.697 192.873H557.695H552.144C540.457 192.873 531.691 194.628 525.263 198.432C519.128 201.358 515.621 207.503 515.621 214.233ZM488.448 153.078V119.135C503.642 111.235 520.296 107.138 537.827 108.309C558.864 108.309 575.226 113.868 586.621 124.988C598.016 136.107 603.86 152.2 603.86 172.975V260.173H568.798L566.461 244.665C561.786 251.102 555.65 255.783 548.638 259.002C541.041 262.221 532.568 263.977 524.095 263.977C509.193 263.977 497.506 259.88 488.741 251.98C479.975 244.079 475.592 233.545 475.592 220.378C475.592 203.407 482.02 190.239 495.169 180.876C508.025 171.512 526.432 166.83 550.391 166.83H556.527C558.572 166.83 560.617 166.831 562.663 167.123C561.494 158.345 558.572 152.2 553.313 148.104C548.053 144.007 540.457 141.959 530.523 141.959C515.621 142.251 501.304 146.055 488.448 153.078ZM677.157 114.696C670.729 119.378 665.762 125.23 662.548 132.545L659.626 111.185H621.934V259.538H665.177V183.752C665.177 172.633 667.807 164.147 673.358 157.71C678.91 151.272 686.799 147.761 695.272 148.054C699.362 148.054 703.453 148.639 707.544 150.102V109.722C704.33 108.844 700.823 108.259 697.317 108.259C690.013 108.259 683 110.307 677.157 114.696ZM764.49 132.545C767.704 125.23 772.671 119.378 779.099 114.696C784.943 110.307 791.955 108.259 799.26 108.259C802.766 108.259 806.272 108.844 809.486 109.722V150.102C805.396 148.639 801.305 148.054 797.215 148.054C788.741 147.761 780.852 151.272 775.301 157.71C769.75 164.147 767.12 172.633 767.12 183.752V259.538H723.877V111.185H761.568L764.49 132.545ZM870.18 216.867C865.213 209.259 862.583 198.725 862.583 184.973C862.583 171.513 865.213 160.978 870.18 153.663C874.563 146.348 882.452 142.252 890.925 142.544C899.398 142.252 907.287 146.641 911.67 153.956C916.637 161.564 919.267 172.098 919.267 185.85C919.267 199.31 916.637 209.844 911.67 217.16C907.287 224.475 899.398 228.571 890.925 228.278C882.452 228.278 874.563 223.89 870.18 216.867ZM853.526 116.795C842.423 123.232 833.657 132.596 828.106 144.007C821.678 156.882 818.464 171.22 818.756 185.558C818.464 199.603 821.386 213.356 827.521 225.938C833.073 237.349 841.546 246.713 852.357 253.15C864.044 259.88 877.192 263.392 890.925 263.099C904.073 263.392 916.929 260.173 928.324 253.736C939.427 247.298 948.193 237.935 953.744 226.523C960.172 213.648 963.386 199.31 963.094 184.973C963.386 170.927 960.464 157.175 954.328 144.592C948.777 133.181 940.304 123.817 929.493 117.38C917.806 110.65 904.657 107.139 890.925 107.431C877.777 107.139 864.921 110.357 853.526 116.795ZM974.956 153.994C974.664 140.534 981.092 127.659 992.195 120.051C1003.59 111.565 1018.78 107.469 1038.36 107.469C1051.51 107.469 1064.36 109.81 1076.64 114.492V147.556C1064.95 142.582 1052.38 139.949 1039.53 139.949C1033.98 139.656 1028.43 140.826 1023.46 143.167C1019.95 145.215 1017.91 148.727 1017.91 152.823C1017.61 156.627 1019.95 160.139 1023.17 161.894C1026.67 164.235 1033.98 166.868 1044.79 169.795C1059.1 173.598 1069.62 179.451 1076.34 186.766C1082.77 194.081 1085.99 203.445 1086.28 215.149V216.905C1086.57 230.072 1080.43 242.654 1069.62 250.555C1058.52 259.04 1043.62 263.137 1024.63 263.137C1007.97 263.429 991.319 260.211 975.833 253.481V219.538C989.273 226.853 1004.47 230.657 1019.95 230.365C1027.26 230.365 1033.1 229.194 1036.9 226.853C1040.7 224.805 1043.03 221.001 1042.74 216.612C1042.74 212.515 1040.7 209.004 1037.19 207.249C1033.39 204.908 1025.8 201.982 1014.4 198.763C1001.25 195.252 991.611 189.692 984.891 182.377C978.17 175.062 974.956 165.406 974.956 153.994Z" fill="#0071CE"/>
</svg>
