<svg width="57" height="57" viewBox="0 0 57 57" fill="none" xmlns="http://www.w3.org/2000/svg">
<rect width="57" height="57" rx="4.31818" fill="#F65E0A"/>
<path fill-rule="evenodd" clip-rule="evenodd" d="M16.3205 10.2308H40.6795C42.3925 10.2308 43.8022 10.8296 44.9742 11.9945C46.1791 13.184 46.7692 14.6197 46.7692 16.326V40.6986C46.7692 42.3639 46.1791 43.816 44.9742 45.0055C43.8022 46.1622 42.3925 46.7692 40.6795 46.7692H16.3205C14.6075 46.7692 13.1814 46.1622 11.9929 45.0055C10.8209 43.816 10.2307 42.3639 10.2307 40.6986V16.326C10.2307 14.6197 10.8209 13.184 11.9929 11.9945C13.1814 10.8296 14.6075 10.2308 16.3205 10.2308Z" fill="#003499"/>
<path fill-rule="evenodd" clip-rule="evenodd" d="M38.1386 30.9528H40.1057L42.5563 28.4836H39.8844L38.1386 30.9528ZM37.4173 31.5845H34.5733V36.8676C34.5733 38.2786 34.9421 39.3204 35.6306 40.0259C36.2453 40.6412 37.0403 40.9201 38.0648 40.9201C39.4746 40.9201 40.5319 40.3623 41.1794 39.263H41.204V40.6986H43.712V31.5845H40.8679V36.9004C40.8679 37.1465 40.8515 37.3516 40.8105 37.4582C40.4745 38.2458 39.9172 38.6477 39.0648 38.6477C37.9747 38.6477 37.4173 37.8848 37.4173 36.3836V31.5845ZM30.131 34.5952C28.2786 34.5952 26.8689 34.8741 25.8853 35.4894C24.8772 36.1046 24.3609 36.9988 24.3609 38.1637C24.3609 38.8938 24.6559 39.5419 25.1805 40.0834C25.7706 40.6412 26.5328 40.9201 27.459 40.9201C28.7212 40.9201 29.6556 40.5099 30.3031 39.747H30.3768V40.6986H32.975V35.3253C32.975 34.1194 32.639 33.1842 32.0489 32.5197C31.303 31.7404 30.2129 31.3302 28.7622 31.3302C27.2787 31.3302 26.0329 31.6091 25.0493 32.2162L25.5821 34.0045C26.3853 33.5205 27.2787 33.2826 28.2786 33.2826C29.5408 33.2826 30.131 33.6682 30.131 34.505V34.5952ZM23.2462 31.5845H21.5004V28.4836H18.7547V31.5845H17.4515V33.6682H18.7547V37.3516C18.7547 38.6149 18.9924 39.5419 19.5169 40.0834C20.0333 40.6412 20.7955 40.9201 21.7217 40.9201C22.3364 40.9201 22.82 40.8463 23.2626 40.674L23.2462 38.5411C23.156 38.6149 22.9839 38.6477 22.7052 38.6477C22.2626 38.6477 21.943 38.4837 21.7217 38.1637C21.5742 37.9258 21.5004 37.5157 21.5004 36.9004V33.6682H23.2462V31.5845ZM26.9754 37.9258C26.9754 36.8512 28.0737 36.3425 30.2129 36.3836V37.3516L30.1883 37.8848C30.0818 38.2458 29.8195 38.5411 29.4835 38.7216C29.172 39.0005 28.7622 39.1317 28.336 39.1317C27.4426 39.1317 26.9754 38.7216 26.9754 37.9258ZM13.2551 40.6986H16.1319V28.4836H13.2551V40.6986Z" fill="#FFEC00"/>
</svg>
