<svg width="32" height="32" viewBox="0 0 32 32" fill="none" xmlns="http://www.w3.org/2000/svg">
<path fill-rule="evenodd" clip-rule="evenodd" d="M5.33333 0H26.6667C28.1669 0 29.4015 0.524472 30.428 1.54468C31.4832 2.58644 32 3.84373 32 5.33812V26.6834C32 28.1419 31.4832 29.4136 30.428 30.4553C29.4015 31.4683 28.1669 32 26.6667 32H5.33333C3.83311 32 2.58412 31.4683 1.54329 30.4553C0.516823 29.4136 0 28.1419 0 26.6834V5.33812C0 3.84373 0.516823 2.58644 1.54329 1.54468C2.58412 0.524472 3.83311 0 5.33333 0Z" fill="white"/>
<path fill-rule="evenodd" clip-rule="evenodd" d="M24.4414 18.1479H26.1642L28.3104 15.9854H25.9704L24.4414 18.1479ZM23.8097 18.7011H21.3189V23.328C21.3189 24.5637 21.642 25.4761 22.2449 26.094C22.7833 26.6329 23.4796 26.8771 24.3768 26.8771C25.6114 26.8771 26.5374 26.3886 27.1045 25.4259H27.126V26.6832H29.3225V18.7011H26.8317V23.3567C26.8317 23.5722 26.8174 23.7519 26.7815 23.8453C26.4872 24.535 25.9991 24.887 25.2525 24.887C24.2979 24.887 23.8097 24.2188 23.8097 22.9041V18.7011ZM17.4284 21.3378C15.8062 21.3378 14.5715 21.5821 13.7101 22.121C12.8272 22.6598 12.375 23.4429 12.375 24.4631C12.375 25.1025 12.6334 25.6701 13.0928 26.1443C13.6097 26.6329 14.2772 26.8771 15.0883 26.8771C16.1938 26.8771 17.0121 26.5179 17.5791 25.8497H17.6437V26.6832H19.9192V21.9773C19.9192 20.9211 19.6249 20.1021 19.1081 19.5202C18.4549 18.8376 17.5002 18.4784 16.2297 18.4784C14.9304 18.4784 13.8394 18.7227 12.978 19.2543L13.4446 20.8206C14.148 20.3967 14.9304 20.1883 15.8062 20.1883C16.9116 20.1883 17.4284 20.526 17.4284 21.2588V21.3378ZM11.3988 18.7011H9.86986V15.9854H7.46519V18.7011H6.32388V20.526H7.46519V23.7519C7.46519 24.8583 7.67336 25.6701 8.13276 26.1443C8.58498 26.6329 9.25254 26.8771 10.0637 26.8771C10.602 26.8771 11.0255 26.8125 11.4132 26.6616L11.3988 24.7936C11.3198 24.8583 11.1691 24.887 10.925 24.887C10.5374 24.887 10.2575 24.7433 10.0637 24.4631C9.93446 24.2548 9.86986 23.8955 9.86986 23.3567V20.526H11.3988V18.7011ZM14.6648 24.2548C14.6648 23.3136 15.6267 22.8682 17.5002 22.9041V23.7519L17.4787 24.2189C17.3853 24.535 17.1556 24.7936 16.8613 24.9517C16.5886 25.1959 16.2297 25.3109 15.8564 25.3109C15.074 25.3109 14.6648 24.9517 14.6648 24.2548ZM2.64869 26.6832H5.1682V15.9854H2.64869V26.6832Z" fill="#0071CE"/>
</svg>
