<svg width="64" height="64" viewBox="0 0 64 64" fill="none" xmlns="http://www.w3.org/2000/svg">
<path d="M48 38.5H60.5V19.5H54.5C54.08 19.5 53.67 19.33 53.37 19.03L49.31 14.97C49.01 14.67 48.6 14.5 48.18 14.5H33.42L21.78 24.24C19.99 25.63 20.9801 28.5 23.2401 28.5C23.2401 28.5 27.81 28.86 29.51 27.5L34.0501 24.47L37.67 28.07C39.17 29.56 43.31 30.5 43.31 30.5H50.01"  stroke-width="3" stroke-miterlimit="10" stroke-linejoin="round"/>
<path d="M7 19.5H10.07C10.49 19.5 10.9 19.33 11.2 19.03L15.26 14.97C15.56 14.67 15.97 14.5 16.39 14.5H29.06H37"  stroke-width="3" stroke-miterlimit="10" stroke-linejoin="round"/>
<path d="M8 38.5H3.5V24"  stroke-width="3" stroke-miterlimit="10" stroke-linejoin="round"/>
<path d="M36.5499 35.0199L43.8499 42.3199C44.9499 43.4199 46.7299 43.4199 47.8299 42.3199C48.9299 41.2199 48.9299 39.4399 47.8299 38.3399L36.1799 26.6899"  stroke-width="3" stroke-miterlimit="10" stroke-linejoin="round"/>
<path d="M35.7401 34.2397L45.4101 43.9097C46.5101 45.0097 46.5101 46.7897 45.4101 47.8897C44.3101 48.9897 42.5301 48.9897 41.4301 47.8897L32.5601 39.0197"  stroke-width="3" stroke-miterlimit="10" stroke-linejoin="round"/>
<path d="M30.94 37.4399L38.96 45.4599C40.06 46.5599 40.06 48.3399 38.96 49.4399C37.86 50.5399 36.08 50.5399 34.98 49.4399L27.76 42.2199"  stroke-width="3" stroke-miterlimit="10" stroke-linejoin="round"/>
<path d="M26.5899 41.0898L32.5099 47.0098C33.6099 48.1098 33.6099 49.8898 32.5099 50.9898C31.4099 52.0898 29.6299 52.0898 28.5299 50.9898L25.9299 48.3898"  stroke-width="3" stroke-miterlimit="10" stroke-linejoin="round"/>
<path d="M11.85 39.6701L13.38 38.1401C14.35 37.1701 14.35 35.5901 13.38 34.6201C12.41 33.6501 10.83 33.6501 9.86004 34.6201L8.33004 36.1501C7.36004 37.1201 7.36004 38.7001 8.33004 39.6701C9.30004 40.6401 10.88 40.6401 11.85 39.6701Z"  stroke-width="3" stroke-miterlimit="10" stroke-linejoin="round"/>
<path d="M15.8901 43.7101L17.4201 42.1801C18.3901 41.2101 18.3901 39.6301 17.4201 38.6601C16.4501 37.6901 14.8701 37.6901 13.9001 38.6601L12.3701 40.1901C11.4001 41.1601 11.4001 42.7401 12.3701 43.7101C13.3401 44.6801 14.9201 44.6801 15.8901 43.7101Z"  stroke-width="3" stroke-miterlimit="10" stroke-linejoin="round"/>
<path d="M19.9301 47.7399L21.4601 46.2099C22.4301 45.2399 22.4301 43.6599 21.4601 42.6899C20.4901 41.7199 18.9101 41.7199 17.9401 42.6899L16.4101 44.2199C15.4401 45.1899 15.4401 46.7699 16.4101 47.7399C17.3801 48.7199 18.9501 48.7199 19.9301 47.7399Z"  stroke-width="3" stroke-miterlimit="10" stroke-linejoin="round"/>
<path d="M23.9602 51.7799L25.4901 50.2499C26.4601 49.2799 26.4601 47.6999 25.4901 46.7299C24.5201 45.7599 22.9401 45.7599 21.9701 46.7299L20.4401 48.2599C19.4701 49.2299 19.4701 50.8099 20.4401 51.7799C21.4201 52.7499 22.9902 52.7499 23.9602 51.7799Z"  stroke-width="3" stroke-miterlimit="10" stroke-linejoin="round"/>
</svg>
