<svg width="40" height="40" viewBox="0 0 40 40" fill="none" xmlns="http://www.w3.org/2000/svg">
<path d="M29.9001 23.9998H38.0001V11.9998H34.4101C34.1401 11.9998 33.8901 11.8898 33.7001 11.7098L31.2901 9.29977C31.1001 9.10977 30.8501 9.00977 30.5801 9.00977H21.0001L13.5201 15.2698C12.3701 16.1598 13.0001 17.9998 14.4601 17.9998H15.9001C17.2601 17.9998 18.5801 17.5398 19.6501 16.6898L21.2801 15.2998L23.5401 17.5498C24.4801 18.4798 25.7401 19.0098 27.0701 19.0098H31.0001"  stroke-width="2" stroke-miterlimit="10" stroke-linejoin="round"/>
<path d="M5 11.9998H6.59C6.86 11.9998 7.11 11.8898 7.3 11.7098L9.71 9.29977C9.9 9.10977 10.15 9.00977 10.42 9.00977H18H23"  stroke-width="2" stroke-miterlimit="10" stroke-linejoin="round"/>
<path d="M5 24H2V15"  stroke-width="2" stroke-miterlimit="10" stroke-linejoin="round"/>
<path d="M22.8499 21.8902L27.4099 26.4502C28.0999 27.1402 29.2099 27.1402 29.8999 26.4502C30.5899 25.7602 30.5899 24.6502 29.8999 23.9602L22.6199 16.6802"  stroke-width="2" stroke-miterlimit="10" stroke-linejoin="round"/>
<path d="M22.3399 21.4004L28.3799 27.4404C29.0699 28.1304 29.0699 29.2404 28.3799 29.9304C27.6899 30.6204 26.5799 30.6204 25.8899 29.9304L20.3499 24.3904"  stroke-width="2" stroke-miterlimit="10" stroke-linejoin="round"/>
<path d="M19.3399 23.4004L24.3499 28.4104C25.0399 29.1004 25.0399 30.2104 24.3499 30.9004C23.6599 31.5904 22.5499 31.5904 21.8599 30.9004L17.3499 26.3904"  stroke-width="2" stroke-miterlimit="10" stroke-linejoin="round"/>
<path d="M16.62 25.6802L20.32 29.3802C21.01 30.0702 21.01 31.1802 20.32 31.8702C19.63 32.5602 18.52 32.5602 17.83 31.8702L16.2 30.2402"  stroke-width="2" stroke-miterlimit="10" stroke-linejoin="round"/>
<path d="M7.40995 24.7901L8.35994 23.8401C8.96994 23.2301 8.96994 22.2501 8.35994 21.6401C7.74994 21.0301 6.76995 21.0301 6.15995 21.6401L5.20994 22.5901C4.59994 23.2001 4.59994 24.1801 5.20994 24.7901C5.80994 25.4001 6.79995 25.4001 7.40995 24.7901Z"  stroke-width="2" stroke-miterlimit="10" stroke-linejoin="round"/>
<path d="M9.92996 27.3199L10.88 26.3699C11.49 25.7599 11.49 24.7799 10.88 24.1699C10.27 23.5599 9.28996 23.5599 8.67996 24.1699L7.72996 25.1199C7.11996 25.7299 7.11996 26.7099 7.72996 27.3199C8.33996 27.9199 9.31996 27.9199 9.92996 27.3199Z"  stroke-width="2" stroke-miterlimit="10" stroke-linejoin="round"/>
<path d="M12.45 29.8399L13.4 28.8899C14.01 28.2799 14.01 27.2999 13.4 26.6899C12.79 26.0799 11.81 26.0799 11.2 26.6899L10.25 27.6399C9.63998 28.2499 9.63998 29.2299 10.25 29.8399C10.86 30.4499 11.85 30.4499 12.45 29.8399Z"  stroke-width="2" stroke-miterlimit="10" stroke-linejoin="round"/>
<path d="M14.98 32.3599L15.93 31.4099C16.54 30.7999 16.54 29.8199 15.93 29.2099C15.32 28.5999 14.34 28.5999 13.73 29.2099L12.78 30.1599C12.17 30.7699 12.17 31.7499 12.78 32.3599C13.39 32.9699 14.37 32.9699 14.98 32.3599Z"  stroke-width="2" stroke-miterlimit="10" stroke-linejoin="round"/>
</svg>
