<svg width="24" height="24" viewBox="0 0 24 24" fill="none" xmlns="http://www.w3.org/2000/svg">
<path d="M3 15H1V7H3.95L6.25 5H10.8H14"  stroke-width="2" stroke-miterlimit="10" stroke-linejoin="round"/>
<path d="M16.06 13.41L19.04 16.39C19.49 16.84 20.22 16.84 20.67 16.39C21.12 15.94 21.12 15.21 20.67 14.76L14 8L12 10H10.22C9.36 10 8.9 8.98 9.47 8.34L12.42 5H18.35L20.65 7H23V14H20"  stroke-width="2" stroke-miterlimit="10" stroke-linejoin="round"/>
<path d="M15.7299 13.0898L19.6699 17.0298C20.1199 17.4798 20.1199 18.2098 19.6699 18.6598C19.2199 19.1098 18.4899 19.1098 18.0399 18.6598L14.4199 15.0398"  stroke-width="2" stroke-miterlimit="10" stroke-linejoin="round"/>
<path d="M13.77 14.3901L17.04 17.6601C17.49 18.1101 17.49 18.8401 17.04 19.2901C16.59 19.7401 15.86 19.7401 15.41 19.2901L12.46 16.3401"  stroke-width="2" stroke-miterlimit="10" stroke-linejoin="round"/>
<path d="M11.99 15.8799L14.4 18.2899C14.85 18.7399 14.85 19.4699 14.4 19.9199C13.95 20.3699 13.22 20.3699 12.77 19.9199L11.71 18.8599"  stroke-width="2" stroke-miterlimit="10" stroke-linejoin="round"/>
<path d="M5.46002 15.4398L6.16002 14.7398C6.60002 14.2998 6.60002 13.5698 6.16002 13.1298C5.72002 12.6898 4.99002 12.6898 4.55002 13.1298L3.85002 13.8298C3.41002 14.2698 3.41002 14.9998 3.85002 15.4398C4.30002 15.8898 5.02002 15.8898 5.46002 15.4398Z"  stroke-width="2" stroke-miterlimit="10" stroke-linejoin="round"/>
<path d="M7.31012 17.2899L8.01011 16.5899C8.45011 16.1499 8.45011 15.4199 8.01011 14.9799C7.57011 14.5399 6.84012 14.5399 6.40012 14.9799L5.70012 15.6799C5.26012 16.1199 5.26012 16.8499 5.70012 17.2899C6.15012 17.7299 6.87012 17.7299 7.31012 17.2899Z"  stroke-width="2" stroke-miterlimit="10" stroke-linejoin="round"/>
<path d="M9.15997 19.14L9.85997 18.44C10.3 18 10.3 17.27 9.85997 16.83C9.41997 16.39 8.68997 16.39 8.24997 16.83L7.54997 17.53C7.10997 17.97 7.10997 18.7 7.54997 19.14C7.99997 19.58 8.71997 19.58 9.15997 19.14Z"  stroke-width="2" stroke-miterlimit="10" stroke-linejoin="round"/>
<path d="M11.0101 20.9896L11.7101 20.2896C12.1501 19.8496 12.1501 19.1196 11.7101 18.6796C11.2701 18.2396 10.5401 18.2396 10.1001 18.6796L9.40007 19.3796C8.96007 19.8196 8.96007 20.5496 9.40007 20.9896C9.85007 21.4296 10.5701 21.4296 11.0101 20.9896Z"  stroke-width="2" stroke-miterlimit="10" stroke-linejoin="round"/>
</svg>
