<svg width="72" height="72" viewBox="0 0 72 72" fill="none" xmlns="http://www.w3.org/2000/svg">
<path d="M55.0001 43.5002H68.5001V22.5002H62.2501C61.7701 22.5002 61.3101 22.3102 60.9801 21.9702L56.0301 17.0202C55.6901 16.6802 55.2301 16.4902 54.7601 16.4902H38.5901L25.5001 27.4502C23.4901 29.0102 24.5901 32.2402 27.1401 32.2402C27.1401 32.2402 32.2801 32.6502 34.1901 31.1202L39.3001 27.7102L43.3701 31.7602C45.0601 33.4402 49.7201 34.4902 49.7201 34.4902H57.0001"  stroke-width="3" stroke-miterlimit="10" stroke-linejoin="round"/>
<path d="M7 22.5002H11.48C11.96 22.5002 12.42 22.3102 12.75 21.9702L17.7 17.0202C18.04 16.6802 18.5 16.4902 18.97 16.4902H34.22H44"  stroke-width="3" stroke-miterlimit="10" stroke-linejoin="round"/>
<path d="M10 43.5H3.5V27"  stroke-width="3" stroke-miterlimit="10" stroke-linejoin="round"/>
<path d="M42.12 39.4L50.34 47.62C51.58 48.86 53.58 48.86 54.82 47.62C56.06 46.38 56.06 44.38 54.82 43.14L41.72 30.04"  stroke-width="3" stroke-miterlimit="10" stroke-linejoin="round"/>
<path d="M41.1999 38.5103L52.0699 49.3803C53.3099 50.6203 53.3099 52.6203 52.0699 53.8603C50.8299 55.1003 48.8299 55.1003 47.5899 53.8603L37.6199 43.8903"  stroke-width="3" stroke-miterlimit="10" stroke-linejoin="round"/>
<path d="M35.8 42.1099L44.82 51.1299C46.06 52.3699 46.06 54.3699 44.82 55.6099C43.58 56.8499 41.58 56.8499 40.34 55.6099L32.22 47.4899"  stroke-width="3" stroke-miterlimit="10" stroke-linejoin="round"/>
<path d="M30.9199 46.23L37.5799 52.89C38.8199 54.13 38.8199 56.13 37.5799 57.37C36.3399 58.61 34.3399 58.61 33.0999 57.37L30.1699 54.44"  stroke-width="3" stroke-miterlimit="10" stroke-linejoin="round"/>
<path d="M14.33 44.6298L16.05 42.9098C17.14 41.8198 17.14 40.0498 16.05 38.9498C14.96 37.8598 13.19 37.8598 12.09 38.9498L10.37 40.6698C9.27999 41.7598 9.27999 43.5298 10.37 44.6298C11.47 45.7198 13.24 45.7198 14.33 44.6298Z"  stroke-width="3" stroke-miterlimit="10" stroke-linejoin="round"/>
<path d="M18.87 49.1699L20.59 47.4499C21.68 46.3599 21.68 44.5899 20.59 43.4899C19.5 42.3999 17.73 42.3999 16.63 43.4899L14.91 45.2099C13.82 46.2999 13.82 48.0699 14.91 49.1699C16.01 50.2599 17.78 50.2599 18.87 49.1699Z"  stroke-width="3" stroke-miterlimit="10" stroke-linejoin="round"/>
<path d="M23.4201 53.7099L25.1401 51.9899C26.2301 50.8999 26.2301 49.1299 25.1401 48.0299C24.0501 46.9399 22.2801 46.9399 21.1801 48.0299L19.4601 49.7499C18.3701 50.8399 18.3701 52.6099 19.4601 53.7099C20.5501 54.8099 22.3201 54.8099 23.4201 53.7099Z"  stroke-width="3" stroke-miterlimit="10" stroke-linejoin="round"/>
<path d="M27.9601 58.2597L29.6801 56.5397C30.7701 55.4497 30.7701 53.6797 29.6801 52.5797C28.5901 51.4897 26.8201 51.4897 25.7201 52.5797L24.0001 54.2997C22.9101 55.3897 22.9101 57.1597 24.0001 58.2597C25.0901 59.3497 26.8701 59.3497 27.9601 58.2597Z"  stroke-width="3" stroke-miterlimit="10" stroke-linejoin="round"/>
</svg>
