<svg width="32" height="32" viewBox="0 0 32 32" fill="none" xmlns="http://www.w3.org/2000/svg">
<path d="M23.9999 19H29.9999V9H27.5299L24.4699 7H16.6999L11.4599 11.76C10.5899 12.55 11.1499 14 12.3199 14H14.2399C14.7199 14 15.1899 13.82 15.5599 13.51L17.0099 12.24L19.4199 14.47C19.7899 14.81 20.2799 15 20.7799 15H24.9999"  stroke-width="2" stroke-miterlimit="10" stroke-linejoin="round"/>
<path d="M4 9H5.27L8.33 7H14.4H18"  stroke-width="2" stroke-miterlimit="10" stroke-linejoin="round"/>
<path d="M4 19H2V12"  stroke-width="2" stroke-miterlimit="10" stroke-linejoin="round"/>
<path d="M18.2799 17.5101L21.9299 21.1601C22.4799 21.7101 23.3699 21.7101 23.9199 21.1601C24.4699 20.6101 24.4699 19.7201 23.9199 19.1701L18.0999 13.3501"  stroke-width="2" stroke-miterlimit="10" stroke-linejoin="round"/>
<path d="M17.87 17.1201L22.7 21.9501C23.25 22.5001 23.25 23.3901 22.7 23.9401C22.15 24.4901 21.26 24.4901 20.71 23.9401L16.28 19.5101"  stroke-width="2" stroke-miterlimit="10" stroke-linejoin="round"/>
<path d="M15.4699 18.7202L19.4799 22.7302C20.0299 23.2802 20.0299 24.1702 19.4799 24.7202C18.9299 25.2702 18.0399 25.2702 17.4899 24.7202L13.8799 21.1102"  stroke-width="2" stroke-miterlimit="10" stroke-linejoin="round"/>
<path d="M13.3 20.5503L16.26 23.5103C16.81 24.0603 16.81 24.9503 16.26 25.5003C15.71 26.0503 14.82 26.0503 14.27 25.5003L12.97 24.2003"  stroke-width="2" stroke-miterlimit="10" stroke-linejoin="round"/>
<path d="M5.91998 19.8299L6.67998 19.0699C7.16998 18.5799 7.16998 17.7999 6.67998 17.3099C6.18998 16.8199 5.40998 16.8199 4.91998 17.3099L4.15998 18.0699C3.66998 18.5599 3.66998 19.3399 4.15998 19.8299C4.64998 20.3199 5.43998 20.3199 5.91998 19.8299Z"  stroke-width="2" stroke-miterlimit="10" stroke-linejoin="round"/>
<path d="M7.94 21.8499L8.7 21.0899C9.19 20.5999 9.19 19.8199 8.7 19.3299C8.21 18.8399 7.43 18.8399 6.94 19.3299L6.18 20.0899C5.69 20.5799 5.69 21.3599 6.18 21.8499C6.67 22.3399 7.46 22.3399 7.94 21.8499Z"  stroke-width="2" stroke-miterlimit="10" stroke-linejoin="round"/>
<path d="M9.96002 23.8699L10.72 23.1099C11.21 22.6199 11.21 21.8399 10.72 21.3499C10.23 20.8599 9.45002 20.8599 8.96002 21.3499L8.20002 22.1099C7.71002 22.5999 7.71002 23.3799 8.20002 23.8699C8.69002 24.3599 9.48002 24.3599 9.96002 23.8699Z"  stroke-width="2" stroke-miterlimit="10" stroke-linejoin="round"/>
<path d="M11.98 25.8899L12.74 25.1299C13.23 24.6399 13.23 23.8599 12.74 23.3699C12.25 22.8799 11.47 22.8799 10.98 23.3699L10.22 24.1299C9.73004 24.6199 9.73004 25.3999 10.22 25.8899C10.71 26.3799 11.5 26.3799 11.98 25.8899Z"  stroke-width="2" stroke-miterlimit="10" stroke-linejoin="round"/>
</svg>
